# MagicaVoxel @ Ephtracy

# group
o 

# material
mtllib floorWater-0.mtl
usemtl palette

# normals
vn -1 0 0
vn 1 0 0
vn 0 0 1
vn 0 0 -1
vn 0 -1 0
vn 0 1 0

# texcoords
vt 0.814453 0.5
vt 0.818359 0.5
vt 0.876953 0.5
vt 0.939453 0.5

# verts
v -0.8 0.7 0.8
v -0.8 0.7 0.7
v -0.8 0.7 0.6
v -0.8 0.7 -0.8
v -0.8 0.8 0.8
v -0.8 0.8 0.7
v -0.8 0.8 0.6
v -0.8 0.8 -0.8
v 0.8 0.7 0.8
v 0.8 0.7 -0.8
v 0.8 0.8 0.8
v 0.8 0.8 -0.8
v -0.8 0.7 0.8
v -0.8 0.8 0.8
v -0.3 0.7 0.8
v -0.3 0.8 0.8
v -0.2 0.7 0.8
v -0.2 0.8 0.8
v 0.4 0.7 0.8
v 0.4 0.8 0.8
v 0.6 0.7 0.8
v 0.6 0.8 0.8
v 0.8 0.7 0.8
v 0.8 0.8 0.8
v -0.8 0.7 -0.8
v -0.8 0.8 -0.8
v 0.8 0.7 -0.8
v 0.8 0.8 -0.8
v -0.8 0.7 0.8
v -0.3 0.7 0.8
v -0.2 0.7 0.8
v 0.4 0.7 0.8
v 0.6 0.7 0.8
v 0.8 0.7 0.8
v -0.8 0.7 0.7
v -0.6 0.7 0.7
v -0.5 0.7 0.7
v -0.4 0.7 0.7
v -0.3 0.7 0.7
v -0.2 0.7 0.7
v -0.1 0.7 0.7
v 0.3 0.7 0.7
v 0.4 0.7 0.7
v 0.5 0.7 0.7
v 0.6 0.7 0.7
v -0.8 0.7 0.6
v -0.6 0.7 0.6
v -0.5 0.7 0.6
v -0.4 0.7 0.6
v -0.3 0.7 0.6
v -0.2 0.7 0.6
v -0.1 0.7 0.6
v 0 0.7 0.6
v 0.1 0.7 0.6
v 0.3 0.7 0.6
v 0.5 0.7 0.6
v -0.7 0.7 0.5
v -0.6 0.7 0.5
v -0.5 0.7 0.5
v -0.3 0.7 0.5
v -0.2 0.7 0.5
v -0.1 0.7 0.5
v 0 0.7 0.5
v 0.1 0.7 0.5
v -0.5 0.7 0.4
v -0.4 0.7 0.4
v -0.2 0.7 0.4
v -0.1 0.7 0.4
v 0 0.7 0.4
v -0.6 0.7 0.3
v -0.5 0.7 0.3
v -0.4 0.7 0.3
v -0.3 0.7 0.3
v -0.2 0.7 0.3
v -0.1 0.7 0.3
v 0.1 0.7 0.3
v 0.2 0.7 0.3
v -0.7 0.7 0.2
v -0.5 0.7 0.2
v -0.4 0.7 0.2
v -0.1 0.7 0.2
v 0 0.7 0.2
v 0.1 0.7 0.2
v 0.2 0.7 0.2
v 0.4 0.7 0.2
v -0.6 0.7 0.1
v -0.5 0.7 0.1
v -0.4 0.7 0.1
v -0.3 0.7 0.1
v -0.2 0.7 0.1
v -0.1 0.7 0.1
v 0 0.7 0.1
v 0.1 0.7 0.1
v 0.2 0.7 0.1
v 0.4 0.7 0.1
v 0.6 0.7 0.1
v -0.6 0.7 0
v -0.5 0.7 0
v -0.4 0.7 0
v -0.3 0.7 0
v -0.2 0.7 0
v 0 0.7 0
v 0.1 0.7 0
v 0.4 0.7 0
v 0.6 0.7 0
v -0.3 0.7 -0.1
v -0.2 0.7 -0.1
v -0.5 0.7 -0.2
v -0.4 0.7 -0.2
v 0 0.7 -0.2
v 0.1 0.7 -0.2
v -0.6 0.7 -0.3
v -0.5 0.7 -0.3
v 0.1 0.7 -0.3
v 0.2 0.7 -0.3
v -0.5 0.7 -0.4
v -0.4 0.7 -0.4
v 0 0.7 -0.4
v 0.1 0.7 -0.4
v 0.5 0.7 -0.4
v 0.6 0.7 -0.4
v -0.7 0.7 -0.5
v -0.6 0.7 -0.5
v -0.3 0.7 -0.5
v -0.1 0.7 -0.5
v 0.6 0.7 -0.5
v 0.7 0.7 -0.5
v -0.6 0.7 -0.6
v -0.5 0.7 -0.6
v -0.2 0.7 -0.6
v -0.1 0.7 -0.6
v 0.1 0.7 -0.6
v 0.2 0.7 -0.6
v 0.5 0.7 -0.6
v 0.7 0.7 -0.6
v -0.7 0.7 -0.7
v -0.6 0.7 -0.7
v -0.3 0.7 -0.7
v -0.2 0.7 -0.7
v -0.8 0.7 -0.8
v 0.8 0.7 -0.8
v -0.8 0.8 0.8
v -0.3 0.8 0.8
v -0.2 0.8 0.8
v 0.4 0.8 0.8
v 0.6 0.8 0.8
v 0.8 0.8 0.8
v -0.8 0.8 0.7
v -0.6 0.8 0.7
v -0.5 0.8 0.7
v -0.4 0.8 0.7
v -0.3 0.8 0.7
v -0.2 0.8 0.7
v -0.1 0.8 0.7
v 0.3 0.8 0.7
v 0.4 0.8 0.7
v 0.5 0.8 0.7
v 0.6 0.8 0.7
v -0.8 0.8 0.6
v -0.6 0.8 0.6
v -0.5 0.8 0.6
v -0.4 0.8 0.6
v -0.3 0.8 0.6
v -0.2 0.8 0.6
v -0.1 0.8 0.6
v 0 0.8 0.6
v 0.1 0.8 0.6
v 0.3 0.8 0.6
v 0.5 0.8 0.6
v -0.7 0.8 0.5
v -0.6 0.8 0.5
v -0.5 0.8 0.5
v -0.3 0.8 0.5
v -0.2 0.8 0.5
v -0.1 0.8 0.5
v 0 0.8 0.5
v 0.1 0.8 0.5
v -0.5 0.8 0.4
v -0.4 0.8 0.4
v -0.2 0.8 0.4
v -0.1 0.8 0.4
v 0 0.8 0.4
v -0.6 0.8 0.3
v -0.5 0.8 0.3
v -0.4 0.8 0.3
v -0.3 0.8 0.3
v -0.2 0.8 0.3
v -0.1 0.8 0.3
v 0.1 0.8 0.3
v 0.2 0.8 0.3
v -0.7 0.8 0.2
v -0.5 0.8 0.2
v -0.4 0.8 0.2
v -0.1 0.8 0.2
v 0 0.8 0.2
v 0.1 0.8 0.2
v 0.2 0.8 0.2
v 0.4 0.8 0.2
v -0.6 0.8 0.1
v -0.5 0.8 0.1
v -0.4 0.8 0.1
v -0.3 0.8 0.1
v -0.2 0.8 0.1
v -0.1 0.8 0.1
v 0 0.8 0.1
v 0.1 0.8 0.1
v 0.2 0.8 0.1
v 0.4 0.8 0.1
v 0.6 0.8 0.1
v -0.6 0.8 0
v -0.5 0.8 0
v -0.4 0.8 0
v -0.3 0.8 0
v -0.2 0.8 0
v 0 0.8 0
v 0.1 0.8 0
v 0.4 0.8 0
v 0.6 0.8 0
v -0.3 0.8 -0.1
v -0.2 0.8 -0.1
v -0.5 0.8 -0.2
v -0.4 0.8 -0.2
v 0 0.8 -0.2
v 0.1 0.8 -0.2
v -0.6 0.8 -0.3
v -0.5 0.8 -0.3
v 0.1 0.8 -0.3
v 0.2 0.8 -0.3
v -0.5 0.8 -0.4
v -0.4 0.8 -0.4
v 0 0.8 -0.4
v 0.1 0.8 -0.4
v 0.5 0.8 -0.4
v 0.6 0.8 -0.4
v -0.7 0.8 -0.5
v -0.6 0.8 -0.5
v -0.3 0.8 -0.5
v -0.1 0.8 -0.5
v 0.6 0.8 -0.5
v 0.7 0.8 -0.5
v -0.6 0.8 -0.6
v -0.5 0.8 -0.6
v -0.2 0.8 -0.6
v -0.1 0.8 -0.6
v 0.1 0.8 -0.6
v 0.2 0.8 -0.6
v 0.5 0.8 -0.6
v 0.7 0.8 -0.6
v -0.7 0.8 -0.7
v -0.6 0.8 -0.7
v -0.3 0.8 -0.7
v -0.2 0.8 -0.7
v -0.8 0.8 -0.8
v 0.8 0.8 -0.8

# faces
f 5/4/1 2/4/1 1/4/1
f 6/3/1 3/3/1 2/3/1
f 6/4/1 2/4/1 5/4/1
f 7/4/1 4/4/1 3/4/1
f 7/3/1 3/3/1 6/3/1
f 8/4/1 4/4/1 7/4/1
f 9/4/2 10/4/2 11/4/2
f 11/4/2 10/4/2 12/4/2
f 15/4/3 14/4/3 13/4/3
f 16/4/3 14/4/3 15/4/3
f 17/3/3 16/3/3 15/3/3
f 18/3/3 16/3/3 17/3/3
f 19/4/3 18/4/3 17/4/3
f 20/4/3 18/4/3 19/4/3
f 21/3/3 20/3/3 19/3/3
f 22/3/3 20/3/3 21/3/3
f 23/4/3 22/4/3 21/4/3
f 24/4/3 22/4/3 23/4/3
f 25/4/4 26/4/4 27/4/4
f 27/4/4 26/4/4 28/4/4
f 35/4/5 30/4/5 29/4/5
f 36/4/5 30/4/5 35/4/5
f 37/4/5 30/4/5 36/4/5
f 38/4/5 30/4/5 37/4/5
f 39/3/5 31/3/5 30/3/5
f 39/4/5 30/4/5 38/4/5
f 40/4/5 32/4/5 31/4/5
f 40/3/5 31/3/5 39/3/5
f 41/4/5 32/4/5 40/4/5
f 42/4/5 32/4/5 41/4/5
f 43/3/5 33/3/5 32/3/5
f 43/4/5 32/4/5 42/4/5
f 44/3/5 33/3/5 43/3/5
f 45/4/5 34/4/5 33/4/5
f 45/3/5 33/3/5 44/3/5
f 46/3/5 36/3/5 35/3/5
f 47/2/5 37/2/5 36/2/5
f 47/3/5 36/3/5 46/3/5
f 48/1/5 38/1/5 37/1/5
f 48/2/5 37/2/5 47/2/5
f 49/2/5 39/2/5 38/2/5
f 49/1/5 38/1/5 48/1/5
f 50/3/5 40/3/5 39/3/5
f 50/2/5 39/2/5 49/2/5
f 51/2/5 41/2/5 40/2/5
f 51/3/5 40/3/5 50/3/5
f 52/4/5 42/4/5 41/4/5
f 52/2/5 41/2/5 51/2/5
f 53/4/5 42/4/5 52/4/5
f 54/4/5 42/4/5 53/4/5
f 55/3/5 44/3/5 43/3/5
f 55/4/5 42/4/5 54/4/5
f 55/3/5 43/3/5 42/3/5
f 56/4/5 45/4/5 44/4/5
f 56/3/5 44/3/5 55/3/5
f 57/4/5 47/4/5 46/4/5
f 58/1/5 48/1/5 47/1/5
f 58/4/5 47/4/5 57/4/5
f 58/1/5 51/1/5 50/1/5
f 58/1/5 49/1/5 48/1/5
f 58/1/5 50/1/5 49/1/5
f 59/1/5 51/1/5 58/1/5
f 60/1/5 51/1/5 59/1/5
f 61/4/5 52/4/5 51/4/5
f 61/1/5 51/1/5 60/1/5
f 61/4/5 53/4/5 52/4/5
f 62/4/5 53/4/5 61/4/5
f 63/3/5 54/3/5 53/3/5
f 63/4/5 53/4/5 62/4/5
f 64/4/5 56/4/5 55/4/5
f 64/3/5 54/3/5 63/3/5
f 64/4/5 55/4/5 54/4/5
f 65/2/5 60/2/5 59/2/5
f 65/1/5 59/1/5 58/1/5
f 66/2/5 60/2/5 65/2/5
f 67/2/5 62/2/5 61/2/5
f 67/1/5 61/1/5 60/1/5
f 68/3/5 63/3/5 62/3/5
f 68/2/5 62/2/5 67/2/5
f 69/4/5 64/4/5 63/4/5
f 69/3/5 63/3/5 68/3/5
f 70/1/5 66/1/5 65/1/5
f 70/2/5 58/2/5 57/2/5
f 70/1/5 65/1/5 58/1/5
f 71/1/5 66/1/5 70/1/5
f 72/2/5 60/2/5 66/2/5
f 72/1/5 66/1/5 71/1/5
f 73/1/5 67/1/5 60/1/5
f 73/2/5 60/2/5 72/2/5
f 73/1/5 68/1/5 67/1/5
f 74/1/5 68/1/5 73/1/5
f 75/4/5 69/4/5 68/4/5
f 75/1/5 68/1/5 74/1/5
f 76/4/5 56/4/5 64/4/5
f 76/4/5 69/4/5 75/4/5
f 76/4/5 64/4/5 69/4/5
f 77/4/5 56/4/5 76/4/5
f 78/2/5 71/2/5 70/2/5
f 78/4/5 57/4/5 46/4/5
f 78/2/5 70/2/5 57/2/5
f 79/1/5 72/1/5 71/1/5
f 79/2/5 71/2/5 78/2/5
f 79/1/5 73/1/5 72/1/5
f 79/1/5 74/1/5 73/1/5
f 80/1/5 74/1/5 79/1/5
f 81/2/5 75/2/5 74/2/5
f 81/4/5 76/4/5 75/4/5
f 82/4/5 76/4/5 81/4/5
f 83/3/5 77/3/5 76/3/5
f 83/4/5 76/4/5 82/4/5
f 84/4/5 56/4/5 77/4/5
f 84/3/5 77/3/5 83/3/5
f 85/4/5 56/4/5 84/4/5
f 86/4/5 79/4/5 78/4/5
f 87/2/5 80/2/5 79/2/5
f 87/4/5 79/4/5 86/4/5
f 88/1/5 74/1/5 80/1/5
f 88/2/5 80/2/5 87/2/5
f 89/1/5 74/1/5 88/1/5
f 90/2/5 81/2/5 74/2/5
f 90/1/5 74/1/5 89/1/5
f 91/1/5 82/1/5 81/1/5
f 91/2/5 81/2/5 90/2/5
f 92/4/5 83/4/5 82/4/5
f 92/1/5 82/1/5 91/1/5
f 92/4/5 84/4/5 83/4/5
f 93/4/5 84/4/5 92/4/5
f 94/3/5 85/3/5 84/3/5
f 94/4/5 84/4/5 93/4/5
f 95/4/5 56/4/5 85/4/5
f 95/3/5 85/3/5 94/3/5
f 96/4/5 45/4/5 56/4/5
f 96/4/5 56/4/5 95/4/5
f 96/4/5 34/4/5 45/4/5
f 97/2/5 87/2/5 86/2/5
f 97/4/5 86/4/5 78/4/5
f 98/1/5 88/1/5 87/1/5
f 98/2/5 87/2/5 97/2/5
f 99/2/5 89/2/5 88/2/5
f 99/1/5 88/1/5 98/1/5
f 100/3/5 90/3/5 89/3/5
f 100/2/5 89/2/5 99/2/5
f 101/4/5 91/4/5 90/4/5
f 101/3/5 90/3/5 100/3/5
f 101/4/5 92/4/5 91/4/5
f 102/3/5 93/3/5 92/3/5
f 102/4/5 92/4/5 101/4/5
f 103/4/5 95/4/5 94/4/5
f 103/3/5 93/3/5 102/3/5
f 103/4/5 94/4/5 93/4/5
f 104/3/5 96/3/5 95/3/5
f 104/4/5 95/4/5 103/4/5
f 105/4/5 34/4/5 96/4/5
f 105/3/5 96/3/5 104/3/5
f 106/4/5 100/4/5 99/4/5
f 106/4/5 99/4/5 98/4/5
f 106/2/5 101/2/5 100/2/5
f 106/4/5 98/4/5 97/4/5
f 107/4/5 102/4/5 101/4/5
f 107/2/5 101/2/5 106/2/5
f 107/4/5 105/4/5 104/4/5
f 107/4/5 103/4/5 102/4/5
f 107/4/5 104/4/5 103/4/5
f 108/4/5 106/4/5 97/4/5
f 108/4/5 107/4/5 106/4/5
f 109/4/5 107/4/5 108/4/5
f 110/4/5 105/4/5 107/4/5
f 110/4/5 107/4/5 109/4/5
f 111/4/5 105/4/5 110/4/5
f 112/4/5 97/4/5 78/4/5
f 112/4/5 108/4/5 97/4/5
f 113/3/5 109/3/5 108/3/5
f 113/4/5 108/4/5 112/4/5
f 114/4/5 105/4/5 111/4/5
f 114/3/5 111/3/5 110/3/5
f 115/4/5 105/4/5 114/4/5
f 116/3/5 109/3/5 113/3/5
f 116/3/5 113/3/5 112/3/5
f 117/4/5 110/4/5 109/4/5
f 117/3/5 109/3/5 116/3/5
f 118/3/5 115/3/5 114/3/5
f 118/4/5 110/4/5 117/4/5
f 118/3/5 114/3/5 110/3/5
f 119/3/5 115/3/5 118/3/5
f 120/4/5 105/4/5 115/4/5
f 121/4/5 34/4/5 105/4/5
f 121/4/5 105/4/5 120/4/5
f 122/4/5 112/4/5 78/4/5
f 122/4/5 78/4/5 46/4/5
f 123/3/5 116/3/5 112/3/5
f 123/4/5 112/4/5 122/4/5
f 124/4/5 117/4/5 116/4/5
f 124/4/5 118/4/5 117/4/5
f 124/4/5 119/4/5 118/4/5
f 125/4/5 119/4/5 124/4/5
f 126/4/5 34/4/5 121/4/5
f 126/3/5 121/3/5 120/3/5
f 127/4/5 34/4/5 126/4/5
f 128/3/5 116/3/5 123/3/5
f 128/3/5 123/3/5 122/3/5
f 129/4/5 124/4/5 116/4/5
f 129/3/5 116/3/5 128/3/5
f 130/3/5 125/3/5 124/3/5
f 131/4/5 119/4/5 125/4/5
f 131/3/5 125/3/5 130/3/5
f 132/3/5 115/3/5 119/3/5
f 132/4/5 119/4/5 131/4/5
f 133/4/5 120/4/5 115/4/5
f 133/3/5 115/3/5 132/3/5
f 134/3/5 127/3/5 126/3/5
f 134/4/5 120/4/5 133/4/5
f 134/3/5 126/3/5 120/3/5
f 135/4/5 34/4/5 127/4/5
f 135/3/5 127/3/5 134/3/5
f 136/4/5 122/4/5 46/4/5
f 136/3/5 128/3/5 122/3/5
f 137/4/5 129/4/5 128/4/5
f 137/3/5 128/3/5 136/3/5
f 138/3/5 130/3/5 124/3/5
f 138/4/5 129/4/5 137/4/5
f 138/4/5 124/4/5 129/4/5
f 139/4/5 132/4/5 131/4/5
f 139/3/5 130/3/5 138/3/5
f 139/4/5 131/4/5 130/4/5
f 139/4/5 135/4/5 134/4/5
f 139/4/5 133/4/5 132/4/5
f 139/4/5 134/4/5 133/4/5
f 140/4/5 138/4/5 137/4/5
f 140/4/5 137/4/5 136/4/5
f 140/4/5 139/4/5 138/4/5
f 140/4/5 136/4/5 46/4/5
f 141/4/5 135/4/5 139/4/5
f 141/4/5 139/4/5 140/4/5
f 141/4/5 34/4/5 135/4/5
f 142/4/6 143/4/6 148/4/6
f 148/4/6 143/4/6 149/4/6
f 149/4/6 143/4/6 150/4/6
f 150/4/6 143/4/6 151/4/6
f 143/3/6 144/3/6 152/3/6
f 151/4/6 143/4/6 152/4/6
f 144/4/6 145/4/6 153/4/6
f 152/3/6 144/3/6 153/3/6
f 153/4/6 145/4/6 154/4/6
f 154/4/6 145/4/6 155/4/6
f 145/3/6 146/3/6 156/3/6
f 155/4/6 145/4/6 156/4/6
f 156/3/6 146/3/6 157/3/6
f 146/4/6 147/4/6 158/4/6
f 157/3/6 146/3/6 158/3/6
f 148/3/6 149/3/6 159/3/6
f 149/2/6 150/2/6 160/2/6
f 159/3/6 149/3/6 160/3/6
f 150/1/6 151/1/6 161/1/6
f 160/2/6 150/2/6 161/2/6
f 151/2/6 152/2/6 162/2/6
f 161/1/6 151/1/6 162/1/6
f 152/3/6 153/3/6 163/3/6
f 162/2/6 152/2/6 163/2/6
f 153/2/6 154/2/6 164/2/6
f 163/3/6 153/3/6 164/3/6
f 154/4/6 155/4/6 165/4/6
f 164/2/6 154/2/6 165/2/6
f 165/4/6 155/4/6 166/4/6
f 166/4/6 155/4/6 167/4/6
f 156/3/6 157/3/6 168/3/6
f 167/4/6 155/4/6 168/4/6
f 155/3/6 156/3/6 168/3/6
f 157/4/6 158/4/6 169/4/6
f 168/3/6 157/3/6 169/3/6
f 159/4/6 160/4/6 170/4/6
f 160/1/6 161/1/6 171/1/6
f 170/4/6 160/4/6 171/4/6
f 163/1/6 164/1/6 171/1/6
f 161/1/6 162/1/6 171/1/6
f 162/1/6 163/1/6 171/1/6
f 171/1/6 164/1/6 172/1/6
f 172/1/6 164/1/6 173/1/6
f 164/4/6 165/4/6 174/4/6
f 173/1/6 164/1/6 174/1/6
f 165/4/6 166/4/6 174/4/6
f 174/4/6 166/4/6 175/4/6
f 166/3/6 167/3/6 176/3/6
f 175/4/6 166/4/6 176/4/6
f 168/4/6 169/4/6 177/4/6
f 176/3/6 167/3/6 177/3/6
f 167/4/6 168/4/6 177/4/6
f 172/2/6 173/2/6 178/2/6
f 171/1/6 172/1/6 178/1/6
f 178/2/6 173/2/6 179/2/6
f 174/2/6 175/2/6 180/2/6
f 173/1/6 174/1/6 180/1/6
f 175/3/6 176/3/6 181/3/6
f 180/2/6 175/2/6 181/2/6
f 176/4/6 177/4/6 182/4/6
f 181/3/6 176/3/6 182/3/6
f 178/1/6 179/1/6 183/1/6
f 170/2/6 171/2/6 183/2/6
f 171/1/6 178/1/6 183/1/6
f 183/1/6 179/1/6 184/1/6
f 179/2/6 173/2/6 185/2/6
f 184/1/6 179/1/6 185/1/6
f 173/1/6 180/1/6 186/1/6
f 185/2/6 173/2/6 186/2/6
f 180/1/6 181/1/6 186/1/6
f 186/1/6 181/1/6 187/1/6
f 181/4/6 182/4/6 188/4/6
f 187/1/6 181/1/6 188/1/6
f 177/4/6 169/4/6 189/4/6
f 188/4/6 182/4/6 189/4/6
f 182/4/6 177/4/6 189/4/6
f 189/4/6 169/4/6 190/4/6
f 183/2/6 184/2/6 191/2/6
f 159/4/6 170/4/6 191/4/6
f 170/2/6 183/2/6 191/2/6
f 184/1/6 185/1/6 192/1/6
f 191/2/6 184/2/6 192/2/6
f 185/1/6 186/1/6 192/1/6
f 186/1/6 187/1/6 192/1/6
f 192/1/6 187/1/6 193/1/6
f 187/2/6 188/2/6 194/2/6
f 188/4/6 189/4/6 194/4/6
f 194/4/6 189/4/6 195/4/6
f 189/3/6 190/3/6 196/3/6
f 195/4/6 189/4/6 196/4/6
f 190/4/6 169/4/6 197/4/6
f 196/3/6 190/3/6 197/3/6
f 197/4/6 169/4/6 198/4/6
f 191/4/6 192/4/6 199/4/6
f 192/2/6 193/2/6 200/2/6
f 199/4/6 192/4/6 200/4/6
f 193/1/6 187/1/6 201/1/6
f 200/2/6 193/2/6 201/2/6
f 201/1/6 187/1/6 202/1/6
f 187/2/6 194/2/6 203/2/6
f 202/1/6 187/1/6 203/1/6
f 194/1/6 195/1/6 204/1/6
f 203/2/6 194/2/6 204/2/6
f 195/4/6 196/4/6 205/4/6
f 204/1/6 195/1/6 205/1/6
f 196/4/6 197/4/6 205/4/6
f 205/4/6 197/4/6 206/4/6
f 197/3/6 198/3/6 207/3/6
f 206/4/6 197/4/6 207/4/6
f 198/4/6 169/4/6 208/4/6
f 207/3/6 198/3/6 208/3/6
f 169/4/6 158/4/6 209/4/6
f 208/4/6 169/4/6 209/4/6
f 158/4/6 147/4/6 209/4/6
f 199/2/6 200/2/6 210/2/6
f 191/4/6 199/4/6 210/4/6
f 200/1/6 201/1/6 211/1/6
f 210/2/6 200/2/6 211/2/6
f 201/2/6 202/2/6 212/2/6
f 211/1/6 201/1/6 212/1/6
f 202/3/6 203/3/6 213/3/6
f 212/2/6 202/2/6 213/2/6
f 203/4/6 204/4/6 214/4/6
f 213/3/6 203/3/6 214/3/6
f 204/4/6 205/4/6 214/4/6
f 205/3/6 206/3/6 215/3/6
f 214/4/6 205/4/6 215/4/6
f 207/4/6 208/4/6 216/4/6
f 215/3/6 206/3/6 216/3/6
f 206/4/6 207/4/6 216/4/6
f 208/3/6 209/3/6 217/3/6
f 216/4/6 208/4/6 217/4/6
f 209/4/6 147/4/6 218/4/6
f 217/3/6 209/3/6 218/3/6
f 212/4/6 213/4/6 219/4/6
f 211/4/6 212/4/6 219/4/6
f 213/2/6 214/2/6 219/2/6
f 210/4/6 211/4/6 219/4/6
f 214/4/6 215/4/6 220/4/6
f 219/2/6 214/2/6 220/2/6
f 217/4/6 218/4/6 220/4/6
f 215/4/6 216/4/6 220/4/6
f 216/4/6 217/4/6 220/4/6
f 210/4/6 219/4/6 221/4/6
f 219/4/6 220/4/6 221/4/6
f 221/4/6 220/4/6 222/4/6
f 220/4/6 218/4/6 223/4/6
f 222/4/6 220/4/6 223/4/6
f 223/4/6 218/4/6 224/4/6
f 191/4/6 210/4/6 225/4/6
f 210/4/6 221/4/6 225/4/6
f 221/3/6 222/3/6 226/3/6
f 225/4/6 221/4/6 226/4/6
f 224/4/6 218/4/6 227/4/6
f 223/3/6 224/3/6 227/3/6
f 227/4/6 218/4/6 228/4/6
f 226/3/6 222/3/6 229/3/6
f 225/3/6 226/3/6 229/3/6
f 222/4/6 223/4/6 230/4/6
f 229/3/6 222/3/6 230/3/6
f 227/3/6 228/3/6 231/3/6
f 230/4/6 223/4/6 231/4/6
f 223/3/6 227/3/6 231/3/6
f 231/3/6 228/3/6 232/3/6
f 228/4/6 218/4/6 233/4/6
f 218/4/6 147/4/6 234/4/6
f 233/4/6 218/4/6 234/4/6
f 191/4/6 225/4/6 235/4/6
f 159/4/6 191/4/6 235/4/6
f 225/3/6 229/3/6 236/3/6
f 235/4/6 225/4/6 236/4/6
f 229/4/6 230/4/6 237/4/6
f 230/4/6 231/4/6 237/4/6
f 231/4/6 232/4/6 237/4/6
f 237/4/6 232/4/6 238/4/6
f 234/4/6 147/4/6 239/4/6
f 233/3/6 234/3/6 239/3/6
f 239/4/6 147/4/6 240/4/6
f 236/3/6 229/3/6 241/3/6
f 235/3/6 236/3/6 241/3/6
f 229/4/6 237/4/6 242/4/6
f 241/3/6 229/3/6 242/3/6
f 237/3/6 238/3/6 243/3/6
f 238/4/6 232/4/6 244/4/6
f 243/3/6 238/3/6 244/3/6
f 232/3/6 228/3/6 245/3/6
f 244/4/6 232/4/6 245/4/6
f 228/4/6 233/4/6 246/4/6
f 245/3/6 228/3/6 246/3/6
f 239/3/6 240/3/6 247/3/6
f 246/4/6 233/4/6 247/4/6
f 233/3/6 239/3/6 247/3/6
f 240/4/6 147/4/6 248/4/6
f 247/3/6 240/3/6 248/3/6
f 159/4/6 235/4/6 249/4/6
f 235/3/6 241/3/6 249/3/6
f 241/4/6 242/4/6 250/4/6
f 249/3/6 241/3/6 250/3/6
f 237/3/6 243/3/6 251/3/6
f 250/4/6 242/4/6 251/4/6
f 242/4/6 237/4/6 251/4/6
f 244/4/6 245/4/6 252/4/6
f 251/3/6 243/3/6 252/3/6
f 243/4/6 244/4/6 252/4/6
f 247/4/6 248/4/6 252/4/6
f 245/4/6 246/4/6 252/4/6
f 246/4/6 247/4/6 252/4/6
f 250/4/6 251/4/6 253/4/6
f 249/4/6 250/4/6 253/4/6
f 251/4/6 252/4/6 253/4/6
f 159/4/6 249/4/6 253/4/6
f 252/4/6 248/4/6 254/4/6
f 253/4/6 252/4/6 254/4/6
f 248/4/6 147/4/6 254/4/6
