# MagicaVoxel @ Ephtracy

# group
o 

# material
mtllib control_table_radar2-0.mtl
usemtl palette

# normals
vn -1 0 0
vn 1 0 0
vn 0 0 1
vn 0 0 -1
vn 0 -1 0
vn 0 1 0

# texcoords
vt 0.564453 0.5
vt 0.568359 0.5
vt 0.572266 0.5
vt 0.658203 0.5
vt 0.751953 0.5
vt 0.783203 0.5
vt 0.791016 0.5
vt 0.943359 0.5
vt 0.947266 0.5
vt 0.970703 0.5
vt 0.974609 0.5
vt 0.986328 0.5
vt 0.994141 0.5

# verts
v -0.8 -0.8 0.8
v -0.8 -0.8 0
v -0.8 -0.2 0
v -0.8 -0.2 -0.3
v -0.8 0 0.3
v -0.8 0 -0.3
v -0.8 0.7 0.4
v -0.8 0.7 0.3
v -0.8 0.8 0.8
v -0.8 0.8 0.4
v -0.3 -0.4 -0.3
v -0.3 -0.4 -0.8
v -0.3 -0.3 -0.3
v -0.3 -0.3 -0.7
v -0.3 0.2 -0.7
v -0.3 0.2 -0.8
v -0.2 -0.8 -0.4
v -0.2 -0.8 -0.5
v -0.2 -0.8 -0.7
v -0.2 -0.8 -0.8
v -0.2 -0.7 -0.4
v -0.2 -0.7 -0.5
v -0.2 -0.7 -0.7
v -0.2 -0.7 -0.8
v -0.1 -0.8 -0.5
v -0.1 -0.8 -0.7
v -0.1 -0.7 -0.5
v -0.1 -0.7 -0.7
v -0.1 -0.4 -0.5
v -0.1 -0.4 -0.7
v 0.1 -0.8 -0.4
v 0.1 -0.8 -0.5
v 0.1 -0.8 -0.7
v 0.1 -0.8 -0.8
v 0.1 -0.7 -0.4
v 0.1 -0.7 -0.5
v 0.1 -0.7 -0.7
v 0.1 -0.7 -0.8
v -0.1 -0.8 -0.4
v -0.1 -0.8 -0.5
v -0.1 -0.8 -0.7
v -0.1 -0.8 -0.8
v -0.1 -0.7 -0.4
v -0.1 -0.7 -0.5
v -0.1 -0.7 -0.7
v -0.1 -0.7 -0.8
v 0.1 -0.8 -0.5
v 0.1 -0.8 -0.7
v 0.1 -0.7 -0.5
v 0.1 -0.7 -0.7
v 0.1 -0.4 -0.5
v 0.1 -0.4 -0.7
v 0.2 -0.8 -0.4
v 0.2 -0.8 -0.5
v 0.2 -0.8 -0.7
v 0.2 -0.8 -0.8
v 0.2 -0.7 -0.4
v 0.2 -0.7 -0.5
v 0.2 -0.7 -0.7
v 0.2 -0.7 -0.8
v 0.3 -0.4 -0.3
v 0.3 -0.4 -0.8
v 0.3 -0.3 -0.3
v 0.3 -0.3 -0.7
v 0.3 0.2 -0.7
v 0.3 0.2 -0.8
v 0.8 -0.8 0.8
v 0.8 -0.8 0
v 0.8 -0.2 0
v 0.8 -0.2 -0.3
v 0.8 0 0.3
v 0.8 0 -0.3
v 0.8 0.7 0.4
v 0.8 0.7 0.3
v 0.8 0.8 0.8
v 0.8 0.8 0.4
v -0.8 -0.8 0.8
v -0.8 0.8 0.8
v 0.8 -0.8 0.8
v 0.8 0.8 0.8
v -0.3 -0.4 -0.3
v -0.3 -0.3 -0.3
v 0.3 -0.4 -0.3
v 0.3 -0.3 -0.3
v -0.2 -0.8 -0.4
v -0.2 -0.7 -0.4
v -0.1 -0.8 -0.4
v -0.1 -0.7 -0.4
v 0.1 -0.8 -0.4
v 0.1 -0.7 -0.4
v 0.2 -0.8 -0.4
v 0.2 -0.7 -0.4
v -0.1 -0.8 -0.5
v -0.1 -0.7 -0.5
v -0.1 -0.4 -0.5
v 0.1 -0.8 -0.5
v 0.1 -0.7 -0.5
v 0.1 -0.4 -0.5
v -0.3 -0.3 -0.7
v -0.3 0.2 -0.7
v -0.2 -0.8 -0.7
v -0.2 -0.7 -0.7
v -0.1 -0.8 -0.7
v -0.1 -0.7 -0.7
v 0.1 -0.8 -0.7
v 0.1 -0.7 -0.7
v 0.2 -0.8 -0.7
v 0.2 -0.7 -0.7
v 0.3 -0.3 -0.7
v 0.3 0.2 -0.7
v -0.8 0.7 0.4
v -0.8 0.8 0.4
v -0.3 0.7 0.4
v 0.4 0.7 0.4
v 0.8 0.7 0.4
v 0.8 0.8 0.4
v -0.8 0 0.3
v -0.8 0.7 0.3
v -0.7 0 0.3
v -0.7 0.1 0.3
v -0.7 0.2 0.3
v -0.7 0.3 0.3
v -0.7 0.4 0.3
v -0.7 0.5 0.3
v -0.6 0 0.3
v -0.6 0.1 0.3
v -0.6 0.2 0.3
v -0.6 0.3 0.3
v -0.6 0.4 0.3
v -0.6 0.5 0.3
v -0.5 0 0.3
v -0.5 0.1 0.3
v -0.5 0.2 0.3
v -0.5 0.3 0.3
v -0.5 0.4 0.3
v -0.4 0 0.3
v -0.4 0.1 0.3
v -0.4 0.2 0.3
v -0.4 0.3 0.3
v -0.4 0.4 0.3
v -0.4 0.5 0.3
v -0.3 0 0.3
v -0.3 0.7 0.3
v -0.2 0.1 0.3
v -0.2 0.6 0.3
v 0 0.3 0.3
v 0 0.4 0.3
v 0.1 0.3 0.3
v 0.1 0.4 0.3
v 0.1 0.5 0.3
v 0.3 0.1 0.3
v 0.3 0.3 0.3
v 0.3 0.4 0.3
v 0.3 0.5 0.3
v 0.3 0.6 0.3
v 0.4 0 0.3
v 0.4 0.7 0.3
v 0.8 0 0.3
v 0.8 0.7 0.3
v -0.8 -0.8 0
v -0.8 -0.2 0
v 0.8 -0.8 0
v 0.8 -0.2 0
v -0.8 -0.2 -0.3
v -0.8 0 -0.3
v 0.8 -0.2 -0.3
v 0.8 0 -0.3
v -0.2 -0.8 -0.5
v -0.2 -0.7 -0.5
v -0.1 -0.8 -0.5
v -0.1 -0.7 -0.5
v 0.1 -0.8 -0.5
v 0.1 -0.7 -0.5
v 0.2 -0.8 -0.5
v 0.2 -0.7 -0.5
v -0.1 -0.8 -0.7
v -0.1 -0.7 -0.7
v -0.1 -0.4 -0.7
v 0.1 -0.8 -0.7
v 0.1 -0.7 -0.7
v 0.1 -0.4 -0.7
v -0.3 -0.4 -0.8
v -0.3 0.2 -0.8
v -0.2 -0.8 -0.8
v -0.2 -0.7 -0.8
v -0.1 -0.8 -0.8
v -0.1 -0.7 -0.8
v 0.1 -0.8 -0.8
v 0.1 -0.7 -0.8
v 0.2 -0.8 -0.8
v 0.2 -0.7 -0.8
v 0.3 -0.4 -0.8
v 0.3 0.2 -0.8
v -0.8 -0.8 0.8
v 0.8 -0.8 0.8
v -0.8 -0.8 0
v 0.8 -0.8 0
v -0.2 -0.8 -0.4
v -0.1 -0.8 -0.4
v 0.1 -0.8 -0.4
v 0.2 -0.8 -0.4
v -0.2 -0.8 -0.5
v -0.1 -0.8 -0.5
v 0.1 -0.8 -0.5
v 0.2 -0.8 -0.5
v -0.2 -0.8 -0.7
v -0.1 -0.8 -0.7
v 0.1 -0.8 -0.7
v 0.2 -0.8 -0.7
v -0.2 -0.8 -0.8
v -0.1 -0.8 -0.8
v 0.1 -0.8 -0.8
v 0.2 -0.8 -0.8
v -0.3 -0.4 -0.3
v 0.3 -0.4 -0.3
v -0.1 -0.4 -0.5
v 0.1 -0.4 -0.5
v -0.1 -0.4 -0.7
v 0.1 -0.4 -0.7
v -0.3 -0.4 -0.8
v 0.3 -0.4 -0.8
v -0.8 -0.2 0
v 0.8 -0.2 0
v -0.8 -0.2 -0.3
v 0.8 -0.2 -0.3
v -0.2 -0.7 -0.4
v -0.1 -0.7 -0.4
v 0.1 -0.7 -0.4
v 0.2 -0.7 -0.4
v -0.2 -0.7 -0.5
v -0.1 -0.7 -0.5
v 0.1 -0.7 -0.5
v 0.2 -0.7 -0.5
v -0.2 -0.7 -0.7
v -0.1 -0.7 -0.7
v 0.1 -0.7 -0.7
v 0.2 -0.7 -0.7
v -0.2 -0.7 -0.8
v -0.1 -0.7 -0.8
v 0.1 -0.7 -0.8
v 0.2 -0.7 -0.8
v -0.3 -0.3 -0.3
v 0.3 -0.3 -0.3
v -0.3 -0.3 -0.7
v 0.3 -0.3 -0.7
v -0.8 0 0.3
v -0.7 0 0.3
v -0.6 0 0.3
v -0.5 0 0.3
v -0.4 0 0.3
v -0.3 0 0.3
v 0.4 0 0.3
v 0.8 0 0.3
v -0.7 0 0.1
v -0.6 0 0.1
v -0.5 0 0.1
v -0.4 0 0.1
v -0.3 0 0.1
v -0.2 0 0.1
v -0.1 0 0.1
v 0 0 0.1
v 0.1 0 0.1
v 0.2 0 0.1
v 0.3 0 0.1
v 0.4 0 0.1
v -0.7 0 0
v -0.6 0 0
v -0.5 0 0
v -0.4 0 0
v -0.3 0 0
v -0.2 0 0
v -0.1 0 0
v 0 0 0
v 0.1 0 0
v 0.2 0 0
v 0.3 0 0
v 0.4 0 0
v -0.7 0 -0.1
v -0.6 0 -0.1
v -0.5 0 -0.1
v -0.4 0 -0.1
v -0.3 0 -0.1
v -0.2 0 -0.1
v -0.1 0 -0.1
v 0 0 -0.1
v 0.1 0 -0.1
v 0.2 0 -0.1
v 0.3 0 -0.1
v 0.4 0 -0.1
v -0.7 0 -0.2
v -0.6 0 -0.2
v -0.5 0 -0.2
v -0.4 0 -0.2
v -0.3 0 -0.2
v -0.2 0 -0.2
v -0.1 0 -0.2
v 0 0 -0.2
v 0.1 0 -0.2
v 0.2 0 -0.2
v 0.3 0 -0.2
v 0.4 0 -0.2
v -0.8 0 -0.3
v 0.8 0 -0.3
v -0.3 0.2 -0.7
v 0.3 0.2 -0.7
v -0.3 0.2 -0.8
v 0.3 0.2 -0.8
v -0.8 0.7 0.4
v -0.3 0.7 0.4
v 0.4 0.7 0.4
v 0.8 0.7 0.4
v -0.8 0.7 0.3
v -0.3 0.7 0.3
v 0.4 0.7 0.3
v 0.8 0.7 0.3
v -0.8 0.8 0.8
v 0.8 0.8 0.8
v -0.8 0.8 0.4
v 0.8 0.8 0.4

# faces
f 3/13/1 2/13/1 1/13/1
f 5/13/1 3/13/1 1/13/1
f 5/13/1 4/13/1 3/13/1
f 6/13/1 4/13/1 5/13/1
f 7/13/1 5/13/1 1/13/1
f 8/13/1 5/13/1 7/13/1
f 9/13/1 7/13/1 1/13/1
f 10/13/1 7/13/1 9/13/1
f 13/6/1 12/6/1 11/6/1
f 14/6/1 12/6/1 13/6/1
f 15/6/1 12/6/1 14/6/1
f 16/6/1 12/6/1 15/6/1
f 21/12/1 18/12/1 17/12/1
f 22/12/1 18/12/1 21/12/1
f 23/12/1 20/12/1 19/12/1
f 24/12/1 20/12/1 23/12/1
f 27/12/1 26/12/1 25/12/1
f 28/12/1 26/12/1 27/12/1
f 29/8/1 28/8/1 27/8/1
f 30/8/1 28/8/1 29/8/1
f 35/12/1 32/12/1 31/12/1
f 36/12/1 32/12/1 35/12/1
f 37/12/1 34/12/1 33/12/1
f 38/12/1 34/12/1 37/12/1
f 39/12/2 40/12/2 43/12/2
f 43/12/2 40/12/2 44/12/2
f 41/12/2 42/12/2 45/12/2
f 45/12/2 42/12/2 46/12/2
f 47/12/2 48/12/2 49/12/2
f 49/12/2 48/12/2 50/12/2
f 49/8/2 50/8/2 51/8/2
f 51/8/2 50/8/2 52/8/2
f 53/12/2 54/12/2 57/12/2
f 57/12/2 54/12/2 58/12/2
f 55/12/2 56/12/2 59/12/2
f 59/12/2 56/12/2 60/12/2
f 61/6/2 62/6/2 63/6/2
f 63/6/2 62/6/2 64/6/2
f 64/6/2 62/6/2 65/6/2
f 65/6/2 62/6/2 66/6/2
f 67/13/2 68/13/2 69/13/2
f 67/13/2 69/13/2 71/13/2
f 69/13/2 70/13/2 71/13/2
f 71/13/2 70/13/2 72/13/2
f 67/13/2 71/13/2 73/13/2
f 73/13/2 71/13/2 74/13/2
f 67/13/2 73/13/2 75/13/2
f 75/13/2 73/13/2 76/13/2
f 79/13/3 78/13/3 77/13/3
f 80/13/3 78/13/3 79/13/3
f 83/6/3 82/6/3 81/6/3
f 84/6/3 82/6/3 83/6/3
f 87/12/3 86/12/3 85/12/3
f 88/12/3 86/12/3 87/12/3
f 91/12/3 90/12/3 89/12/3
f 92/12/3 90/12/3 91/12/3
f 96/12/3 94/12/3 93/12/3
f 97/8/3 95/8/3 94/8/3
f 97/12/3 94/12/3 96/12/3
f 98/8/3 95/8/3 97/8/3
f 103/12/3 102/12/3 101/12/3
f 104/12/3 102/12/3 103/12/3
f 107/12/3 106/12/3 105/12/3
f 108/12/3 106/12/3 107/12/3
f 109/6/3 100/6/3 99/6/3
f 110/6/3 100/6/3 109/6/3
f 111/13/4 112/13/4 113/13/4
f 113/13/4 112/13/4 114/13/4
f 114/13/4 112/13/4 115/13/4
f 115/13/4 112/13/4 116/13/4
f 117/13/4 118/13/4 119/13/4
f 119/13/4 118/13/4 120/13/4
f 120/13/4 118/13/4 121/13/4
f 121/13/4 118/13/4 122/13/4
f 122/13/4 118/13/4 123/13/4
f 123/13/4 118/13/4 124/13/4
f 119/1/4 120/1/4 125/1/4
f 120/2/4 121/2/4 126/2/4
f 125/1/4 120/1/4 126/1/4
f 121/3/4 122/3/4 127/3/4
f 126/2/4 121/2/4 127/2/4
f 122/2/4 123/2/4 128/2/4
f 127/3/4 122/3/4 128/3/4
f 123/11/4 124/11/4 129/11/4
f 128/2/4 123/2/4 129/2/4
f 124/13/4 118/13/4 130/13/4
f 129/11/4 124/11/4 130/11/4
f 125/3/4 126/3/4 131/3/4
f 126/11/4 127/11/4 132/11/4
f 131/3/4 126/3/4 132/3/4
f 127/3/4 128/3/4 133/3/4
f 132/11/4 127/11/4 133/11/4
f 128/1/4 129/1/4 134/1/4
f 133/3/4 128/3/4 134/3/4
f 129/1/4 130/1/4 134/1/4
f 134/1/4 130/1/4 135/1/4
f 131/11/4 132/11/4 136/11/4
f 132/1/4 133/1/4 137/1/4
f 136/11/4 132/11/4 137/11/4
f 133/2/4 134/2/4 138/2/4
f 137/1/4 133/1/4 138/1/4
f 134/11/4 135/11/4 139/11/4
f 138/2/4 134/2/4 139/2/4
f 135/1/4 130/1/4 140/1/4
f 139/11/4 135/11/4 140/11/4
f 130/13/4 118/13/4 141/13/4
f 140/1/4 130/1/4 141/1/4
f 139/13/4 140/13/4 142/13/4
f 138/13/4 139/13/4 142/13/4
f 140/13/4 141/13/4 142/13/4
f 137/13/4 138/13/4 142/13/4
f 136/13/4 137/13/4 142/13/4
f 141/13/4 118/13/4 143/13/4
f 142/13/4 141/13/4 143/13/4
f 142/8/4 143/8/4 144/8/4
f 144/8/4 143/8/4 145/8/4
f 144/7/4 145/7/4 146/7/4
f 146/7/4 145/7/4 147/7/4
f 144/7/4 146/7/4 148/7/4
f 146/4/4 147/4/4 148/4/4
f 147/7/4 145/7/4 149/7/4
f 148/4/4 147/4/4 149/4/4
f 149/7/4 145/7/4 150/7/4
f 142/8/4 144/8/4 151/8/4
f 144/7/4 148/7/4 151/7/4
f 148/5/4 149/5/4 152/5/4
f 151/7/4 148/7/4 152/7/4
f 149/4/4 150/4/4 153/4/4
f 152/5/4 149/5/4 153/5/4
f 150/7/4 145/7/4 154/7/4
f 153/4/4 150/4/4 154/4/4
f 145/8/4 143/8/4 155/8/4
f 154/7/4 145/7/4 155/7/4
f 152/8/4 153/8/4 156/8/4
f 153/8/4 154/8/4 156/8/4
f 154/8/4 155/8/4 156/8/4
f 142/8/4 151/8/4 156/8/4
f 151/8/4 152/8/4 156/8/4
f 155/8/4 143/8/4 157/8/4
f 156/8/4 155/8/4 157/8/4
f 156/13/4 157/13/4 158/13/4
f 158/13/4 157/13/4 159/13/4
f 160/13/4 161/13/4 162/13/4
f 162/13/4 161/13/4 163/13/4
f 164/13/4 165/13/4 166/13/4
f 166/13/4 165/13/4 167/13/4
f 168/12/4 169/12/4 170/12/4
f 170/12/4 169/12/4 171/12/4
f 172/12/4 173/12/4 174/12/4
f 174/12/4 173/12/4 175/12/4
f 176/12/4 177/12/4 179/12/4
f 177/8/4 178/8/4 180/8/4
f 179/12/4 177/12/4 180/12/4
f 180/8/4 178/8/4 181/8/4
f 184/12/4 185/12/4 186/12/4
f 186/12/4 185/12/4 187/12/4
f 188/12/4 189/12/4 190/12/4
f 190/12/4 189/12/4 191/12/4
f 182/6/4 183/6/4 192/6/4
f 192/6/4 183/6/4 193/6/4
f 196/13/5 195/13/5 194/13/5
f 197/13/5 195/13/5 196/13/5
f 202/12/5 199/12/5 198/12/5
f 203/12/5 199/12/5 202/12/5
f 204/12/5 201/12/5 200/12/5
f 205/12/5 201/12/5 204/12/5
f 207/12/5 204/12/5 203/12/5
f 208/12/5 204/12/5 207/12/5
f 210/12/5 207/12/5 206/12/5
f 211/12/5 207/12/5 210/12/5
f 212/12/5 209/12/5 208/12/5
f 213/12/5 209/12/5 212/12/5
f 216/6/5 215/6/5 214/6/5
f 217/6/5 215/6/5 216/6/5
f 218/6/5 216/6/5 214/6/5
f 219/6/5 215/6/5 217/6/5
f 220/6/5 218/6/5 214/6/5
f 220/6/5 219/6/5 218/6/5
f 221/6/5 215/6/5 219/6/5
f 221/6/5 219/6/5 220/6/5
f 224/13/5 223/13/5 222/13/5
f 225/13/5 223/13/5 224/13/5
f 226/12/6 227/12/6 230/12/6
f 230/12/6 227/12/6 231/12/6
f 228/12/6 229/12/6 232/12/6
f 232/12/6 229/12/6 233/12/6
f 234/12/6 235/12/6 238/12/6
f 238/12/6 235/12/6 239/12/6
f 236/12/6 237/12/6 240/12/6
f 240/12/6 237/12/6 241/12/6
f 242/6/6 243/6/6 244/6/6
f 244/6/6 243/6/6 245/6/6
f 246/13/6 247/13/6 254/13/6
f 252/13/6 253/13/6 254/13/6
f 251/13/6 252/13/6 254/13/6
f 250/13/6 251/13/6 254/13/6
f 249/13/6 250/13/6 254/13/6
f 248/13/6 249/13/6 254/13/6
f 247/13/6 248/13/6 254/13/6
f 254/13/6 253/13/6 255/13/6
f 255/13/6 253/13/6 256/13/6
f 256/13/6 253/13/6 257/13/6
f 257/13/6 253/13/6 258/13/6
f 258/13/6 253/13/6 259/13/6
f 259/13/6 253/13/6 260/13/6
f 260/13/6 253/13/6 261/13/6
f 261/13/6 253/13/6 262/13/6
f 262/13/6 253/13/6 263/13/6
f 263/13/6 253/13/6 264/13/6
f 264/13/6 253/13/6 265/13/6
f 246/13/6 254/13/6 266/13/6
f 254/12/6 255/12/6 266/12/6
f 255/10/6 256/10/6 267/10/6
f 266/12/6 255/12/6 267/12/6
f 256/8/6 257/8/6 268/8/6
f 267/10/6 256/10/6 268/10/6
f 257/13/6 258/13/6 269/13/6
f 268/8/6 257/8/6 269/8/6
f 258/9/6 259/9/6 270/9/6
f 269/13/6 258/13/6 270/13/6
f 259/10/6 260/10/6 271/10/6
f 270/9/6 259/9/6 271/9/6
f 260/8/6 261/8/6 272/8/6
f 271/10/6 260/10/6 272/10/6
f 261/10/6 262/10/6 273/10/6
f 272/8/6 261/8/6 273/8/6
f 262/12/6 263/12/6 274/12/6
f 273/10/6 262/10/6 274/10/6
f 263/8/6 264/8/6 275/8/6
f 274/12/6 263/12/6 275/12/6
f 264/10/6 265/10/6 276/10/6
f 275/8/6 264/8/6 276/8/6
f 265/13/6 253/13/6 277/13/6
f 276/10/6 265/10/6 277/10/6
f 246/13/6 266/13/6 278/13/6
f 266/8/6 267/8/6 278/8/6
f 267/8/6 268/8/6 278/8/6
f 278/8/6 268/8/6 279/8/6
f 268/12/6 269/12/6 280/12/6
f 279/8/6 268/8/6 280/8/6
f 269/13/6 270/13/6 281/13/6
f 280/12/6 269/12/6 281/12/6
f 270/8/6 271/8/6 282/8/6
f 281/13/6 270/13/6 282/13/6
f 273/9/6 274/9/6 283/9/6
f 282/8/6 271/8/6 283/8/6
f 271/9/6 272/9/6 283/9/6
f 272/9/6 273/9/6 283/9/6
f 283/9/6 274/9/6 284/9/6
f 284/9/6 274/9/6 285/9/6
f 274/8/6 275/8/6 286/8/6
f 285/9/6 274/9/6 286/9/6
f 275/10/6 276/10/6 287/10/6
f 286/8/6 275/8/6 287/8/6
f 276/8/6 277/8/6 288/8/6
f 287/10/6 276/10/6 288/10/6
f 277/13/6 253/13/6 289/13/6
f 288/8/6 277/8/6 289/8/6
f 278/10/6 279/10/6 290/10/6
f 246/13/6 278/13/6 290/13/6
f 279/9/6 280/9/6 291/9/6
f 290/10/6 279/10/6 291/10/6
f 280/10/6 281/10/6 292/10/6
f 291/9/6 280/9/6 292/9/6
f 281/13/6 282/13/6 293/13/6
f 292/10/6 281/10/6 293/10/6
f 282/10/6 283/10/6 294/10/6
f 293/13/6 282/13/6 294/13/6
f 283/12/6 284/12/6 295/12/6
f 294/10/6 283/10/6 295/10/6
f 284/10/6 285/10/6 296/10/6
f 295/12/6 284/12/6 296/12/6
f 285/8/6 286/8/6 297/8/6
f 296/10/6 285/10/6 297/10/6
f 286/9/6 287/9/6 298/9/6
f 297/8/6 286/8/6 298/8/6
f 287/10/6 288/10/6 299/10/6
f 298/9/6 287/9/6 299/9/6
f 288/12/6 289/12/6 300/12/6
f 299/10/6 288/10/6 300/10/6
f 289/13/6 253/13/6 301/13/6
f 300/12/6 289/12/6 301/12/6
f 295/13/6 296/13/6 302/13/6
f 294/13/6 295/13/6 302/13/6
f 300/13/6 301/13/6 302/13/6
f 293/13/6 294/13/6 302/13/6
f 292/13/6 293/13/6 302/13/6
f 298/13/6 299/13/6 302/13/6
f 290/13/6 291/13/6 302/13/6
f 246/13/6 290/13/6 302/13/6
f 299/13/6 300/13/6 302/13/6
f 291/13/6 292/13/6 302/13/6
f 296/13/6 297/13/6 302/13/6
f 297/13/6 298/13/6 302/13/6
f 301/13/6 253/13/6 303/13/6
f 302/13/6 301/13/6 303/13/6
f 304/6/6 305/6/6 306/6/6
f 306/6/6 305/6/6 307/6/6
f 308/13/6 309/13/6 312/13/6
f 309/8/6 310/8/6 313/8/6
f 312/13/6 309/13/6 313/13/6
f 310/13/6 311/13/6 314/13/6
f 313/8/6 310/8/6 314/8/6
f 314/13/6 311/13/6 315/13/6
f 316/13/6 317/13/6 318/13/6
f 318/13/6 317/13/6 319/13/6
