# MagicaVoxel @ Ephtracy

# group
o 

# material
mtllib control_table_04-0.mtl
usemtl palette

# normals
vn -1 0 0
vn 1 0 0
vn 0 0 1
vn 0 0 -1
vn 0 -1 0
vn 0 1 0

# texcoords
vt 0.564453 0.5
vt 0.568359 0.5
vt 0.572266 0.5
vt 0.626953 0.5
vt 0.630859 0.5
vt 0.763672 0.5
vt 0.783203 0.5
vt 0.943359 0.5
vt 0.947266 0.5
vt 0.970703 0.5
vt 0.974609 0.5
vt 0.986328 0.5
vt 0.994141 0.5

# verts
v -0.8 -0.8 0.8
v -0.8 -0.8 0
v -0.8 -0.2 0
v -0.8 -0.2 -0.3
v -0.8 0 0.3
v -0.8 0 -0.3
v -0.8 0.7 0.4
v -0.8 0.7 0.3
v -0.8 0.8 0.8
v -0.8 0.8 0.4
v -0.3 -0.4 -0.3
v -0.3 -0.4 -0.8
v -0.3 -0.3 -0.3
v -0.3 -0.3 -0.7
v -0.3 0.2 -0.7
v -0.3 0.2 -0.8
v -0.2 -0.8 -0.4
v -0.2 -0.8 -0.5
v -0.2 -0.8 -0.7
v -0.2 -0.8 -0.8
v -0.2 -0.7 -0.4
v -0.2 -0.7 -0.5
v -0.2 -0.7 -0.7
v -0.2 -0.7 -0.8
v -0.1 -0.8 -0.5
v -0.1 -0.8 -0.7
v -0.1 -0.7 -0.5
v -0.1 -0.7 -0.7
v -0.1 -0.4 -0.5
v -0.1 -0.4 -0.7
v 0.1 -0.8 -0.4
v 0.1 -0.8 -0.5
v 0.1 -0.8 -0.7
v 0.1 -0.8 -0.8
v 0.1 -0.7 -0.4
v 0.1 -0.7 -0.5
v 0.1 -0.7 -0.7
v 0.1 -0.7 -0.8
v -0.1 -0.8 -0.4
v -0.1 -0.8 -0.5
v -0.1 -0.8 -0.7
v -0.1 -0.8 -0.8
v -0.1 -0.7 -0.4
v -0.1 -0.7 -0.5
v -0.1 -0.7 -0.7
v -0.1 -0.7 -0.8
v 0.1 -0.8 -0.5
v 0.1 -0.8 -0.7
v 0.1 -0.7 -0.5
v 0.1 -0.7 -0.7
v 0.1 -0.4 -0.5
v 0.1 -0.4 -0.7
v 0.2 -0.8 -0.4
v 0.2 -0.8 -0.5
v 0.2 -0.8 -0.7
v 0.2 -0.8 -0.8
v 0.2 -0.7 -0.4
v 0.2 -0.7 -0.5
v 0.2 -0.7 -0.7
v 0.2 -0.7 -0.8
v 0.3 -0.4 -0.3
v 0.3 -0.4 -0.8
v 0.3 -0.3 -0.3
v 0.3 -0.3 -0.7
v 0.3 0.2 -0.7
v 0.3 0.2 -0.8
v 0.8 -0.8 0.8
v 0.8 -0.8 0
v 0.8 -0.2 0
v 0.8 -0.2 -0.3
v 0.8 0 0.3
v 0.8 0 -0.3
v 0.8 0.7 0.4
v 0.8 0.7 0.3
v 0.8 0.8 0.8
v 0.8 0.8 0.4
v -0.8 -0.8 0.8
v -0.8 0.8 0.8
v 0.8 -0.8 0.8
v 0.8 0.8 0.8
v -0.3 -0.4 -0.3
v -0.3 -0.3 -0.3
v 0.3 -0.4 -0.3
v 0.3 -0.3 -0.3
v -0.2 -0.8 -0.4
v -0.2 -0.7 -0.4
v -0.1 -0.8 -0.4
v -0.1 -0.7 -0.4
v 0.1 -0.8 -0.4
v 0.1 -0.7 -0.4
v 0.2 -0.8 -0.4
v 0.2 -0.7 -0.4
v -0.1 -0.8 -0.5
v -0.1 -0.7 -0.5
v -0.1 -0.4 -0.5
v 0.1 -0.8 -0.5
v 0.1 -0.7 -0.5
v 0.1 -0.4 -0.5
v -0.3 -0.3 -0.7
v -0.3 0.2 -0.7
v -0.2 -0.8 -0.7
v -0.2 -0.7 -0.7
v -0.1 -0.8 -0.7
v -0.1 -0.7 -0.7
v 0.1 -0.8 -0.7
v 0.1 -0.7 -0.7
v 0.2 -0.8 -0.7
v 0.2 -0.7 -0.7
v 0.3 -0.3 -0.7
v 0.3 0.2 -0.7
v -0.8 0.7 0.4
v -0.8 0.8 0.4
v -0.3 0.7 0.4
v 0.4 0.7 0.4
v 0.8 0.7 0.4
v 0.8 0.8 0.4
v -0.8 0 0.3
v -0.8 0.7 0.3
v -0.7 0 0.3
v -0.7 0.1 0.3
v -0.7 0.2 0.3
v -0.7 0.3 0.3
v -0.7 0.4 0.3
v -0.7 0.5 0.3
v -0.6 0 0.3
v -0.6 0.1 0.3
v -0.6 0.2 0.3
v -0.6 0.3 0.3
v -0.6 0.4 0.3
v -0.6 0.5 0.3
v -0.5 0 0.3
v -0.5 0.1 0.3
v -0.5 0.2 0.3
v -0.5 0.3 0.3
v -0.5 0.4 0.3
v -0.5 0.5 0.3
v -0.4 0 0.3
v -0.4 0.1 0.3
v -0.4 0.2 0.3
v -0.4 0.3 0.3
v -0.4 0.4 0.3
v -0.4 0.5 0.3
v -0.3 0 0.3
v -0.3 0.7 0.3
v -0.2 0.1 0.3
v -0.2 0.2 0.3
v -0.2 0.6 0.3
v -0.1 0.2 0.3
v -0.1 0.5 0.3
v 0 0.4 0.3
v 0 0.5 0.3
v 0 0.6 0.3
v 0.1 0.4 0.3
v 0.1 0.5 0.3
v 0.1 0.6 0.3
v 0.2 0.2 0.3
v 0.2 0.5 0.3
v 0.3 0.1 0.3
v 0.3 0.2 0.3
v 0.3 0.6 0.3
v 0.4 0 0.3
v 0.4 0.7 0.3
v 0.8 0 0.3
v 0.8 0.7 0.3
v -0.8 -0.8 0
v -0.8 -0.2 0
v 0.8 -0.8 0
v 0.8 -0.2 0
v -0.8 -0.2 -0.3
v -0.8 0 -0.3
v 0.8 -0.2 -0.3
v 0.8 0 -0.3
v -0.2 -0.8 -0.5
v -0.2 -0.7 -0.5
v -0.1 -0.8 -0.5
v -0.1 -0.7 -0.5
v 0.1 -0.8 -0.5
v 0.1 -0.7 -0.5
v 0.2 -0.8 -0.5
v 0.2 -0.7 -0.5
v -0.1 -0.8 -0.7
v -0.1 -0.7 -0.7
v -0.1 -0.4 -0.7
v 0.1 -0.8 -0.7
v 0.1 -0.7 -0.7
v 0.1 -0.4 -0.7
v -0.3 -0.4 -0.8
v -0.3 0.2 -0.8
v -0.2 -0.8 -0.8
v -0.2 -0.7 -0.8
v -0.1 -0.8 -0.8
v -0.1 -0.7 -0.8
v 0.1 -0.8 -0.8
v 0.1 -0.7 -0.8
v 0.2 -0.8 -0.8
v 0.2 -0.7 -0.8
v 0.3 -0.4 -0.8
v 0.3 0.2 -0.8
v -0.8 -0.8 0.8
v 0.8 -0.8 0.8
v -0.8 -0.8 0
v 0.8 -0.8 0
v -0.2 -0.8 -0.4
v -0.1 -0.8 -0.4
v 0.1 -0.8 -0.4
v 0.2 -0.8 -0.4
v -0.2 -0.8 -0.5
v -0.1 -0.8 -0.5
v 0.1 -0.8 -0.5
v 0.2 -0.8 -0.5
v -0.2 -0.8 -0.7
v -0.1 -0.8 -0.7
v 0.1 -0.8 -0.7
v 0.2 -0.8 -0.7
v -0.2 -0.8 -0.8
v -0.1 -0.8 -0.8
v 0.1 -0.8 -0.8
v 0.2 -0.8 -0.8
v -0.3 -0.4 -0.3
v 0.3 -0.4 -0.3
v -0.1 -0.4 -0.5
v 0.1 -0.4 -0.5
v -0.1 -0.4 -0.7
v 0.1 -0.4 -0.7
v -0.3 -0.4 -0.8
v 0.3 -0.4 -0.8
v -0.8 -0.2 0
v 0.8 -0.2 0
v -0.8 -0.2 -0.3
v 0.8 -0.2 -0.3
v -0.2 -0.7 -0.4
v -0.1 -0.7 -0.4
v 0.1 -0.7 -0.4
v 0.2 -0.7 -0.4
v -0.2 -0.7 -0.5
v -0.1 -0.7 -0.5
v 0.1 -0.7 -0.5
v 0.2 -0.7 -0.5
v -0.2 -0.7 -0.7
v -0.1 -0.7 -0.7
v 0.1 -0.7 -0.7
v 0.2 -0.7 -0.7
v -0.2 -0.7 -0.8
v -0.1 -0.7 -0.8
v 0.1 -0.7 -0.8
v 0.2 -0.7 -0.8
v -0.3 -0.3 -0.3
v 0.3 -0.3 -0.3
v -0.3 -0.3 -0.7
v 0.3 -0.3 -0.7
v -0.8 0 0.3
v -0.7 0 0.3
v -0.6 0 0.3
v -0.5 0 0.3
v -0.4 0 0.3
v -0.3 0 0.3
v 0.4 0 0.3
v 0.8 0 0.3
v -0.7 0 0.1
v -0.6 0 0.1
v -0.5 0 0.1
v -0.4 0 0.1
v -0.3 0 0.1
v -0.2 0 0.1
v -0.1 0 0.1
v 0 0 0.1
v 0.1 0 0.1
v 0.2 0 0.1
v 0.3 0 0.1
v 0.4 0 0.1
v -0.7 0 0
v -0.6 0 0
v -0.5 0 0
v -0.4 0 0
v -0.3 0 0
v -0.2 0 0
v -0.1 0 0
v 0 0 0
v 0.1 0 0
v 0.2 0 0
v 0.3 0 0
v 0.4 0 0
v -0.7 0 -0.1
v -0.6 0 -0.1
v -0.5 0 -0.1
v -0.4 0 -0.1
v -0.3 0 -0.1
v -0.2 0 -0.1
v -0.1 0 -0.1
v 0 0 -0.1
v 0.1 0 -0.1
v 0.2 0 -0.1
v 0.3 0 -0.1
v 0.4 0 -0.1
v -0.7 0 -0.2
v -0.6 0 -0.2
v -0.5 0 -0.2
v -0.4 0 -0.2
v -0.3 0 -0.2
v -0.2 0 -0.2
v -0.1 0 -0.2
v 0 0 -0.2
v 0.1 0 -0.2
v 0.2 0 -0.2
v 0.3 0 -0.2
v 0.4 0 -0.2
v -0.8 0 -0.3
v 0.8 0 -0.3
v -0.3 0.2 -0.7
v 0.3 0.2 -0.7
v -0.3 0.2 -0.8
v 0.3 0.2 -0.8
v -0.8 0.7 0.4
v -0.3 0.7 0.4
v 0.4 0.7 0.4
v 0.8 0.7 0.4
v -0.8 0.7 0.3
v -0.3 0.7 0.3
v 0.4 0.7 0.3
v 0.8 0.7 0.3
v -0.8 0.8 0.8
v 0.8 0.8 0.8
v -0.8 0.8 0.4
v 0.8 0.8 0.4

# faces
f 3/13/1 2/13/1 1/13/1
f 5/13/1 3/13/1 1/13/1
f 5/13/1 4/13/1 3/13/1
f 6/13/1 4/13/1 5/13/1
f 7/13/1 5/13/1 1/13/1
f 8/13/1 5/13/1 7/13/1
f 9/13/1 7/13/1 1/13/1
f 10/13/1 7/13/1 9/13/1
f 13/7/1 12/7/1 11/7/1
f 14/7/1 12/7/1 13/7/1
f 15/7/1 12/7/1 14/7/1
f 16/7/1 12/7/1 15/7/1
f 21/12/1 18/12/1 17/12/1
f 22/12/1 18/12/1 21/12/1
f 23/12/1 20/12/1 19/12/1
f 24/12/1 20/12/1 23/12/1
f 27/12/1 26/12/1 25/12/1
f 28/12/1 26/12/1 27/12/1
f 29/8/1 28/8/1 27/8/1
f 30/8/1 28/8/1 29/8/1
f 35/12/1 32/12/1 31/12/1
f 36/12/1 32/12/1 35/12/1
f 37/12/1 34/12/1 33/12/1
f 38/12/1 34/12/1 37/12/1
f 39/12/2 40/12/2 43/12/2
f 43/12/2 40/12/2 44/12/2
f 41/12/2 42/12/2 45/12/2
f 45/12/2 42/12/2 46/12/2
f 47/12/2 48/12/2 49/12/2
f 49/12/2 48/12/2 50/12/2
f 49/8/2 50/8/2 51/8/2
f 51/8/2 50/8/2 52/8/2
f 53/12/2 54/12/2 57/12/2
f 57/12/2 54/12/2 58/12/2
f 55/12/2 56/12/2 59/12/2
f 59/12/2 56/12/2 60/12/2
f 61/7/2 62/7/2 63/7/2
f 63/7/2 62/7/2 64/7/2
f 64/7/2 62/7/2 65/7/2
f 65/7/2 62/7/2 66/7/2
f 67/13/2 68/13/2 69/13/2
f 67/13/2 69/13/2 71/13/2
f 69/13/2 70/13/2 71/13/2
f 71/13/2 70/13/2 72/13/2
f 67/13/2 71/13/2 73/13/2
f 73/13/2 71/13/2 74/13/2
f 67/13/2 73/13/2 75/13/2
f 75/13/2 73/13/2 76/13/2
f 79/13/3 78/13/3 77/13/3
f 80/13/3 78/13/3 79/13/3
f 83/7/3 82/7/3 81/7/3
f 84/7/3 82/7/3 83/7/3
f 87/12/3 86/12/3 85/12/3
f 88/12/3 86/12/3 87/12/3
f 91/12/3 90/12/3 89/12/3
f 92/12/3 90/12/3 91/12/3
f 96/12/3 94/12/3 93/12/3
f 97/8/3 95/8/3 94/8/3
f 97/12/3 94/12/3 96/12/3
f 98/8/3 95/8/3 97/8/3
f 103/12/3 102/12/3 101/12/3
f 104/12/3 102/12/3 103/12/3
f 107/12/3 106/12/3 105/12/3
f 108/12/3 106/12/3 107/12/3
f 109/7/3 100/7/3 99/7/3
f 110/7/3 100/7/3 109/7/3
f 111/13/4 112/13/4 113/13/4
f 113/13/4 112/13/4 114/13/4
f 114/13/4 112/13/4 115/13/4
f 115/13/4 112/13/4 116/13/4
f 117/13/4 118/13/4 119/13/4
f 119/13/4 118/13/4 120/13/4
f 120/13/4 118/13/4 121/13/4
f 121/13/4 118/13/4 122/13/4
f 122/13/4 118/13/4 123/13/4
f 123/13/4 118/13/4 124/13/4
f 119/3/4 120/3/4 125/3/4
f 120/2/4 121/2/4 126/2/4
f 125/3/4 120/3/4 126/3/4
f 121/1/4 122/1/4 127/1/4
f 126/2/4 121/2/4 127/2/4
f 122/3/4 123/3/4 128/3/4
f 127/1/4 122/1/4 128/1/4
f 123/1/4 124/1/4 129/1/4
f 128/3/4 123/3/4 129/3/4
f 124/13/4 118/13/4 130/13/4
f 129/1/4 124/1/4 130/1/4
f 125/2/4 126/2/4 131/2/4
f 126/1/4 127/1/4 132/1/4
f 131/2/4 126/2/4 132/2/4
f 127/2/4 128/2/4 133/2/4
f 132/1/4 127/1/4 133/1/4
f 128/1/4 129/1/4 134/1/4
f 133/2/4 128/2/4 134/2/4
f 129/3/4 130/3/4 135/3/4
f 134/1/4 129/1/4 135/1/4
f 130/13/4 118/13/4 136/13/4
f 135/3/4 130/3/4 136/3/4
f 131/1/4 132/1/4 137/1/4
f 132/3/4 133/3/4 138/3/4
f 137/1/4 132/1/4 138/1/4
f 133/2/4 134/2/4 139/2/4
f 138/3/4 133/3/4 139/3/4
f 134/3/4 135/3/4 140/3/4
f 139/2/4 134/2/4 140/2/4
f 135/1/4 136/1/4 141/1/4
f 140/3/4 135/3/4 141/3/4
f 136/13/4 118/13/4 142/13/4
f 141/1/4 136/1/4 142/1/4
f 138/13/4 139/13/4 143/13/4
f 140/13/4 141/13/4 143/13/4
f 141/13/4 142/13/4 143/13/4
f 139/13/4 140/13/4 143/13/4
f 137/13/4 138/13/4 143/13/4
f 142/13/4 118/13/4 144/13/4
f 143/13/4 142/13/4 144/13/4
f 143/8/4 144/8/4 145/8/4
f 145/8/4 144/8/4 146/8/4
f 146/8/4 144/8/4 147/8/4
f 145/6/4 146/6/4 148/6/4
f 146/4/4 147/4/4 148/4/4
f 148/4/4 147/4/4 149/4/4
f 148/11/4 149/11/4 150/11/4
f 149/4/4 147/4/4 151/4/4
f 150/11/4 149/11/4 151/11/4
f 147/8/4 144/8/4 152/8/4
f 151/4/4 147/4/4 152/4/4
f 150/5/4 151/5/4 153/5/4
f 148/11/4 150/11/4 153/11/4
f 151/11/4 152/11/4 154/11/4
f 153/5/4 151/5/4 154/5/4
f 152/8/4 144/8/4 155/8/4
f 154/11/4 152/11/4 155/11/4
f 153/11/4 154/11/4 156/11/4
f 145/6/4 148/6/4 156/6/4
f 148/11/4 153/11/4 156/11/4
f 154/4/4 155/4/4 157/4/4
f 156/11/4 154/11/4 157/11/4
f 143/8/4 145/8/4 158/8/4
f 145/6/4 156/6/4 158/6/4
f 156/4/4 157/4/4 159/4/4
f 158/6/4 156/6/4 159/6/4
f 157/4/4 155/4/4 160/4/4
f 159/4/4 157/4/4 160/4/4
f 155/8/4 144/8/4 160/8/4
f 158/8/4 159/8/4 161/8/4
f 143/8/4 158/8/4 161/8/4
f 159/8/4 160/8/4 161/8/4
f 160/8/4 144/8/4 162/8/4
f 161/8/4 160/8/4 162/8/4
f 161/13/4 162/13/4 163/13/4
f 163/13/4 162/13/4 164/13/4
f 165/13/4 166/13/4 167/13/4
f 167/13/4 166/13/4 168/13/4
f 169/13/4 170/13/4 171/13/4
f 171/13/4 170/13/4 172/13/4
f 173/12/4 174/12/4 175/12/4
f 175/12/4 174/12/4 176/12/4
f 177/12/4 178/12/4 179/12/4
f 179/12/4 178/12/4 180/12/4
f 181/12/4 182/12/4 184/12/4
f 182/8/4 183/8/4 185/8/4
f 184/12/4 182/12/4 185/12/4
f 185/8/4 183/8/4 186/8/4
f 189/12/4 190/12/4 191/12/4
f 191/12/4 190/12/4 192/12/4
f 193/12/4 194/12/4 195/12/4
f 195/12/4 194/12/4 196/12/4
f 187/7/4 188/7/4 197/7/4
f 197/7/4 188/7/4 198/7/4
f 201/13/5 200/13/5 199/13/5
f 202/13/5 200/13/5 201/13/5
f 207/12/5 204/12/5 203/12/5
f 208/12/5 204/12/5 207/12/5
f 209/12/5 206/12/5 205/12/5
f 210/12/5 206/12/5 209/12/5
f 212/12/5 209/12/5 208/12/5
f 213/12/5 209/12/5 212/12/5
f 215/12/5 212/12/5 211/12/5
f 216/12/5 212/12/5 215/12/5
f 217/12/5 214/12/5 213/12/5
f 218/12/5 214/12/5 217/12/5
f 221/7/5 220/7/5 219/7/5
f 222/7/5 220/7/5 221/7/5
f 223/7/5 221/7/5 219/7/5
f 224/7/5 220/7/5 222/7/5
f 225/7/5 223/7/5 219/7/5
f 225/7/5 224/7/5 223/7/5
f 226/7/5 220/7/5 224/7/5
f 226/7/5 224/7/5 225/7/5
f 229/13/5 228/13/5 227/13/5
f 230/13/5 228/13/5 229/13/5
f 231/12/6 232/12/6 235/12/6
f 235/12/6 232/12/6 236/12/6
f 233/12/6 234/12/6 237/12/6
f 237/12/6 234/12/6 238/12/6
f 239/12/6 240/12/6 243/12/6
f 243/12/6 240/12/6 244/12/6
f 241/12/6 242/12/6 245/12/6
f 245/12/6 242/12/6 246/12/6
f 247/7/6 248/7/6 249/7/6
f 249/7/6 248/7/6 250/7/6
f 251/13/6 252/13/6 259/13/6
f 257/13/6 258/13/6 259/13/6
f 256/13/6 257/13/6 259/13/6
f 255/13/6 256/13/6 259/13/6
f 254/13/6 255/13/6 259/13/6
f 253/13/6 254/13/6 259/13/6
f 252/13/6 253/13/6 259/13/6
f 259/13/6 258/13/6 260/13/6
f 260/13/6 258/13/6 261/13/6
f 261/13/6 258/13/6 262/13/6
f 262/13/6 258/13/6 263/13/6
f 263/13/6 258/13/6 264/13/6
f 264/13/6 258/13/6 265/13/6
f 265/13/6 258/13/6 266/13/6
f 266/13/6 258/13/6 267/13/6
f 267/13/6 258/13/6 268/13/6
f 268/13/6 258/13/6 269/13/6
f 269/13/6 258/13/6 270/13/6
f 251/13/6 259/13/6 271/13/6
f 259/12/6 260/12/6 271/12/6
f 260/10/6 261/10/6 272/10/6
f 271/12/6 260/12/6 272/12/6
f 261/8/6 262/8/6 273/8/6
f 272/10/6 261/10/6 273/10/6
f 262/13/6 263/13/6 274/13/6
f 273/8/6 262/8/6 274/8/6
f 263/9/6 264/9/6 275/9/6
f 274/13/6 263/13/6 275/13/6
f 264/10/6 265/10/6 276/10/6
f 275/9/6 264/9/6 276/9/6
f 265/8/6 266/8/6 277/8/6
f 276/10/6 265/10/6 277/10/6
f 266/10/6 267/10/6 278/10/6
f 277/8/6 266/8/6 278/8/6
f 267/12/6 268/12/6 279/12/6
f 278/10/6 267/10/6 279/10/6
f 268/8/6 269/8/6 280/8/6
f 279/12/6 268/12/6 280/12/6
f 269/10/6 270/10/6 281/10/6
f 280/8/6 269/8/6 281/8/6
f 270/13/6 258/13/6 282/13/6
f 281/10/6 270/10/6 282/10/6
f 251/13/6 271/13/6 283/13/6
f 271/8/6 272/8/6 283/8/6
f 272/8/6 273/8/6 283/8/6
f 283/8/6 273/8/6 284/8/6
f 273/12/6 274/12/6 285/12/6
f 284/8/6 273/8/6 285/8/6
f 274/13/6 275/13/6 286/13/6
f 285/12/6 274/12/6 286/12/6
f 275/8/6 276/8/6 287/8/6
f 286/13/6 275/13/6 287/13/6
f 278/9/6 279/9/6 288/9/6
f 287/8/6 276/8/6 288/8/6
f 276/9/6 277/9/6 288/9/6
f 277/9/6 278/9/6 288/9/6
f 288/9/6 279/9/6 289/9/6
f 289/9/6 279/9/6 290/9/6
f 279/8/6 280/8/6 291/8/6
f 290/9/6 279/9/6 291/9/6
f 280/10/6 281/10/6 292/10/6
f 291/8/6 280/8/6 292/8/6
f 281/8/6 282/8/6 293/8/6
f 292/10/6 281/10/6 293/10/6
f 282/13/6 258/13/6 294/13/6
f 293/8/6 282/8/6 294/8/6
f 283/10/6 284/10/6 295/10/6
f 251/13/6 283/13/6 295/13/6
f 284/9/6 285/9/6 296/9/6
f 295/10/6 284/10/6 296/10/6
f 285/10/6 286/10/6 297/10/6
f 296/9/6 285/9/6 297/9/6
f 286/13/6 287/13/6 298/13/6
f 297/10/6 286/10/6 298/10/6
f 287/10/6 288/10/6 299/10/6
f 298/13/6 287/13/6 299/13/6
f 288/12/6 289/12/6 300/12/6
f 299/10/6 288/10/6 300/10/6
f 289/10/6 290/10/6 301/10/6
f 300/12/6 289/12/6 301/12/6
f 290/8/6 291/8/6 302/8/6
f 301/10/6 290/10/6 302/10/6
f 291/9/6 292/9/6 303/9/6
f 302/8/6 291/8/6 303/8/6
f 292/10/6 293/10/6 304/10/6
f 303/9/6 292/9/6 304/9/6
f 293/12/6 294/12/6 305/12/6
f 304/10/6 293/10/6 305/10/6
f 294/13/6 258/13/6 306/13/6
f 305/12/6 294/12/6 306/12/6
f 300/13/6 301/13/6 307/13/6
f 299/13/6 300/13/6 307/13/6
f 305/13/6 306/13/6 307/13/6
f 298/13/6 299/13/6 307/13/6
f 297/13/6 298/13/6 307/13/6
f 303/13/6 304/13/6 307/13/6
f 295/13/6 296/13/6 307/13/6
f 251/13/6 295/13/6 307/13/6
f 304/13/6 305/13/6 307/13/6
f 296/13/6 297/13/6 307/13/6
f 301/13/6 302/13/6 307/13/6
f 302/13/6 303/13/6 307/13/6
f 306/13/6 258/13/6 308/13/6
f 307/13/6 306/13/6 308/13/6
f 309/7/6 310/7/6 311/7/6
f 311/7/6 310/7/6 312/7/6
f 313/13/6 314/13/6 317/13/6
f 314/8/6 315/8/6 318/8/6
f 317/13/6 314/13/6 318/13/6
f 315/13/6 316/13/6 319/13/6
f 318/8/6 315/8/6 319/8/6
f 319/13/6 316/13/6 320/13/6
f 321/13/6 322/13/6 323/13/6
f 323/13/6 322/13/6 324/13/6
