# MagicaVoxel @ Ephtracy

# group
o 

# material
mtllib control_table_05-0.mtl
usemtl palette

# normals
vn -1 0 0
vn 1 0 0
vn 0 0 1
vn 0 0 -1
vn 0 -1 0
vn 0 1 0

# texcoords
vt 0.626953 0.5
vt 0.783203 0.5
vt 0.794922 0.5
vt 0.939453 0.5
vt 0.943359 0.5
vt 0.947266 0.5
vt 0.970703 0.5
vt 0.986328 0.5
vt 0.994141 0.5

# verts
v -0.8 -0.8 0.8
v -0.8 -0.8 0
v -0.8 -0.2 0
v -0.8 -0.2 -0.3
v -0.8 0 0.3
v -0.8 0 -0.3
v -0.8 0.7 0.4
v -0.8 0.7 0.3
v -0.8 0.8 0.8
v -0.8 0.8 0.4
v -0.3 -0.4 -0.3
v -0.3 -0.4 -0.8
v -0.3 -0.3 -0.3
v -0.3 -0.3 -0.7
v -0.3 0.2 -0.7
v -0.3 0.2 -0.8
v -0.2 -0.8 -0.4
v -0.2 -0.8 -0.5
v -0.2 -0.8 -0.7
v -0.2 -0.8 -0.8
v -0.2 -0.7 -0.4
v -0.2 -0.7 -0.5
v -0.2 -0.7 -0.7
v -0.2 -0.7 -0.8
v -0.1 -0.8 -0.5
v -0.1 -0.8 -0.7
v -0.1 -0.7 -0.5
v -0.1 -0.7 -0.7
v -0.1 -0.4 -0.5
v -0.1 -0.4 -0.7
v 0.1 -0.8 -0.4
v 0.1 -0.8 -0.5
v 0.1 -0.8 -0.7
v 0.1 -0.8 -0.8
v 0.1 -0.7 -0.4
v 0.1 -0.7 -0.5
v 0.1 -0.7 -0.7
v 0.1 -0.7 -0.8
v -0.1 -0.8 -0.4
v -0.1 -0.8 -0.5
v -0.1 -0.8 -0.7
v -0.1 -0.8 -0.8
v -0.1 -0.7 -0.4
v -0.1 -0.7 -0.5
v -0.1 -0.7 -0.7
v -0.1 -0.7 -0.8
v 0.1 -0.8 -0.5
v 0.1 -0.8 -0.7
v 0.1 -0.7 -0.5
v 0.1 -0.7 -0.7
v 0.1 -0.4 -0.5
v 0.1 -0.4 -0.7
v 0.2 -0.8 -0.4
v 0.2 -0.8 -0.5
v 0.2 -0.8 -0.7
v 0.2 -0.8 -0.8
v 0.2 -0.7 -0.4
v 0.2 -0.7 -0.5
v 0.2 -0.7 -0.7
v 0.2 -0.7 -0.8
v 0.3 -0.4 -0.3
v 0.3 -0.4 -0.8
v 0.3 -0.3 -0.3
v 0.3 -0.3 -0.7
v 0.3 0.2 -0.7
v 0.3 0.2 -0.8
v 0.8 -0.8 0.8
v 0.8 -0.8 0
v 0.8 -0.2 0
v 0.8 -0.2 -0.3
v 0.8 0 0.3
v 0.8 0 -0.3
v 0.8 0.7 0.4
v 0.8 0.7 0.3
v 0.8 0.8 0.8
v 0.8 0.8 0.4
v -0.8 -0.8 0.8
v -0.8 0.8 0.8
v 0.8 -0.8 0.8
v 0.8 0.8 0.8
v -0.3 -0.4 -0.3
v -0.3 -0.3 -0.3
v 0.3 -0.4 -0.3
v 0.3 -0.3 -0.3
v -0.2 -0.8 -0.4
v -0.2 -0.7 -0.4
v -0.1 -0.8 -0.4
v -0.1 -0.7 -0.4
v 0.1 -0.8 -0.4
v 0.1 -0.7 -0.4
v 0.2 -0.8 -0.4
v 0.2 -0.7 -0.4
v -0.1 -0.8 -0.5
v -0.1 -0.7 -0.5
v -0.1 -0.4 -0.5
v 0.1 -0.8 -0.5
v 0.1 -0.7 -0.5
v 0.1 -0.4 -0.5
v -0.3 -0.3 -0.7
v -0.3 0.2 -0.7
v -0.2 -0.8 -0.7
v -0.2 -0.7 -0.7
v -0.1 -0.8 -0.7
v -0.1 -0.7 -0.7
v 0.1 -0.8 -0.7
v 0.1 -0.7 -0.7
v 0.2 -0.8 -0.7
v 0.2 -0.7 -0.7
v 0.3 -0.3 -0.7
v 0.3 0.2 -0.7
v -0.8 0.7 0.4
v -0.8 0.8 0.4
v -0.3 0.7 0.4
v 0.4 0.7 0.4
v 0.8 0.7 0.4
v 0.8 0.8 0.4
v -0.8 0 0.3
v -0.8 0.7 0.3
v -0.7 0.2 0.3
v -0.7 0.3 0.3
v -0.7 0.4 0.3
v -0.7 0.5 0.3
v -0.6 0.2 0.3
v -0.6 0.3 0.3
v -0.6 0.4 0.3
v -0.6 0.5 0.3
v -0.5 0.2 0.3
v -0.5 0.3 0.3
v -0.5 0.4 0.3
v -0.5 0.5 0.3
v -0.4 0.2 0.3
v -0.4 0.3 0.3
v -0.4 0.4 0.3
v -0.4 0.5 0.3
v -0.3 0 0.3
v -0.3 0.7 0.3
v -0.2 0.1 0.3
v -0.2 0.6 0.3
v -0.1 0.1 0.3
v -0.1 0.2 0.3
v 0 0.5 0.3
v 0 0.6 0.3
v 0.1 0.3 0.3
v 0.1 0.4 0.3
v 0.3 0.1 0.3
v 0.3 0.2 0.3
v 0.3 0.3 0.3
v 0.3 0.4 0.3
v 0.3 0.5 0.3
v 0.3 0.6 0.3
v 0.4 0 0.3
v 0.4 0.7 0.3
v 0.8 0 0.3
v 0.8 0.7 0.3
v -0.8 -0.8 0
v -0.8 -0.2 0
v 0.8 -0.8 0
v 0.8 -0.2 0
v -0.8 -0.2 -0.3
v -0.8 0 -0.3
v 0.8 -0.2 -0.3
v 0.8 0 -0.3
v -0.2 -0.8 -0.5
v -0.2 -0.7 -0.5
v -0.1 -0.8 -0.5
v -0.1 -0.7 -0.5
v 0.1 -0.8 -0.5
v 0.1 -0.7 -0.5
v 0.2 -0.8 -0.5
v 0.2 -0.7 -0.5
v -0.1 -0.8 -0.7
v -0.1 -0.7 -0.7
v -0.1 -0.4 -0.7
v 0.1 -0.8 -0.7
v 0.1 -0.7 -0.7
v 0.1 -0.4 -0.7
v -0.3 -0.4 -0.8
v -0.3 0.2 -0.8
v -0.2 -0.8 -0.8
v -0.2 -0.7 -0.8
v -0.1 -0.8 -0.8
v -0.1 -0.7 -0.8
v 0.1 -0.8 -0.8
v 0.1 -0.7 -0.8
v 0.2 -0.8 -0.8
v 0.2 -0.7 -0.8
v 0.3 -0.4 -0.8
v 0.3 0.2 -0.8
v -0.8 -0.8 0.8
v 0.8 -0.8 0.8
v -0.8 -0.8 0
v 0.8 -0.8 0
v -0.2 -0.8 -0.4
v -0.1 -0.8 -0.4
v 0.1 -0.8 -0.4
v 0.2 -0.8 -0.4
v -0.2 -0.8 -0.5
v -0.1 -0.8 -0.5
v 0.1 -0.8 -0.5
v 0.2 -0.8 -0.5
v -0.2 -0.8 -0.7
v -0.1 -0.8 -0.7
v 0.1 -0.8 -0.7
v 0.2 -0.8 -0.7
v -0.2 -0.8 -0.8
v -0.1 -0.8 -0.8
v 0.1 -0.8 -0.8
v 0.2 -0.8 -0.8
v -0.3 -0.4 -0.3
v 0.3 -0.4 -0.3
v -0.1 -0.4 -0.5
v 0.1 -0.4 -0.5
v -0.1 -0.4 -0.7
v 0.1 -0.4 -0.7
v -0.3 -0.4 -0.8
v 0.3 -0.4 -0.8
v -0.8 -0.2 0
v 0.8 -0.2 0
v -0.8 -0.2 -0.3
v 0.8 -0.2 -0.3
v -0.2 -0.7 -0.4
v -0.1 -0.7 -0.4
v 0.1 -0.7 -0.4
v 0.2 -0.7 -0.4
v -0.2 -0.7 -0.5
v -0.1 -0.7 -0.5
v 0.1 -0.7 -0.5
v 0.2 -0.7 -0.5
v -0.2 -0.7 -0.7
v -0.1 -0.7 -0.7
v 0.1 -0.7 -0.7
v 0.2 -0.7 -0.7
v -0.2 -0.7 -0.8
v -0.1 -0.7 -0.8
v 0.1 -0.7 -0.8
v 0.2 -0.7 -0.8
v -0.3 -0.3 -0.3
v 0.3 -0.3 -0.3
v -0.3 -0.3 -0.7
v 0.3 -0.3 -0.7
v -0.8 0 0.3
v -0.3 0 0.3
v 0.4 0 0.3
v 0.8 0 0.3
v -0.7 0 0.1
v -0.6 0 0.1
v -0.5 0 0.1
v -0.4 0 0.1
v -0.3 0 0.1
v -0.2 0 0.1
v -0.1 0 0.1
v 0 0 0.1
v 0.1 0 0.1
v 0.2 0 0.1
v 0.3 0 0.1
v 0.4 0 0.1
v -0.7 0 0
v -0.6 0 0
v -0.5 0 0
v -0.4 0 0
v -0.3 0 0
v -0.2 0 0
v -0.1 0 0
v 0 0 0
v 0.1 0 0
v 0.2 0 0
v 0.3 0 0
v 0.4 0 0
v -0.7 0 -0.1
v -0.6 0 -0.1
v -0.5 0 -0.1
v -0.4 0 -0.1
v -0.3 0 -0.1
v -0.2 0 -0.1
v -0.1 0 -0.1
v 0 0 -0.1
v 0.1 0 -0.1
v 0.2 0 -0.1
v 0.3 0 -0.1
v 0.4 0 -0.1
v -0.7 0 -0.2
v -0.6 0 -0.2
v -0.5 0 -0.2
v -0.4 0 -0.2
v -0.3 0 -0.2
v -0.2 0 -0.2
v -0.1 0 -0.2
v 0 0 -0.2
v 0.1 0 -0.2
v 0.2 0 -0.2
v 0.3 0 -0.2
v 0.4 0 -0.2
v -0.8 0 -0.3
v 0.8 0 -0.3
v -0.3 0.2 -0.7
v 0.3 0.2 -0.7
v -0.3 0.2 -0.8
v 0.3 0.2 -0.8
v -0.8 0.7 0.4
v -0.3 0.7 0.4
v 0.4 0.7 0.4
v 0.8 0.7 0.4
v -0.8 0.7 0.3
v -0.3 0.7 0.3
v 0.4 0.7 0.3
v 0.8 0.7 0.3
v -0.8 0.8 0.8
v 0.8 0.8 0.8
v -0.8 0.8 0.4
v 0.8 0.8 0.4

# faces
f 3/9/1 2/9/1 1/9/1
f 5/9/1 3/9/1 1/9/1
f 5/9/1 4/9/1 3/9/1
f 6/9/1 4/9/1 5/9/1
f 7/9/1 5/9/1 1/9/1
f 8/9/1 5/9/1 7/9/1
f 9/9/1 7/9/1 1/9/1
f 10/9/1 7/9/1 9/9/1
f 13/2/1 12/2/1 11/2/1
f 14/2/1 12/2/1 13/2/1
f 15/2/1 12/2/1 14/2/1
f 16/2/1 12/2/1 15/2/1
f 21/8/1 18/8/1 17/8/1
f 22/8/1 18/8/1 21/8/1
f 23/8/1 20/8/1 19/8/1
f 24/8/1 20/8/1 23/8/1
f 27/8/1 26/8/1 25/8/1
f 28/8/1 26/8/1 27/8/1
f 29/5/1 28/5/1 27/5/1
f 30/5/1 28/5/1 29/5/1
f 35/8/1 32/8/1 31/8/1
f 36/8/1 32/8/1 35/8/1
f 37/8/1 34/8/1 33/8/1
f 38/8/1 34/8/1 37/8/1
f 39/8/2 40/8/2 43/8/2
f 43/8/2 40/8/2 44/8/2
f 41/8/2 42/8/2 45/8/2
f 45/8/2 42/8/2 46/8/2
f 47/8/2 48/8/2 49/8/2
f 49/8/2 48/8/2 50/8/2
f 49/5/2 50/5/2 51/5/2
f 51/5/2 50/5/2 52/5/2
f 53/8/2 54/8/2 57/8/2
f 57/8/2 54/8/2 58/8/2
f 55/8/2 56/8/2 59/8/2
f 59/8/2 56/8/2 60/8/2
f 61/2/2 62/2/2 63/2/2
f 63/2/2 62/2/2 64/2/2
f 64/2/2 62/2/2 65/2/2
f 65/2/2 62/2/2 66/2/2
f 67/9/2 68/9/2 69/9/2
f 67/9/2 69/9/2 71/9/2
f 69/9/2 70/9/2 71/9/2
f 71/9/2 70/9/2 72/9/2
f 67/9/2 71/9/2 73/9/2
f 73/9/2 71/9/2 74/9/2
f 67/9/2 73/9/2 75/9/2
f 75/9/2 73/9/2 76/9/2
f 79/9/3 78/9/3 77/9/3
f 80/9/3 78/9/3 79/9/3
f 83/2/3 82/2/3 81/2/3
f 84/2/3 82/2/3 83/2/3
f 87/8/3 86/8/3 85/8/3
f 88/8/3 86/8/3 87/8/3
f 91/8/3 90/8/3 89/8/3
f 92/8/3 90/8/3 91/8/3
f 96/8/3 94/8/3 93/8/3
f 97/5/3 95/5/3 94/5/3
f 97/8/3 94/8/3 96/8/3
f 98/5/3 95/5/3 97/5/3
f 103/8/3 102/8/3 101/8/3
f 104/8/3 102/8/3 103/8/3
f 107/8/3 106/8/3 105/8/3
f 108/8/3 106/8/3 107/8/3
f 109/2/3 100/2/3 99/2/3
f 110/2/3 100/2/3 109/2/3
f 111/9/4 112/9/4 113/9/4
f 113/9/4 112/9/4 114/9/4
f 114/9/4 112/9/4 115/9/4
f 115/9/4 112/9/4 116/9/4
f 117/9/4 118/9/4 119/9/4
f 119/9/4 118/9/4 120/9/4
f 120/9/4 118/9/4 121/9/4
f 121/9/4 118/9/4 122/9/4
f 117/9/4 119/9/4 123/9/4
f 119/3/4 120/3/4 123/3/4
f 120/5/4 121/5/4 124/5/4
f 123/3/4 120/3/4 124/3/4
f 121/3/4 122/3/4 125/3/4
f 124/5/4 121/5/4 125/5/4
f 122/9/4 118/9/4 126/9/4
f 125/3/4 122/3/4 126/3/4
f 124/5/4 125/5/4 127/5/4
f 123/5/4 124/5/4 127/5/4
f 125/5/4 126/5/4 127/5/4
f 117/9/4 123/9/4 127/9/4
f 127/5/4 126/5/4 128/5/4
f 128/5/4 126/5/4 129/5/4
f 126/9/4 118/9/4 130/9/4
f 129/5/4 126/5/4 130/5/4
f 117/9/4 127/9/4 131/9/4
f 127/3/4 128/3/4 131/3/4
f 128/5/4 129/5/4 132/5/4
f 131/3/4 128/3/4 132/3/4
f 129/3/4 130/3/4 133/3/4
f 132/5/4 129/5/4 133/5/4
f 130/9/4 118/9/4 134/9/4
f 133/3/4 130/3/4 134/3/4
f 117/9/4 131/9/4 135/9/4
f 132/9/4 133/9/4 135/9/4
f 133/9/4 134/9/4 135/9/4
f 131/9/4 132/9/4 135/9/4
f 134/9/4 118/9/4 136/9/4
f 135/9/4 134/9/4 136/9/4
f 135/5/4 136/5/4 137/5/4
f 137/5/4 136/5/4 138/5/4
f 135/5/4 137/5/4 139/5/4
f 137/1/4 138/1/4 139/1/4
f 139/1/4 138/1/4 140/1/4
f 140/1/4 138/1/4 141/1/4
f 138/5/4 136/5/4 142/5/4
f 141/1/4 138/1/4 142/1/4
f 140/1/4 141/1/4 143/1/4
f 143/1/4 141/1/4 144/1/4
f 135/5/4 139/5/4 145/5/4
f 139/4/4 140/4/4 145/4/4
f 140/1/4 143/1/4 146/1/4
f 145/4/4 140/4/4 146/4/4
f 143/4/4 144/4/4 147/4/4
f 146/1/4 143/1/4 147/1/4
f 144/1/4 141/1/4 148/1/4
f 147/4/4 144/4/4 148/4/4
f 141/4/4 142/4/4 149/4/4
f 148/1/4 141/1/4 149/1/4
f 142/5/4 136/5/4 150/5/4
f 149/4/4 142/4/4 150/4/4
f 148/5/4 149/5/4 151/5/4
f 146/5/4 147/5/4 151/5/4
f 149/5/4 150/5/4 151/5/4
f 135/5/4 145/5/4 151/5/4
f 147/5/4 148/5/4 151/5/4
f 145/5/4 146/5/4 151/5/4
f 150/5/4 136/5/4 152/5/4
f 151/5/4 150/5/4 152/5/4
f 151/9/4 152/9/4 153/9/4
f 153/9/4 152/9/4 154/9/4
f 155/9/4 156/9/4 157/9/4
f 157/9/4 156/9/4 158/9/4
f 159/9/4 160/9/4 161/9/4
f 161/9/4 160/9/4 162/9/4
f 163/8/4 164/8/4 165/8/4
f 165/8/4 164/8/4 166/8/4
f 167/8/4 168/8/4 169/8/4
f 169/8/4 168/8/4 170/8/4
f 171/8/4 172/8/4 174/8/4
f 172/5/4 173/5/4 175/5/4
f 174/8/4 172/8/4 175/8/4
f 175/5/4 173/5/4 176/5/4
f 179/8/4 180/8/4 181/8/4
f 181/8/4 180/8/4 182/8/4
f 183/8/4 184/8/4 185/8/4
f 185/8/4 184/8/4 186/8/4
f 177/2/4 178/2/4 187/2/4
f 187/2/4 178/2/4 188/2/4
f 191/9/5 190/9/5 189/9/5
f 192/9/5 190/9/5 191/9/5
f 197/8/5 194/8/5 193/8/5
f 198/8/5 194/8/5 197/8/5
f 199/8/5 196/8/5 195/8/5
f 200/8/5 196/8/5 199/8/5
f 202/8/5 199/8/5 198/8/5
f 203/8/5 199/8/5 202/8/5
f 205/8/5 202/8/5 201/8/5
f 206/8/5 202/8/5 205/8/5
f 207/8/5 204/8/5 203/8/5
f 208/8/5 204/8/5 207/8/5
f 211/2/5 210/2/5 209/2/5
f 212/2/5 210/2/5 211/2/5
f 213/2/5 211/2/5 209/2/5
f 214/2/5 210/2/5 212/2/5
f 215/2/5 213/2/5 209/2/5
f 215/2/5 214/2/5 213/2/5
f 216/2/5 210/2/5 214/2/5
f 216/2/5 214/2/5 215/2/5
f 219/9/5 218/9/5 217/9/5
f 220/9/5 218/9/5 219/9/5
f 221/8/6 222/8/6 225/8/6
f 225/8/6 222/8/6 226/8/6
f 223/8/6 224/8/6 227/8/6
f 227/8/6 224/8/6 228/8/6
f 229/8/6 230/8/6 233/8/6
f 233/8/6 230/8/6 234/8/6
f 231/8/6 232/8/6 235/8/6
f 235/8/6 232/8/6 236/8/6
f 237/2/6 238/2/6 239/2/6
f 239/2/6 238/2/6 240/2/6
f 241/9/6 242/9/6 245/9/6
f 243/9/6 244/9/6 245/9/6
f 242/9/6 243/9/6 245/9/6
f 245/9/6 244/9/6 246/9/6
f 246/9/6 244/9/6 247/9/6
f 247/9/6 244/9/6 248/9/6
f 248/9/6 244/9/6 249/9/6
f 249/9/6 244/9/6 250/9/6
f 250/9/6 244/9/6 251/9/6
f 251/9/6 244/9/6 252/9/6
f 252/9/6 244/9/6 253/9/6
f 253/9/6 244/9/6 254/9/6
f 254/9/6 244/9/6 255/9/6
f 255/9/6 244/9/6 256/9/6
f 241/9/6 245/9/6 257/9/6
f 245/8/6 246/8/6 257/8/6
f 246/7/6 247/7/6 258/7/6
f 257/8/6 246/8/6 258/8/6
f 247/5/6 248/5/6 259/5/6
f 258/7/6 247/7/6 259/7/6
f 248/9/6 249/9/6 260/9/6
f 259/5/6 248/5/6 260/5/6
f 249/6/6 250/6/6 261/6/6
f 260/9/6 249/9/6 261/9/6
f 250/7/6 251/7/6 262/7/6
f 261/6/6 250/6/6 262/6/6
f 251/5/6 252/5/6 263/5/6
f 262/7/6 251/7/6 263/7/6
f 252/7/6 253/7/6 264/7/6
f 263/5/6 252/5/6 264/5/6
f 253/8/6 254/8/6 265/8/6
f 264/7/6 253/7/6 265/7/6
f 254/5/6 255/5/6 266/5/6
f 265/8/6 254/8/6 266/8/6
f 255/7/6 256/7/6 267/7/6
f 266/5/6 255/5/6 267/5/6
f 256/9/6 244/9/6 268/9/6
f 267/7/6 256/7/6 268/7/6
f 241/9/6 257/9/6 269/9/6
f 257/5/6 258/5/6 269/5/6
f 258/5/6 259/5/6 269/5/6
f 269/5/6 259/5/6 270/5/6
f 259/8/6 260/8/6 271/8/6
f 270/5/6 259/5/6 271/5/6
f 260/9/6 261/9/6 272/9/6
f 271/8/6 260/8/6 272/8/6
f 261/5/6 262/5/6 273/5/6
f 272/9/6 261/9/6 273/9/6
f 264/6/6 265/6/6 274/6/6
f 273/5/6 262/5/6 274/5/6
f 262/6/6 263/6/6 274/6/6
f 263/6/6 264/6/6 274/6/6
f 274/6/6 265/6/6 275/6/6
f 275/6/6 265/6/6 276/6/6
f 265/5/6 266/5/6 277/5/6
f 276/6/6 265/6/6 277/6/6
f 266/7/6 267/7/6 278/7/6
f 277/5/6 266/5/6 278/5/6
f 267/5/6 268/5/6 279/5/6
f 278/7/6 267/7/6 279/7/6
f 268/9/6 244/9/6 280/9/6
f 279/5/6 268/5/6 280/5/6
f 269/7/6 270/7/6 281/7/6
f 241/9/6 269/9/6 281/9/6
f 270/6/6 271/6/6 282/6/6
f 281/7/6 270/7/6 282/7/6
f 271/7/6 272/7/6 283/7/6
f 282/6/6 271/6/6 283/6/6
f 272/9/6 273/9/6 284/9/6
f 283/7/6 272/7/6 284/7/6
f 273/7/6 274/7/6 285/7/6
f 284/9/6 273/9/6 285/9/6
f 274/8/6 275/8/6 286/8/6
f 285/7/6 274/7/6 286/7/6
f 275/7/6 276/7/6 287/7/6
f 286/8/6 275/8/6 287/8/6
f 276/5/6 277/5/6 288/5/6
f 287/7/6 276/7/6 288/7/6
f 277/6/6 278/6/6 289/6/6
f 288/5/6 277/5/6 289/5/6
f 278/7/6 279/7/6 290/7/6
f 289/6/6 278/6/6 290/6/6
f 279/8/6 280/8/6 291/8/6
f 290/7/6 279/7/6 291/7/6
f 280/9/6 244/9/6 292/9/6
f 291/8/6 280/8/6 292/8/6
f 286/9/6 287/9/6 293/9/6
f 285/9/6 286/9/6 293/9/6
f 291/9/6 292/9/6 293/9/6
f 284/9/6 285/9/6 293/9/6
f 283/9/6 284/9/6 293/9/6
f 289/9/6 290/9/6 293/9/6
f 281/9/6 282/9/6 293/9/6
f 241/9/6 281/9/6 293/9/6
f 290/9/6 291/9/6 293/9/6
f 282/9/6 283/9/6 293/9/6
f 287/9/6 288/9/6 293/9/6
f 288/9/6 289/9/6 293/9/6
f 292/9/6 244/9/6 294/9/6
f 293/9/6 292/9/6 294/9/6
f 295/2/6 296/2/6 297/2/6
f 297/2/6 296/2/6 298/2/6
f 299/9/6 300/9/6 303/9/6
f 300/5/6 301/5/6 304/5/6
f 303/9/6 300/9/6 304/9/6
f 301/9/6 302/9/6 305/9/6
f 304/5/6 301/5/6 305/5/6
f 305/9/6 302/9/6 306/9/6
f 307/9/6 308/9/6 309/9/6
f 309/9/6 308/9/6 310/9/6
