# MagicaVoxel @ Ephtracy

# group
o 

# material
mtllib control_table_radar1-0.mtl
usemtl palette

# normals
vn -1 0 0
vn 1 0 0
vn 0 0 1
vn 0 0 -1
vn 0 -1 0
vn 0 1 0

# texcoords
vt 0.658203 0.5
vt 0.751953 0.5
vt 0.783203 0.5
vt 0.791016 0.5
vt 0.794922 0.5
vt 0.943359 0.5
vt 0.947266 0.5
vt 0.970703 0.5
vt 0.986328 0.5
vt 0.994141 0.5

# verts
v -0.8 -0.8 0.8
v -0.8 -0.8 0
v -0.8 -0.2 0
v -0.8 -0.2 -0.3
v -0.8 0 0.3
v -0.8 0 -0.3
v -0.8 0.7 0.4
v -0.8 0.7 0.3
v -0.8 0.8 0.8
v -0.8 0.8 0.4
v -0.3 -0.4 -0.3
v -0.3 -0.4 -0.8
v -0.3 -0.3 -0.3
v -0.3 -0.3 -0.7
v -0.3 0.2 -0.7
v -0.3 0.2 -0.8
v -0.2 -0.8 -0.4
v -0.2 -0.8 -0.5
v -0.2 -0.8 -0.7
v -0.2 -0.8 -0.8
v -0.2 -0.7 -0.4
v -0.2 -0.7 -0.5
v -0.2 -0.7 -0.7
v -0.2 -0.7 -0.8
v -0.1 -0.8 -0.5
v -0.1 -0.8 -0.7
v -0.1 -0.7 -0.5
v -0.1 -0.7 -0.7
v -0.1 -0.4 -0.5
v -0.1 -0.4 -0.7
v 0.1 -0.8 -0.4
v 0.1 -0.8 -0.5
v 0.1 -0.8 -0.7
v 0.1 -0.8 -0.8
v 0.1 -0.7 -0.4
v 0.1 -0.7 -0.5
v 0.1 -0.7 -0.7
v 0.1 -0.7 -0.8
v -0.1 -0.8 -0.4
v -0.1 -0.8 -0.5
v -0.1 -0.8 -0.7
v -0.1 -0.8 -0.8
v -0.1 -0.7 -0.4
v -0.1 -0.7 -0.5
v -0.1 -0.7 -0.7
v -0.1 -0.7 -0.8
v 0.1 -0.8 -0.5
v 0.1 -0.8 -0.7
v 0.1 -0.7 -0.5
v 0.1 -0.7 -0.7
v 0.1 -0.4 -0.5
v 0.1 -0.4 -0.7
v 0.2 -0.8 -0.4
v 0.2 -0.8 -0.5
v 0.2 -0.8 -0.7
v 0.2 -0.8 -0.8
v 0.2 -0.7 -0.4
v 0.2 -0.7 -0.5
v 0.2 -0.7 -0.7
v 0.2 -0.7 -0.8
v 0.3 -0.4 -0.3
v 0.3 -0.4 -0.8
v 0.3 -0.3 -0.3
v 0.3 -0.3 -0.7
v 0.3 0.2 -0.7
v 0.3 0.2 -0.8
v 0.8 -0.8 0.8
v 0.8 -0.8 0
v 0.8 -0.2 0
v 0.8 -0.2 -0.3
v 0.8 0 0.3
v 0.8 0 -0.3
v 0.8 0.7 0.4
v 0.8 0.7 0.3
v 0.8 0.8 0.8
v 0.8 0.8 0.4
v -0.8 -0.8 0.8
v -0.8 0.8 0.8
v 0.8 -0.8 0.8
v 0.8 0.8 0.8
v -0.3 -0.4 -0.3
v -0.3 -0.3 -0.3
v 0.3 -0.4 -0.3
v 0.3 -0.3 -0.3
v -0.2 -0.8 -0.4
v -0.2 -0.7 -0.4
v -0.1 -0.8 -0.4
v -0.1 -0.7 -0.4
v 0.1 -0.8 -0.4
v 0.1 -0.7 -0.4
v 0.2 -0.8 -0.4
v 0.2 -0.7 -0.4
v -0.1 -0.8 -0.5
v -0.1 -0.7 -0.5
v -0.1 -0.4 -0.5
v 0.1 -0.8 -0.5
v 0.1 -0.7 -0.5
v 0.1 -0.4 -0.5
v -0.3 -0.3 -0.7
v -0.3 0.2 -0.7
v -0.2 -0.8 -0.7
v -0.2 -0.7 -0.7
v -0.1 -0.8 -0.7
v -0.1 -0.7 -0.7
v 0.1 -0.8 -0.7
v 0.1 -0.7 -0.7
v 0.2 -0.8 -0.7
v 0.2 -0.7 -0.7
v 0.3 -0.3 -0.7
v 0.3 0.2 -0.7
v -0.8 0.7 0.4
v -0.8 0.8 0.4
v -0.3 0.7 0.4
v 0.4 0.7 0.4
v 0.8 0.7 0.4
v 0.8 0.8 0.4
v -0.8 0 0.3
v -0.8 0.7 0.3
v -0.7 0.2 0.3
v -0.7 0.3 0.3
v -0.7 0.4 0.3
v -0.7 0.5 0.3
v -0.6 0.2 0.3
v -0.6 0.3 0.3
v -0.6 0.4 0.3
v -0.6 0.5 0.3
v -0.5 0.2 0.3
v -0.5 0.3 0.3
v -0.5 0.4 0.3
v -0.5 0.5 0.3
v -0.4 0.2 0.3
v -0.4 0.3 0.3
v -0.4 0.4 0.3
v -0.4 0.5 0.3
v -0.3 0 0.3
v -0.3 0.7 0.3
v -0.2 0.1 0.3
v -0.2 0.6 0.3
v 0 0.2 0.3
v 0 0.3 0.3
v 0 0.4 0.3
v 0.1 0.1 0.3
v 0.1 0.2 0.3
v 0.1 0.3 0.3
v 0.1 0.4 0.3
v 0.2 0.1 0.3
v 0.2 0.2 0.3
v 0.2 0.3 0.3
v 0.3 0.1 0.3
v 0.3 0.2 0.3
v 0.3 0.6 0.3
v 0.4 0 0.3
v 0.4 0.7 0.3
v 0.8 0 0.3
v 0.8 0.7 0.3
v -0.8 -0.8 0
v -0.8 -0.2 0
v 0.8 -0.8 0
v 0.8 -0.2 0
v -0.8 -0.2 -0.3
v -0.8 0 -0.3
v 0.8 -0.2 -0.3
v 0.8 0 -0.3
v -0.2 -0.8 -0.5
v -0.2 -0.7 -0.5
v -0.1 -0.8 -0.5
v -0.1 -0.7 -0.5
v 0.1 -0.8 -0.5
v 0.1 -0.7 -0.5
v 0.2 -0.8 -0.5
v 0.2 -0.7 -0.5
v -0.1 -0.8 -0.7
v -0.1 -0.7 -0.7
v -0.1 -0.4 -0.7
v 0.1 -0.8 -0.7
v 0.1 -0.7 -0.7
v 0.1 -0.4 -0.7
v -0.3 -0.4 -0.8
v -0.3 0.2 -0.8
v -0.2 -0.8 -0.8
v -0.2 -0.7 -0.8
v -0.1 -0.8 -0.8
v -0.1 -0.7 -0.8
v 0.1 -0.8 -0.8
v 0.1 -0.7 -0.8
v 0.2 -0.8 -0.8
v 0.2 -0.7 -0.8
v 0.3 -0.4 -0.8
v 0.3 0.2 -0.8
v -0.8 -0.8 0.8
v 0.8 -0.8 0.8
v -0.8 -0.8 0
v 0.8 -0.8 0
v -0.2 -0.8 -0.4
v -0.1 -0.8 -0.4
v 0.1 -0.8 -0.4
v 0.2 -0.8 -0.4
v -0.2 -0.8 -0.5
v -0.1 -0.8 -0.5
v 0.1 -0.8 -0.5
v 0.2 -0.8 -0.5
v -0.2 -0.8 -0.7
v -0.1 -0.8 -0.7
v 0.1 -0.8 -0.7
v 0.2 -0.8 -0.7
v -0.2 -0.8 -0.8
v -0.1 -0.8 -0.8
v 0.1 -0.8 -0.8
v 0.2 -0.8 -0.8
v -0.3 -0.4 -0.3
v 0.3 -0.4 -0.3
v -0.1 -0.4 -0.5
v 0.1 -0.4 -0.5
v -0.1 -0.4 -0.7
v 0.1 -0.4 -0.7
v -0.3 -0.4 -0.8
v 0.3 -0.4 -0.8
v -0.8 -0.2 0
v 0.8 -0.2 0
v -0.8 -0.2 -0.3
v 0.8 -0.2 -0.3
v -0.2 -0.7 -0.4
v -0.1 -0.7 -0.4
v 0.1 -0.7 -0.4
v 0.2 -0.7 -0.4
v -0.2 -0.7 -0.5
v -0.1 -0.7 -0.5
v 0.1 -0.7 -0.5
v 0.2 -0.7 -0.5
v -0.2 -0.7 -0.7
v -0.1 -0.7 -0.7
v 0.1 -0.7 -0.7
v 0.2 -0.7 -0.7
v -0.2 -0.7 -0.8
v -0.1 -0.7 -0.8
v 0.1 -0.7 -0.8
v 0.2 -0.7 -0.8
v -0.3 -0.3 -0.3
v 0.3 -0.3 -0.3
v -0.3 -0.3 -0.7
v 0.3 -0.3 -0.7
v -0.8 0 0.3
v -0.3 0 0.3
v 0.4 0 0.3
v 0.8 0 0.3
v -0.7 0 0.1
v -0.6 0 0.1
v -0.5 0 0.1
v -0.4 0 0.1
v -0.3 0 0.1
v -0.2 0 0.1
v -0.1 0 0.1
v 0 0 0.1
v 0.1 0 0.1
v 0.2 0 0.1
v 0.3 0 0.1
v 0.4 0 0.1
v -0.7 0 0
v -0.6 0 0
v -0.5 0 0
v -0.4 0 0
v -0.3 0 0
v -0.2 0 0
v -0.1 0 0
v 0 0 0
v 0.1 0 0
v 0.2 0 0
v 0.3 0 0
v 0.4 0 0
v -0.7 0 -0.1
v -0.6 0 -0.1
v -0.5 0 -0.1
v -0.4 0 -0.1
v -0.3 0 -0.1
v -0.2 0 -0.1
v -0.1 0 -0.1
v 0 0 -0.1
v 0.1 0 -0.1
v 0.2 0 -0.1
v 0.3 0 -0.1
v 0.4 0 -0.1
v -0.7 0 -0.2
v -0.6 0 -0.2
v -0.5 0 -0.2
v -0.4 0 -0.2
v -0.3 0 -0.2
v -0.2 0 -0.2
v -0.1 0 -0.2
v 0 0 -0.2
v 0.1 0 -0.2
v 0.2 0 -0.2
v 0.3 0 -0.2
v 0.4 0 -0.2
v -0.8 0 -0.3
v 0.8 0 -0.3
v -0.3 0.2 -0.7
v 0.3 0.2 -0.7
v -0.3 0.2 -0.8
v 0.3 0.2 -0.8
v -0.8 0.7 0.4
v -0.3 0.7 0.4
v 0.4 0.7 0.4
v 0.8 0.7 0.4
v -0.8 0.7 0.3
v -0.3 0.7 0.3
v 0.4 0.7 0.3
v 0.8 0.7 0.3
v -0.8 0.8 0.8
v 0.8 0.8 0.8
v -0.8 0.8 0.4
v 0.8 0.8 0.4

# faces
f 3/10/1 2/10/1 1/10/1
f 5/10/1 3/10/1 1/10/1
f 5/10/1 4/10/1 3/10/1
f 6/10/1 4/10/1 5/10/1
f 7/10/1 5/10/1 1/10/1
f 8/10/1 5/10/1 7/10/1
f 9/10/1 7/10/1 1/10/1
f 10/10/1 7/10/1 9/10/1
f 13/3/1 12/3/1 11/3/1
f 14/3/1 12/3/1 13/3/1
f 15/3/1 12/3/1 14/3/1
f 16/3/1 12/3/1 15/3/1
f 21/9/1 18/9/1 17/9/1
f 22/9/1 18/9/1 21/9/1
f 23/9/1 20/9/1 19/9/1
f 24/9/1 20/9/1 23/9/1
f 27/9/1 26/9/1 25/9/1
f 28/9/1 26/9/1 27/9/1
f 29/6/1 28/6/1 27/6/1
f 30/6/1 28/6/1 29/6/1
f 35/9/1 32/9/1 31/9/1
f 36/9/1 32/9/1 35/9/1
f 37/9/1 34/9/1 33/9/1
f 38/9/1 34/9/1 37/9/1
f 39/9/2 40/9/2 43/9/2
f 43/9/2 40/9/2 44/9/2
f 41/9/2 42/9/2 45/9/2
f 45/9/2 42/9/2 46/9/2
f 47/9/2 48/9/2 49/9/2
f 49/9/2 48/9/2 50/9/2
f 49/6/2 50/6/2 51/6/2
f 51/6/2 50/6/2 52/6/2
f 53/9/2 54/9/2 57/9/2
f 57/9/2 54/9/2 58/9/2
f 55/9/2 56/9/2 59/9/2
f 59/9/2 56/9/2 60/9/2
f 61/3/2 62/3/2 63/3/2
f 63/3/2 62/3/2 64/3/2
f 64/3/2 62/3/2 65/3/2
f 65/3/2 62/3/2 66/3/2
f 67/10/2 68/10/2 69/10/2
f 67/10/2 69/10/2 71/10/2
f 69/10/2 70/10/2 71/10/2
f 71/10/2 70/10/2 72/10/2
f 67/10/2 71/10/2 73/10/2
f 73/10/2 71/10/2 74/10/2
f 67/10/2 73/10/2 75/10/2
f 75/10/2 73/10/2 76/10/2
f 79/10/3 78/10/3 77/10/3
f 80/10/3 78/10/3 79/10/3
f 83/3/3 82/3/3 81/3/3
f 84/3/3 82/3/3 83/3/3
f 87/9/3 86/9/3 85/9/3
f 88/9/3 86/9/3 87/9/3
f 91/9/3 90/9/3 89/9/3
f 92/9/3 90/9/3 91/9/3
f 96/9/3 94/9/3 93/9/3
f 97/6/3 95/6/3 94/6/3
f 97/9/3 94/9/3 96/9/3
f 98/6/3 95/6/3 97/6/3
f 103/9/3 102/9/3 101/9/3
f 104/9/3 102/9/3 103/9/3
f 107/9/3 106/9/3 105/9/3
f 108/9/3 106/9/3 107/9/3
f 109/3/3 100/3/3 99/3/3
f 110/3/3 100/3/3 109/3/3
f 111/10/4 112/10/4 113/10/4
f 113/10/4 112/10/4 114/10/4
f 114/10/4 112/10/4 115/10/4
f 115/10/4 112/10/4 116/10/4
f 117/10/4 118/10/4 119/10/4
f 119/10/4 118/10/4 120/10/4
f 120/10/4 118/10/4 121/10/4
f 121/10/4 118/10/4 122/10/4
f 117/10/4 119/10/4 123/10/4
f 119/5/4 120/5/4 123/5/4
f 120/6/4 121/6/4 124/6/4
f 123/5/4 120/5/4 124/5/4
f 121/5/4 122/5/4 125/5/4
f 124/6/4 121/6/4 125/6/4
f 122/10/4 118/10/4 126/10/4
f 125/5/4 122/5/4 126/5/4
f 124/6/4 125/6/4 127/6/4
f 123/6/4 124/6/4 127/6/4
f 125/6/4 126/6/4 127/6/4
f 117/10/4 123/10/4 127/10/4
f 127/6/4 126/6/4 128/6/4
f 128/6/4 126/6/4 129/6/4
f 126/10/4 118/10/4 130/10/4
f 129/6/4 126/6/4 130/6/4
f 117/10/4 127/10/4 131/10/4
f 127/5/4 128/5/4 131/5/4
f 128/6/4 129/6/4 132/6/4
f 131/5/4 128/5/4 132/5/4
f 129/5/4 130/5/4 133/5/4
f 132/6/4 129/6/4 133/6/4
f 130/10/4 118/10/4 134/10/4
f 133/5/4 130/5/4 134/5/4
f 117/10/4 131/10/4 135/10/4
f 132/10/4 133/10/4 135/10/4
f 133/10/4 134/10/4 135/10/4
f 131/10/4 132/10/4 135/10/4
f 134/10/4 118/10/4 136/10/4
f 135/10/4 134/10/4 136/10/4
f 135/6/4 136/6/4 137/6/4
f 137/6/4 136/6/4 138/6/4
f 137/4/4 138/4/4 139/4/4
f 139/4/4 138/4/4 140/4/4
f 140/4/4 138/4/4 141/4/4
f 135/6/4 137/6/4 142/6/4
f 137/4/4 139/4/4 142/4/4
f 139/2/4 140/2/4 143/2/4
f 142/4/4 139/4/4 143/4/4
f 140/1/4 141/1/4 144/1/4
f 143/2/4 140/2/4 144/2/4
f 141/4/4 138/4/4 145/4/4
f 144/1/4 141/1/4 145/1/4
f 142/2/4 143/2/4 146/2/4
f 135/6/4 142/6/4 146/6/4
f 143/1/4 144/1/4 147/1/4
f 146/2/4 143/2/4 147/2/4
f 144/4/4 145/4/4 148/4/4
f 147/1/4 144/1/4 148/1/4
f 135/6/4 146/6/4 149/6/4
f 146/1/4 147/1/4 149/1/4
f 147/4/4 148/4/4 150/4/4
f 149/1/4 147/1/4 150/1/4
f 148/4/4 145/4/4 151/4/4
f 150/4/4 148/4/4 151/4/4
f 138/6/4 136/6/4 151/6/4
f 145/4/4 138/4/4 151/4/4
f 149/6/4 150/6/4 152/6/4
f 135/6/4 149/6/4 152/6/4
f 150/6/4 151/6/4 152/6/4
f 151/6/4 136/6/4 153/6/4
f 152/6/4 151/6/4 153/6/4
f 152/10/4 153/10/4 154/10/4
f 154/10/4 153/10/4 155/10/4
f 156/10/4 157/10/4 158/10/4
f 158/10/4 157/10/4 159/10/4
f 160/10/4 161/10/4 162/10/4
f 162/10/4 161/10/4 163/10/4
f 164/9/4 165/9/4 166/9/4
f 166/9/4 165/9/4 167/9/4
f 168/9/4 169/9/4 170/9/4
f 170/9/4 169/9/4 171/9/4
f 172/9/4 173/9/4 175/9/4
f 173/6/4 174/6/4 176/6/4
f 175/9/4 173/9/4 176/9/4
f 176/6/4 174/6/4 177/6/4
f 180/9/4 181/9/4 182/9/4
f 182/9/4 181/9/4 183/9/4
f 184/9/4 185/9/4 186/9/4
f 186/9/4 185/9/4 187/9/4
f 178/3/4 179/3/4 188/3/4
f 188/3/4 179/3/4 189/3/4
f 192/10/5 191/10/5 190/10/5
f 193/10/5 191/10/5 192/10/5
f 198/9/5 195/9/5 194/9/5
f 199/9/5 195/9/5 198/9/5
f 200/9/5 197/9/5 196/9/5
f 201/9/5 197/9/5 200/9/5
f 203/9/5 200/9/5 199/9/5
f 204/9/5 200/9/5 203/9/5
f 206/9/5 203/9/5 202/9/5
f 207/9/5 203/9/5 206/9/5
f 208/9/5 205/9/5 204/9/5
f 209/9/5 205/9/5 208/9/5
f 212/3/5 211/3/5 210/3/5
f 213/3/5 211/3/5 212/3/5
f 214/3/5 212/3/5 210/3/5
f 215/3/5 211/3/5 213/3/5
f 216/3/5 214/3/5 210/3/5
f 216/3/5 215/3/5 214/3/5
f 217/3/5 211/3/5 215/3/5
f 217/3/5 215/3/5 216/3/5
f 220/10/5 219/10/5 218/10/5
f 221/10/5 219/10/5 220/10/5
f 222/9/6 223/9/6 226/9/6
f 226/9/6 223/9/6 227/9/6
f 224/9/6 225/9/6 228/9/6
f 228/9/6 225/9/6 229/9/6
f 230/9/6 231/9/6 234/9/6
f 234/9/6 231/9/6 235/9/6
f 232/9/6 233/9/6 236/9/6
f 236/9/6 233/9/6 237/9/6
f 238/3/6 239/3/6 240/3/6
f 240/3/6 239/3/6 241/3/6
f 242/10/6 243/10/6 246/10/6
f 244/10/6 245/10/6 246/10/6
f 243/10/6 244/10/6 246/10/6
f 246/10/6 245/10/6 247/10/6
f 247/10/6 245/10/6 248/10/6
f 248/10/6 245/10/6 249/10/6
f 249/10/6 245/10/6 250/10/6
f 250/10/6 245/10/6 251/10/6
f 251/10/6 245/10/6 252/10/6
f 252/10/6 245/10/6 253/10/6
f 253/10/6 245/10/6 254/10/6
f 254/10/6 245/10/6 255/10/6
f 255/10/6 245/10/6 256/10/6
f 256/10/6 245/10/6 257/10/6
f 242/10/6 246/10/6 258/10/6
f 246/9/6 247/9/6 258/9/6
f 247/8/6 248/8/6 259/8/6
f 258/9/6 247/9/6 259/9/6
f 248/6/6 249/6/6 260/6/6
f 259/8/6 248/8/6 260/8/6
f 249/10/6 250/10/6 261/10/6
f 260/6/6 249/6/6 261/6/6
f 250/7/6 251/7/6 262/7/6
f 261/10/6 250/10/6 262/10/6
f 251/8/6 252/8/6 263/8/6
f 262/7/6 251/7/6 263/7/6
f 252/6/6 253/6/6 264/6/6
f 263/8/6 252/8/6 264/8/6
f 253/8/6 254/8/6 265/8/6
f 264/6/6 253/6/6 265/6/6
f 254/9/6 255/9/6 266/9/6
f 265/8/6 254/8/6 266/8/6
f 255/6/6 256/6/6 267/6/6
f 266/9/6 255/9/6 267/9/6
f 256/8/6 257/8/6 268/8/6
f 267/6/6 256/6/6 268/6/6
f 257/10/6 245/10/6 269/10/6
f 268/8/6 257/8/6 269/8/6
f 242/10/6 258/10/6 270/10/6
f 258/6/6 259/6/6 270/6/6
f 259/6/6 260/6/6 270/6/6
f 270/6/6 260/6/6 271/6/6
f 260/9/6 261/9/6 272/9/6
f 271/6/6 260/6/6 272/6/6
f 261/10/6 262/10/6 273/10/6
f 272/9/6 261/9/6 273/9/6
f 262/6/6 263/6/6 274/6/6
f 273/10/6 262/10/6 274/10/6
f 265/7/6 266/7/6 275/7/6
f 274/6/6 263/6/6 275/6/6
f 263/7/6 264/7/6 275/7/6
f 264/7/6 265/7/6 275/7/6
f 275/7/6 266/7/6 276/7/6
f 276/7/6 266/7/6 277/7/6
f 266/6/6 267/6/6 278/6/6
f 277/7/6 266/7/6 278/7/6
f 267/8/6 268/8/6 279/8/6
f 278/6/6 267/6/6 279/6/6
f 268/6/6 269/6/6 280/6/6
f 279/8/6 268/8/6 280/8/6
f 269/10/6 245/10/6 281/10/6
f 280/6/6 269/6/6 281/6/6
f 270/8/6 271/8/6 282/8/6
f 242/10/6 270/10/6 282/10/6
f 271/7/6 272/7/6 283/7/6
f 282/8/6 271/8/6 283/8/6
f 272/8/6 273/8/6 284/8/6
f 283/7/6 272/7/6 284/7/6
f 273/10/6 274/10/6 285/10/6
f 284/8/6 273/8/6 285/8/6
f 274/8/6 275/8/6 286/8/6
f 285/10/6 274/10/6 286/10/6
f 275/9/6 276/9/6 287/9/6
f 286/8/6 275/8/6 287/8/6
f 276/8/6 277/8/6 288/8/6
f 287/9/6 276/9/6 288/9/6
f 277/6/6 278/6/6 289/6/6
f 288/8/6 277/8/6 289/8/6
f 278/7/6 279/7/6 290/7/6
f 289/6/6 278/6/6 290/6/6
f 279/8/6 280/8/6 291/8/6
f 290/7/6 279/7/6 291/7/6
f 280/9/6 281/9/6 292/9/6
f 291/8/6 280/8/6 292/8/6
f 281/10/6 245/10/6 293/10/6
f 292/9/6 281/9/6 293/9/6
f 287/10/6 288/10/6 294/10/6
f 286/10/6 287/10/6 294/10/6
f 292/10/6 293/10/6 294/10/6
f 285/10/6 286/10/6 294/10/6
f 284/10/6 285/10/6 294/10/6
f 290/10/6 291/10/6 294/10/6
f 282/10/6 283/10/6 294/10/6
f 242/10/6 282/10/6 294/10/6
f 291/10/6 292/10/6 294/10/6
f 283/10/6 284/10/6 294/10/6
f 288/10/6 289/10/6 294/10/6
f 289/10/6 290/10/6 294/10/6
f 293/10/6 245/10/6 295/10/6
f 294/10/6 293/10/6 295/10/6
f 296/3/6 297/3/6 298/3/6
f 298/3/6 297/3/6 299/3/6
f 300/10/6 301/10/6 304/10/6
f 301/6/6 302/6/6 305/6/6
f 304/10/6 301/10/6 305/10/6
f 302/10/6 303/10/6 306/10/6
f 305/6/6 302/6/6 306/6/6
f 306/10/6 303/10/6 307/10/6
f 308/10/6 309/10/6 310/10/6
f 310/10/6 309/10/6 311/10/6
