# MagicaVoxel @ Ephtracy

# group
o 

# material
mtllib control_table_06-0.mtl
usemtl palette

# normals
vn -1 0 0
vn 1 0 0
vn 0 0 1
vn 0 0 -1
vn 0 -1 0
vn 0 1 0

# texcoords
vt 0.564453 0.5
vt 0.568359 0.5
vt 0.572266 0.5
vt 0.626953 0.5
vt 0.783203 0.5
vt 0.787109 0.5
vt 0.939453 0.5
vt 0.943359 0.5
vt 0.947266 0.5
vt 0.970703 0.5
vt 0.986328 0.5
vt 0.994141 0.5

# verts
v -0.8 -0.8 0.8
v -0.8 -0.8 0
v -0.8 -0.2 0
v -0.8 -0.2 -0.3
v -0.8 0 0.3
v -0.8 0 -0.3
v -0.8 0.7 0.4
v -0.8 0.7 0.3
v -0.8 0.8 0.8
v -0.8 0.8 0.4
v -0.3 -0.4 -0.3
v -0.3 -0.4 -0.8
v -0.3 -0.3 -0.3
v -0.3 -0.3 -0.7
v -0.3 0.2 -0.7
v -0.3 0.2 -0.8
v -0.2 -0.8 -0.4
v -0.2 -0.8 -0.5
v -0.2 -0.8 -0.7
v -0.2 -0.8 -0.8
v -0.2 -0.7 -0.4
v -0.2 -0.7 -0.5
v -0.2 -0.7 -0.7
v -0.2 -0.7 -0.8
v -0.1 -0.8 -0.5
v -0.1 -0.8 -0.7
v -0.1 -0.7 -0.5
v -0.1 -0.7 -0.7
v -0.1 -0.4 -0.5
v -0.1 -0.4 -0.7
v 0.1 -0.8 -0.4
v 0.1 -0.8 -0.5
v 0.1 -0.8 -0.7
v 0.1 -0.8 -0.8
v 0.1 -0.7 -0.4
v 0.1 -0.7 -0.5
v 0.1 -0.7 -0.7
v 0.1 -0.7 -0.8
v 0.5 0 0.2
v 0.5 0 -0.2
v 0.5 0.1 0.2
v 0.5 0.1 -0.2
v -0.1 -0.8 -0.4
v -0.1 -0.8 -0.5
v -0.1 -0.8 -0.7
v -0.1 -0.8 -0.8
v -0.1 -0.7 -0.4
v -0.1 -0.7 -0.5
v -0.1 -0.7 -0.7
v -0.1 -0.7 -0.8
v 0.1 -0.8 -0.5
v 0.1 -0.8 -0.7
v 0.1 -0.7 -0.5
v 0.1 -0.7 -0.7
v 0.1 -0.4 -0.5
v 0.1 -0.4 -0.7
v 0.2 -0.8 -0.4
v 0.2 -0.8 -0.5
v 0.2 -0.8 -0.7
v 0.2 -0.8 -0.8
v 0.2 -0.7 -0.4
v 0.2 -0.7 -0.5
v 0.2 -0.7 -0.7
v 0.2 -0.7 -0.8
v 0.3 -0.4 -0.3
v 0.3 -0.4 -0.8
v 0.3 -0.3 -0.3
v 0.3 -0.3 -0.7
v 0.3 0.2 -0.7
v 0.3 0.2 -0.8
v 0.8 -0.8 0.8
v 0.8 -0.8 0
v 0.8 -0.2 0
v 0.8 -0.2 -0.3
v 0.8 0 0.3
v 0.8 0 0.2
v 0.8 0 -0.2
v 0.8 0 -0.3
v 0.8 0.1 0.2
v 0.8 0.1 -0.2
v 0.8 0.7 0.4
v 0.8 0.7 0.3
v 0.8 0.8 0.8
v 0.8 0.8 0.4
v -0.8 -0.8 0.8
v -0.8 0.8 0.8
v 0.8 -0.8 0.8
v 0.8 0.8 0.8
v 0.5 0 0.2
v 0.5 0.1 0.2
v 0.8 0 0.2
v 0.8 0.1 0.2
v -0.3 -0.4 -0.3
v -0.3 -0.3 -0.3
v 0.3 -0.4 -0.3
v 0.3 -0.3 -0.3
v -0.2 -0.8 -0.4
v -0.2 -0.7 -0.4
v -0.1 -0.8 -0.4
v -0.1 -0.7 -0.4
v 0.1 -0.8 -0.4
v 0.1 -0.7 -0.4
v 0.2 -0.8 -0.4
v 0.2 -0.7 -0.4
v -0.1 -0.8 -0.5
v -0.1 -0.7 -0.5
v -0.1 -0.4 -0.5
v 0.1 -0.8 -0.5
v 0.1 -0.7 -0.5
v 0.1 -0.4 -0.5
v -0.3 -0.3 -0.7
v -0.3 0.2 -0.7
v -0.2 -0.8 -0.7
v -0.2 -0.7 -0.7
v -0.1 -0.8 -0.7
v -0.1 -0.7 -0.7
v 0.1 -0.8 -0.7
v 0.1 -0.7 -0.7
v 0.2 -0.8 -0.7
v 0.2 -0.7 -0.7
v 0.3 -0.3 -0.7
v 0.3 0.2 -0.7
v -0.8 0.7 0.4
v -0.8 0.8 0.4
v -0.3 0.7 0.4
v 0.4 0.7 0.4
v 0.8 0.7 0.4
v 0.8 0.8 0.4
v -0.8 0 0.3
v -0.8 0.7 0.3
v -0.7 0 0.3
v -0.7 0.1 0.3
v -0.7 0.2 0.3
v -0.7 0.3 0.3
v -0.7 0.4 0.3
v -0.7 0.5 0.3
v -0.6 0 0.3
v -0.6 0.1 0.3
v -0.6 0.3 0.3
v -0.6 0.4 0.3
v -0.6 0.5 0.3
v -0.5 0.1 0.3
v -0.5 0.2 0.3
v -0.5 0.3 0.3
v -0.5 0.4 0.3
v -0.5 0.5 0.3
v -0.4 0 0.3
v -0.4 0.1 0.3
v -0.4 0.3 0.3
v -0.4 0.4 0.3
v -0.4 0.5 0.3
v -0.3 0 0.3
v -0.3 0.7 0.3
v -0.2 0.1 0.3
v -0.2 0.6 0.3
v -0.1 0.1 0.3
v -0.1 0.2 0.3
v 0 0.5 0.3
v 0 0.6 0.3
v 0.1 0.3 0.3
v 0.1 0.4 0.3
v 0.3 0.1 0.3
v 0.3 0.2 0.3
v 0.3 0.3 0.3
v 0.3 0.4 0.3
v 0.3 0.5 0.3
v 0.3 0.6 0.3
v 0.4 0 0.3
v 0.4 0.7 0.3
v 0.8 0 0.3
v 0.8 0.7 0.3
v -0.8 -0.8 0
v -0.8 -0.2 0
v 0.8 -0.8 0
v 0.8 -0.2 0
v 0.5 0 -0.2
v 0.5 0.1 -0.2
v 0.8 0 -0.2
v 0.8 0.1 -0.2
v -0.8 -0.2 -0.3
v -0.8 0 -0.3
v 0.8 -0.2 -0.3
v 0.8 0 -0.3
v -0.2 -0.8 -0.5
v -0.2 -0.7 -0.5
v -0.1 -0.8 -0.5
v -0.1 -0.7 -0.5
v 0.1 -0.8 -0.5
v 0.1 -0.7 -0.5
v 0.2 -0.8 -0.5
v 0.2 -0.7 -0.5
v -0.1 -0.8 -0.7
v -0.1 -0.7 -0.7
v -0.1 -0.4 -0.7
v 0.1 -0.8 -0.7
v 0.1 -0.7 -0.7
v 0.1 -0.4 -0.7
v -0.3 -0.4 -0.8
v -0.3 0.2 -0.8
v -0.2 -0.8 -0.8
v -0.2 -0.7 -0.8
v -0.1 -0.8 -0.8
v -0.1 -0.7 -0.8
v 0.1 -0.8 -0.8
v 0.1 -0.7 -0.8
v 0.2 -0.8 -0.8
v 0.2 -0.7 -0.8
v 0.3 -0.4 -0.8
v 0.3 0.2 -0.8
v -0.8 -0.8 0.8
v 0.8 -0.8 0.8
v -0.8 -0.8 0
v 0.8 -0.8 0
v -0.2 -0.8 -0.4
v -0.1 -0.8 -0.4
v 0.1 -0.8 -0.4
v 0.2 -0.8 -0.4
v -0.2 -0.8 -0.5
v -0.1 -0.8 -0.5
v 0.1 -0.8 -0.5
v 0.2 -0.8 -0.5
v -0.2 -0.8 -0.7
v -0.1 -0.8 -0.7
v 0.1 -0.8 -0.7
v 0.2 -0.8 -0.7
v -0.2 -0.8 -0.8
v -0.1 -0.8 -0.8
v 0.1 -0.8 -0.8
v 0.2 -0.8 -0.8
v -0.3 -0.4 -0.3
v 0.3 -0.4 -0.3
v -0.1 -0.4 -0.5
v 0.1 -0.4 -0.5
v -0.1 -0.4 -0.7
v 0.1 -0.4 -0.7
v -0.3 -0.4 -0.8
v 0.3 -0.4 -0.8
v -0.8 -0.2 0
v 0.8 -0.2 0
v -0.8 -0.2 -0.3
v 0.8 -0.2 -0.3
v -0.2 -0.7 -0.4
v -0.1 -0.7 -0.4
v 0.1 -0.7 -0.4
v 0.2 -0.7 -0.4
v -0.2 -0.7 -0.5
v -0.1 -0.7 -0.5
v 0.1 -0.7 -0.5
v 0.2 -0.7 -0.5
v -0.2 -0.7 -0.7
v -0.1 -0.7 -0.7
v 0.1 -0.7 -0.7
v 0.2 -0.7 -0.7
v -0.2 -0.7 -0.8
v -0.1 -0.7 -0.8
v 0.1 -0.7 -0.8
v 0.2 -0.7 -0.8
v -0.3 -0.3 -0.3
v 0.3 -0.3 -0.3
v -0.3 -0.3 -0.7
v 0.3 -0.3 -0.7
v -0.8 0 0.3
v -0.7 0 0.3
v -0.6 0 0.3
v -0.4 0 0.3
v -0.3 0 0.3
v 0.4 0 0.3
v 0.8 0 0.3
v 0.5 0 0.2
v 0.8 0 0.2
v -0.7 0 0.1
v -0.6 0 0.1
v -0.5 0 0.1
v -0.4 0 0.1
v -0.3 0 0.1
v -0.2 0 0.1
v -0.1 0 0.1
v 0 0 0.1
v 0.1 0 0.1
v 0.2 0 0.1
v 0.3 0 0.1
v 0.4 0 0.1
v -0.7 0 0
v -0.6 0 0
v -0.5 0 0
v -0.4 0 0
v -0.3 0 0
v -0.2 0 0
v -0.1 0 0
v 0 0 0
v 0.1 0 0
v 0.2 0 0
v 0.3 0 0
v 0.4 0 0
v -0.7 0 -0.1
v -0.6 0 -0.1
v -0.5 0 -0.1
v -0.4 0 -0.1
v -0.3 0 -0.1
v -0.2 0 -0.1
v -0.1 0 -0.1
v 0 0 -0.1
v 0.1 0 -0.1
v 0.2 0 -0.1
v 0.3 0 -0.1
v 0.4 0 -0.1
v -0.7 0 -0.2
v -0.6 0 -0.2
v -0.5 0 -0.2
v -0.4 0 -0.2
v -0.3 0 -0.2
v -0.2 0 -0.2
v -0.1 0 -0.2
v 0 0 -0.2
v 0.1 0 -0.2
v 0.2 0 -0.2
v 0.3 0 -0.2
v 0.4 0 -0.2
v 0.5 0 -0.2
v 0.8 0 -0.2
v -0.8 0 -0.3
v 0.8 0 -0.3
v 0.5 0.1 0.2
v 0.8 0.1 0.2
v 0.5 0.1 -0.2
v 0.8 0.1 -0.2
v -0.3 0.2 -0.7
v 0.3 0.2 -0.7
v -0.3 0.2 -0.8
v 0.3 0.2 -0.8
v -0.8 0.7 0.4
v -0.3 0.7 0.4
v 0.4 0.7 0.4
v 0.8 0.7 0.4
v -0.8 0.7 0.3
v -0.3 0.7 0.3
v 0.4 0.7 0.3
v 0.8 0.7 0.3
v -0.8 0.8 0.8
v 0.8 0.8 0.8
v -0.8 0.8 0.4
v 0.8 0.8 0.4

# faces
f 3/12/1 2/12/1 1/12/1
f 5/12/1 3/12/1 1/12/1
f 5/12/1 4/12/1 3/12/1
f 6/12/1 4/12/1 5/12/1
f 7/12/1 5/12/1 1/12/1
f 8/12/1 5/12/1 7/12/1
f 9/12/1 7/12/1 1/12/1
f 10/12/1 7/12/1 9/12/1
f 13/5/1 12/5/1 11/5/1
f 14/5/1 12/5/1 13/5/1
f 15/5/1 12/5/1 14/5/1
f 16/5/1 12/5/1 15/5/1
f 21/11/1 18/11/1 17/11/1
f 22/11/1 18/11/1 21/11/1
f 23/11/1 20/11/1 19/11/1
f 24/11/1 20/11/1 23/11/1
f 27/11/1 26/11/1 25/11/1
f 28/11/1 26/11/1 27/11/1
f 29/8/1 28/8/1 27/8/1
f 30/8/1 28/8/1 29/8/1
f 35/11/1 32/11/1 31/11/1
f 36/11/1 32/11/1 35/11/1
f 37/11/1 34/11/1 33/11/1
f 38/11/1 34/11/1 37/11/1
f 41/6/1 40/6/1 39/6/1
f 42/6/1 40/6/1 41/6/1
f 43/11/2 44/11/2 47/11/2
f 47/11/2 44/11/2 48/11/2
f 45/11/2 46/11/2 49/11/2
f 49/11/2 46/11/2 50/11/2
f 51/11/2 52/11/2 53/11/2
f 53/11/2 52/11/2 54/11/2
f 53/8/2 54/8/2 55/8/2
f 55/8/2 54/8/2 56/8/2
f 57/11/2 58/11/2 61/11/2
f 61/11/2 58/11/2 62/11/2
f 59/11/2 60/11/2 63/11/2
f 63/11/2 60/11/2 64/11/2
f 65/5/2 66/5/2 67/5/2
f 67/5/2 66/5/2 68/5/2
f 68/5/2 66/5/2 69/5/2
f 69/5/2 66/5/2 70/5/2
f 71/12/2 72/12/2 73/12/2
f 71/12/2 73/12/2 75/12/2
f 73/12/2 74/12/2 75/12/2
f 75/12/2 74/12/2 76/12/2
f 76/12/2 74/12/2 77/12/2
f 77/12/2 74/12/2 78/12/2
f 76/6/2 77/6/2 79/6/2
f 79/6/2 77/6/2 80/6/2
f 71/12/2 75/12/2 81/12/2
f 81/12/2 75/12/2 82/12/2
f 71/12/2 81/12/2 83/12/2
f 83/12/2 81/12/2 84/12/2
f 87/12/3 86/12/3 85/12/3
f 88/12/3 86/12/3 87/12/3
f 91/6/3 90/6/3 89/6/3
f 92/6/3 90/6/3 91/6/3
f 95/5/3 94/5/3 93/5/3
f 96/5/3 94/5/3 95/5/3
f 99/11/3 98/11/3 97/11/3
f 100/11/3 98/11/3 99/11/3
f 103/11/3 102/11/3 101/11/3
f 104/11/3 102/11/3 103/11/3
f 108/11/3 106/11/3 105/11/3
f 109/8/3 107/8/3 106/8/3
f 109/11/3 106/11/3 108/11/3
f 110/8/3 107/8/3 109/8/3
f 115/11/3 114/11/3 113/11/3
f 116/11/3 114/11/3 115/11/3
f 119/11/3 118/11/3 117/11/3
f 120/11/3 118/11/3 119/11/3
f 121/5/3 112/5/3 111/5/3
f 122/5/3 112/5/3 121/5/3
f 123/12/4 124/12/4 125/12/4
f 125/12/4 124/12/4 126/12/4
f 126/12/4 124/12/4 127/12/4
f 127/12/4 124/12/4 128/12/4
f 129/12/4 130/12/4 131/12/4
f 131/12/4 130/12/4 132/12/4
f 132/12/4 130/12/4 133/12/4
f 133/12/4 130/12/4 134/12/4
f 134/12/4 130/12/4 135/12/4
f 135/12/4 130/12/4 136/12/4
f 131/1/4 132/1/4 137/1/4
f 132/3/4 133/3/4 138/3/4
f 137/1/4 132/1/4 138/1/4
f 133/2/4 134/2/4 139/2/4
f 134/8/4 135/8/4 139/8/4
f 135/1/4 136/1/4 140/1/4
f 139/8/4 135/8/4 140/8/4
f 136/12/4 130/12/4 141/12/4
f 140/1/4 136/1/4 141/1/4
f 138/3/4 133/3/4 142/3/4
f 137/3/4 138/3/4 142/3/4
f 139/2/4 140/2/4 143/2/4
f 142/3/4 133/3/4 143/3/4
f 133/2/4 139/2/4 143/2/4
f 143/2/4 140/2/4 144/2/4
f 140/8/4 141/8/4 145/8/4
f 144/2/4 140/2/4 145/2/4
f 141/12/4 130/12/4 146/12/4
f 145/8/4 141/8/4 146/8/4
f 137/3/4 142/3/4 147/3/4
f 143/2/4 144/2/4 148/2/4
f 147/3/4 142/3/4 148/3/4
f 142/2/4 143/2/4 148/2/4
f 144/1/4 145/1/4 149/1/4
f 148/2/4 144/2/4 149/2/4
f 145/3/4 146/3/4 150/3/4
f 149/1/4 145/1/4 150/1/4
f 146/12/4 130/12/4 151/12/4
f 150/3/4 146/3/4 151/3/4
f 149/12/4 150/12/4 152/12/4
f 147/12/4 148/12/4 152/12/4
f 150/12/4 151/12/4 152/12/4
f 148/12/4 149/12/4 152/12/4
f 151/12/4 130/12/4 153/12/4
f 152/12/4 151/12/4 153/12/4
f 152/8/4 153/8/4 154/8/4
f 154/8/4 153/8/4 155/8/4
f 152/8/4 154/8/4 156/8/4
f 154/4/4 155/4/4 156/4/4
f 156/4/4 155/4/4 157/4/4
f 157/4/4 155/4/4 158/4/4
f 155/8/4 153/8/4 159/8/4
f 158/4/4 155/4/4 159/4/4
f 157/4/4 158/4/4 160/4/4
f 160/4/4 158/4/4 161/4/4
f 152/8/4 156/8/4 162/8/4
f 156/7/4 157/7/4 162/7/4
f 157/4/4 160/4/4 163/4/4
f 162/7/4 157/7/4 163/7/4
f 160/7/4 161/7/4 164/7/4
f 163/4/4 160/4/4 164/4/4
f 161/4/4 158/4/4 165/4/4
f 164/7/4 161/7/4 165/7/4
f 158/7/4 159/7/4 166/7/4
f 165/4/4 158/4/4 166/4/4
f 159/8/4 153/8/4 167/8/4
f 166/7/4 159/7/4 167/7/4
f 165/8/4 166/8/4 168/8/4
f 163/8/4 164/8/4 168/8/4
f 166/8/4 167/8/4 168/8/4
f 152/8/4 162/8/4 168/8/4
f 164/8/4 165/8/4 168/8/4
f 162/8/4 163/8/4 168/8/4
f 167/8/4 153/8/4 169/8/4
f 168/8/4 167/8/4 169/8/4
f 168/12/4 169/12/4 170/12/4
f 170/12/4 169/12/4 171/12/4
f 172/12/4 173/12/4 174/12/4
f 174/12/4 173/12/4 175/12/4
f 176/6/4 177/6/4 178/6/4
f 178/6/4 177/6/4 179/6/4
f 180/12/4 181/12/4 182/12/4
f 182/12/4 181/12/4 183/12/4
f 184/11/4 185/11/4 186/11/4
f 186/11/4 185/11/4 187/11/4
f 188/11/4 189/11/4 190/11/4
f 190/11/4 189/11/4 191/11/4
f 192/11/4 193/11/4 195/11/4
f 193/8/4 194/8/4 196/8/4
f 195/11/4 193/11/4 196/11/4
f 196/8/4 194/8/4 197/8/4
f 200/11/4 201/11/4 202/11/4
f 202/11/4 201/11/4 203/11/4
f 204/11/4 205/11/4 206/11/4
f 206/11/4 205/11/4 207/11/4
f 198/5/4 199/5/4 208/5/4
f 208/5/4 199/5/4 209/5/4
f 212/12/5 211/12/5 210/12/5
f 213/12/5 211/12/5 212/12/5
f 218/11/5 215/11/5 214/11/5
f 219/11/5 215/11/5 218/11/5
f 220/11/5 217/11/5 216/11/5
f 221/11/5 217/11/5 220/11/5
f 223/11/5 220/11/5 219/11/5
f 224/11/5 220/11/5 223/11/5
f 226/11/5 223/11/5 222/11/5
f 227/11/5 223/11/5 226/11/5
f 228/11/5 225/11/5 224/11/5
f 229/11/5 225/11/5 228/11/5
f 232/5/5 231/5/5 230/5/5
f 233/5/5 231/5/5 232/5/5
f 234/5/5 232/5/5 230/5/5
f 235/5/5 231/5/5 233/5/5
f 236/5/5 234/5/5 230/5/5
f 236/5/5 235/5/5 234/5/5
f 237/5/5 231/5/5 235/5/5
f 237/5/5 235/5/5 236/5/5
f 240/12/5 239/12/5 238/12/5
f 241/12/5 239/12/5 240/12/5
f 242/11/6 243/11/6 246/11/6
f 246/11/6 243/11/6 247/11/6
f 244/11/6 245/11/6 248/11/6
f 248/11/6 245/11/6 249/11/6
f 250/11/6 251/11/6 254/11/6
f 254/11/6 251/11/6 255/11/6
f 252/11/6 253/11/6 256/11/6
f 256/11/6 253/11/6 257/11/6
f 258/5/6 259/5/6 260/5/6
f 260/5/6 259/5/6 261/5/6
f 262/12/6 263/12/6 269/12/6
f 267/12/6 268/12/6 269/12/6
f 266/12/6 267/12/6 269/12/6
f 265/12/6 266/12/6 269/12/6
f 264/12/6 265/12/6 269/12/6
f 263/12/6 264/12/6 269/12/6
f 269/12/6 268/12/6 270/12/6
f 262/12/6 269/12/6 271/12/6
f 271/12/6 269/12/6 272/12/6
f 272/12/6 269/12/6 273/12/6
f 273/12/6 269/12/6 274/12/6
f 274/12/6 269/12/6 275/12/6
f 275/12/6 269/12/6 276/12/6
f 276/12/6 269/12/6 277/12/6
f 277/12/6 269/12/6 278/12/6
f 278/12/6 269/12/6 279/12/6
f 279/12/6 269/12/6 280/12/6
f 280/12/6 269/12/6 281/12/6
f 281/12/6 269/12/6 282/12/6
f 262/12/6 271/12/6 283/12/6
f 271/11/6 272/11/6 283/11/6
f 272/10/6 273/10/6 284/10/6
f 283/11/6 272/11/6 284/11/6
f 273/8/6 274/8/6 285/8/6
f 284/10/6 273/10/6 285/10/6
f 274/12/6 275/12/6 286/12/6
f 285/8/6 274/8/6 286/8/6
f 275/9/6 276/9/6 287/9/6
f 286/12/6 275/12/6 287/12/6
f 276/10/6 277/10/6 288/10/6
f 287/9/6 276/9/6 288/9/6
f 277/8/6 278/8/6 289/8/6
f 288/10/6 277/10/6 289/10/6
f 278/10/6 279/10/6 290/10/6
f 289/8/6 278/8/6 290/8/6
f 279/11/6 280/11/6 291/11/6
f 290/10/6 279/10/6 291/10/6
f 280/8/6 281/8/6 292/8/6
f 291/11/6 280/11/6 292/11/6
f 281/10/6 282/10/6 293/10/6
f 292/8/6 281/8/6 293/8/6
f 282/12/6 269/12/6 294/12/6
f 293/10/6 282/10/6 294/10/6
f 262/12/6 283/12/6 295/12/6
f 283/8/6 284/8/6 295/8/6
f 284/8/6 285/8/6 295/8/6
f 295/8/6 285/8/6 296/8/6
f 285/11/6 286/11/6 297/11/6
f 296/8/6 285/8/6 297/8/6
f 286/12/6 287/12/6 298/12/6
f 297/11/6 286/11/6 298/11/6
f 287/8/6 288/8/6 299/8/6
f 298/12/6 287/12/6 299/12/6
f 290/9/6 291/9/6 300/9/6
f 299/8/6 288/8/6 300/8/6
f 288/9/6 289/9/6 300/9/6
f 289/9/6 290/9/6 300/9/6
f 300/9/6 291/9/6 301/9/6
f 301/9/6 291/9/6 302/9/6
f 291/8/6 292/8/6 303/8/6
f 302/9/6 291/9/6 303/9/6
f 292/10/6 293/10/6 304/10/6
f 303/8/6 292/8/6 304/8/6
f 293/8/6 294/8/6 305/8/6
f 304/10/6 293/10/6 305/10/6
f 294/12/6 269/12/6 306/12/6
f 305/8/6 294/8/6 306/8/6
f 295/10/6 296/10/6 307/10/6
f 262/12/6 295/12/6 307/12/6
f 296/9/6 297/9/6 308/9/6
f 307/10/6 296/10/6 308/10/6
f 297/10/6 298/10/6 309/10/6
f 308/9/6 297/9/6 309/9/6
f 298/12/6 299/12/6 310/12/6
f 309/10/6 298/10/6 310/10/6
f 299/10/6 300/10/6 311/10/6
f 310/12/6 299/12/6 311/12/6
f 300/11/6 301/11/6 312/11/6
f 311/10/6 300/10/6 312/10/6
f 301/10/6 302/10/6 313/10/6
f 312/11/6 301/11/6 313/11/6
f 302/8/6 303/8/6 314/8/6
f 313/10/6 302/10/6 314/10/6
f 303/9/6 304/9/6 315/9/6
f 314/8/6 303/8/6 315/8/6
f 304/10/6 305/10/6 316/10/6
f 315/9/6 304/9/6 316/9/6
f 305/11/6 306/11/6 317/11/6
f 316/10/6 305/10/6 317/10/6
f 306/12/6 269/12/6 318/12/6
f 317/11/6 306/11/6 318/11/6
f 318/12/6 269/12/6 319/12/6
f 312/12/6 313/12/6 321/12/6
f 319/12/6 320/12/6 321/12/6
f 318/12/6 319/12/6 321/12/6
f 317/12/6 318/12/6 321/12/6
f 310/12/6 311/12/6 321/12/6
f 309/12/6 310/12/6 321/12/6
f 315/12/6 316/12/6 321/12/6
f 307/12/6 308/12/6 321/12/6
f 262/12/6 307/12/6 321/12/6
f 316/12/6 317/12/6 321/12/6
f 308/12/6 309/12/6 321/12/6
f 313/12/6 314/12/6 321/12/6
f 314/12/6 315/12/6 321/12/6
f 311/12/6 312/12/6 321/12/6
f 321/12/6 320/12/6 322/12/6
f 323/6/6 324/6/6 325/6/6
f 325/6/6 324/6/6 326/6/6
f 327/5/6 328/5/6 329/5/6
f 329/5/6 328/5/6 330/5/6
f 331/12/6 332/12/6 335/12/6
f 332/8/6 333/8/6 336/8/6
f 335/12/6 332/12/6 336/12/6
f 333/12/6 334/12/6 337/12/6
f 336/8/6 333/8/6 337/8/6
f 337/12/6 334/12/6 338/12/6
f 339/12/6 340/12/6 341/12/6
f 341/12/6 340/12/6 342/12/6
