# MagicaVoxel @ Ephtracy

# group
o 

# material
mtllib control_table_07-0.mtl
usemtl palette

# normals
vn -1 0 0
vn 1 0 0
vn 0 0 1
vn 0 0 -1
vn 0 -1 0
vn 0 1 0

# texcoords
vt 0.564453 0.5
vt 0.568359 0.5
vt 0.572266 0.5
vt 0.626953 0.5
vt 0.783203 0.5
vt 0.939453 0.5
vt 0.943359 0.5
vt 0.947266 0.5
vt 0.970703 0.5
vt 0.986328 0.5
vt 0.994141 0.5

# verts
v -0.8 -0.8 0.8
v -0.8 -0.8 0
v -0.8 -0.2 0
v -0.8 -0.2 -0.3
v -0.8 0 0.3
v -0.8 0 -0.3
v -0.8 0.7 0.4
v -0.8 0.7 0.3
v -0.8 0.8 0.8
v -0.8 0.8 0.4
v -0.3 -0.4 -0.3
v -0.3 -0.4 -0.8
v -0.3 -0.3 -0.3
v -0.3 -0.3 -0.7
v -0.3 0.2 -0.7
v -0.3 0.2 -0.8
v -0.2 -0.8 -0.4
v -0.2 -0.8 -0.5
v -0.2 -0.8 -0.7
v -0.2 -0.8 -0.8
v -0.2 -0.7 -0.4
v -0.2 -0.7 -0.5
v -0.2 -0.7 -0.7
v -0.2 -0.7 -0.8
v -0.1 -0.8 -0.5
v -0.1 -0.8 -0.7
v -0.1 -0.7 -0.5
v -0.1 -0.7 -0.7
v -0.1 -0.4 -0.5
v -0.1 -0.4 -0.7
v 0.1 -0.8 -0.4
v 0.1 -0.8 -0.5
v 0.1 -0.8 -0.7
v 0.1 -0.8 -0.8
v 0.1 -0.7 -0.4
v 0.1 -0.7 -0.5
v 0.1 -0.7 -0.7
v 0.1 -0.7 -0.8
v -0.1 -0.8 -0.4
v -0.1 -0.8 -0.5
v -0.1 -0.8 -0.7
v -0.1 -0.8 -0.8
v -0.1 -0.7 -0.4
v -0.1 -0.7 -0.5
v -0.1 -0.7 -0.7
v -0.1 -0.7 -0.8
v 0.1 -0.8 -0.5
v 0.1 -0.8 -0.7
v 0.1 -0.7 -0.5
v 0.1 -0.7 -0.7
v 0.1 -0.4 -0.5
v 0.1 -0.4 -0.7
v 0.2 -0.8 -0.4
v 0.2 -0.8 -0.5
v 0.2 -0.8 -0.7
v 0.2 -0.8 -0.8
v 0.2 -0.7 -0.4
v 0.2 -0.7 -0.5
v 0.2 -0.7 -0.7
v 0.2 -0.7 -0.8
v 0.3 -0.4 -0.3
v 0.3 -0.4 -0.8
v 0.3 -0.3 -0.3
v 0.3 -0.3 -0.7
v 0.3 0.2 -0.7
v 0.3 0.2 -0.8
v 0.8 -0.8 0.8
v 0.8 -0.8 0
v 0.8 -0.2 0
v 0.8 -0.2 -0.3
v 0.8 0 0.3
v 0.8 0 -0.3
v 0.8 0.7 0.4
v 0.8 0.7 0.3
v 0.8 0.8 0.8
v 0.8 0.8 0.4
v -0.8 -0.8 0.8
v -0.8 0.8 0.8
v 0.8 -0.8 0.8
v 0.8 0.8 0.8
v -0.3 -0.4 -0.3
v -0.3 -0.3 -0.3
v 0.3 -0.4 -0.3
v 0.3 -0.3 -0.3
v -0.2 -0.8 -0.4
v -0.2 -0.7 -0.4
v -0.1 -0.8 -0.4
v -0.1 -0.7 -0.4
v 0.1 -0.8 -0.4
v 0.1 -0.7 -0.4
v 0.2 -0.8 -0.4
v 0.2 -0.7 -0.4
v -0.1 -0.8 -0.5
v -0.1 -0.7 -0.5
v -0.1 -0.4 -0.5
v 0.1 -0.8 -0.5
v 0.1 -0.7 -0.5
v 0.1 -0.4 -0.5
v -0.3 -0.3 -0.7
v -0.3 0.2 -0.7
v -0.2 -0.8 -0.7
v -0.2 -0.7 -0.7
v -0.1 -0.8 -0.7
v -0.1 -0.7 -0.7
v 0.1 -0.8 -0.7
v 0.1 -0.7 -0.7
v 0.2 -0.8 -0.7
v 0.2 -0.7 -0.7
v 0.3 -0.3 -0.7
v 0.3 0.2 -0.7
v -0.8 0.7 0.4
v -0.8 0.8 0.4
v -0.3 0.7 0.4
v 0.4 0.7 0.4
v 0.8 0.7 0.4
v 0.8 0.8 0.4
v -0.8 0 0.3
v -0.8 0.7 0.3
v -0.7 0 0.3
v -0.7 0.1 0.3
v -0.7 0.2 0.3
v -0.7 0.3 0.3
v -0.7 0.4 0.3
v -0.7 0.5 0.3
v -0.6 0 0.3
v -0.6 0.1 0.3
v -0.6 0.3 0.3
v -0.6 0.4 0.3
v -0.6 0.5 0.3
v -0.5 0.1 0.3
v -0.5 0.2 0.3
v -0.5 0.3 0.3
v -0.5 0.4 0.3
v -0.5 0.5 0.3
v -0.4 0 0.3
v -0.4 0.1 0.3
v -0.4 0.3 0.3
v -0.4 0.4 0.3
v -0.4 0.5 0.3
v -0.3 0 0.3
v -0.3 0.7 0.3
v -0.2 0.1 0.3
v -0.2 0.6 0.3
v -0.1 0.1 0.3
v -0.1 0.2 0.3
v 0 0.5 0.3
v 0 0.6 0.3
v 0.1 0.3 0.3
v 0.1 0.4 0.3
v 0.3 0.1 0.3
v 0.3 0.2 0.3
v 0.3 0.3 0.3
v 0.3 0.4 0.3
v 0.3 0.5 0.3
v 0.3 0.6 0.3
v 0.4 0 0.3
v 0.4 0.7 0.3
v 0.8 0 0.3
v 0.8 0.7 0.3
v -0.8 -0.8 0
v -0.8 -0.2 0
v 0.8 -0.8 0
v 0.8 -0.2 0
v -0.8 -0.2 -0.3
v -0.8 0 -0.3
v 0.8 -0.2 -0.3
v 0.8 0 -0.3
v -0.2 -0.8 -0.5
v -0.2 -0.7 -0.5
v -0.1 -0.8 -0.5
v -0.1 -0.7 -0.5
v 0.1 -0.8 -0.5
v 0.1 -0.7 -0.5
v 0.2 -0.8 -0.5
v 0.2 -0.7 -0.5
v -0.1 -0.8 -0.7
v -0.1 -0.7 -0.7
v -0.1 -0.4 -0.7
v 0.1 -0.8 -0.7
v 0.1 -0.7 -0.7
v 0.1 -0.4 -0.7
v -0.3 -0.4 -0.8
v -0.3 0.2 -0.8
v -0.2 -0.8 -0.8
v -0.2 -0.7 -0.8
v -0.1 -0.8 -0.8
v -0.1 -0.7 -0.8
v 0.1 -0.8 -0.8
v 0.1 -0.7 -0.8
v 0.2 -0.8 -0.8
v 0.2 -0.7 -0.8
v 0.3 -0.4 -0.8
v 0.3 0.2 -0.8
v -0.8 -0.8 0.8
v 0.8 -0.8 0.8
v -0.8 -0.8 0
v 0.8 -0.8 0
v -0.2 -0.8 -0.4
v -0.1 -0.8 -0.4
v 0.1 -0.8 -0.4
v 0.2 -0.8 -0.4
v -0.2 -0.8 -0.5
v -0.1 -0.8 -0.5
v 0.1 -0.8 -0.5
v 0.2 -0.8 -0.5
v -0.2 -0.8 -0.7
v -0.1 -0.8 -0.7
v 0.1 -0.8 -0.7
v 0.2 -0.8 -0.7
v -0.2 -0.8 -0.8
v -0.1 -0.8 -0.8
v 0.1 -0.8 -0.8
v 0.2 -0.8 -0.8
v -0.3 -0.4 -0.3
v 0.3 -0.4 -0.3
v -0.1 -0.4 -0.5
v 0.1 -0.4 -0.5
v -0.1 -0.4 -0.7
v 0.1 -0.4 -0.7
v -0.3 -0.4 -0.8
v 0.3 -0.4 -0.8
v -0.8 -0.2 0
v 0.8 -0.2 0
v -0.8 -0.2 -0.3
v 0.8 -0.2 -0.3
v -0.2 -0.7 -0.4
v -0.1 -0.7 -0.4
v 0.1 -0.7 -0.4
v 0.2 -0.7 -0.4
v -0.2 -0.7 -0.5
v -0.1 -0.7 -0.5
v 0.1 -0.7 -0.5
v 0.2 -0.7 -0.5
v -0.2 -0.7 -0.7
v -0.1 -0.7 -0.7
v 0.1 -0.7 -0.7
v 0.2 -0.7 -0.7
v -0.2 -0.7 -0.8
v -0.1 -0.7 -0.8
v 0.1 -0.7 -0.8
v 0.2 -0.7 -0.8
v -0.3 -0.3 -0.3
v 0.3 -0.3 -0.3
v -0.3 -0.3 -0.7
v 0.3 -0.3 -0.7
v -0.8 0 0.3
v -0.7 0 0.3
v -0.6 0 0.3
v -0.4 0 0.3
v -0.3 0 0.3
v 0.4 0 0.3
v 0.8 0 0.3
v -0.7 0 0.1
v -0.6 0 0.1
v -0.5 0 0.1
v -0.4 0 0.1
v -0.3 0 0.1
v -0.2 0 0.1
v -0.1 0 0.1
v 0 0 0.1
v 0.1 0 0.1
v 0.2 0 0.1
v 0.3 0 0.1
v 0.4 0 0.1
v -0.7 0 0
v -0.6 0 0
v -0.5 0 0
v -0.4 0 0
v -0.3 0 0
v -0.2 0 0
v -0.1 0 0
v 0 0 0
v 0.1 0 0
v 0.2 0 0
v 0.3 0 0
v 0.4 0 0
v -0.7 0 -0.1
v -0.6 0 -0.1
v -0.5 0 -0.1
v -0.4 0 -0.1
v -0.3 0 -0.1
v -0.2 0 -0.1
v -0.1 0 -0.1
v 0 0 -0.1
v 0.1 0 -0.1
v 0.2 0 -0.1
v 0.3 0 -0.1
v 0.4 0 -0.1
v -0.7 0 -0.2
v -0.6 0 -0.2
v -0.5 0 -0.2
v -0.4 0 -0.2
v -0.3 0 -0.2
v -0.2 0 -0.2
v -0.1 0 -0.2
v 0 0 -0.2
v 0.1 0 -0.2
v 0.2 0 -0.2
v 0.3 0 -0.2
v 0.4 0 -0.2
v -0.8 0 -0.3
v 0.8 0 -0.3
v -0.3 0.2 -0.7
v 0.3 0.2 -0.7
v -0.3 0.2 -0.8
v 0.3 0.2 -0.8
v -0.8 0.7 0.4
v -0.3 0.7 0.4
v 0.4 0.7 0.4
v 0.8 0.7 0.4
v -0.8 0.7 0.3
v -0.3 0.7 0.3
v 0.4 0.7 0.3
v 0.8 0.7 0.3
v -0.8 0.8 0.8
v 0.8 0.8 0.8
v -0.8 0.8 0.4
v 0.8 0.8 0.4

# faces
f 3/11/1 2/11/1 1/11/1
f 5/11/1 3/11/1 1/11/1
f 5/11/1 4/11/1 3/11/1
f 6/11/1 4/11/1 5/11/1
f 7/11/1 5/11/1 1/11/1
f 8/11/1 5/11/1 7/11/1
f 9/11/1 7/11/1 1/11/1
f 10/11/1 7/11/1 9/11/1
f 13/5/1 12/5/1 11/5/1
f 14/5/1 12/5/1 13/5/1
f 15/5/1 12/5/1 14/5/1
f 16/5/1 12/5/1 15/5/1
f 21/10/1 18/10/1 17/10/1
f 22/10/1 18/10/1 21/10/1
f 23/10/1 20/10/1 19/10/1
f 24/10/1 20/10/1 23/10/1
f 27/10/1 26/10/1 25/10/1
f 28/10/1 26/10/1 27/10/1
f 29/7/1 28/7/1 27/7/1
f 30/7/1 28/7/1 29/7/1
f 35/10/1 32/10/1 31/10/1
f 36/10/1 32/10/1 35/10/1
f 37/10/1 34/10/1 33/10/1
f 38/10/1 34/10/1 37/10/1
f 39/10/2 40/10/2 43/10/2
f 43/10/2 40/10/2 44/10/2
f 41/10/2 42/10/2 45/10/2
f 45/10/2 42/10/2 46/10/2
f 47/10/2 48/10/2 49/10/2
f 49/10/2 48/10/2 50/10/2
f 49/7/2 50/7/2 51/7/2
f 51/7/2 50/7/2 52/7/2
f 53/10/2 54/10/2 57/10/2
f 57/10/2 54/10/2 58/10/2
f 55/10/2 56/10/2 59/10/2
f 59/10/2 56/10/2 60/10/2
f 61/5/2 62/5/2 63/5/2
f 63/5/2 62/5/2 64/5/2
f 64/5/2 62/5/2 65/5/2
f 65/5/2 62/5/2 66/5/2
f 67/11/2 68/11/2 69/11/2
f 67/11/2 69/11/2 71/11/2
f 69/11/2 70/11/2 71/11/2
f 71/11/2 70/11/2 72/11/2
f 67/11/2 71/11/2 73/11/2
f 73/11/2 71/11/2 74/11/2
f 67/11/2 73/11/2 75/11/2
f 75/11/2 73/11/2 76/11/2
f 79/11/3 78/11/3 77/11/3
f 80/11/3 78/11/3 79/11/3
f 83/5/3 82/5/3 81/5/3
f 84/5/3 82/5/3 83/5/3
f 87/10/3 86/10/3 85/10/3
f 88/10/3 86/10/3 87/10/3
f 91/10/3 90/10/3 89/10/3
f 92/10/3 90/10/3 91/10/3
f 96/10/3 94/10/3 93/10/3
f 97/7/3 95/7/3 94/7/3
f 97/10/3 94/10/3 96/10/3
f 98/7/3 95/7/3 97/7/3
f 103/10/3 102/10/3 101/10/3
f 104/10/3 102/10/3 103/10/3
f 107/10/3 106/10/3 105/10/3
f 108/10/3 106/10/3 107/10/3
f 109/5/3 100/5/3 99/5/3
f 110/5/3 100/5/3 109/5/3
f 111/11/4 112/11/4 113/11/4
f 113/11/4 112/11/4 114/11/4
f 114/11/4 112/11/4 115/11/4
f 115/11/4 112/11/4 116/11/4
f 117/11/4 118/11/4 119/11/4
f 119/11/4 118/11/4 120/11/4
f 120/11/4 118/11/4 121/11/4
f 121/11/4 118/11/4 122/11/4
f 122/11/4 118/11/4 123/11/4
f 123/11/4 118/11/4 124/11/4
f 119/1/4 120/1/4 125/1/4
f 120/3/4 121/3/4 126/3/4
f 125/1/4 120/1/4 126/1/4
f 121/2/4 122/2/4 127/2/4
f 122/7/4 123/7/4 127/7/4
f 123/1/4 124/1/4 128/1/4
f 127/7/4 123/7/4 128/7/4
f 124/11/4 118/11/4 129/11/4
f 128/1/4 124/1/4 129/1/4
f 126/3/4 121/3/4 130/3/4
f 125/3/4 126/3/4 130/3/4
f 127/2/4 128/2/4 131/2/4
f 130/3/4 121/3/4 131/3/4
f 121/2/4 127/2/4 131/2/4
f 131/2/4 128/2/4 132/2/4
f 128/7/4 129/7/4 133/7/4
f 132/2/4 128/2/4 133/2/4
f 129/11/4 118/11/4 134/11/4
f 133/7/4 129/7/4 134/7/4
f 125/3/4 130/3/4 135/3/4
f 131/2/4 132/2/4 136/2/4
f 135/3/4 130/3/4 136/3/4
f 130/2/4 131/2/4 136/2/4
f 132/1/4 133/1/4 137/1/4
f 136/2/4 132/2/4 137/2/4
f 133/3/4 134/3/4 138/3/4
f 137/1/4 133/1/4 138/1/4
f 134/11/4 118/11/4 139/11/4
f 138/3/4 134/3/4 139/3/4
f 137/11/4 138/11/4 140/11/4
f 135/11/4 136/11/4 140/11/4
f 138/11/4 139/11/4 140/11/4
f 136/11/4 137/11/4 140/11/4
f 139/11/4 118/11/4 141/11/4
f 140/11/4 139/11/4 141/11/4
f 140/7/4 141/7/4 142/7/4
f 142/7/4 141/7/4 143/7/4
f 140/7/4 142/7/4 144/7/4
f 142/4/4 143/4/4 144/4/4
f 144/4/4 143/4/4 145/4/4
f 145/4/4 143/4/4 146/4/4
f 143/7/4 141/7/4 147/7/4
f 146/4/4 143/4/4 147/4/4
f 145/4/4 146/4/4 148/4/4
f 148/4/4 146/4/4 149/4/4
f 140/7/4 144/7/4 150/7/4
f 144/6/4 145/6/4 150/6/4
f 145/4/4 148/4/4 151/4/4
f 150/6/4 145/6/4 151/6/4
f 148/6/4 149/6/4 152/6/4
f 151/4/4 148/4/4 152/4/4
f 149/4/4 146/4/4 153/4/4
f 152/6/4 149/6/4 153/6/4
f 146/6/4 147/6/4 154/6/4
f 153/4/4 146/4/4 154/4/4
f 147/7/4 141/7/4 155/7/4
f 154/6/4 147/6/4 155/6/4
f 153/7/4 154/7/4 156/7/4
f 151/7/4 152/7/4 156/7/4
f 154/7/4 155/7/4 156/7/4
f 140/7/4 150/7/4 156/7/4
f 152/7/4 153/7/4 156/7/4
f 150/7/4 151/7/4 156/7/4
f 155/7/4 141/7/4 157/7/4
f 156/7/4 155/7/4 157/7/4
f 156/11/4 157/11/4 158/11/4
f 158/11/4 157/11/4 159/11/4
f 160/11/4 161/11/4 162/11/4
f 162/11/4 161/11/4 163/11/4
f 164/11/4 165/11/4 166/11/4
f 166/11/4 165/11/4 167/11/4
f 168/10/4 169/10/4 170/10/4
f 170/10/4 169/10/4 171/10/4
f 172/10/4 173/10/4 174/10/4
f 174/10/4 173/10/4 175/10/4
f 176/10/4 177/10/4 179/10/4
f 177/7/4 178/7/4 180/7/4
f 179/10/4 177/10/4 180/10/4
f 180/7/4 178/7/4 181/7/4
f 184/10/4 185/10/4 186/10/4
f 186/10/4 185/10/4 187/10/4
f 188/10/4 189/10/4 190/10/4
f 190/10/4 189/10/4 191/10/4
f 182/5/4 183/5/4 192/5/4
f 192/5/4 183/5/4 193/5/4
f 196/11/5 195/11/5 194/11/5
f 197/11/5 195/11/5 196/11/5
f 202/10/5 199/10/5 198/10/5
f 203/10/5 199/10/5 202/10/5
f 204/10/5 201/10/5 200/10/5
f 205/10/5 201/10/5 204/10/5
f 207/10/5 204/10/5 203/10/5
f 208/10/5 204/10/5 207/10/5
f 210/10/5 207/10/5 206/10/5
f 211/10/5 207/10/5 210/10/5
f 212/10/5 209/10/5 208/10/5
f 213/10/5 209/10/5 212/10/5
f 216/5/5 215/5/5 214/5/5
f 217/5/5 215/5/5 216/5/5
f 218/5/5 216/5/5 214/5/5
f 219/5/5 215/5/5 217/5/5
f 220/5/5 218/5/5 214/5/5
f 220/5/5 219/5/5 218/5/5
f 221/5/5 215/5/5 219/5/5
f 221/5/5 219/5/5 220/5/5
f 224/11/5 223/11/5 222/11/5
f 225/11/5 223/11/5 224/11/5
f 226/10/6 227/10/6 230/10/6
f 230/10/6 227/10/6 231/10/6
f 228/10/6 229/10/6 232/10/6
f 232/10/6 229/10/6 233/10/6
f 234/10/6 235/10/6 238/10/6
f 238/10/6 235/10/6 239/10/6
f 236/10/6 237/10/6 240/10/6
f 240/10/6 237/10/6 241/10/6
f 242/5/6 243/5/6 244/5/6
f 244/5/6 243/5/6 245/5/6
f 246/11/6 247/11/6 253/11/6
f 251/11/6 252/11/6 253/11/6
f 250/11/6 251/11/6 253/11/6
f 249/11/6 250/11/6 253/11/6
f 248/11/6 249/11/6 253/11/6
f 247/11/6 248/11/6 253/11/6
f 253/11/6 252/11/6 254/11/6
f 254/11/6 252/11/6 255/11/6
f 255/11/6 252/11/6 256/11/6
f 256/11/6 252/11/6 257/11/6
f 257/11/6 252/11/6 258/11/6
f 258/11/6 252/11/6 259/11/6
f 259/11/6 252/11/6 260/11/6
f 260/11/6 252/11/6 261/11/6
f 261/11/6 252/11/6 262/11/6
f 262/11/6 252/11/6 263/11/6
f 263/11/6 252/11/6 264/11/6
f 246/11/6 253/11/6 265/11/6
f 253/10/6 254/10/6 265/10/6
f 254/9/6 255/9/6 266/9/6
f 265/10/6 254/10/6 266/10/6
f 255/7/6 256/7/6 267/7/6
f 266/9/6 255/9/6 267/9/6
f 256/11/6 257/11/6 268/11/6
f 267/7/6 256/7/6 268/7/6
f 257/8/6 258/8/6 269/8/6
f 268/11/6 257/11/6 269/11/6
f 258/9/6 259/9/6 270/9/6
f 269/8/6 258/8/6 270/8/6
f 259/7/6 260/7/6 271/7/6
f 270/9/6 259/9/6 271/9/6
f 260/9/6 261/9/6 272/9/6
f 271/7/6 260/7/6 272/7/6
f 261/10/6 262/10/6 273/10/6
f 272/9/6 261/9/6 273/9/6
f 262/7/6 263/7/6 274/7/6
f 273/10/6 262/10/6 274/10/6
f 263/9/6 264/9/6 275/9/6
f 274/7/6 263/7/6 275/7/6
f 264/11/6 252/11/6 276/11/6
f 275/9/6 264/9/6 276/9/6
f 246/11/6 265/11/6 277/11/6
f 265/7/6 266/7/6 277/7/6
f 266/7/6 267/7/6 277/7/6
f 277/7/6 267/7/6 278/7/6
f 267/10/6 268/10/6 279/10/6
f 278/7/6 267/7/6 279/7/6
f 268/11/6 269/11/6 280/11/6
f 279/10/6 268/10/6 280/10/6
f 269/7/6 270/7/6 281/7/6
f 280/11/6 269/11/6 281/11/6
f 272/8/6 273/8/6 282/8/6
f 281/7/6 270/7/6 282/7/6
f 270/8/6 271/8/6 282/8/6
f 271/8/6 272/8/6 282/8/6
f 282/8/6 273/8/6 283/8/6
f 283/8/6 273/8/6 284/8/6
f 273/7/6 274/7/6 285/7/6
f 284/8/6 273/8/6 285/8/6
f 274/9/6 275/9/6 286/9/6
f 285/7/6 274/7/6 286/7/6
f 275/7/6 276/7/6 287/7/6
f 286/9/6 275/9/6 287/9/6
f 276/11/6 252/11/6 288/11/6
f 287/7/6 276/7/6 288/7/6
f 277/9/6 278/9/6 289/9/6
f 246/11/6 277/11/6 289/11/6
f 278/8/6 279/8/6 290/8/6
f 289/9/6 278/9/6 290/9/6
f 279/9/6 280/9/6 291/9/6
f 290/8/6 279/8/6 291/8/6
f 280/11/6 281/11/6 292/11/6
f 291/9/6 280/9/6 292/9/6
f 281/9/6 282/9/6 293/9/6
f 292/11/6 281/11/6 293/11/6
f 282/10/6 283/10/6 294/10/6
f 293/9/6 282/9/6 294/9/6
f 283/9/6 284/9/6 295/9/6
f 294/10/6 283/10/6 295/10/6
f 284/7/6 285/7/6 296/7/6
f 295/9/6 284/9/6 296/9/6
f 285/8/6 286/8/6 297/8/6
f 296/7/6 285/7/6 297/7/6
f 286/9/6 287/9/6 298/9/6
f 297/8/6 286/8/6 298/8/6
f 287/10/6 288/10/6 299/10/6
f 298/9/6 287/9/6 299/9/6
f 288/11/6 252/11/6 300/11/6
f 299/10/6 288/10/6 300/10/6
f 294/11/6 295/11/6 301/11/6
f 293/11/6 294/11/6 301/11/6
f 299/11/6 300/11/6 301/11/6
f 292/11/6 293/11/6 301/11/6
f 291/11/6 292/11/6 301/11/6
f 297/11/6 298/11/6 301/11/6
f 289/11/6 290/11/6 301/11/6
f 246/11/6 289/11/6 301/11/6
f 298/11/6 299/11/6 301/11/6
f 290/11/6 291/11/6 301/11/6
f 295/11/6 296/11/6 301/11/6
f 296/11/6 297/11/6 301/11/6
f 300/11/6 252/11/6 302/11/6
f 301/11/6 300/11/6 302/11/6
f 303/5/6 304/5/6 305/5/6
f 305/5/6 304/5/6 306/5/6
f 307/11/6 308/11/6 311/11/6
f 308/7/6 309/7/6 312/7/6
f 311/11/6 308/11/6 312/11/6
f 309/11/6 310/11/6 313/11/6
f 312/7/6 309/7/6 313/7/6
f 313/11/6 310/11/6 314/11/6
f 315/11/6 316/11/6 317/11/6
f 317/11/6 316/11/6 318/11/6
