# MagicaVoxel @ Ephtracy

# group
o 

# material
mtllib launch_tv_left-0.mtl
usemtl palette

# normals
vn -1 0 0
vn 1 0 0
vn 0 0 1
vn 0 0 -1
vn 0 -1 0
vn 0 1 0

# texcoords
vt 0.126953 0.5
vt 0.130859 0.5
vt 0.572266 0.5
vt 0.689453 0.5
vt 0.939453 0.5
vt 0.990234 0.5
vt 0.994141 0.5

# verts
v -0.6 -0.5 0.1
v -0.6 -0.5 -0.1
v -0.6 0.8 0.1
v -0.6 0.8 -0.1
v 0.3 -0.8 0.2
v 0.3 -0.8 -0.2
v 0.3 -0.7 0.2
v 0.3 -0.7 0.1
v 0.3 -0.6 0.2
v 0.3 -0.6 0.1
v 0.3 -0.5 0.2
v 0.3 -0.5 0.1
v 0.3 -0.5 -0.1
v 0.3 -0.5 -0.2
v 0.8 -0.8 0.2
v 0.8 -0.8 0.1
v 0.8 -0.8 -0.1
v 0.8 -0.8 -0.2
v 0.8 -0.7 0.2
v 0.8 -0.7 0.1
v 0.8 -0.6 0.2
v 0.8 -0.6 0.1
v 0.8 -0.5 0.2
v 0.8 -0.5 0.1
v 0.8 -0.5 -0.1
v 0.8 -0.5 -0.2
v 0.8 -0.4 0.1
v 0.8 -0.4 0
v 0.8 -0.3 0.1
v 0.8 -0.3 0
v 0.8 0.1 0.1
v 0.8 0.1 0
v 0.8 0.7 0.1
v 0.8 0.7 0
v 0.8 0.8 0.1
v 0.8 0.8 -0.1
v 0.3 -0.8 0.2
v 0.3 -0.7 0.2
v 0.3 -0.6 0.2
v 0.3 -0.5 0.2
v 0.4 -0.7 0.2
v 0.4 -0.6 0.2
v 0.5 -0.7 0.2
v 0.5 -0.6 0.2
v 0.6 -0.7 0.2
v 0.6 -0.6 0.2
v 0.7 -0.7 0.2
v 0.7 -0.6 0.2
v 0.8 -0.8 0.2
v 0.8 -0.7 0.2
v 0.8 -0.6 0.2
v 0.8 -0.5 0.2
v -0.6 -0.5 0.1
v -0.6 0.8 0.1
v -0.5 -0.4 0.1
v -0.5 0.7 0.1
v -0.4 0.2 0.1
v -0.4 0.6 0.1
v -0.3 0 0.1
v -0.3 0.1 0.1
v -0.3 0.3 0.1
v -0.3 0.6 0.1
v -0.2 -0.3 0.1
v -0.2 0 0.1
v -0.1 -0.3 0.1
v -0.1 0 0.1
v -0.1 0.2 0.1
v -0.1 0.3 0.1
v 0 -0.2 0.1
v 0 -0.1 0.1
v 0 0 0.1
v 0 0.1 0.1
v 0 0.2 0.1
v 0 0.6 0.1
v 0.1 0.2 0.1
v 0.1 0.3 0.1
v 0.1 0.4 0.1
v 0.1 0.5 0.1
v 0.2 -0.2 0.1
v 0.2 -0.1 0.1
v 0.2 0 0.1
v 0.2 0.1 0.1
v 0.2 0.2 0.1
v 0.2 0.3 0.1
v 0.2 0.4 0.1
v 0.2 0.5 0.1
v 0.3 -0.5 0.1
v 0.3 -0.3 0.1
v 0.3 0 0.1
v 0.3 0.2 0.1
v 0.3 0.6 0.1
v 0.4 -0.3 0.1
v 0.4 0.1 0.1
v 0.4 0.2 0.1
v 0.4 0.6 0.1
v 0.5 -0.3 0.1
v 0.5 -0.2 0.1
v 0.5 -0.1 0.1
v 0.5 0 0.1
v 0.5 0.3 0.1
v 0.5 0.6 0.1
v 0.6 -0.3 0.1
v 0.6 -0.2 0.1
v 0.6 -0.1 0.1
v 0.6 0 0.1
v 0.6 0.3 0.1
v 0.6 0.6 0.1
v 0.7 -0.3 0.1
v 0.7 0.1 0.1
v 0.7 0.2 0.1
v 0.7 0.6 0.1
v 0.8 -0.5 0.1
v 0.8 -0.4 0.1
v 0.8 -0.3 0.1
v 0.8 0.1 0.1
v 0.8 0.7 0.1
v 0.8 0.8 0.1
v -0.6 -0.5 -0.1
v -0.6 0.8 -0.1
v 0.3 -0.5 -0.1
v 0.8 -0.5 -0.1
v 0.8 0.8 -0.1
v 0.3 -0.8 -0.2
v 0.3 -0.5 -0.2
v 0.8 -0.8 -0.2
v 0.8 -0.5 -0.2
v 0.3 -0.8 0.2
v 0.8 -0.8 0.2
v 0.7 -0.8 0.1
v 0.8 -0.8 0.1
v 0.7 -0.8 -0.1
v 0.8 -0.8 -0.1
v 0.3 -0.8 -0.2
v 0.8 -0.8 -0.2
v -0.6 -0.5 0.1
v 0.3 -0.5 0.1
v -0.6 -0.5 -0.1
v 0.3 -0.5 -0.1
v 0.3 -0.5 0.2
v 0.8 -0.5 0.2
v 0.3 -0.5 0.1
v 0.8 -0.5 0.1
v 0.3 -0.5 -0.1
v 0.8 -0.5 -0.1
v 0.3 -0.5 -0.2
v 0.8 -0.5 -0.2
v -0.6 0.8 0.1
v 0.8 0.8 0.1
v -0.6 0.8 -0.1
v 0.8 0.8 -0.1

# faces
f 3/1/1 2/1/1 1/1/1
f 4/1/1 2/1/1 3/1/1
f 7/1/1 6/1/1 5/1/1
f 8/1/1 6/1/1 7/1/1
f 9/4/1 8/4/1 7/4/1
f 10/1/1 6/1/1 8/1/1
f 10/4/1 8/4/1 9/4/1
f 11/1/1 10/1/1 9/1/1
f 12/1/1 6/1/1 10/1/1
f 12/1/1 10/1/1 11/1/1
f 13/1/1 6/1/1 12/1/1
f 14/1/1 6/1/1 13/1/1
f 15/1/2 16/1/2 19/1/2
f 16/7/2 17/7/2 20/7/2
f 19/1/2 16/1/2 20/1/2
f 19/4/2 20/4/2 21/4/2
f 20/7/2 17/7/2 22/7/2
f 21/4/2 20/4/2 22/4/2
f 21/1/2 22/1/2 23/1/2
f 22/7/2 17/7/2 24/7/2
f 23/1/2 22/1/2 24/1/2
f 17/1/2 18/1/2 25/1/2
f 24/7/2 17/7/2 25/7/2
f 25/1/2 18/1/2 26/1/2
f 24/1/2 25/1/2 27/1/2
f 27/1/2 25/1/2 28/1/2
f 27/2/2 28/2/2 29/2/2
f 28/1/2 25/1/2 30/1/2
f 29/2/2 28/2/2 30/2/2
f 29/5/2 30/5/2 31/5/2
f 30/1/2 25/1/2 32/1/2
f 31/5/2 30/5/2 32/5/2
f 31/2/2 32/2/2 33/2/2
f 32/1/2 25/1/2 34/1/2
f 33/2/2 32/2/2 34/2/2
f 33/1/2 34/1/2 35/1/2
f 34/1/2 25/1/2 36/1/2
f 35/1/2 34/1/2 36/1/2
f 41/1/3 38/1/3 37/1/3
f 41/4/3 39/4/3 38/4/3
f 42/1/3 40/1/3 39/1/3
f 42/4/3 39/4/3 41/4/3
f 43/1/3 41/1/3 37/1/3
f 43/6/3 42/6/3 41/6/3
f 44/1/3 40/1/3 42/1/3
f 44/6/3 42/6/3 43/6/3
f 45/1/3 43/1/3 37/1/3
f 45/3/3 44/3/3 43/3/3
f 46/1/3 40/1/3 44/1/3
f 46/3/3 44/3/3 45/3/3
f 47/1/3 45/1/3 37/1/3
f 47/6/3 46/6/3 45/6/3
f 48/1/3 40/1/3 46/1/3
f 48/6/3 46/6/3 47/6/3
f 49/1/3 47/1/3 37/1/3
f 50/4/3 48/4/3 47/4/3
f 50/1/3 47/1/3 49/1/3
f 51/1/3 40/1/3 48/1/3
f 51/4/3 48/4/3 50/4/3
f 52/1/3 40/1/3 51/1/3
f 55/1/3 54/1/3 53/1/3
f 56/1/3 54/1/3 55/1/3
f 57/2/3 56/2/3 55/2/3
f 58/2/3 56/2/3 57/2/3
f 59/2/3 57/2/3 55/2/3
f 60/2/3 57/2/3 59/2/3
f 61/5/3 58/5/3 57/5/3
f 62/2/3 56/2/3 58/2/3
f 62/5/3 58/5/3 61/5/3
f 63/2/3 59/2/3 55/2/3
f 64/5/3 60/5/3 59/5/3
f 64/2/3 59/2/3 63/2/3
f 65/2/3 63/2/3 55/2/3
f 65/5/3 64/5/3 63/5/3
f 66/5/3 60/5/3 64/5/3
f 66/5/3 64/5/3 65/5/3
f 67/5/3 61/5/3 57/5/3
f 67/2/3 57/2/3 60/2/3
f 68/2/3 62/2/3 61/2/3
f 68/5/3 61/5/3 67/5/3
f 69/2/3 66/2/3 65/2/3
f 70/2/3 66/2/3 69/2/3
f 71/5/3 60/5/3 66/5/3
f 71/2/3 66/2/3 70/2/3
f 72/2/3 67/2/3 60/2/3
f 72/5/3 60/5/3 71/5/3
f 72/2/3 68/2/3 67/2/3
f 73/2/3 68/2/3 72/2/3
f 74/2/3 62/2/3 68/2/3
f 74/2/3 68/2/3 73/2/3
f 74/2/3 56/2/3 62/2/3
f 75/2/3 73/2/3 72/2/3
f 75/2/3 72/2/3 71/2/3
f 75/5/3 74/5/3 73/5/3
f 75/2/3 71/2/3 70/2/3
f 76/5/3 74/5/3 75/5/3
f 77/5/3 74/5/3 76/5/3
f 78/5/3 74/5/3 77/5/3
f 79/5/3 70/5/3 69/5/3
f 79/2/3 69/2/3 65/2/3
f 80/2/3 75/2/3 70/2/3
f 80/5/3 70/5/3 79/5/3
f 80/2/3 76/2/3 75/2/3
f 81/2/3 76/2/3 80/2/3
f 82/2/3 76/2/3 81/2/3
f 83/2/3 76/2/3 82/2/3
f 84/5/3 77/5/3 76/5/3
f 84/2/3 76/2/3 83/2/3
f 85/2/3 78/2/3 77/2/3
f 85/5/3 77/5/3 84/5/3
f 86/5/3 74/5/3 78/5/3
f 86/2/3 78/2/3 85/2/3
f 87/1/3 55/1/3 53/1/3
f 88/2/3 65/2/3 55/2/3
f 88/2/3 79/2/3 65/2/3
f 88/2/3 80/2/3 79/2/3
f 88/2/3 81/2/3 80/2/3
f 89/5/3 82/5/3 81/5/3
f 89/2/3 81/2/3 88/2/3
f 90/5/3 85/5/3 84/5/3
f 90/5/3 84/5/3 83/5/3
f 90/2/3 83/2/3 82/2/3
f 90/5/3 86/5/3 85/5/3
f 91/5/3 74/5/3 86/5/3
f 91/5/3 86/5/3 90/5/3
f 91/2/3 56/2/3 74/2/3
f 92/2/3 88/2/3 55/2/3
f 92/5/3 89/5/3 88/5/3
f 93/2/3 90/2/3 82/2/3
f 93/5/3 89/5/3 92/5/3
f 93/5/3 82/5/3 89/5/3
f 93/2/3 91/2/3 90/2/3
f 94/2/3 91/2/3 93/2/3
f 95/2/3 56/2/3 91/2/3
f 95/2/3 91/2/3 94/2/3
f 96/2/3 92/2/3 55/2/3
f 96/2/3 94/2/3 93/2/3
f 96/2/3 93/2/3 92/2/3
f 97/2/3 94/2/3 96/2/3
f 98/2/3 94/2/3 97/2/3
f 99/2/3 94/2/3 98/2/3
f 100/5/3 95/5/3 94/5/3
f 101/2/3 56/2/3 95/2/3
f 101/5/3 95/5/3 100/5/3
f 102/2/3 96/2/3 55/2/3
f 102/5/3 97/5/3 96/5/3
f 103/2/3 98/2/3 97/2/3
f 103/5/3 97/5/3 102/5/3
f 104/5/3 99/5/3 98/5/3
f 104/2/3 98/2/3 103/2/3
f 105/2/3 94/2/3 99/2/3
f 105/5/3 99/5/3 104/5/3
f 106/5/3 100/5/3 94/5/3
f 106/2/3 101/2/3 100/2/3
f 107/2/3 56/2/3 101/2/3
f 107/2/3 101/2/3 106/2/3
f 108/2/3 104/2/3 103/2/3
f 108/2/3 105/2/3 104/2/3
f 108/2/3 102/2/3 55/2/3
f 108/2/3 103/2/3 102/2/3
f 109/2/3 94/2/3 105/2/3
f 109/2/3 105/2/3 108/2/3
f 110/5/3 106/5/3 94/5/3
f 110/2/3 94/2/3 109/2/3
f 110/5/3 107/5/3 106/5/3
f 111/2/3 56/2/3 107/2/3
f 111/5/3 107/5/3 110/5/3
f 112/1/3 55/1/3 87/1/3
f 113/2/3 108/2/3 55/2/3
f 113/1/3 55/1/3 112/1/3
f 114/5/3 109/5/3 108/5/3
f 114/2/3 108/2/3 113/2/3
f 115/2/3 110/2/3 109/2/3
f 115/5/3 109/5/3 114/5/3
f 115/2/3 111/2/3 110/2/3
f 116/1/3 54/1/3 56/1/3
f 116/2/3 111/2/3 115/2/3
f 116/2/3 56/2/3 111/2/3
f 117/1/3 54/1/3 116/1/3
f 118/1/4 119/1/4 120/1/4
f 120/1/4 119/1/4 121/1/4
f 121/1/4 119/1/4 122/1/4
f 123/1/4 124/1/4 125/1/4
f 125/1/4 124/1/4 126/1/4
f 129/1/5 128/1/5 127/1/5
f 130/1/5 128/1/5 129/1/5
f 131/1/5 129/1/5 127/1/5
f 131/7/5 130/7/5 129/7/5
f 132/7/5 130/7/5 131/7/5
f 133/1/5 131/1/5 127/1/5
f 133/1/5 132/1/5 131/1/5
f 134/1/5 132/1/5 133/1/5
f 137/1/5 136/1/5 135/1/5
f 138/1/5 136/1/5 137/1/5
f 139/1/6 140/1/6 141/1/6
f 141/1/6 140/1/6 142/1/6
f 143/1/6 144/1/6 145/1/6
f 145/1/6 144/1/6 146/1/6
f 147/1/6 148/1/6 149/1/6
f 149/1/6 148/1/6 150/1/6
