# MagicaVoxel @ Ephtracy

# group
o 

# material
mtllib planetariumRB-0.mtl
usemtl palette

# normals
vn -1 0 0
vn 1 0 0
vn 0 0 1
vn 0 0 -1
vn 0 -1 0
vn 0 1 0

# texcoords
vt 0.0214844 0.5
vt 0.0253906 0.5
vt 0.0292969 0.5
vt 0.0605469 0.5
vt 0.990234 0.5
vt 0.994141 0.5

# verts
v -0.8 -0.2 0.8
v -0.8 -0.2 -0.8
v -0.8 0 0.8
v -0.8 0 0.7
v -0.8 0 -0.5
v -0.8 0 -0.8
v -0.8 0.1 0.8
v -0.8 0.1 0.7
v -0.8 0.1 -0.5
v -0.8 0.1 -0.8
v 0.5 -0.8 0.7
v 0.5 -0.8 0.5
v 0.5 -0.2 0.7
v 0.5 -0.2 0.5
v 0.7 -0.8 0.7
v 0.7 -0.8 0.5
v 0.7 -0.2 0.7
v 0.7 -0.2 0.5
v 0.8 -0.2 0.8
v 0.8 -0.2 -0.8
v 0.8 0 0.8
v 0.8 0 -0.8
v 0.8 0.1 0.8
v 0.8 0.1 -0.8
v -0.8 -0.2 0.8
v -0.8 0 0.8
v -0.8 0.1 0.8
v 0.8 -0.2 0.8
v 0.8 0 0.8
v 0.8 0.1 0.8
v 0.5 -0.8 0.7
v 0.5 -0.2 0.7
v 0.7 -0.8 0.7
v 0.7 -0.2 0.7
v 0.5 -0.8 0.5
v 0.5 -0.2 0.5
v 0.7 -0.8 0.5
v 0.7 -0.2 0.5
v -0.8 -0.2 -0.8
v -0.8 0 -0.8
v -0.8 0.1 -0.8
v -0.5 0 -0.8
v -0.5 0.1 -0.8
v 0.7 0 -0.8
v 0.7 0.1 -0.8
v 0.8 -0.2 -0.8
v 0.8 0 -0.8
v 0.8 0.1 -0.8
v 0.5 -0.8 0.7
v 0.7 -0.8 0.7
v 0.5 -0.8 0.5
v 0.7 -0.8 0.5
v -0.8 -0.2 0.8
v 0.8 -0.2 0.8
v 0.5 -0.2 0.7
v 0.7 -0.2 0.7
v 0.5 -0.2 0.5
v 0.7 -0.2 0.5
v -0.8 -0.2 -0.8
v 0.8 -0.2 -0.8
v -0.8 0.1 0.8
v 0.8 0.1 0.8
v -0.8 0.1 0.7
v 0.7 0.1 0.7
v -0.5 0.1 -0.2
v -0.4 0.1 -0.2
v -0.3 0.1 -0.2
v -0.5 0.1 -0.3
v -0.4 0.1 -0.3
v -0.5 0.1 -0.4
v -0.3 0.1 -0.4
v -0.8 0.1 -0.5
v -0.7 0.1 -0.5
v -0.7 0.1 -0.6
v -0.6 0.1 -0.6
v -0.4 0.1 -0.6
v -0.3 0.1 -0.6
v -0.6 0.1 -0.7
v -0.5 0.1 -0.7
v -0.4 0.1 -0.7
v -0.3 0.1 -0.7
v -0.8 0.1 -0.8
v -0.5 0.1 -0.8
v 0.7 0.1 -0.8
v 0.8 0.1 -0.8

# faces
f 3/5/1 2/5/1 1/5/1
f 4/5/1 2/5/1 3/5/1
f 5/5/1 2/5/1 4/5/1
f 6/5/1 2/5/1 5/5/1
f 7/6/1 4/6/1 3/6/1
f 8/5/1 5/5/1 4/5/1
f 8/6/1 4/6/1 7/6/1
f 9/1/1 6/1/1 5/1/1
f 9/5/1 5/5/1 8/5/1
f 10/1/1 6/1/1 9/1/1
f 13/5/1 12/5/1 11/5/1
f 14/5/1 12/5/1 13/5/1
f 15/5/2 16/5/2 17/5/2
f 17/5/2 16/5/2 18/5/2
f 19/5/2 20/5/2 21/5/2
f 21/5/2 20/5/2 22/5/2
f 21/6/2 22/6/2 23/6/2
f 23/6/2 22/6/2 24/6/2
f 28/5/3 26/5/3 25/5/3
f 29/6/3 27/6/3 26/6/3
f 29/5/3 26/5/3 28/5/3
f 30/6/3 27/6/3 29/6/3
f 33/5/3 32/5/3 31/5/3
f 34/5/3 32/5/3 33/5/3
f 35/5/4 36/5/4 37/5/4
f 37/5/4 36/5/4 38/5/4
f 39/5/4 40/5/4 42/5/4
f 40/1/4 41/1/4 42/1/4
f 42/1/4 41/1/4 43/1/4
f 39/5/4 42/5/4 44/5/4
f 42/5/4 43/5/4 44/5/4
f 44/5/4 43/5/4 45/5/4
f 39/5/4 44/5/4 46/5/4
f 44/6/4 45/6/4 47/6/4
f 46/5/4 44/5/4 47/5/4
f 47/6/4 45/6/4 48/6/4
f 51/5/5 50/5/5 49/5/5
f 52/5/5 50/5/5 51/5/5
f 55/5/5 54/5/5 53/5/5
f 56/5/5 54/5/5 55/5/5
f 57/5/5 55/5/5 53/5/5
f 58/5/5 54/5/5 56/5/5
f 59/5/5 57/5/5 53/5/5
f 59/5/5 58/5/5 57/5/5
f 60/5/5 54/5/5 58/5/5
f 60/5/5 58/5/5 59/5/5
f 61/6/6 62/6/6 63/6/6
f 63/6/6 62/6/6 64/6/6
f 63/5/6 64/5/6 65/5/6
f 65/5/6 64/5/6 66/5/6
f 66/5/6 64/5/6 67/5/6
f 63/5/6 65/5/6 68/5/6
f 65/3/6 66/3/6 68/3/6
f 66/2/6 67/2/6 69/2/6
f 68/3/6 66/3/6 69/3/6
f 63/5/6 68/5/6 70/5/6
f 68/2/6 69/2/6 70/2/6
f 67/5/6 64/5/6 71/5/6
f 70/2/6 69/2/6 71/2/6
f 69/2/6 67/2/6 71/2/6
f 63/5/6 70/5/6 72/5/6
f 70/5/6 71/5/6 72/5/6
f 72/5/6 71/5/6 73/5/6
f 72/1/6 73/1/6 74/1/6
f 73/5/6 71/5/6 74/5/6
f 74/5/6 71/5/6 75/5/6
f 75/5/6 71/5/6 76/5/6
f 71/5/6 64/5/6 77/5/6
f 76/5/6 71/5/6 77/5/6
f 75/5/6 76/5/6 78/5/6
f 74/1/6 75/1/6 78/1/6
f 78/5/6 76/5/6 79/5/6
f 76/4/6 77/4/6 80/4/6
f 79/5/6 76/5/6 80/5/6
f 77/5/6 64/5/6 81/5/6
f 80/4/6 77/4/6 81/4/6
f 72/1/6 74/1/6 82/1/6
f 78/1/6 79/1/6 82/1/6
f 74/1/6 78/1/6 82/1/6
f 79/5/6 80/5/6 83/5/6
f 82/1/6 79/1/6 83/1/6
f 80/5/6 81/5/6 83/5/6
f 64/6/6 62/6/6 84/6/6
f 83/5/6 81/5/6 84/5/6
f 81/5/6 64/5/6 84/5/6
f 84/6/6 62/6/6 85/6/6
