# MagicaVoxel @ Ephtracy

# group
o 

# material
mtllib doorOpenL-0.mtl
usemtl palette

# normals
vn -1 0 0
vn 1 0 0
vn 0 0 1
vn 0 0 -1
vn 0 -1 0
vn 0 1 0

# texcoords
vt 0.876953 0.5
vt 0.939453 0.5
vt 0.970703 0.5
vt 0.978516 0.5
vt 0.982422 0.5

# verts
v -0.8 -0.8 -0.5
v -0.8 -0.8 -0.8
v -0.8 -0.7 -0.5
v -0.8 -0.7 -0.6
v -0.8 0.7 -0.5
v -0.8 0.7 -0.6
v -0.8 0.8 -0.5
v -0.8 0.8 -0.8
v -0.7 -0.8 -0.5
v -0.7 -0.8 -0.6
v -0.7 -0.7 -0.5
v -0.7 -0.7 -0.6
v -0.7 -0.7 -0.7
v -0.7 -0.6 -0.7
v -0.7 -0.4 -0.7
v -0.7 -0.3 -0.7
v -0.7 0.3 -0.7
v -0.7 0.4 -0.7
v -0.7 0.6 -0.6
v -0.7 0.6 -0.7
v -0.7 0.7 -0.5
v -0.7 0.7 -0.6
v -0.7 0.8 -0.5
v -0.7 0.8 -0.6
v -0.6 -0.8 -0.6
v -0.6 -0.8 -0.7
v -0.6 -0.7 -0.6
v -0.6 -0.7 -0.7
v -0.6 0.6 -0.6
v -0.6 0.6 -0.7
v -0.6 0.7 -0.6
v -0.6 0.7 -0.7
v -0.5 0.7 -0.6
v -0.5 0.7 -0.7
v -0.5 0.8 -0.6
v -0.5 0.8 -0.7
v -0.4 -0.8 -0.7
v -0.4 -0.8 -0.8
v -0.4 -0.1 -0.7
v -0.4 -0.1 -0.8
v -0.4 0.1 -0.7
v -0.4 0.1 -0.8
v -0.4 0.8 -0.7
v -0.4 0.8 -0.8
v -0.8 -0.8 -0.5
v -0.8 -0.7 -0.5
v -0.8 0.7 -0.5
v -0.8 0.8 -0.5
v -0.7 -0.8 -0.5
v -0.7 -0.7 -0.5
v -0.7 0.7 -0.5
v -0.7 0.8 -0.5
v -0.8 -0.7 -0.6
v -0.8 0.7 -0.6
v -0.7 -0.8 -0.6
v -0.7 -0.7 -0.6
v -0.7 0.6 -0.6
v -0.7 0.7 -0.6
v -0.7 0.8 -0.6
v -0.6 -0.8 -0.6
v -0.6 -0.7 -0.6
v -0.6 0.6 -0.6
v -0.6 0.7 -0.6
v -0.5 0.7 -0.6
v -0.5 0.8 -0.6
v -0.7 -0.7 -0.7
v -0.7 -0.6 -0.7
v -0.7 -0.4 -0.7
v -0.7 -0.3 -0.7
v -0.7 0.3 -0.7
v -0.7 0.4 -0.7
v -0.7 0.6 -0.7
v -0.6 -0.8 -0.7
v -0.6 -0.7 -0.7
v -0.6 -0.6 -0.7
v -0.6 -0.4 -0.7
v -0.6 -0.2 -0.7
v -0.6 0.2 -0.7
v -0.6 0.4 -0.7
v -0.6 0.6 -0.7
v -0.6 0.7 -0.7
v -0.5 -0.8 -0.7
v -0.5 -0.7 -0.7
v -0.5 -0.3 -0.7
v -0.5 -0.2 -0.7
v -0.5 -0.1 -0.7
v -0.5 0.1 -0.7
v -0.5 0.2 -0.7
v -0.5 0.3 -0.7
v -0.5 0.7 -0.7
v -0.5 0.8 -0.7
v -0.4 -0.8 -0.7
v -0.4 -0.1 -0.7
v -0.4 0.1 -0.7
v -0.4 0.8 -0.7
v -0.8 -0.8 -0.8
v -0.8 0.8 -0.8
v -0.7 -0.7 -0.8
v -0.7 -0.6 -0.8
v -0.7 -0.4 -0.8
v -0.7 -0.3 -0.8
v -0.7 0.3 -0.8
v -0.7 0.4 -0.8
v -0.7 0.6 -0.8
v -0.6 -0.8 -0.8
v -0.6 -0.7 -0.8
v -0.6 -0.6 -0.8
v -0.6 -0.4 -0.8
v -0.6 -0.2 -0.8
v -0.6 0.2 -0.8
v -0.6 0.4 -0.8
v -0.6 0.6 -0.8
v -0.6 0.7 -0.8
v -0.5 -0.8 -0.8
v -0.5 -0.7 -0.8
v -0.5 -0.3 -0.8
v -0.5 -0.2 -0.8
v -0.5 -0.1 -0.8
v -0.5 0.1 -0.8
v -0.5 0.2 -0.8
v -0.5 0.3 -0.8
v -0.5 0.7 -0.8
v -0.5 0.8 -0.8
v -0.4 -0.8 -0.8
v -0.4 -0.1 -0.8
v -0.4 0.1 -0.8
v -0.4 0.8 -0.8
v -0.8 -0.8 -0.5
v -0.7 -0.8 -0.5
v -0.7 -0.8 -0.6
v -0.6 -0.8 -0.6
v -0.6 -0.8 -0.7
v -0.5 -0.8 -0.7
v -0.4 -0.8 -0.7
v -0.8 -0.8 -0.8
v -0.6 -0.8 -0.8
v -0.5 -0.8 -0.8
v -0.4 -0.8 -0.8
v -0.7 0.6 -0.6
v -0.6 0.6 -0.6
v -0.7 0.6 -0.7
v -0.6 0.6 -0.7
v -0.8 0.7 -0.5
v -0.7 0.7 -0.5
v -0.8 0.7 -0.6
v -0.7 0.7 -0.6
v -0.6 0.7 -0.6
v -0.5 0.7 -0.6
v -0.6 0.7 -0.7
v -0.5 0.7 -0.7
v -0.8 -0.7 -0.5
v -0.7 -0.7 -0.5
v -0.8 -0.7 -0.6
v -0.7 -0.7 -0.6
v -0.6 -0.7 -0.6
v -0.7 -0.7 -0.7
v -0.6 -0.7 -0.7
v -0.8 0.8 -0.5
v -0.7 0.8 -0.5
v -0.7 0.8 -0.6
v -0.5 0.8 -0.6
v -0.5 0.8 -0.7
v -0.4 0.8 -0.7
v -0.8 0.8 -0.8
v -0.5 0.8 -0.8
v -0.4 0.8 -0.8

# faces
f 3/3/1 2/3/1 1/3/1
f 4/3/1 2/3/1 3/3/1
f 6/3/1 2/3/1 4/3/1
f 7/3/1 6/3/1 5/3/1
f 8/3/1 2/3/1 6/3/1
f 8/3/1 6/3/1 7/3/1
f 9/3/2 10/3/2 11/3/2
f 11/3/2 10/3/2 12/3/2
f 12/3/2 13/3/2 14/3/2
f 12/3/2 14/3/2 15/3/2
f 12/3/2 15/3/2 16/3/2
f 12/3/2 16/3/2 17/3/2
f 12/3/2 17/3/2 18/3/2
f 12/3/2 18/3/2 19/3/2
f 19/3/2 18/3/2 20/3/2
f 21/3/2 22/3/2 23/3/2
f 23/3/2 22/3/2 24/3/2
f 25/3/2 26/3/2 27/3/2
f 27/3/2 26/3/2 28/3/2
f 29/3/2 30/3/2 31/3/2
f 31/3/2 30/3/2 32/3/2
f 33/3/2 34/3/2 35/3/2
f 35/3/2 34/3/2 36/3/2
f 37/4/2 38/4/2 39/4/2
f 39/4/2 38/4/2 40/4/2
f 39/5/2 40/5/2 41/5/2
f 41/5/2 40/5/2 42/5/2
f 41/4/2 42/4/2 43/4/2
f 43/4/2 42/4/2 44/4/2
f 49/3/3 46/3/3 45/3/3
f 50/3/3 46/3/3 49/3/3
f 51/3/3 48/3/3 47/3/3
f 52/3/3 48/3/3 51/3/3
f 56/3/3 54/3/3 53/3/3
f 57/3/3 54/3/3 56/3/3
f 58/3/3 54/3/3 57/3/3
f 60/3/3 56/3/3 55/3/3
f 61/3/3 56/3/3 60/3/3
f 62/3/3 59/3/3 58/3/3
f 62/3/3 58/3/3 57/3/3
f 63/3/3 59/3/3 62/3/3
f 64/3/3 59/3/3 63/3/3
f 65/3/3 59/3/3 64/3/3
f 74/1/3 67/1/3 66/1/3
f 75/2/3 68/2/3 67/2/3
f 75/1/3 67/1/3 74/1/3
f 76/1/3 69/1/3 68/1/3
f 76/2/3 68/2/3 75/2/3
f 77/2/3 70/2/3 69/2/3
f 78/2/3 70/2/3 77/2/3
f 79/2/3 72/2/3 71/2/3
f 79/1/3 71/1/3 70/1/3
f 80/2/3 72/2/3 79/2/3
f 82/2/3 74/2/3 73/2/3
f 83/1/3 75/1/3 74/1/3
f 83/2/3 74/2/3 82/2/3
f 83/1/3 76/1/3 75/1/3
f 84/1/3 69/1/3 76/1/3
f 84/1/3 76/1/3 83/1/3
f 84/2/3 77/2/3 69/2/3
f 85/4/3 78/4/3 77/4/3
f 85/2/3 77/2/3 84/2/3
f 86/4/3 78/4/3 85/4/3
f 87/4/3 78/4/3 86/4/3
f 88/2/3 70/2/3 78/2/3
f 88/4/3 78/4/3 87/4/3
f 89/1/3 81/1/3 80/1/3
f 89/2/3 70/2/3 88/2/3
f 89/1/3 80/1/3 79/1/3
f 89/1/3 79/1/3 70/1/3
f 90/1/3 81/1/3 89/1/3
f 92/4/3 83/4/3 82/4/3
f 92/4/3 84/4/3 83/4/3
f 92/4/3 86/4/3 85/4/3
f 92/4/3 85/4/3 84/4/3
f 93/5/3 87/5/3 86/5/3
f 93/4/3 86/4/3 92/4/3
f 94/4/3 88/4/3 87/4/3
f 94/5/3 87/5/3 93/5/3
f 94/4/3 91/4/3 90/4/3
f 94/4/3 89/4/3 88/4/3
f 94/4/3 90/4/3 89/4/3
f 95/4/3 91/4/3 94/4/3
f 96/3/4 97/3/4 98/3/4
f 98/3/4 97/3/4 99/3/4
f 99/3/4 97/3/4 100/3/4
f 100/3/4 97/3/4 101/3/4
f 101/3/4 97/3/4 102/3/4
f 102/3/4 97/3/4 103/3/4
f 103/3/4 97/3/4 104/3/4
f 96/3/4 98/3/4 105/3/4
f 98/1/4 99/1/4 106/1/4
f 105/3/4 98/3/4 106/3/4
f 99/2/4 100/2/4 107/2/4
f 106/1/4 99/1/4 107/1/4
f 100/1/4 101/1/4 108/1/4
f 107/2/4 100/2/4 108/2/4
f 101/2/4 102/2/4 109/2/4
f 109/2/4 102/2/4 110/2/4
f 102/1/4 103/1/4 111/1/4
f 103/2/4 104/2/4 111/2/4
f 104/3/4 97/3/4 112/3/4
f 111/2/4 104/2/4 112/2/4
f 112/3/4 97/3/4 113/3/4
f 105/2/4 106/2/4 114/2/4
f 106/1/4 107/1/4 115/1/4
f 114/2/4 106/2/4 115/2/4
f 107/1/4 108/1/4 115/1/4
f 108/1/4 101/1/4 116/1/4
f 115/1/4 108/1/4 116/1/4
f 101/2/4 109/2/4 116/2/4
f 109/4/4 110/4/4 117/4/4
f 116/2/4 109/2/4 117/2/4
f 117/4/4 110/4/4 118/4/4
f 118/4/4 110/4/4 119/4/4
f 110/2/4 102/2/4 120/2/4
f 119/4/4 110/4/4 120/4/4
f 102/1/4 111/1/4 121/1/4
f 120/2/4 102/2/4 121/2/4
f 112/1/4 113/1/4 121/1/4
f 111/1/4 112/1/4 121/1/4
f 113/3/4 97/3/4 122/3/4
f 121/1/4 113/1/4 122/1/4
f 122/3/4 97/3/4 123/3/4
f 114/4/4 115/4/4 124/4/4
f 115/4/4 116/4/4 124/4/4
f 117/4/4 118/4/4 124/4/4
f 116/4/4 117/4/4 124/4/4
f 118/5/4 119/5/4 125/5/4
f 124/4/4 118/4/4 125/4/4
f 119/4/4 120/4/4 126/4/4
f 125/5/4 119/5/4 126/5/4
f 120/4/4 121/4/4 126/4/4
f 121/4/4 122/4/4 126/4/4
f 122/4/4 123/4/4 126/4/4
f 126/4/4 123/4/4 127/4/4
f 130/3/5 129/3/5 128/3/5
f 132/3/5 131/3/5 130/3/5
f 135/3/5 130/3/5 128/3/5
f 135/3/5 132/3/5 130/3/5
f 136/2/5 133/2/5 132/2/5
f 136/3/5 132/3/5 135/3/5
f 137/4/5 134/4/5 133/4/5
f 137/2/5 133/2/5 136/2/5
f 138/4/5 134/4/5 137/4/5
f 141/3/5 140/3/5 139/3/5
f 142/3/5 140/3/5 141/3/5
f 145/3/5 144/3/5 143/3/5
f 146/3/5 144/3/5 145/3/5
f 149/3/5 148/3/5 147/3/5
f 150/3/5 148/3/5 149/3/5
f 151/3/6 152/3/6 153/3/6
f 153/3/6 152/3/6 154/3/6
f 154/3/6 155/3/6 156/3/6
f 156/3/6 155/3/6 157/3/6
f 158/3/6 159/3/6 160/3/6
f 160/3/6 161/3/6 162/3/6
f 158/3/6 160/3/6 164/3/6
f 160/3/6 162/3/6 164/3/6
f 162/4/6 163/4/6 165/4/6
f 164/3/6 162/3/6 165/3/6
f 165/4/6 163/4/6 166/4/6
