# MagicaVoxel @ Ephtracy

# group
o 

# material
mtllib class_plate_I.mtl
usemtl palette

# normals
vn -1 0 0
vn 1 0 0
vn 0 0 1
vn 0 0 -1
vn 0 -1 0
vn 0 1 0

# texcoords
vt 0.0214844 0.5
vt 0.958984 0.5
vt 0.974609 0.5

# verts
v -2 0 2
v -2 0 -2
v -2 0.1 2
v -2 0.1 -2
v 2 0 2
v 2 0 -2
v 2 0.1 2
v 2 0.1 -2
v -2 0 2
v -2 0.1 2
v 2 0 2
v 2 0.1 2
v -2 0 -2
v -2 0.1 -2
v 2 0 -2
v 2 0.1 -2
v -2 0 2
v 2 0 2
v -1.9 0 1.9
v -1.7 0 1.9
v -1.6 0 1.9
v 1.6 0 1.9
v 1.7 0 1.9
v 1.9 0 1.9
v -1.8 0 1.8
v -1.7 0 1.8
v -1.6 0 1.8
v 1.6 0 1.8
v 1.7 0 1.8
v 1.8 0 1.8
v -1.9 0 1.7
v -1.8 0 1.7
v -1.7 0 1.7
v 1.7 0 1.7
v 1.8 0 1.7
v 1.9 0 1.7
v -1.9 0 1.6
v -1.8 0 1.6
v 1.8 0 1.6
v 1.9 0 1.6
v -1.9 0 -1.6
v -1.8 0 -1.6
v 1.8 0 -1.6
v 1.9 0 -1.6
v -1.9 0 -1.7
v -1.8 0 -1.7
v -1.7 0 -1.7
v 1.7 0 -1.7
v 1.8 0 -1.7
v 1.9 0 -1.7
v -1.8 0 -1.8
v -1.7 0 -1.8
v -1.6 0 -1.8
v 1.6 0 -1.8
v 1.7 0 -1.8
v 1.8 0 -1.8
v -1.9 0 -1.9
v -1.7 0 -1.9
v -1.6 0 -1.9
v 1.6 0 -1.9
v 1.7 0 -1.9
v 1.9 0 -1.9
v -2 0 -2
v 2 0 -2
v -2 0.1 2
v 2 0.1 2
v -1.9 0.1 1.9
v -1.7 0.1 1.9
v -1.6 0.1 1.9
v 1.6 0.1 1.9
v 1.7 0.1 1.9
v 1.9 0.1 1.9
v -1.8 0.1 1.8
v -1.7 0.1 1.8
v -1.6 0.1 1.8
v 1.6 0.1 1.8
v 1.7 0.1 1.8
v 1.8 0.1 1.8
v -1.9 0.1 1.7
v -1.8 0.1 1.7
v -1.7 0.1 1.7
v 1.7 0.1 1.7
v 1.8 0.1 1.7
v 1.9 0.1 1.7
v -1.9 0.1 1.6
v -1.8 0.1 1.6
v 1.8 0.1 1.6
v 1.9 0.1 1.6
v -1.9 0.1 -1.6
v -1.8 0.1 -1.6
v 1.8 0.1 -1.6
v 1.9 0.1 -1.6
v -1.9 0.1 -1.7
v -1.8 0.1 -1.7
v -1.7 0.1 -1.7
v 1.7 0.1 -1.7
v 1.8 0.1 -1.7
v 1.9 0.1 -1.7
v -1.8 0.1 -1.8
v -1.7 0.1 -1.8
v -1.6 0.1 -1.8
v 1.6 0.1 -1.8
v 1.7 0.1 -1.8
v 1.8 0.1 -1.8
v -1.9 0.1 -1.9
v -1.7 0.1 -1.9
v -1.6 0.1 -1.9
v 1.6 0.1 -1.9
v 1.7 0.1 -1.9
v 1.9 0.1 -1.9
v -2 0.1 -2
v 2 0.1 -2

# faces
f 3/3/1 2/3/1 1/3/1
f 4/3/1 2/3/1 3/3/1
f 5/3/2 6/3/2 7/3/2
f 7/3/2 6/3/2 8/3/2
f 11/3/3 10/3/3 9/3/3
f 12/3/3 10/3/3 11/3/3
f 13/3/4 14/3/4 15/3/4
f 15/3/4 14/3/4 16/3/4
f 19/3/5 18/3/5 17/3/5
f 20/3/5 18/3/5 19/3/5
f 21/3/5 18/3/5 20/3/5
f 22/3/5 18/3/5 21/3/5
f 23/3/5 18/3/5 22/3/5
f 24/3/5 18/3/5 23/3/5
f 25/1/5 20/1/5 19/1/5
f 26/3/5 21/3/5 20/3/5
f 26/1/5 20/1/5 25/1/5
f 27/2/5 22/2/5 21/2/5
f 27/3/5 21/3/5 26/3/5
f 28/3/5 23/3/5 22/3/5
f 28/2/5 22/2/5 27/2/5
f 29/1/5 24/1/5 23/1/5
f 29/3/5 23/3/5 28/3/5
f 30/1/5 24/1/5 29/1/5
f 31/3/5 19/3/5 17/3/5
f 31/1/5 25/1/5 19/1/5
f 32/3/5 26/3/5 25/3/5
f 32/1/5 25/1/5 31/1/5
f 33/2/5 27/2/5 26/2/5
f 33/3/5 26/3/5 32/3/5
f 33/2/5 28/2/5 27/2/5
f 33/2/5 29/2/5 28/2/5
f 34/3/5 30/3/5 29/3/5
f 34/2/5 29/2/5 33/2/5
f 35/1/5 24/1/5 30/1/5
f 35/3/5 30/3/5 34/3/5
f 36/3/5 18/3/5 24/3/5
f 36/1/5 24/1/5 35/1/5
f 37/3/5 31/3/5 17/3/5
f 37/3/5 32/3/5 31/3/5
f 38/2/5 34/2/5 33/2/5
f 38/3/5 32/3/5 37/3/5
f 38/2/5 35/2/5 34/2/5
f 38/2/5 33/2/5 32/2/5
f 39/3/5 36/3/5 35/3/5
f 39/2/5 35/2/5 38/2/5
f 40/3/5 18/3/5 36/3/5
f 40/3/5 36/3/5 39/3/5
f 41/3/5 37/3/5 17/3/5
f 41/2/5 38/2/5 37/2/5
f 41/2/5 40/2/5 39/2/5
f 41/2/5 39/2/5 38/2/5
f 42/2/5 40/2/5 41/2/5
f 43/2/5 40/2/5 42/2/5
f 44/3/5 18/3/5 40/3/5
f 44/2/5 40/2/5 43/2/5
f 45/3/5 41/3/5 17/3/5
f 45/3/5 42/3/5 41/3/5
f 46/2/5 43/2/5 42/2/5
f 46/3/5 42/3/5 45/3/5
f 47/2/5 43/2/5 46/2/5
f 48/2/5 43/2/5 47/2/5
f 49/3/5 44/3/5 43/3/5
f 49/2/5 43/2/5 48/2/5
f 50/3/5 18/3/5 44/3/5
f 50/3/5 44/3/5 49/3/5
f 51/1/5 46/1/5 45/1/5
f 51/3/5 47/3/5 46/3/5
f 52/2/5 48/2/5 47/2/5
f 52/3/5 47/3/5 51/3/5
f 53/2/5 48/2/5 52/2/5
f 54/2/5 48/2/5 53/2/5
f 55/3/5 49/3/5 48/3/5
f 55/2/5 48/2/5 54/2/5
f 56/1/5 50/1/5 49/1/5
f 56/3/5 49/3/5 55/3/5
f 57/3/5 45/3/5 17/3/5
f 57/1/5 51/1/5 45/1/5
f 57/1/5 52/1/5 51/1/5
f 58/3/5 53/3/5 52/3/5
f 58/1/5 52/1/5 57/1/5
f 59/2/5 54/2/5 53/2/5
f 59/3/5 53/3/5 58/3/5
f 60/3/5 55/3/5 54/3/5
f 60/2/5 54/2/5 59/2/5
f 61/1/5 56/1/5 55/1/5
f 61/3/5 55/3/5 60/3/5
f 62/1/5 50/1/5 56/1/5
f 62/1/5 56/1/5 61/1/5
f 62/3/5 18/3/5 50/3/5
f 63/3/5 61/3/5 60/3/5
f 63/3/5 58/3/5 57/3/5
f 63/3/5 62/3/5 61/3/5
f 63/3/5 59/3/5 58/3/5
f 63/3/5 57/3/5 17/3/5
f 63/3/5 60/3/5 59/3/5
f 64/3/5 18/3/5 62/3/5
f 64/3/5 62/3/5 63/3/5
f 65/3/6 66/3/6 67/3/6
f 67/3/6 66/3/6 68/3/6
f 68/3/6 66/3/6 69/3/6
f 69/3/6 66/3/6 70/3/6
f 70/3/6 66/3/6 71/3/6
f 71/3/6 66/3/6 72/3/6
f 67/1/6 68/1/6 73/1/6
f 68/3/6 69/3/6 74/3/6
f 73/1/6 68/1/6 74/1/6
f 69/2/6 70/2/6 75/2/6
f 74/3/6 69/3/6 75/3/6
f 70/3/6 71/3/6 76/3/6
f 75/2/6 70/2/6 76/2/6
f 71/1/6 72/1/6 77/1/6
f 76/3/6 71/3/6 77/3/6
f 77/1/6 72/1/6 78/1/6
f 65/3/6 67/3/6 79/3/6
f 67/1/6 73/1/6 79/1/6
f 73/3/6 74/3/6 80/3/6
f 79/1/6 73/1/6 80/1/6
f 74/2/6 75/2/6 81/2/6
f 80/3/6 74/3/6 81/3/6
f 75/2/6 76/2/6 81/2/6
f 76/2/6 77/2/6 81/2/6
f 77/3/6 78/3/6 82/3/6
f 81/2/6 77/2/6 82/2/6
f 78/1/6 72/1/6 83/1/6
f 82/3/6 78/3/6 83/3/6
f 72/3/6 66/3/6 84/3/6
f 83/1/6 72/1/6 84/1/6
f 65/3/6 79/3/6 85/3/6
f 79/3/6 80/3/6 85/3/6
f 81/2/6 82/2/6 86/2/6
f 85/3/6 80/3/6 86/3/6
f 82/2/6 83/2/6 86/2/6
f 80/2/6 81/2/6 86/2/6
f 83/3/6 84/3/6 87/3/6
f 86/2/6 83/2/6 87/2/6
f 84/3/6 66/3/6 88/3/6
f 87/3/6 84/3/6 88/3/6
f 65/3/6 85/3/6 89/3/6
f 85/2/6 86/2/6 89/2/6
f 87/2/6 88/2/6 89/2/6
f 86/2/6 87/2/6 89/2/6
f 89/2/6 88/2/6 90/2/6
f 90/2/6 88/2/6 91/2/6
f 88/3/6 66/3/6 92/3/6
f 91/2/6 88/2/6 92/2/6
f 65/3/6 89/3/6 93/3/6
f 89/3/6 90/3/6 93/3/6
f 90/2/6 91/2/6 94/2/6
f 93/3/6 90/3/6 94/3/6
f 94/2/6 91/2/6 95/2/6
f 95/2/6 91/2/6 96/2/6
f 91/3/6 92/3/6 97/3/6
f 96/2/6 91/2/6 97/2/6
f 92/3/6 66/3/6 98/3/6
f 97/3/6 92/3/6 98/3/6
f 93/1/6 94/1/6 99/1/6
f 94/3/6 95/3/6 99/3/6
f 95/2/6 96/2/6 100/2/6
f 99/3/6 95/3/6 100/3/6
f 100/2/6 96/2/6 101/2/6
f 101/2/6 96/2/6 102/2/6
f 96/3/6 97/3/6 103/3/6
f 102/2/6 96/2/6 103/2/6
f 97/1/6 98/1/6 104/1/6
f 103/3/6 97/3/6 104/3/6
f 65/3/6 93/3/6 105/3/6
f 93/1/6 99/1/6 105/1/6
f 99/1/6 100/1/6 105/1/6
f 100/3/6 101/3/6 106/3/6
f 105/1/6 100/1/6 106/1/6
f 101/2/6 102/2/6 107/2/6
f 106/3/6 101/3/6 107/3/6
f 102/3/6 103/3/6 108/3/6
f 107/2/6 102/2/6 108/2/6
f 103/1/6 104/1/6 109/1/6
f 108/3/6 103/3/6 109/3/6
f 104/1/6 98/1/6 110/1/6
f 109/1/6 104/1/6 110/1/6
f 98/3/6 66/3/6 110/3/6
f 108/3/6 109/3/6 111/3/6
f 105/3/6 106/3/6 111/3/6
f 109/3/6 110/3/6 111/3/6
f 106/3/6 107/3/6 111/3/6
f 65/3/6 105/3/6 111/3/6
f 107/3/6 108/3/6 111/3/6
f 110/3/6 66/3/6 112/3/6
f 111/3/6 110/3/6 112/3/6
