# MagicaVoxel @ Ephtracy

# group
o 

# material
mtllib concrete_block.mtl
usemtl palette

# normals
vn -1 0 0
vn 1 0 0
vn 0 0 1
vn 0 0 -1
vn 0 -1 0
vn 0 1 0

# texcoords
vt 0.958984 0.5
vt 0.974609 0.5
vt 0.978516 0.5
vt 0.982422 0.5
vt 0.986328 0.5

# verts
v 0.9 0 1
v 0.9 0 0.2
v 0.9 0.1 1
v 0.9 0.1 0.2
v 1 0.1 1
v 1 0.1 0.2
v 1 0.2 1
v 1 0.2 0.9
v 1 0.2 0.8
v 1 0.2 0.7
v 1 0.2 0.6
v 1 0.2 0.5
v 1 0.2 0.4
v 1 0.2 0.2
v 1 0.3 0.9
v 1 0.3 0.8
v 1 0.3 0.7
v 1 0.3 0.6
v 1 0.3 0.5
v 1 0.3 0.4
v 1 0.4 1
v 1 0.4 0.2
v 1.1 0.4 1
v 1.1 0.4 0.2
v 1.1 0.5 1
v 1.1 0.5 0.2
v 1.2 0.2 1
v 1.2 0.2 0.9
v 1.2 0.2 0.8
v 1.2 0.2 0.7
v 1.2 0.2 0.6
v 1.2 0.2 0.5
v 1.2 0.2 0.4
v 1.2 0.2 0.2
v 1.2 0.3 1
v 1.2 0.3 0.9
v 1.2 0.3 0.8
v 1.2 0.3 0.7
v 1.2 0.3 0.6
v 1.2 0.3 0.5
v 1.2 0.3 0.4
v 1.2 0.3 0.2
v 1.1 0.2 1
v 1.1 0.2 0.9
v 1.1 0.2 0.8
v 1.1 0.2 0.7
v 1.1 0.2 0.6
v 1.1 0.2 0.5
v 1.1 0.2 0.4
v 1.1 0.2 0.2
v 1.1 0.3 1
v 1.1 0.3 0.9
v 1.1 0.3 0.8
v 1.1 0.3 0.7
v 1.1 0.3 0.6
v 1.1 0.3 0.5
v 1.1 0.3 0.4
v 1.1 0.3 0.2
v 1.2 0.4 1
v 1.2 0.4 0.2
v 1.2 0.5 1
v 1.2 0.5 0.2
v 1.3 0.1 1
v 1.3 0.1 0.2
v 1.3 0.2 1
v 1.3 0.2 0.9
v 1.3 0.2 0.8
v 1.3 0.2 0.7
v 1.3 0.2 0.6
v 1.3 0.2 0.5
v 1.3 0.2 0.4
v 1.3 0.2 0.2
v 1.3 0.3 0.9
v 1.3 0.3 0.8
v 1.3 0.3 0.7
v 1.3 0.3 0.6
v 1.3 0.3 0.5
v 1.3 0.3 0.4
v 1.3 0.4 1
v 1.3 0.4 0.2
v 1.4 0 1
v 1.4 0 0.2
v 1.4 0.1 1
v 1.4 0.1 0.2
v 0.9 0 1
v 0.9 0.1 1
v 1 0 1
v 1 0.1 1
v 1 0.2 1
v 1 0.4 1
v 1.1 0.2 1
v 1.1 0.3 1
v 1.1 0.4 1
v 1.1 0.5 1
v 1.2 0.2 1
v 1.2 0.3 1
v 1.2 0.4 1
v 1.2 0.5 1
v 1.3 0 1
v 1.3 0.1 1
v 1.3 0.2 1
v 1.3 0.4 1
v 1.4 0 1
v 1.4 0.1 1
v 0.9 0 0.2
v 0.9 0.1 0.2
v 1 0 0.2
v 1 0.1 0.2
v 1 0.2 0.2
v 1 0.4 0.2
v 1.1 0.2 0.2
v 1.1 0.3 0.2
v 1.1 0.4 0.2
v 1.1 0.5 0.2
v 1.2 0.2 0.2
v 1.2 0.3 0.2
v 1.2 0.4 0.2
v 1.2 0.5 0.2
v 1.3 0 0.2
v 1.3 0.1 0.2
v 1.3 0.2 0.2
v 1.3 0.4 0.2
v 1.4 0 0.2
v 1.4 0.1 0.2
v 0.9 0 1
v 1 0 1
v 1.3 0 1
v 1.4 0 1
v 0.9 0 0.2
v 1 0 0.2
v 1.3 0 0.2
v 1.4 0 0.2
v 1.1 0.3 1
v 1.2 0.3 1
v 1.1 0.3 0.9
v 1.2 0.3 0.9
v 1.1 0.3 0.8
v 1.2 0.3 0.8
v 1.1 0.3 0.7
v 1.2 0.3 0.7
v 1.1 0.3 0.6
v 1.2 0.3 0.6
v 1.1 0.3 0.5
v 1.2 0.3 0.5
v 1.1 0.3 0.4
v 1.2 0.3 0.4
v 1.1 0.3 0.2
v 1.2 0.3 0.2
v 0.9 0.1 1
v 1 0.1 1
v 1.3 0.1 1
v 1.4 0.1 1
v 0.9 0.1 0.2
v 1 0.1 0.2
v 1.3 0.1 0.2
v 1.4 0.1 0.2
v 1.1 0.2 1
v 1.2 0.2 1
v 1.1 0.2 0.9
v 1.2 0.2 0.9
v 1.1 0.2 0.8
v 1.2 0.2 0.8
v 1.1 0.2 0.7
v 1.2 0.2 0.7
v 1.1 0.2 0.6
v 1.2 0.2 0.6
v 1.1 0.2 0.5
v 1.2 0.2 0.5
v 1.1 0.2 0.4
v 1.2 0.2 0.4
v 1.1 0.2 0.2
v 1.2 0.2 0.2
v 1 0.4 1
v 1.1 0.4 1
v 1.2 0.4 1
v 1.3 0.4 1
v 1 0.4 0.2
v 1.1 0.4 0.2
v 1.2 0.4 0.2
v 1.3 0.4 0.2
v 1.1 0.5 1
v 1.2 0.5 1
v 1.1 0.5 0.2
v 1.2 0.5 0.2

# faces
f 3/3/1 2/3/1 1/3/1
f 4/3/1 2/3/1 3/3/1
f 7/2/1 6/2/1 5/2/1
f 8/2/1 6/2/1 7/2/1
f 9/2/1 6/2/1 8/2/1
f 10/2/1 6/2/1 9/2/1
f 11/2/1 6/2/1 10/2/1
f 12/2/1 6/2/1 11/2/1
f 13/2/1 6/2/1 12/2/1
f 14/2/1 6/2/1 13/2/1
f 15/1/1 8/1/1 7/1/1
f 15/5/1 9/5/1 8/5/1
f 16/1/1 10/1/1 9/1/1
f 16/5/1 9/5/1 15/5/1
f 17/5/1 11/5/1 10/5/1
f 17/1/1 10/1/1 16/1/1
f 18/1/1 12/1/1 11/1/1
f 18/5/1 11/5/1 17/5/1
f 19/5/1 13/5/1 12/5/1
f 19/1/1 12/1/1 18/1/1
f 20/1/1 14/1/1 13/1/1
f 20/5/1 13/5/1 19/5/1
f 21/1/1 19/1/1 18/1/1
f 21/1/1 15/1/1 7/1/1
f 21/1/1 20/1/1 19/1/1
f 21/1/1 18/1/1 17/1/1
f 21/1/1 17/1/1 16/1/1
f 21/1/1 16/1/1 15/1/1
f 22/1/1 14/1/1 20/1/1
f 22/1/1 20/1/1 21/1/1
f 25/1/1 24/1/1 23/1/1
f 26/1/1 24/1/1 25/1/1
f 35/1/1 28/1/1 27/1/1
f 36/5/1 29/5/1 28/5/1
f 36/1/1 28/1/1 35/1/1
f 37/1/1 30/1/1 29/1/1
f 37/5/1 29/5/1 36/5/1
f 38/5/1 31/5/1 30/5/1
f 38/1/1 30/1/1 37/1/1
f 39/1/1 32/1/1 31/1/1
f 39/5/1 31/5/1 38/5/1
f 40/5/1 33/5/1 32/5/1
f 40/1/1 32/1/1 39/1/1
f 41/1/1 34/1/1 33/1/1
f 41/5/1 33/5/1 40/5/1
f 42/1/1 34/1/1 41/1/1
f 43/1/2 44/1/2 51/1/2
f 44/5/2 45/5/2 52/5/2
f 51/1/2 44/1/2 52/1/2
f 45/1/2 46/1/2 53/1/2
f 52/5/2 45/5/2 53/5/2
f 46/5/2 47/5/2 54/5/2
f 53/1/2 46/1/2 54/1/2
f 47/1/2 48/1/2 55/1/2
f 54/5/2 47/5/2 55/5/2
f 48/5/2 49/5/2 56/5/2
f 55/1/2 48/1/2 56/1/2
f 49/1/2 50/1/2 57/1/2
f 56/5/2 49/5/2 57/5/2
f 57/1/2 50/1/2 58/1/2
f 59/1/2 60/1/2 61/1/2
f 61/1/2 60/1/2 62/1/2
f 63/2/2 64/2/2 65/2/2
f 65/2/2 64/2/2 66/2/2
f 66/2/2 64/2/2 67/2/2
f 67/2/2 64/2/2 68/2/2
f 68/2/2 64/2/2 69/2/2
f 69/2/2 64/2/2 70/2/2
f 70/2/2 64/2/2 71/2/2
f 71/2/2 64/2/2 72/2/2
f 65/1/2 66/1/2 73/1/2
f 66/5/2 67/5/2 73/5/2
f 67/1/2 68/1/2 74/1/2
f 73/5/2 67/5/2 74/5/2
f 68/5/2 69/5/2 75/5/2
f 74/1/2 68/1/2 75/1/2
f 69/1/2 70/1/2 76/1/2
f 75/5/2 69/5/2 76/5/2
f 70/5/2 71/5/2 77/5/2
f 76/1/2 70/1/2 77/1/2
f 71/1/2 72/1/2 78/1/2
f 77/5/2 71/5/2 78/5/2
f 76/1/2 77/1/2 79/1/2
f 65/1/2 73/1/2 79/1/2
f 77/1/2 78/1/2 79/1/2
f 75/1/2 76/1/2 79/1/2
f 74/1/2 75/1/2 79/1/2
f 73/1/2 74/1/2 79/1/2
f 78/1/2 72/1/2 80/1/2
f 79/1/2 78/1/2 80/1/2
f 81/3/2 82/3/2 83/3/2
f 83/3/2 82/3/2 84/3/2
f 87/3/3 86/3/3 85/3/3
f 88/3/3 86/3/3 87/3/3
f 91/2/3 89/2/3 88/2/3
f 91/1/3 90/1/3 89/1/3
f 92/1/3 90/1/3 91/1/3
f 93/1/3 90/1/3 92/1/3
f 95/2/3 91/2/3 88/2/3
f 96/1/3 94/1/3 93/1/3
f 96/1/3 93/1/3 92/1/3
f 97/1/3 94/1/3 96/1/3
f 98/1/3 94/1/3 97/1/3
f 99/4/3 88/4/3 87/4/3
f 100/2/3 95/2/3 88/2/3
f 100/4/3 88/4/3 99/4/3
f 101/1/3 96/1/3 95/1/3
f 101/2/3 95/2/3 100/2/3
f 101/1/3 97/1/3 96/1/3
f 102/1/3 97/1/3 101/1/3
f 103/3/3 100/3/3 99/3/3
f 104/3/3 100/3/3 103/3/3
f 105/3/4 106/3/4 107/3/4
f 107/3/4 106/3/4 108/3/4
f 108/2/4 109/2/4 111/2/4
f 109/1/4 110/1/4 111/1/4
f 111/1/4 110/1/4 112/1/4
f 112/1/4 110/1/4 113/1/4
f 108/2/4 111/2/4 115/2/4
f 113/1/4 114/1/4 116/1/4
f 112/1/4 113/1/4 116/1/4
f 116/1/4 114/1/4 117/1/4
f 117/1/4 114/1/4 118/1/4
f 107/4/4 108/4/4 119/4/4
f 108/2/4 115/2/4 120/2/4
f 119/4/4 108/4/4 120/4/4
f 115/1/4 116/1/4 121/1/4
f 120/2/4 115/2/4 121/2/4
f 116/1/4 117/1/4 121/1/4
f 121/1/4 117/1/4 122/1/4
f 119/3/4 120/3/4 123/3/4
f 123/3/4 120/3/4 124/3/4
f 129/3/5 126/3/5 125/3/5
f 130/4/5 127/4/5 126/4/5
f 130/3/5 126/3/5 129/3/5
f 131/3/5 128/3/5 127/3/5
f 131/4/5 127/4/5 130/4/5
f 132/3/5 128/3/5 131/3/5
f 135/1/5 134/1/5 133/1/5
f 136/1/5 134/1/5 135/1/5
f 137/1/5 136/1/5 135/1/5
f 138/1/5 136/1/5 137/1/5
f 139/1/5 138/1/5 137/1/5
f 140/1/5 138/1/5 139/1/5
f 141/1/5 140/1/5 139/1/5
f 142/1/5 140/1/5 141/1/5
f 143/1/5 142/1/5 141/1/5
f 144/1/5 142/1/5 143/1/5
f 145/1/5 144/1/5 143/1/5
f 146/1/5 144/1/5 145/1/5
f 147/1/5 146/1/5 145/1/5
f 148/1/5 146/1/5 147/1/5
f 149/3/6 150/3/6 153/3/6
f 153/3/6 150/3/6 154/3/6
f 151/3/6 152/3/6 155/3/6
f 155/3/6 152/3/6 156/3/6
f 157/2/6 158/2/6 159/2/6
f 159/2/6 158/2/6 160/2/6
f 159/2/6 160/2/6 161/2/6
f 161/2/6 160/2/6 162/2/6
f 161/2/6 162/2/6 163/2/6
f 163/2/6 162/2/6 164/2/6
f 163/2/6 164/2/6 165/2/6
f 165/2/6 164/2/6 166/2/6
f 165/2/6 166/2/6 167/2/6
f 167/2/6 166/2/6 168/2/6
f 167/2/6 168/2/6 169/2/6
f 169/2/6 168/2/6 170/2/6
f 169/2/6 170/2/6 171/2/6
f 171/2/6 170/2/6 172/2/6
f 173/1/6 174/1/6 177/1/6
f 177/1/6 174/1/6 178/1/6
f 175/1/6 176/1/6 179/1/6
f 179/1/6 176/1/6 180/1/6
f 181/1/6 182/1/6 183/1/6
f 183/1/6 182/1/6 184/1/6
