# MagicaVoxel @ Ephtracy

# group
o 

# material
mtllib metal_corner_piece.mtl
usemtl palette

# normals
vn -1 0 0
vn 1 0 0
vn 0 0 1
vn 0 0 -1
vn 0 -1 0
vn 0 1 0

# texcoords
vt 0.958984 0.5
vt 0.986328 0.5

# verts
v -1.2 0 -0.4
v -1.2 0 -0.5
v -1.2 0 -0.6
v -1.2 0.1 -0.4
v -1.2 0.1 -0.5
v -1.2 0.1 -0.6
v -1.1 0 -0.3
v -1.1 0 -0.4
v -1.1 0.1 -0.3
v -1.1 0.1 -0.4
v -1 0 -0.2
v -1 0 -0.3
v -1 0.1 -0.2
v -1 0.1 -0.3
v -0.9 0 -0.1
v -0.9 0 -0.2
v -0.9 0.1 -0.1
v -0.9 0.1 -0.2
v -0.8 0 -5.96046e-08
v -0.8 0 -0.1
v -0.8 0.1 -5.96046e-08
v -0.8 0.1 -0.1
v -0.7 0 0.1
v -0.7 0 -5.96046e-08
v -0.7 0.1 0.1
v -0.7 0.1 -5.96046e-08
v -0.6 0 0.2
v -0.6 0 0.1
v -0.6 0.1 0.2
v -0.6 0.1 0.1
v -0.5 0 0.3
v -0.5 0 0.2
v -0.5 0.1 0.3
v -0.5 0.1 0.2
v -0.4 0 0.4
v -0.4 0 0.3
v -0.4 0.1 0.4
v -0.4 0.1 0.3
v -0.3 0 0.5
v -0.3 0 0.4
v -0.3 0.1 0.5
v -0.3 0.1 0.4
v -0.2 0 0.6
v -0.2 0 0.5
v -0.2 0.1 0.6
v -0.2 0.1 0.5
v -0.0999999 0 0.7
v -0.0999999 0 0.6
v -0.0999999 0.1 0.7
v -0.0999999 0.1 0.6
v 1.19209e-07 0 0.8
v 1.19209e-07 0 0.7
v 1.19209e-07 0.1 0.8
v 1.19209e-07 0.1 0.7
v 0.1 0 0.8
v 0.1 0 -0.5
v 0.1 0 -0.6
v 0.1 0.1 0.8
v 0.1 0.1 -0.5
v 0.1 0.1 -0.6
v 1.19209e-07 0 0.8
v 1.19209e-07 0.1 0.8
v 0.1 0 0.8
v 0.1 0.1 0.8
v -0.0999999 0 0.7
v -0.0999999 0.1 0.7
v 1.19209e-07 0 0.7
v 1.19209e-07 0.1 0.7
v -0.2 0 0.6
v -0.2 0.1 0.6
v -0.0999999 0 0.6
v -0.0999999 0.1 0.6
v -0.3 0 0.5
v -0.3 0.1 0.5
v -0.2 0 0.5
v -0.2 0.1 0.5
v -0.4 0 0.4
v -0.4 0.1 0.4
v -0.3 0 0.4
v -0.3 0.1 0.4
v -0.5 0 0.3
v -0.5 0.1 0.3
v -0.4 0 0.3
v -0.4 0.1 0.3
v -0.6 0 0.2
v -0.6 0.1 0.2
v -0.5 0 0.2
v -0.5 0.1 0.2
v -0.7 0 0.1
v -0.7 0.1 0.1
v -0.6 0 0.1
v -0.6 0.1 0.1
v -0.8 0 -5.96046e-08
v -0.8 0.1 -5.96046e-08
v -0.7 0 -5.96046e-08
v -0.7 0.1 -5.96046e-08
v -0.9 0 -0.1
v -0.9 0.1 -0.1
v -0.8 0 -0.1
v -0.8 0.1 -0.1
v -1 0 -0.2
v -1 0.1 -0.2
v -0.9 0 -0.2
v -0.9 0.1 -0.2
v -1.1 0 -0.3
v -1.1 0.1 -0.3
v -1 0 -0.3
v -1 0.1 -0.3
v -1.2 0 -0.4
v -1.2 0.1 -0.4
v -1.1 0 -0.4
v -1.1 0.1 -0.4
v -1.2 0 -0.6
v -1.2 0.1 -0.6
v 0.1 0 -0.6
v 0.1 0.1 -0.6
v 1.19209e-07 0 0.8
v 0.1 0 0.8
v -0.0999999 0 0.7
v 1.19209e-07 0 0.7
v -0.2 0 0.6
v -0.0999999 0 0.6
v -0.3 0 0.5
v -0.2 0 0.5
v -0.4 0 0.4
v -0.3 0 0.4
v -0.5 0 0.3
v -0.4 0 0.3
v -0.6 0 0.2
v -0.5 0 0.2
v -0.7 0 0.1
v -0.6 0 0.1
v -0.8 0 -5.96046e-08
v -0.7 0 -5.96046e-08
v -0.9 0 -0.1
v -0.8 0 -0.1
v -1 0 -0.2
v -0.9 0 -0.2
v -1.1 0 -0.3
v -1 0 -0.3
v -1.2 0 -0.4
v -1.1 0 -0.4
v -1.2 0 -0.5
v 0.1 0 -0.5
v -1.2 0 -0.6
v 0.1 0 -0.6
v 1.19209e-07 0.1 0.8
v 0.1 0.1 0.8
v -0.0999999 0.1 0.7
v 1.19209e-07 0.1 0.7
v -0.2 0.1 0.6
v -0.0999999 0.1 0.6
v -0.3 0.1 0.5
v -0.2 0.1 0.5
v -0.4 0.1 0.4
v -0.3 0.1 0.4
v -0.5 0.1 0.3
v -0.4 0.1 0.3
v -0.6 0.1 0.2
v -0.5 0.1 0.2
v -0.7 0.1 0.1
v -0.6 0.1 0.1
v -0.8 0.1 -5.96046e-08
v -0.7 0.1 -5.96046e-08
v -0.9 0.1 -0.1
v -0.8 0.1 -0.1
v -1 0.1 -0.2
v -0.9 0.1 -0.2
v -1.1 0.1 -0.3
v -1 0.1 -0.3
v -1.2 0.1 -0.4
v -1.1 0.1 -0.4
v -1.2 0.1 -0.5
v 0.1 0.1 -0.5
v -1.2 0.1 -0.6
v 0.1 0.1 -0.6

# faces
f 4/1/1 2/1/1 1/1/1
f 5/2/1 3/2/1 2/2/1
f 5/1/1 2/1/1 4/1/1
f 6/2/1 3/2/1 5/2/1
f 9/1/1 8/1/1 7/1/1
f 10/1/1 8/1/1 9/1/1
f 13/1/1 12/1/1 11/1/1
f 14/1/1 12/1/1 13/1/1
f 17/1/1 16/1/1 15/1/1
f 18/1/1 16/1/1 17/1/1
f 21/1/1 20/1/1 19/1/1
f 22/1/1 20/1/1 21/1/1
f 25/1/1 24/1/1 23/1/1
f 26/1/1 24/1/1 25/1/1
f 29/1/1 28/1/1 27/1/1
f 30/1/1 28/1/1 29/1/1
f 33/1/1 32/1/1 31/1/1
f 34/1/1 32/1/1 33/1/1
f 37/1/1 36/1/1 35/1/1
f 38/1/1 36/1/1 37/1/1
f 41/1/1 40/1/1 39/1/1
f 42/1/1 40/1/1 41/1/1
f 45/1/1 44/1/1 43/1/1
f 46/1/1 44/1/1 45/1/1
f 49/1/1 48/1/1 47/1/1
f 50/1/1 48/1/1 49/1/1
f 53/1/1 52/1/1 51/1/1
f 54/1/1 52/1/1 53/1/1
f 55/1/2 56/1/2 58/1/2
f 56/2/2 57/2/2 59/2/2
f 58/1/2 56/1/2 59/1/2
f 59/2/2 57/2/2 60/2/2
f 63/1/3 62/1/3 61/1/3
f 64/1/3 62/1/3 63/1/3
f 67/1/3 66/1/3 65/1/3
f 68/1/3 66/1/3 67/1/3
f 71/1/3 70/1/3 69/1/3
f 72/1/3 70/1/3 71/1/3
f 75/1/3 74/1/3 73/1/3
f 76/1/3 74/1/3 75/1/3
f 79/1/3 78/1/3 77/1/3
f 80/1/3 78/1/3 79/1/3
f 83/1/3 82/1/3 81/1/3
f 84/1/3 82/1/3 83/1/3
f 87/1/3 86/1/3 85/1/3
f 88/1/3 86/1/3 87/1/3
f 91/1/3 90/1/3 89/1/3
f 92/1/3 90/1/3 91/1/3
f 95/1/3 94/1/3 93/1/3
f 96/1/3 94/1/3 95/1/3
f 99/1/3 98/1/3 97/1/3
f 100/1/3 98/1/3 99/1/3
f 103/1/3 102/1/3 101/1/3
f 104/1/3 102/1/3 103/1/3
f 107/1/3 106/1/3 105/1/3
f 108/1/3 106/1/3 107/1/3
f 111/1/3 110/1/3 109/1/3
f 112/1/3 110/1/3 111/1/3
f 113/2/4 114/2/4 115/2/4
f 115/2/4 114/2/4 116/2/4
f 120/1/5 118/1/5 117/1/5
f 122/1/5 120/1/5 119/1/5
f 124/1/5 122/1/5 121/1/5
f 126/1/5 124/1/5 123/1/5
f 128/1/5 126/1/5 125/1/5
f 130/1/5 128/1/5 127/1/5
f 132/1/5 130/1/5 129/1/5
f 134/1/5 132/1/5 131/1/5
f 136/1/5 134/1/5 133/1/5
f 138/1/5 136/1/5 135/1/5
f 140/1/5 138/1/5 137/1/5
f 142/1/5 140/1/5 139/1/5
f 143/1/5 142/1/5 141/1/5
f 144/1/5 118/1/5 120/1/5
f 144/1/5 142/1/5 143/1/5
f 144/1/5 120/1/5 122/1/5
f 144/1/5 140/1/5 142/1/5
f 144/1/5 122/1/5 124/1/5
f 144/1/5 138/1/5 140/1/5
f 144/1/5 124/1/5 126/1/5
f 144/1/5 136/1/5 138/1/5
f 144/1/5 126/1/5 128/1/5
f 144/1/5 134/1/5 136/1/5
f 144/1/5 128/1/5 130/1/5
f 144/1/5 132/1/5 134/1/5
f 144/1/5 130/1/5 132/1/5
f 145/2/5 144/2/5 143/2/5
f 146/2/5 144/2/5 145/2/5
f 147/1/6 148/1/6 150/1/6
f 149/1/6 150/1/6 152/1/6
f 151/1/6 152/1/6 154/1/6
f 153/1/6 154/1/6 156/1/6
f 155/1/6 156/1/6 158/1/6
f 157/1/6 158/1/6 160/1/6
f 159/1/6 160/1/6 162/1/6
f 161/1/6 162/1/6 164/1/6
f 163/1/6 164/1/6 166/1/6
f 165/1/6 166/1/6 168/1/6
f 167/1/6 168/1/6 170/1/6
f 169/1/6 170/1/6 172/1/6
f 171/1/6 172/1/6 173/1/6
f 150/1/6 148/1/6 174/1/6
f 173/1/6 172/1/6 174/1/6
f 152/1/6 150/1/6 174/1/6
f 172/1/6 170/1/6 174/1/6
f 154/1/6 152/1/6 174/1/6
f 170/1/6 168/1/6 174/1/6
f 156/1/6 154/1/6 174/1/6
f 168/1/6 166/1/6 174/1/6
f 158/1/6 156/1/6 174/1/6
f 166/1/6 164/1/6 174/1/6
f 160/1/6 158/1/6 174/1/6
f 164/1/6 162/1/6 174/1/6
f 162/1/6 160/1/6 174/1/6
f 173/2/6 174/2/6 175/2/6
f 175/2/6 174/2/6 176/2/6
