# MagicaVoxel @ Ephtracy

# group
o 

# material
mtllib spotlightmini.mtl
usemtl palette

# normals
vn -1 0 0
vn 1 0 0
vn 0 0 1
vn 0 0 -1
vn 0 -1 0
vn 0 1 0

# texcoords
vt 0.0175781 0.5
vt 0.986328 0.5

# verts
v -0.6 0 1
v -0.6 0 0.8
v -0.6 0.2 1
v -0.6 0.2 0.8
v -0.0999999 0 1
v -0.0999999 0 0.8
v -0.0999999 0.2 1
v -0.0999999 0.2 0.8
v -0.6 0 1
v -0.6 0.2 1
v -0.5 0 1
v -0.5 0.2 1
v -0.2 0 1
v -0.2 0.2 1
v -0.0999999 0 1
v -0.0999999 0.2 1
v -0.6 0 0.8
v -0.6 0.2 0.8
v -0.0999999 0 0.8
v -0.0999999 0.2 0.8
v -0.6 0 1
v -0.5 0 1
v -0.2 0 1
v -0.0999999 0 1
v -0.5 0 0.9
v -0.2 0 0.9
v -0.6 0 0.8
v -0.0999999 0 0.8
v -0.6 0.2 1
v -0.5 0.2 1
v -0.2 0.2 1
v -0.0999999 0.2 1
v -0.5 0.2 0.9
v -0.2 0.2 0.9
v -0.6 0.2 0.8
v -0.0999999 0.2 0.8

# faces
f 3/2/1 2/2/1 1/2/1
f 4/2/1 2/2/1 3/2/1
f 5/2/2 6/2/2 7/2/2
f 7/2/2 6/2/2 8/2/2
f 11/2/3 10/2/3 9/2/3
f 12/2/3 10/2/3 11/2/3
f 13/1/3 12/1/3 11/1/3
f 14/1/3 12/1/3 13/1/3
f 15/2/3 14/2/3 13/2/3
f 16/2/3 14/2/3 15/2/3
f 17/2/4 18/2/4 19/2/4
f 19/2/4 18/2/4 20/2/4
f 25/2/5 22/2/5 21/2/5
f 25/1/5 23/1/5 22/1/5
f 26/2/5 24/2/5 23/2/5
f 26/1/5 23/1/5 25/1/5
f 27/2/5 25/2/5 21/2/5
f 27/2/5 26/2/5 25/2/5
f 28/2/5 24/2/5 26/2/5
f 28/2/5 26/2/5 27/2/5
f 29/2/6 30/2/6 33/2/6
f 30/1/6 31/1/6 33/1/6
f 31/2/6 32/2/6 34/2/6
f 33/1/6 31/1/6 34/1/6
f 29/2/6 33/2/6 35/2/6
f 33/2/6 34/2/6 35/2/6
f 34/2/6 32/2/6 36/2/6
f 35/2/6 34/2/6 36/2/6
