# MagicaVoxel @ Ephtracy

# group
o 

# material
mtllib welder-0.mtl
usemtl palette

# normals
vn -1 0 0
vn 1 0 0
vn 0 0 1
vn 0 0 -1
vn 0 -1 0
vn 0 1 0

# texcoords
vt 0.720703 0.5
vt 0.908203 0.5
vt 0.970703 0.5
vt 0.978516 0.5
vt 0.986328 0.5

# verts
v -0.3 0.6 0
v -0.3 0.6 -0.2
v -0.3 0.7 0
v -0.3 0.7 -0.1
v -0.3 0.7 -0.2
v -0.3 0.8 -0.1
v -0.3 0.8 -0.2
v -0.2 0.5 0
v -0.2 0.5 -0.2
v -0.2 0.6 0
v -0.2 0.6 -0.2
v -0.2 0.7 0
v -0.2 0.7 -0.1
v -0.2 0.8 0
v -0.2 0.8 -0.1
v -0.1 0.4 0
v -0.1 0.4 -0.2
v -0.1 0.5 0
v -0.1 0.5 -0.2
v 0 -0.8 0
v 0 -0.8 -0.2
v 0 -0.1 0
v 0 -0.1 -0.2
v 0 0.2 0
v 0 0.2 -0.2
v 0 0.4 0
v 0 0.4 -0.2
v 0.1 -0.8 0.1
v 0.1 -0.8 0
v 0.1 -0.8 -0.2
v 0.1 -0.8 -0.3
v 0.1 -0.1 0.1
v 0.1 -0.1 0
v 0.1 -0.1 -0.2
v 0.1 -0.1 -0.3
v 0.1 0.2 0
v 0.1 0.2 -0.2
v -0.1 0.7 0
v -0.1 0.7 -0.2
v -0.1 0.8 0
v -0.1 0.8 -0.2
v 0 0.6 0
v 0 0.6 -0.2
v 0 0.7 0
v 0 0.7 -0.2
v 0.1 0.5 0
v 0.1 0.5 -0.2
v 0.1 0.6 0
v 0.1 0.6 -0.2
v 0.2 0.3 0
v 0.2 0.3 -0.2
v 0.2 0.5 0
v 0.2 0.5 -0.2
v 0.3 -0.8 0.1
v 0.3 -0.8 0
v 0.3 -0.8 -0.2
v 0.3 -0.8 -0.3
v 0.3 -0.1 0.1
v 0.3 -0.1 0
v 0.3 -0.1 -0.2
v 0.3 -0.1 -0.3
v 0.3 0.3 0
v 0.3 0.3 -0.2
v 0.4 -0.8 0
v 0.4 -0.8 -0.2
v 0.4 -0.1 0
v 0.4 -0.1 -0.2
v 0.1 -0.8 0.1
v 0.1 -0.1 0.1
v 0.3 -0.8 0.1
v 0.3 -0.1 0.1
v -0.3 0.6 0
v -0.3 0.7 0
v -0.2 0.5 0
v -0.2 0.6 0
v -0.2 0.7 0
v -0.2 0.8 0
v -0.1 0.4 0
v -0.1 0.5 0
v -0.1 0.6 0
v -0.1 0.7 0
v -0.1 0.8 0
v 0 -0.8 0
v 0 -0.1 0
v 0 0.2 0
v 0 0.4 0
v 0 0.6 0
v 0 0.7 0
v 0.1 -0.8 0
v 0.1 -0.1 0
v 0.1 0.2 0
v 0.1 0.5 0
v 0.1 0.6 0
v 0.2 0.3 0
v 0.2 0.5 0
v 0.3 -0.8 0
v 0.3 -0.1 0
v 0.3 0.3 0
v 0.4 -0.8 0
v 0.4 -0.1 0
v -0.3 0.7 -0.1
v -0.3 0.8 -0.1
v -0.2 0.7 -0.1
v -0.2 0.8 -0.1
v -0.3 0.6 -0.2
v -0.3 0.7 -0.2
v -0.3 0.8 -0.2
v -0.2 0.5 -0.2
v -0.2 0.6 -0.2
v -0.2 0.7 -0.2
v -0.2 0.8 -0.2
v -0.1 0.4 -0.2
v -0.1 0.5 -0.2
v -0.1 0.6 -0.2
v -0.1 0.7 -0.2
v -0.1 0.8 -0.2
v 0 -0.8 -0.2
v 0 -0.1 -0.2
v 0 0.2 -0.2
v 0 0.4 -0.2
v 0 0.6 -0.2
v 0 0.7 -0.2
v 0.1 -0.8 -0.2
v 0.1 -0.1 -0.2
v 0.1 0.2 -0.2
v 0.1 0.5 -0.2
v 0.1 0.6 -0.2
v 0.2 0.3 -0.2
v 0.2 0.5 -0.2
v 0.3 -0.8 -0.2
v 0.3 -0.1 -0.2
v 0.3 0.3 -0.2
v 0.4 -0.8 -0.2
v 0.4 -0.1 -0.2
v 0.1 -0.8 -0.3
v 0.1 -0.1 -0.3
v 0.3 -0.8 -0.3
v 0.3 -0.1 -0.3
v 0.1 -0.8 0.1
v 0.3 -0.8 0.1
v 0 -0.8 0
v 0.1 -0.8 0
v 0.3 -0.8 0
v 0.4 -0.8 0
v 0 -0.8 -0.2
v 0.1 -0.8 -0.2
v 0.3 -0.8 -0.2
v 0.4 -0.8 -0.2
v 0.1 -0.8 -0.3
v 0.3 -0.8 -0.3
v 0 0.2 0
v 0.1 0.2 0
v 0 0.2 -0.2
v 0.1 0.2 -0.2
v -0.1 0.4 0
v 0 0.4 0
v -0.1 0.4 -0.2
v 0 0.4 -0.2
v -0.2 0.5 0
v -0.1 0.5 0
v -0.2 0.5 -0.2
v -0.1 0.5 -0.2
v -0.3 0.6 0
v -0.2 0.6 0
v -0.3 0.6 -0.2
v -0.2 0.6 -0.2
v 0.1 -0.1 0.1
v 0.3 -0.1 0.1
v 0 -0.1 0
v 0.1 -0.1 0
v 0.3 -0.1 0
v 0.4 -0.1 0
v 0 -0.1 -0.2
v 0.1 -0.1 -0.2
v 0.3 -0.1 -0.2
v 0.4 -0.1 -0.2
v 0.1 -0.1 -0.3
v 0.3 -0.1 -0.3
v 0.2 0.3 0
v 0.3 0.3 0
v 0.2 0.3 -0.2
v 0.3 0.3 -0.2
v 0.1 0.5 0
v 0.2 0.5 0
v 0.1 0.5 -0.2
v 0.2 0.5 -0.2
v 0 0.6 0
v 0.1 0.6 0
v 0 0.6 -0.2
v 0.1 0.6 -0.2
v -0.3 0.7 0
v -0.2 0.7 0
v -0.1 0.7 0
v 0 0.7 0
v -0.3 0.7 -0.1
v -0.2 0.7 -0.1
v -0.1 0.7 -0.2
v 0 0.7 -0.2
v -0.2 0.8 0
v -0.1 0.8 0
v -0.3 0.8 -0.1
v -0.2 0.8 -0.1
v -0.3 0.8 -0.2
v -0.2 0.8 -0.2
v -0.1 0.8 -0.2

# faces
f 3/1/1 2/1/1 1/1/1
f 4/1/1 2/1/1 3/1/1
f 5/1/1 2/1/1 4/1/1
f 6/2/1 5/2/1 4/2/1
f 7/2/1 5/2/1 6/2/1
f 10/5/1 9/5/1 8/5/1
f 11/5/1 9/5/1 10/5/1
f 14/1/1 13/1/1 12/1/1
f 15/1/1 13/1/1 14/1/1
f 18/3/1 17/3/1 16/3/1
f 19/3/1 17/3/1 18/3/1
f 22/4/1 21/4/1 20/4/1
f 23/4/1 21/4/1 22/4/1
f 26/3/1 25/3/1 24/3/1
f 27/3/1 25/3/1 26/3/1
f 32/4/1 29/4/1 28/4/1
f 33/4/1 29/4/1 32/4/1
f 34/4/1 31/4/1 30/4/1
f 35/4/1 31/4/1 34/4/1
f 36/3/1 34/3/1 33/3/1
f 37/3/1 34/3/1 36/3/1
f 38/1/2 39/1/2 40/1/2
f 40/1/2 39/1/2 41/1/2
f 42/5/2 43/5/2 44/5/2
f 44/5/2 43/5/2 45/5/2
f 46/3/2 47/3/2 48/3/2
f 48/3/2 47/3/2 49/3/2
f 50/3/2 51/3/2 52/3/2
f 52/3/2 51/3/2 53/3/2
f 54/4/2 55/4/2 58/4/2
f 58/4/2 55/4/2 59/4/2
f 56/4/2 57/4/2 60/4/2
f 60/4/2 57/4/2 61/4/2
f 59/3/2 60/3/2 62/3/2
f 62/3/2 60/3/2 63/3/2
f 64/4/2 65/4/2 66/4/2
f 66/4/2 65/4/2 67/4/2
f 70/4/3 69/4/3 68/4/3
f 71/4/3 69/4/3 70/4/3
f 75/1/3 73/1/3 72/1/3
f 76/1/3 73/1/3 75/1/3
f 79/5/3 75/5/3 74/5/3
f 79/5/3 76/5/3 75/5/3
f 80/5/3 76/5/3 79/5/3
f 81/1/3 77/1/3 76/1/3
f 81/5/3 76/5/3 80/5/3
f 82/1/3 77/1/3 81/1/3
f 86/3/3 80/3/3 79/3/3
f 86/3/3 79/3/3 78/3/3
f 87/5/3 81/5/3 80/5/3
f 87/3/3 80/3/3 86/3/3
f 88/5/3 81/5/3 87/5/3
f 89/4/3 84/4/3 83/4/3
f 90/4/3 84/4/3 89/4/3
f 91/3/3 86/3/3 85/3/3
f 91/3/3 87/3/3 86/3/3
f 92/3/3 87/3/3 91/3/3
f 93/3/3 87/3/3 92/3/3
f 94/3/3 91/3/3 90/3/3
f 94/3/3 92/3/3 91/3/3
f 95/3/3 92/3/3 94/3/3
f 97/3/3 94/3/3 90/3/3
f 98/3/3 94/3/3 97/3/3
f 99/4/3 97/4/3 96/4/3
f 100/4/3 97/4/3 99/4/3
f 103/2/3 102/2/3 101/2/3
f 104/2/3 102/2/3 103/2/3
f 105/1/4 106/1/4 109/1/4
f 106/2/4 107/2/4 110/2/4
f 109/1/4 106/1/4 110/1/4
f 110/2/4 107/2/4 111/2/4
f 108/5/4 109/5/4 113/5/4
f 109/5/4 110/5/4 113/5/4
f 113/5/4 110/5/4 114/5/4
f 110/1/4 111/1/4 115/1/4
f 114/5/4 110/5/4 115/5/4
f 115/1/4 111/1/4 116/1/4
f 113/3/4 114/3/4 120/3/4
f 112/3/4 113/3/4 120/3/4
f 114/5/4 115/5/4 121/5/4
f 120/3/4 114/3/4 121/3/4
f 121/5/4 115/5/4 122/5/4
f 117/4/4 118/4/4 123/4/4
f 123/4/4 118/4/4 124/4/4
f 119/3/4 120/3/4 125/3/4
f 120/3/4 121/3/4 125/3/4
f 125/3/4 121/3/4 126/3/4
f 126/3/4 121/3/4 127/3/4
f 124/3/4 125/3/4 128/3/4
f 125/3/4 126/3/4 128/3/4
f 128/3/4 126/3/4 129/3/4
f 124/3/4 128/3/4 131/3/4
f 131/3/4 128/3/4 132/3/4
f 130/4/4 131/4/4 133/4/4
f 133/4/4 131/4/4 134/4/4
f 135/4/4 136/4/4 137/4/4
f 137/4/4 136/4/4 138/4/4
f 142/4/5 140/4/5 139/4/5
f 143/4/5 140/4/5 142/4/5
f 145/4/5 142/4/5 141/4/5
f 145/4/5 144/4/5 143/4/5
f 145/4/5 143/4/5 142/4/5
f 146/4/5 144/4/5 145/4/5
f 147/4/5 144/4/5 146/4/5
f 148/4/5 144/4/5 147/4/5
f 149/4/5 147/4/5 146/4/5
f 150/4/5 147/4/5 149/4/5
f 153/3/5 152/3/5 151/3/5
f 154/3/5 152/3/5 153/3/5
f 157/3/5 156/3/5 155/3/5
f 158/3/5 156/3/5 157/3/5
f 161/5/5 160/5/5 159/5/5
f 162/5/5 160/5/5 161/5/5
f 165/1/5 164/1/5 163/1/5
f 166/1/5 164/1/5 165/1/5
f 167/4/6 168/4/6 170/4/6
f 170/4/6 168/4/6 171/4/6
f 169/4/6 170/4/6 173/4/6
f 173/4/6 170/4/6 174/4/6
f 171/4/6 172/4/6 175/4/6
f 175/4/6 172/4/6 176/4/6
f 174/4/6 175/4/6 177/4/6
f 177/4/6 175/4/6 178/4/6
f 179/3/6 180/3/6 181/3/6
f 181/3/6 180/3/6 182/3/6
f 183/3/6 184/3/6 185/3/6
f 185/3/6 184/3/6 186/3/6
f 187/3/6 188/3/6 189/3/6
f 189/3/6 188/3/6 190/3/6
f 191/1/6 192/1/6 195/1/6
f 195/1/6 192/1/6 196/1/6
f 193/5/6 194/5/6 197/5/6
f 197/5/6 194/5/6 198/5/6
f 199/1/6 200/1/6 202/1/6
f 201/2/6 202/2/6 203/2/6
f 202/1/6 200/1/6 204/1/6
f 203/2/6 202/2/6 204/2/6
f 204/1/6 200/1/6 205/1/6
