# MagicaVoxel @ Ephtracy

# group
o 

# material
mtllib wallWindowL-0.mtl
usemtl palette

# normals
vn -1 0 0
vn 1 0 0
vn 0 0 1
vn 0 0 -1
vn 0 -1 0
vn 0 1 0

# texcoords
vt 0.876953 0.5
vt 0.939453 0.5
vt 0.970703 0.5

# verts
v -0.8 -0.8 -0.5
v -0.8 -0.8 -0.8
v -0.8 -0.7 -0.5
v -0.8 -0.7 -0.6
v -0.8 0.7 -0.5
v -0.8 0.7 -0.6
v -0.8 0.8 -0.5
v -0.8 0.8 -0.8
v -0.6 -0.3 -0.6
v -0.6 -0.3 -0.7
v -0.6 0.4 -0.6
v -0.6 0.4 -0.7
v -0.5 -0.4 -0.6
v -0.5 -0.4 -0.7
v -0.5 -0.3 -0.6
v -0.5 -0.3 -0.7
v -0.5 0.4 -0.6
v -0.5 0.4 -0.7
v -0.5 0.5 -0.6
v -0.5 0.5 -0.7
v -0.4 -0.5 -0.5
v -0.4 -0.5 -0.7
v -0.4 -0.4 -0.5
v -0.4 -0.4 -0.6
v -0.4 -0.4 -0.7
v -0.4 0.5 -0.6
v -0.4 0.5 -0.7
v -0.4 0.6 -0.6
v -0.4 0.6 -0.7
v 0.6 -0.8 -0.6
v 0.6 -0.8 -0.7
v 0.6 -0.7 -0.6
v 0.6 -0.7 -0.7
v 0.6 0.6 -0.6
v 0.6 0.6 -0.7
v 0.6 0.7 -0.6
v 0.6 0.7 -0.7
v 0.7 -0.8 -0.5
v 0.7 -0.8 -0.6
v 0.7 -0.7 -0.5
v 0.7 -0.7 -0.6
v 0.7 -0.7 -0.7
v 0.7 -0.6 -0.7
v 0.7 -0.5 -0.6
v 0.7 -0.5 -0.7
v 0.7 0.7 -0.5
v 0.7 0.7 -0.6
v 0.7 0.8 -0.5
v 0.7 0.8 -0.6
v -0.7 -0.8 -0.5
v -0.7 -0.8 -0.6
v -0.7 -0.7 -0.5
v -0.7 -0.7 -0.6
v -0.7 -0.7 -0.7
v -0.7 -0.3 -0.7
v -0.7 0.4 -0.7
v -0.7 0.6 -0.6
v -0.7 0.6 -0.7
v -0.7 0.7 -0.5
v -0.7 0.7 -0.6
v -0.7 0.8 -0.5
v -0.7 0.8 -0.6
v -0.6 -0.8 -0.6
v -0.6 -0.8 -0.7
v -0.6 -0.7 -0.6
v -0.6 -0.7 -0.7
v -0.6 0.6 -0.6
v -0.6 0.6 -0.7
v -0.6 0.7 -0.6
v -0.6 0.7 -0.7
v -0.5 -0.3 -0.6
v -0.5 -0.3 -0.8
v -0.5 0.4 -0.6
v -0.5 0.4 -0.8
v -0.4 -0.4 -0.6
v -0.4 -0.4 -0.8
v -0.4 -0.3 -0.6
v -0.4 -0.3 -0.8
v -0.4 0.4 -0.6
v -0.4 0.4 -0.8
v -0.4 0.5 -0.6
v -0.4 0.5 -0.8
v 0.8 -0.8 -0.5
v 0.8 -0.8 -0.8
v 0.8 -0.7 -0.5
v 0.8 -0.7 -0.6
v 0.8 -0.5 -0.5
v 0.8 -0.5 -0.6
v 0.8 -0.4 -0.5
v 0.8 -0.4 -0.8
v 0.8 0.5 -0.6
v 0.8 0.5 -0.8
v 0.8 0.7 -0.5
v 0.8 0.7 -0.6
v 0.8 0.8 -0.5
v 0.8 0.8 -0.8
v -0.8 -0.8 -0.5
v -0.8 -0.7 -0.5
v -0.8 0.7 -0.5
v -0.8 0.8 -0.5
v -0.7 -0.8 -0.5
v -0.7 -0.7 -0.5
v -0.7 0.7 -0.5
v -0.7 0.8 -0.5
v -0.4 -0.5 -0.5
v -0.4 -0.4 -0.5
v 0.7 -0.8 -0.5
v 0.7 -0.7 -0.5
v 0.7 0.7 -0.5
v 0.7 0.8 -0.5
v 0.8 -0.8 -0.5
v 0.8 -0.7 -0.5
v 0.8 -0.5 -0.5
v 0.8 -0.4 -0.5
v 0.8 0.7 -0.5
v 0.8 0.8 -0.5
v -0.8 -0.7 -0.6
v -0.8 0.7 -0.6
v -0.7 -0.8 -0.6
v -0.7 -0.7 -0.6
v -0.7 0.6 -0.6
v -0.7 0.7 -0.6
v -0.7 0.8 -0.6
v -0.6 -0.8 -0.6
v -0.6 -0.7 -0.6
v -0.6 -0.3 -0.6
v -0.6 0.4 -0.6
v -0.6 0.6 -0.6
v -0.6 0.7 -0.6
v -0.5 -0.4 -0.6
v -0.5 -0.3 -0.6
v -0.5 0.4 -0.6
v -0.5 0.5 -0.6
v -0.4 -0.4 -0.6
v -0.4 -0.3 -0.6
v -0.4 0.4 -0.6
v -0.4 0.5 -0.6
v -0.4 0.6 -0.6
v 0.6 -0.8 -0.6
v 0.6 -0.7 -0.6
v 0.6 0.6 -0.6
v 0.6 0.7 -0.6
v 0.7 -0.8 -0.6
v 0.7 -0.7 -0.6
v 0.7 -0.5 -0.6
v 0.7 0.7 -0.6
v 0.7 0.8 -0.6
v 0.8 -0.7 -0.6
v 0.8 -0.5 -0.6
v 0.8 0.5 -0.6
v 0.8 0.7 -0.6
v -0.7 -0.7 -0.7
v -0.7 -0.3 -0.7
v -0.7 0.4 -0.7
v -0.7 0.6 -0.7
v -0.6 -0.8 -0.7
v -0.6 -0.7 -0.7
v -0.6 -0.4 -0.7
v -0.6 -0.3 -0.7
v -0.6 0.4 -0.7
v -0.6 0.5 -0.7
v -0.6 0.6 -0.7
v -0.6 0.7 -0.7
v -0.5 -0.5 -0.7
v -0.5 -0.4 -0.7
v -0.5 -0.3 -0.7
v -0.5 0.4 -0.7
v -0.5 0.5 -0.7
v -0.5 0.6 -0.7
v -0.4 -0.6 -0.7
v -0.4 -0.5 -0.7
v -0.4 -0.4 -0.7
v -0.4 0.5 -0.7
v -0.4 0.6 -0.7
v -0.4 0.7 -0.7
v 0.6 -0.8 -0.7
v 0.6 -0.7 -0.7
v 0.6 0.6 -0.7
v 0.6 0.7 -0.7
v 0.7 -0.7 -0.7
v 0.7 -0.6 -0.7
v 0.7 -0.5 -0.7
v -0.8 -0.8 -0.8
v -0.8 0.8 -0.8
v -0.7 -0.8 -0.8
v -0.7 -0.3 -0.8
v -0.7 0.4 -0.8
v -0.7 0.7 -0.8
v -0.6 -0.4 -0.8
v -0.6 -0.3 -0.8
v -0.6 0.4 -0.8
v -0.6 0.5 -0.8
v -0.5 -0.5 -0.8
v -0.5 -0.4 -0.8
v -0.5 -0.3 -0.8
v -0.5 0.4 -0.8
v -0.5 0.5 -0.8
v -0.5 0.6 -0.8
v -0.4 -0.6 -0.8
v -0.4 -0.5 -0.8
v -0.4 -0.4 -0.8
v -0.4 -0.3 -0.8
v -0.4 0.4 -0.8
v -0.4 0.5 -0.8
v -0.4 0.6 -0.8
v -0.4 0.7 -0.8
v 0.6 0.6 -0.8
v 0.6 0.7 -0.8
v 0.7 -0.8 -0.8
v 0.7 -0.6 -0.8
v 0.7 -0.5 -0.8
v 0.7 0.6 -0.8
v 0.7 0.7 -0.8
v 0.8 -0.8 -0.8
v 0.8 -0.4 -0.8
v 0.8 0.5 -0.8
v 0.8 0.8 -0.8
v -0.8 -0.8 -0.5
v -0.7 -0.8 -0.5
v 0.7 -0.8 -0.5
v 0.8 -0.8 -0.5
v -0.7 -0.8 -0.6
v -0.6 -0.8 -0.6
v 0.6 -0.8 -0.6
v 0.7 -0.8 -0.6
v -0.7 -0.8 -0.7
v -0.6 -0.8 -0.7
v 0.6 -0.8 -0.7
v 0.7 -0.8 -0.7
v -0.8 -0.8 -0.8
v -0.7 -0.8 -0.8
v 0.7 -0.8 -0.8
v 0.8 -0.8 -0.8
v -0.4 -0.5 -0.5
v 0.8 -0.5 -0.5
v 0.7 -0.5 -0.6
v 0.8 -0.5 -0.6
v -0.4 -0.5 -0.7
v 0.7 -0.5 -0.7
v -0.5 -0.4 -0.6
v -0.4 -0.4 -0.6
v -0.5 -0.4 -0.7
v -0.4 -0.4 -0.7
v -0.6 -0.3 -0.6
v -0.5 -0.3 -0.6
v -0.6 -0.3 -0.7
v -0.5 -0.3 -0.7
v -0.5 0.4 -0.6
v -0.4 0.4 -0.6
v -0.5 0.4 -0.8
v -0.4 0.4 -0.8
v -0.4 0.5 -0.6
v 0.8 0.5 -0.6
v -0.4 0.5 -0.8
v 0.8 0.5 -0.8
v -0.7 0.6 -0.6
v -0.6 0.6 -0.6
v -0.7 0.6 -0.7
v -0.6 0.6 -0.7
v -0.8 0.7 -0.5
v -0.7 0.7 -0.5
v 0.7 0.7 -0.5
v 0.8 0.7 -0.5
v -0.8 0.7 -0.6
v -0.7 0.7 -0.6
v -0.6 0.7 -0.6
v 0.6 0.7 -0.6
v 0.7 0.7 -0.6
v 0.8 0.7 -0.6
v -0.6 0.7 -0.7
v -0.4 0.7 -0.7
v 0.6 0.7 -0.7
v -0.8 -0.7 -0.5
v -0.7 -0.7 -0.5
v 0.7 -0.7 -0.5
v 0.8 -0.7 -0.5
v -0.8 -0.7 -0.6
v -0.7 -0.7 -0.6
v -0.6 -0.7 -0.6
v 0.6 -0.7 -0.6
v 0.7 -0.7 -0.6
v 0.8 -0.7 -0.6
v -0.7 -0.7 -0.7
v -0.6 -0.7 -0.7
v 0.6 -0.7 -0.7
v 0.7 -0.7 -0.7
v -0.4 -0.4 -0.5
v 0.8 -0.4 -0.5
v -0.4 -0.4 -0.6
v -0.4 -0.4 -0.8
v 0.8 -0.4 -0.8
v -0.5 -0.3 -0.6
v -0.4 -0.3 -0.6
v -0.5 -0.3 -0.8
v -0.4 -0.3 -0.8
v -0.6 0.4 -0.6
v -0.5 0.4 -0.6
v -0.6 0.4 -0.7
v -0.5 0.4 -0.7
v -0.5 0.5 -0.6
v -0.4 0.5 -0.6
v -0.5 0.5 -0.7
v -0.4 0.5 -0.7
v -0.4 0.6 -0.6
v 0.6 0.6 -0.6
v -0.4 0.6 -0.7
v 0.6 0.6 -0.7
v -0.8 0.8 -0.5
v -0.7 0.8 -0.5
v 0.7 0.8 -0.5
v 0.8 0.8 -0.5
v -0.7 0.8 -0.6
v 0.7 0.8 -0.6
v -0.8 0.8 -0.8
v 0.8 0.8 -0.8

# faces
f 3/3/1 2/3/1 1/3/1
f 4/3/1 2/3/1 3/3/1
f 6/3/1 2/3/1 4/3/1
f 7/3/1 6/3/1 5/3/1
f 8/3/1 2/3/1 6/3/1
f 8/3/1 6/3/1 7/3/1
f 11/3/1 10/3/1 9/3/1
f 12/3/1 10/3/1 11/3/1
f 15/3/1 14/3/1 13/3/1
f 16/3/1 14/3/1 15/3/1
f 19/3/1 18/3/1 17/3/1
f 20/3/1 18/3/1 19/3/1
f 23/3/1 22/3/1 21/3/1
f 24/3/1 22/3/1 23/3/1
f 25/3/1 22/3/1 24/3/1
f 28/3/1 27/3/1 26/3/1
f 29/3/1 27/3/1 28/3/1
f 32/3/1 31/3/1 30/3/1
f 33/3/1 31/3/1 32/3/1
f 36/3/1 35/3/1 34/3/1
f 37/3/1 35/3/1 36/3/1
f 40/3/1 39/3/1 38/3/1
f 41/3/1 39/3/1 40/3/1
f 43/3/1 42/3/1 41/3/1
f 44/3/1 43/3/1 41/3/1
f 45/3/1 43/3/1 44/3/1
f 48/3/1 47/3/1 46/3/1
f 49/3/1 47/3/1 48/3/1
f 50/3/2 51/3/2 52/3/2
f 52/3/2 51/3/2 53/3/2
f 53/3/2 54/3/2 55/3/2
f 53/3/2 55/3/2 56/3/2
f 53/3/2 56/3/2 57/3/2
f 57/3/2 56/3/2 58/3/2
f 59/3/2 60/3/2 61/3/2
f 61/3/2 60/3/2 62/3/2
f 63/3/2 64/3/2 65/3/2
f 65/3/2 64/3/2 66/3/2
f 67/3/2 68/3/2 69/3/2
f 69/3/2 68/3/2 70/3/2
f 71/3/2 72/3/2 73/3/2
f 73/3/2 72/3/2 74/3/2
f 75/3/2 76/3/2 77/3/2
f 77/3/2 76/3/2 78/3/2
f 79/3/2 80/3/2 81/3/2
f 81/3/2 80/3/2 82/3/2
f 83/3/2 84/3/2 85/3/2
f 85/3/2 84/3/2 86/3/2
f 86/3/2 84/3/2 88/3/2
f 87/3/2 88/3/2 89/3/2
f 88/3/2 84/3/2 90/3/2
f 89/3/2 88/3/2 90/3/2
f 91/3/2 92/3/2 94/3/2
f 93/3/2 94/3/2 95/3/2
f 94/3/2 92/3/2 96/3/2
f 95/3/2 94/3/2 96/3/2
f 101/3/3 98/3/3 97/3/3
f 102/3/3 98/3/3 101/3/3
f 103/3/3 100/3/3 99/3/3
f 104/3/3 100/3/3 103/3/3
f 111/3/3 108/3/3 107/3/3
f 112/3/3 108/3/3 111/3/3
f 113/3/3 106/3/3 105/3/3
f 114/3/3 106/3/3 113/3/3
f 115/3/3 110/3/3 109/3/3
f 116/3/3 110/3/3 115/3/3
f 120/3/3 118/3/3 117/3/3
f 121/3/3 118/3/3 120/3/3
f 122/3/3 118/3/3 121/3/3
f 124/3/3 120/3/3 119/3/3
f 125/3/3 120/3/3 124/3/3
f 128/3/3 123/3/3 122/3/3
f 128/3/3 122/3/3 121/3/3
f 129/3/3 123/3/3 128/3/3
f 131/3/3 127/3/3 126/3/3
f 132/3/3 127/3/3 131/3/3
f 134/3/3 131/3/3 130/3/3
f 135/3/3 131/3/3 134/3/3
f 136/3/3 133/3/3 132/3/3
f 137/3/3 133/3/3 136/3/3
f 141/3/3 138/3/3 137/3/3
f 142/3/3 123/3/3 129/3/3
f 143/3/3 140/3/3 139/3/3
f 144/3/3 140/3/3 143/3/3
f 146/3/3 142/3/3 141/3/3
f 146/3/3 123/3/3 142/3/3
f 147/3/3 123/3/3 146/3/3
f 148/3/3 145/3/3 144/3/3
f 149/3/3 145/3/3 148/3/3
f 150/3/3 141/3/3 137/3/3
f 150/3/3 146/3/3 141/3/3
f 151/3/3 146/3/3 150/3/3
f 157/2/3 153/2/3 152/2/3
f 158/2/3 153/2/3 157/2/3
f 159/1/3 154/1/3 153/1/3
f 159/2/3 153/2/3 158/2/3
f 160/2/3 155/2/3 154/2/3
f 160/1/3 154/1/3 159/1/3
f 161/2/3 155/2/3 160/2/3
f 162/2/3 155/2/3 161/2/3
f 164/2/3 158/2/3 157/2/3
f 164/2/3 157/2/3 156/2/3
f 165/1/3 159/1/3 158/1/3
f 165/2/3 158/2/3 164/2/3
f 166/1/3 159/1/3 165/1/3
f 167/1/3 161/1/3 160/1/3
f 168/2/3 163/2/3 162/2/3
f 168/1/3 161/1/3 167/1/3
f 168/2/3 162/2/3 161/2/3
f 169/2/3 163/2/3 168/2/3
f 170/2/3 164/2/3 156/2/3
f 171/1/3 165/1/3 164/1/3
f 171/2/3 164/2/3 170/2/3
f 172/1/3 165/1/3 171/1/3
f 173/1/3 169/1/3 168/1/3
f 174/2/3 163/2/3 169/2/3
f 174/1/3 169/1/3 173/1/3
f 175/2/3 163/2/3 174/2/3
f 176/2/3 170/2/3 156/2/3
f 177/2/3 170/2/3 176/2/3
f 178/1/3 175/1/3 174/1/3
f 179/1/3 175/1/3 178/1/3
f 180/2/3 170/2/3 177/2/3
f 181/1/3 171/1/3 170/1/3
f 181/2/3 170/2/3 180/2/3
f 182/1/3 171/1/3 181/1/3
f 183/3/4 184/3/4 185/3/4
f 185/3/4 184/3/4 186/3/4
f 186/3/4 184/3/4 187/3/4
f 187/3/4 184/3/4 188/3/4
f 185/2/4 186/2/4 189/2/4
f 186/1/4 187/1/4 190/1/4
f 189/2/4 186/2/4 190/2/4
f 187/2/4 188/2/4 191/2/4
f 190/1/4 187/1/4 191/1/4
f 191/2/4 188/2/4 192/2/4
f 185/2/4 189/2/4 193/2/4
f 189/1/4 190/1/4 194/1/4
f 193/2/4 189/2/4 194/2/4
f 190/3/4 191/3/4 195/3/4
f 194/1/4 190/1/4 195/1/4
f 191/1/4 192/1/4 196/1/4
f 195/3/4 191/3/4 196/3/4
f 192/2/4 188/2/4 197/2/4
f 196/1/4 192/1/4 197/1/4
f 197/2/4 188/2/4 198/2/4
f 185/2/4 193/2/4 199/2/4
f 193/1/4 194/1/4 200/1/4
f 199/2/4 193/2/4 200/2/4
f 194/3/4 195/3/4 201/3/4
f 200/1/4 194/1/4 201/1/4
f 201/3/4 195/3/4 202/3/4
f 196/3/4 197/3/4 203/3/4
f 197/1/4 198/1/4 204/1/4
f 203/3/4 197/3/4 204/3/4
f 198/2/4 188/2/4 205/2/4
f 204/1/4 198/1/4 205/1/4
f 188/3/4 184/3/4 206/3/4
f 205/2/4 188/2/4 206/2/4
f 204/3/4 205/3/4 207/3/4
f 205/1/4 206/1/4 207/1/4
f 206/3/4 184/3/4 208/3/4
f 207/1/4 206/1/4 208/1/4
f 185/2/4 199/2/4 209/2/4
f 199/1/4 200/1/4 210/1/4
f 209/2/4 199/2/4 210/2/4
f 200/3/4 201/3/4 211/3/4
f 210/1/4 200/1/4 211/1/4
f 204/3/4 207/3/4 212/3/4
f 207/2/4 208/2/4 212/2/4
f 208/3/4 184/3/4 213/3/4
f 212/2/4 208/2/4 213/2/4
f 209/3/4 210/3/4 214/3/4
f 210/3/4 211/3/4 214/3/4
f 211/3/4 201/3/4 215/3/4
f 214/3/4 211/3/4 215/3/4
f 204/3/4 212/3/4 216/3/4
f 212/3/4 213/3/4 216/3/4
f 213/3/4 184/3/4 217/3/4
f 216/3/4 213/3/4 217/3/4
f 222/3/5 219/3/5 218/3/5
f 225/3/5 221/3/5 220/3/5
f 226/3/5 223/3/5 222/3/5
f 226/3/5 222/3/5 218/3/5
f 227/3/5 223/3/5 226/3/5
f 228/3/5 225/3/5 224/3/5
f 229/3/5 221/3/5 225/3/5
f 229/3/5 225/3/5 228/3/5
f 230/3/5 226/3/5 218/3/5
f 231/2/5 227/2/5 226/2/5
f 231/3/5 226/3/5 230/3/5
f 231/2/5 228/2/5 227/2/5
f 231/2/5 229/2/5 228/2/5
f 232/3/5 221/3/5 229/3/5
f 232/2/5 229/2/5 231/2/5
f 233/3/5 221/3/5 232/3/5
f 236/3/5 235/3/5 234/3/5
f 237/3/5 235/3/5 236/3/5
f 238/3/5 236/3/5 234/3/5
f 239/3/5 236/3/5 238/3/5
f 242/3/5 241/3/5 240/3/5
f 243/3/5 241/3/5 242/3/5
f 246/3/5 245/3/5 244/3/5
f 247/3/5 245/3/5 246/3/5
f 250/3/5 249/3/5 248/3/5
f 251/3/5 249/3/5 250/3/5
f 254/3/5 253/3/5 252/3/5
f 255/3/5 253/3/5 254/3/5
f 258/3/5 257/3/5 256/3/5
f 259/3/5 257/3/5 258/3/5
f 264/3/5 261/3/5 260/3/5
f 265/3/5 261/3/5 264/3/5
f 268/3/5 263/3/5 262/3/5
f 269/3/5 263/3/5 268/3/5
f 270/3/5 267/3/5 266/3/5
f 271/3/5 267/3/5 270/3/5
f 272/3/5 267/3/5 271/3/5
f 273/3/6 274/3/6 277/3/6
f 277/3/6 274/3/6 278/3/6
f 275/3/6 276/3/6 281/3/6
f 281/3/6 276/3/6 282/3/6
f 278/3/6 279/3/6 283/3/6
f 283/3/6 279/3/6 284/3/6
f 280/3/6 281/3/6 285/3/6
f 285/3/6 281/3/6 286/3/6
f 287/3/6 288/3/6 289/3/6
f 289/3/6 288/3/6 290/3/6
f 290/3/6 288/3/6 291/3/6
f 292/3/6 293/3/6 294/3/6
f 294/3/6 293/3/6 295/3/6
f 296/3/6 297/3/6 298/3/6
f 298/3/6 297/3/6 299/3/6
f 300/3/6 301/3/6 302/3/6
f 302/3/6 301/3/6 303/3/6
f 304/3/6 305/3/6 306/3/6
f 306/3/6 305/3/6 307/3/6
f 308/3/6 309/3/6 312/3/6
f 310/3/6 311/3/6 313/3/6
f 308/3/6 312/3/6 314/3/6
f 312/3/6 313/3/6 314/3/6
f 313/3/6 311/3/6 315/3/6
f 314/3/6 313/3/6 315/3/6
