# MagicaVoxel @ Ephtracy

# group
o 

# material
mtllib wallWindowM-0.mtl
usemtl palette

# normals
vn -1 0 0
vn 1 0 0
vn 0 0 1
vn 0 0 -1
vn 0 -1 0
vn 0 1 0

# texcoords
vt 0.876953 0.5
vt 0.939453 0.5
vt 0.970703 0.5

# verts
v -0.8 -0.8 -0.5
v -0.8 -0.8 -0.8
v -0.8 -0.7 -0.5
v -0.8 -0.7 -0.6
v -0.8 -0.5 -0.5
v -0.8 -0.5 -0.6
v -0.8 -0.4 -0.5
v -0.8 -0.4 -0.8
v -0.8 0.5 -0.6
v -0.8 0.5 -0.8
v -0.8 0.7 -0.5
v -0.8 0.7 -0.6
v -0.8 0.8 -0.5
v -0.8 0.8 -0.8
v 0.6 -0.8 -0.6
v 0.6 -0.8 -0.7
v 0.6 -0.7 -0.6
v 0.6 -0.7 -0.7
v 0.6 0.6 -0.6
v 0.6 0.6 -0.7
v 0.6 0.7 -0.6
v 0.6 0.7 -0.7
v 0.7 -0.8 -0.5
v 0.7 -0.8 -0.6
v 0.7 -0.7 -0.5
v 0.7 -0.7 -0.6
v 0.7 -0.7 -0.7
v 0.7 -0.6 -0.7
v 0.7 -0.5 -0.6
v 0.7 -0.5 -0.7
v 0.7 0.7 -0.5
v 0.7 0.7 -0.6
v 0.7 0.8 -0.5
v 0.7 0.8 -0.6
v -0.7 -0.8 -0.5
v -0.7 -0.8 -0.6
v -0.7 -0.7 -0.5
v -0.7 -0.7 -0.6
v -0.7 -0.7 -0.7
v -0.7 -0.6 -0.7
v -0.7 -0.5 -0.6
v -0.7 -0.5 -0.7
v -0.7 0.7 -0.5
v -0.7 0.7 -0.6
v -0.7 0.8 -0.5
v -0.7 0.8 -0.6
v -0.6 -0.8 -0.6
v -0.6 -0.8 -0.7
v -0.6 -0.7 -0.6
v -0.6 -0.7 -0.7
v -0.6 0.6 -0.6
v -0.6 0.6 -0.7
v -0.6 0.7 -0.6
v -0.6 0.7 -0.7
v 0.8 -0.8 -0.5
v 0.8 -0.8 -0.8
v 0.8 -0.7 -0.5
v 0.8 -0.7 -0.6
v 0.8 -0.5 -0.5
v 0.8 -0.5 -0.6
v 0.8 -0.4 -0.5
v 0.8 -0.4 -0.8
v 0.8 0.5 -0.6
v 0.8 0.5 -0.8
v 0.8 0.7 -0.5
v 0.8 0.7 -0.6
v 0.8 0.8 -0.5
v 0.8 0.8 -0.8
v -0.8 -0.8 -0.5
v -0.8 -0.7 -0.5
v -0.8 -0.5 -0.5
v -0.8 -0.4 -0.5
v -0.8 0.7 -0.5
v -0.8 0.8 -0.5
v -0.7 -0.8 -0.5
v -0.7 -0.7 -0.5
v -0.7 0.7 -0.5
v -0.7 0.8 -0.5
v 0.7 -0.8 -0.5
v 0.7 -0.7 -0.5
v 0.7 0.7 -0.5
v 0.7 0.8 -0.5
v 0.8 -0.8 -0.5
v 0.8 -0.7 -0.5
v 0.8 -0.5 -0.5
v 0.8 -0.4 -0.5
v 0.8 0.7 -0.5
v 0.8 0.8 -0.5
v -0.8 -0.7 -0.6
v -0.8 -0.5 -0.6
v -0.8 0.5 -0.6
v -0.8 0.7 -0.6
v -0.7 -0.8 -0.6
v -0.7 -0.7 -0.6
v -0.7 -0.5 -0.6
v -0.7 0.7 -0.6
v -0.7 0.8 -0.6
v -0.6 -0.8 -0.6
v -0.6 -0.7 -0.6
v -0.6 0.6 -0.6
v -0.6 0.7 -0.6
v 0.6 -0.8 -0.6
v 0.6 -0.7 -0.6
v 0.6 0.6 -0.6
v 0.6 0.7 -0.6
v 0.7 -0.8 -0.6
v 0.7 -0.7 -0.6
v 0.7 -0.5 -0.6
v 0.7 0.7 -0.6
v 0.7 0.8 -0.6
v 0.8 -0.7 -0.6
v 0.8 -0.5 -0.6
v 0.8 0.5 -0.6
v 0.8 0.7 -0.6
v -0.7 -0.7 -0.7
v -0.7 -0.6 -0.7
v -0.7 -0.5 -0.7
v -0.6 -0.8 -0.7
v -0.6 -0.7 -0.7
v -0.6 0.6 -0.7
v -0.6 0.7 -0.7
v 0.6 -0.8 -0.7
v 0.6 -0.7 -0.7
v 0.6 0.6 -0.7
v 0.6 0.7 -0.7
v 0.7 -0.7 -0.7
v 0.7 -0.6 -0.7
v 0.7 -0.5 -0.7
v -0.8 -0.8 -0.8
v -0.8 -0.4 -0.8
v -0.8 0.5 -0.8
v -0.8 0.8 -0.8
v -0.7 -0.8 -0.8
v -0.7 -0.6 -0.8
v -0.7 -0.5 -0.8
v -0.7 0.5 -0.8
v -0.7 0.7 -0.8
v -0.6 0.6 -0.8
v -0.6 0.7 -0.8
v -0.5 0.5 -0.8
v -0.5 0.6 -0.8
v -0.4 0.5 -0.8
v -0.4 0.6 -0.8
v 0.6 0.6 -0.8
v 0.6 0.7 -0.8
v 0.7 -0.8 -0.8
v 0.7 -0.6 -0.8
v 0.7 -0.5 -0.8
v 0.7 0.6 -0.8
v 0.7 0.7 -0.8
v 0.8 -0.8 -0.8
v 0.8 -0.4 -0.8
v 0.8 0.5 -0.8
v 0.8 0.8 -0.8
v -0.8 -0.8 -0.5
v -0.7 -0.8 -0.5
v 0.7 -0.8 -0.5
v 0.8 -0.8 -0.5
v -0.7 -0.8 -0.6
v -0.6 -0.8 -0.6
v 0.6 -0.8 -0.6
v 0.7 -0.8 -0.6
v -0.7 -0.8 -0.7
v -0.6 -0.8 -0.7
v 0.6 -0.8 -0.7
v 0.7 -0.8 -0.7
v -0.8 -0.8 -0.8
v -0.7 -0.8 -0.8
v 0.7 -0.8 -0.8
v 0.8 -0.8 -0.8
v -0.8 -0.5 -0.5
v 0.8 -0.5 -0.5
v -0.8 -0.5 -0.6
v -0.7 -0.5 -0.6
v 0.7 -0.5 -0.6
v 0.8 -0.5 -0.6
v -0.7 -0.5 -0.7
v 0.7 -0.5 -0.7
v -0.8 0.5 -0.6
v 0.8 0.5 -0.6
v -0.7 0.5 -0.7
v -0.5 0.5 -0.7
v -0.4 0.5 -0.7
v -0.8 0.5 -0.8
v -0.7 0.5 -0.8
v -0.5 0.5 -0.8
v -0.4 0.5 -0.8
v 0.8 0.5 -0.8
v -0.8 0.7 -0.5
v -0.7 0.7 -0.5
v 0.7 0.7 -0.5
v 0.8 0.7 -0.5
v -0.8 0.7 -0.6
v -0.7 0.7 -0.6
v -0.6 0.7 -0.6
v 0.6 0.7 -0.6
v 0.7 0.7 -0.6
v 0.8 0.7 -0.6
v -0.6 0.7 -0.7
v 0.6 0.7 -0.7
v -0.8 -0.7 -0.5
v -0.7 -0.7 -0.5
v 0.7 -0.7 -0.5
v 0.8 -0.7 -0.5
v -0.8 -0.7 -0.6
v -0.7 -0.7 -0.6
v -0.6 -0.7 -0.6
v 0.6 -0.7 -0.6
v 0.7 -0.7 -0.6
v 0.8 -0.7 -0.6
v -0.7 -0.7 -0.7
v -0.6 -0.7 -0.7
v 0.6 -0.7 -0.7
v 0.7 -0.7 -0.7
v -0.8 -0.4 -0.5
v 0.8 -0.4 -0.5
v -0.8 -0.4 -0.8
v 0.8 -0.4 -0.8
v -0.6 0.6 -0.6
v 0.6 0.6 -0.6
v -0.6 0.6 -0.7
v 0.6 0.6 -0.7
v -0.8 0.8 -0.5
v -0.7 0.8 -0.5
v 0.7 0.8 -0.5
v 0.8 0.8 -0.5
v -0.7 0.8 -0.6
v 0.7 0.8 -0.6
v -0.8 0.8 -0.8
v 0.8 0.8 -0.8

# faces
f 3/3/1 2/3/1 1/3/1
f 4/3/1 2/3/1 3/3/1
f 6/3/1 2/3/1 4/3/1
f 7/3/1 6/3/1 5/3/1
f 8/3/1 2/3/1 6/3/1
f 8/3/1 6/3/1 7/3/1
f 12/3/1 10/3/1 9/3/1
f 13/3/1 12/3/1 11/3/1
f 14/3/1 10/3/1 12/3/1
f 14/3/1 12/3/1 13/3/1
f 17/3/1 16/3/1 15/3/1
f 18/3/1 16/3/1 17/3/1
f 21/3/1 20/3/1 19/3/1
f 22/3/1 20/3/1 21/3/1
f 25/3/1 24/3/1 23/3/1
f 26/3/1 24/3/1 25/3/1
f 28/3/1 27/3/1 26/3/1
f 29/3/1 28/3/1 26/3/1
f 30/3/1 28/3/1 29/3/1
f 33/3/1 32/3/1 31/3/1
f 34/3/1 32/3/1 33/3/1
f 35/3/2 36/3/2 37/3/2
f 37/3/2 36/3/2 38/3/2
f 38/3/2 39/3/2 40/3/2
f 38/3/2 40/3/2 41/3/2
f 41/3/2 40/3/2 42/3/2
f 43/3/2 44/3/2 45/3/2
f 45/3/2 44/3/2 46/3/2
f 47/3/2 48/3/2 49/3/2
f 49/3/2 48/3/2 50/3/2
f 51/3/2 52/3/2 53/3/2
f 53/3/2 52/3/2 54/3/2
f 55/3/2 56/3/2 57/3/2
f 57/3/2 56/3/2 58/3/2
f 58/3/2 56/3/2 60/3/2
f 59/3/2 60/3/2 61/3/2
f 60/3/2 56/3/2 62/3/2
f 61/3/2 60/3/2 62/3/2
f 63/3/2 64/3/2 66/3/2
f 65/3/2 66/3/2 67/3/2
f 66/3/2 64/3/2 68/3/2
f 67/3/2 66/3/2 68/3/2
f 75/3/3 70/3/3 69/3/3
f 76/3/3 70/3/3 75/3/3
f 77/3/3 74/3/3 73/3/3
f 78/3/3 74/3/3 77/3/3
f 83/3/3 80/3/3 79/3/3
f 84/3/3 80/3/3 83/3/3
f 85/3/3 72/3/3 71/3/3
f 86/3/3 72/3/3 85/3/3
f 87/3/3 82/3/3 81/3/3
f 88/3/3 82/3/3 87/3/3
f 94/3/3 90/3/3 89/3/3
f 95/3/3 90/3/3 94/3/3
f 96/3/3 92/3/3 91/3/3
f 98/3/3 94/3/3 93/3/3
f 99/3/3 94/3/3 98/3/3
f 100/3/3 97/3/3 96/3/3
f 100/3/3 96/3/3 91/3/3
f 101/3/3 97/3/3 100/3/3
f 104/3/3 100/3/3 91/3/3
f 105/3/3 97/3/3 101/3/3
f 106/3/3 103/3/3 102/3/3
f 107/3/3 103/3/3 106/3/3
f 109/3/3 105/3/3 104/3/3
f 109/3/3 97/3/3 105/3/3
f 110/3/3 97/3/3 109/3/3
f 111/3/3 108/3/3 107/3/3
f 112/3/3 108/3/3 111/3/3
f 113/3/3 104/3/3 91/3/3
f 113/3/3 109/3/3 104/3/3
f 114/3/3 109/3/3 113/3/3
f 119/2/3 116/2/3 115/2/3
f 122/2/3 119/2/3 118/2/3
f 123/2/3 116/2/3 119/2/3
f 123/2/3 119/2/3 122/2/3
f 124/1/3 121/1/3 120/1/3
f 125/1/3 121/1/3 124/1/3
f 126/2/3 116/2/3 123/2/3
f 127/1/3 117/1/3 116/1/3
f 127/2/3 116/2/3 126/2/3
f 128/1/3 117/1/3 127/1/3
f 129/3/4 130/3/4 133/3/4
f 133/3/4 130/3/4 134/3/4
f 134/3/4 130/3/4 135/3/4
f 131/3/4 132/3/4 136/3/4
f 136/3/4 132/3/4 137/3/4
f 136/2/4 137/2/4 138/2/4
f 137/3/4 132/3/4 139/3/4
f 138/2/4 137/2/4 139/2/4
f 136/2/4 138/2/4 140/2/4
f 138/1/4 139/1/4 141/1/4
f 140/2/4 138/2/4 141/2/4
f 140/1/4 141/1/4 142/1/4
f 141/1/4 139/1/4 143/1/4
f 142/1/4 141/1/4 143/1/4
f 142/3/4 143/3/4 144/3/4
f 143/1/4 139/1/4 144/1/4
f 139/3/4 132/3/4 145/3/4
f 144/1/4 139/1/4 145/1/4
f 133/2/4 134/2/4 146/2/4
f 134/1/4 135/1/4 147/1/4
f 146/2/4 134/2/4 147/2/4
f 135/3/4 130/3/4 148/3/4
f 147/1/4 135/1/4 148/1/4
f 142/3/4 144/3/4 149/3/4
f 144/2/4 145/2/4 149/2/4
f 145/3/4 132/3/4 150/3/4
f 149/2/4 145/2/4 150/2/4
f 146/3/4 147/3/4 151/3/4
f 147/3/4 148/3/4 151/3/4
f 148/3/4 130/3/4 152/3/4
f 151/3/4 148/3/4 152/3/4
f 142/3/4 149/3/4 153/3/4
f 149/3/4 150/3/4 153/3/4
f 150/3/4 132/3/4 154/3/4
f 153/3/4 150/3/4 154/3/4
f 159/3/5 156/3/5 155/3/5
f 162/3/5 158/3/5 157/3/5
f 163/3/5 160/3/5 159/3/5
f 163/3/5 159/3/5 155/3/5
f 164/3/5 160/3/5 163/3/5
f 165/3/5 162/3/5 161/3/5
f 166/3/5 158/3/5 162/3/5
f 166/3/5 162/3/5 165/3/5
f 167/3/5 163/3/5 155/3/5
f 168/2/5 164/2/5 163/2/5
f 168/3/5 163/3/5 167/3/5
f 168/2/5 165/2/5 164/2/5
f 168/2/5 166/2/5 165/2/5
f 169/3/5 158/3/5 166/3/5
f 169/2/5 166/2/5 168/2/5
f 170/3/5 158/3/5 169/3/5
f 173/3/5 172/3/5 171/3/5
f 174/3/5 172/3/5 173/3/5
f 175/3/5 172/3/5 174/3/5
f 176/3/5 172/3/5 175/3/5
f 177/3/5 175/3/5 174/3/5
f 178/3/5 175/3/5 177/3/5
f 181/3/5 180/3/5 179/3/5
f 182/3/5 180/3/5 181/3/5
f 183/3/5 180/3/5 182/3/5
f 184/3/5 181/3/5 179/3/5
f 185/2/5 182/2/5 181/2/5
f 185/3/5 181/3/5 184/3/5
f 186/1/5 183/1/5 182/1/5
f 186/2/5 182/2/5 185/2/5
f 187/3/5 180/3/5 183/3/5
f 187/1/5 183/1/5 186/1/5
f 188/3/5 180/3/5 187/3/5
f 193/3/5 190/3/5 189/3/5
f 194/3/5 190/3/5 193/3/5
f 197/3/5 192/3/5 191/3/5
f 198/3/5 192/3/5 197/3/5
f 199/3/5 196/3/5 195/3/5
f 200/3/5 196/3/5 199/3/5
f 201/3/6 202/3/6 205/3/6
f 205/3/6 202/3/6 206/3/6
f 203/3/6 204/3/6 209/3/6
f 209/3/6 204/3/6 210/3/6
f 206/3/6 207/3/6 211/3/6
f 211/3/6 207/3/6 212/3/6
f 208/3/6 209/3/6 213/3/6
f 213/3/6 209/3/6 214/3/6
f 215/3/6 216/3/6 217/3/6
f 217/3/6 216/3/6 218/3/6
f 219/3/6 220/3/6 221/3/6
f 221/3/6 220/3/6 222/3/6
f 223/3/6 224/3/6 227/3/6
f 225/3/6 226/3/6 228/3/6
f 223/3/6 227/3/6 229/3/6
f 227/3/6 228/3/6 229/3/6
f 228/3/6 226/3/6 230/3/6
f 229/3/6 228/3/6 230/3/6
