# MagicaVoxel @ Ephtracy

# group
o 

# material
mtllib wall-0.mtl
usemtl palette

# normals
vn -1 0 0
vn 1 0 0
vn 0 0 1
vn 0 0 -1
vn 0 -1 0
vn 0 1 0

# texcoords
vt 0.845703 0.5
vt 0.876953 0.5
vt 0.939453 0.5
vt 0.970703 0.5

# verts
v -0.8 -0.8 -0.5
v -0.8 -0.8 -0.8
v -0.8 -0.7 -0.5
v -0.8 -0.7 -0.6
v -0.8 0.7 -0.5
v -0.8 0.7 -0.6
v -0.8 0.8 -0.5
v -0.8 0.8 -0.8
v 0.6 -0.8 -0.6
v 0.6 -0.8 -0.7
v 0.6 -0.7 -0.6
v 0.6 -0.7 -0.7
v 0.6 0.6 -0.6
v 0.6 0.6 -0.7
v 0.6 0.7 -0.6
v 0.6 0.7 -0.7
v 0.7 -0.8 -0.5
v 0.7 -0.8 -0.6
v 0.7 -0.7 -0.5
v 0.7 -0.7 -0.6
v 0.7 -0.7 -0.7
v 0.7 -0.1 -0.7
v 0.7 0 -0.7
v 0.7 0.6 -0.6
v 0.7 0.6 -0.7
v 0.7 0.7 -0.5
v 0.7 0.7 -0.6
v 0.7 0.8 -0.5
v 0.7 0.8 -0.6
v -0.7 -0.8 -0.5
v -0.7 -0.8 -0.6
v -0.7 -0.7 -0.5
v -0.7 -0.7 -0.6
v -0.7 -0.7 -0.7
v -0.7 -0.1 -0.7
v -0.7 0 -0.7
v -0.7 0.6 -0.6
v -0.7 0.6 -0.7
v -0.7 0.7 -0.5
v -0.7 0.7 -0.6
v -0.7 0.8 -0.5
v -0.7 0.8 -0.6
v -0.6 -0.8 -0.6
v -0.6 -0.8 -0.7
v -0.6 -0.7 -0.6
v -0.6 -0.7 -0.7
v -0.6 0.6 -0.6
v -0.6 0.6 -0.7
v -0.6 0.7 -0.6
v -0.6 0.7 -0.7
v 0.8 -0.8 -0.5
v 0.8 -0.8 -0.8
v 0.8 -0.7 -0.5
v 0.8 -0.7 -0.6
v 0.8 0.7 -0.5
v 0.8 0.7 -0.6
v 0.8 0.8 -0.5
v 0.8 0.8 -0.8
v -0.8 -0.8 -0.5
v -0.8 -0.7 -0.5
v -0.8 0.7 -0.5
v -0.8 0.8 -0.5
v -0.7 -0.8 -0.5
v -0.7 -0.7 -0.5
v -0.7 0.7 -0.5
v -0.7 0.8 -0.5
v 0.7 -0.8 -0.5
v 0.7 -0.7 -0.5
v 0.7 0.7 -0.5
v 0.7 0.8 -0.5
v 0.8 -0.8 -0.5
v 0.8 -0.7 -0.5
v 0.8 0.7 -0.5
v 0.8 0.8 -0.5
v -0.8 -0.7 -0.6
v -0.8 0.7 -0.6
v -0.7 -0.8 -0.6
v -0.7 -0.7 -0.6
v -0.7 0.6 -0.6
v -0.7 0.7 -0.6
v -0.7 0.8 -0.6
v -0.6 -0.8 -0.6
v -0.6 -0.7 -0.6
v -0.6 0.6 -0.6
v -0.6 0.7 -0.6
v 0.6 -0.8 -0.6
v 0.6 -0.7 -0.6
v 0.6 0.6 -0.6
v 0.6 0.7 -0.6
v 0.7 -0.8 -0.6
v 0.7 -0.7 -0.6
v 0.7 0.6 -0.6
v 0.7 0.7 -0.6
v 0.7 0.8 -0.6
v 0.8 -0.7 -0.6
v 0.8 0.7 -0.6
v -0.7 -0.7 -0.7
v -0.7 -0.1 -0.7
v -0.7 0 -0.7
v -0.7 0.6 -0.7
v -0.6 -0.8 -0.7
v -0.6 -0.7 -0.7
v -0.6 0.6 -0.7
v -0.6 0.7 -0.7
v -0.5 -0.7 -0.7
v -0.5 -0.6 -0.7
v -0.5 -0.1 -0.7
v -0.5 0 -0.7
v -0.5 0.1 -0.7
v -0.5 0.5 -0.7
v -0.5 0.6 -0.7
v -0.4 -0.8 -0.7
v -0.4 -0.7 -0.7
v -0.4 -0.6 -0.7
v -0.4 -0.4 -0.7
v -0.4 0.3 -0.7
v -0.4 0.5 -0.7
v -0.4 0.6 -0.7
v -0.4 0.7 -0.7
v -0.3 -0.7 -0.7
v -0.3 -0.6 -0.7
v -0.3 -0.4 -0.7
v -0.3 0 -0.7
v -0.3 0.1 -0.7
v -0.3 0.3 -0.7
v -0.3 0.5 -0.7
v -0.3 0.6 -0.7
v -0.2 -0.6 -0.7
v -0.2 -0.4 -0.7
v -0.2 0.3 -0.7
v -0.2 0.5 -0.7
v -0.1 -0.4 -0.7
v -0.1 0 -0.7
v -0.1 0.1 -0.7
v -0.1 0.3 -0.7
v 0.1 -0.4 -0.7
v 0.1 0 -0.7
v 0.1 0.1 -0.7
v 0.1 0.3 -0.7
v 0.2 -0.6 -0.7
v 0.2 -0.4 -0.7
v 0.2 0.3 -0.7
v 0.2 0.5 -0.7
v 0.3 -0.7 -0.7
v 0.3 -0.6 -0.7
v 0.3 -0.4 -0.7
v 0.3 0 -0.7
v 0.3 0.1 -0.7
v 0.3 0.3 -0.7
v 0.3 0.5 -0.7
v 0.3 0.6 -0.7
v 0.4 -0.8 -0.7
v 0.4 -0.7 -0.7
v 0.4 -0.6 -0.7
v 0.4 -0.4 -0.7
v 0.4 0.3 -0.7
v 0.4 0.5 -0.7
v 0.4 0.6 -0.7
v 0.4 0.7 -0.7
v 0.5 -0.7 -0.7
v 0.5 -0.6 -0.7
v 0.5 -0.1 -0.7
v 0.5 0 -0.7
v 0.5 0.1 -0.7
v 0.5 0.5 -0.7
v 0.5 0.6 -0.7
v 0.6 -0.8 -0.7
v 0.6 -0.7 -0.7
v 0.6 0.6 -0.7
v 0.6 0.7 -0.7
v 0.7 -0.7 -0.7
v 0.7 -0.1 -0.7
v 0.7 0 -0.7
v 0.7 0.6 -0.7
v -0.8 -0.8 -0.8
v -0.8 0.8 -0.8
v -0.7 -0.8 -0.8
v -0.7 -0.1 -0.8
v -0.7 0 -0.8
v -0.7 0.7 -0.8
v -0.6 -0.8 -0.8
v -0.6 -0.7 -0.8
v -0.6 0.6 -0.8
v -0.6 0.7 -0.8
v -0.5 -0.7 -0.8
v -0.5 -0.6 -0.8
v -0.5 -0.1 -0.8
v -0.5 0 -0.8
v -0.5 0.1 -0.8
v -0.5 0.5 -0.8
v -0.5 0.6 -0.8
v -0.4 -0.8 -0.8
v -0.4 -0.7 -0.8
v -0.4 -0.6 -0.8
v -0.4 -0.4 -0.8
v -0.4 0.3 -0.8
v -0.4 0.5 -0.8
v -0.4 0.6 -0.8
v -0.4 0.7 -0.8
v -0.3 -0.7 -0.8
v -0.3 -0.6 -0.8
v -0.3 -0.4 -0.8
v -0.3 0 -0.8
v -0.3 0.1 -0.8
v -0.3 0.3 -0.8
v -0.3 0.5 -0.8
v -0.3 0.6 -0.8
v -0.2 -0.6 -0.8
v -0.2 -0.4 -0.8
v -0.2 0.3 -0.8
v -0.2 0.5 -0.8
v -0.1 -0.4 -0.8
v -0.1 0 -0.8
v -0.1 0.1 -0.8
v -0.1 0.3 -0.8
v 0.1 -0.4 -0.8
v 0.1 0 -0.8
v 0.1 0.1 -0.8
v 0.1 0.3 -0.8
v 0.2 -0.6 -0.8
v 0.2 -0.4 -0.8
v 0.2 0.3 -0.8
v 0.2 0.5 -0.8
v 0.3 -0.7 -0.8
v 0.3 -0.6 -0.8
v 0.3 -0.4 -0.8
v 0.3 0 -0.8
v 0.3 0.1 -0.8
v 0.3 0.3 -0.8
v 0.3 0.5 -0.8
v 0.3 0.6 -0.8
v 0.4 -0.8 -0.8
v 0.4 -0.7 -0.8
v 0.4 -0.6 -0.8
v 0.4 -0.4 -0.8
v 0.4 0.3 -0.8
v 0.4 0.5 -0.8
v 0.4 0.6 -0.8
v 0.4 0.7 -0.8
v 0.5 -0.7 -0.8
v 0.5 -0.6 -0.8
v 0.5 -0.1 -0.8
v 0.5 0 -0.8
v 0.5 0.1 -0.8
v 0.5 0.5 -0.8
v 0.5 0.6 -0.8
v 0.6 -0.8 -0.8
v 0.6 -0.7 -0.8
v 0.6 0.6 -0.8
v 0.6 0.7 -0.8
v 0.7 -0.8 -0.8
v 0.7 -0.1 -0.8
v 0.7 0 -0.8
v 0.7 0.7 -0.8
v 0.8 -0.8 -0.8
v 0.8 0.8 -0.8
v -0.8 -0.8 -0.5
v -0.7 -0.8 -0.5
v 0.7 -0.8 -0.5
v 0.8 -0.8 -0.5
v -0.7 -0.8 -0.6
v -0.6 -0.8 -0.6
v 0.6 -0.8 -0.6
v 0.7 -0.8 -0.6
v -0.7 -0.8 -0.7
v -0.6 -0.8 -0.7
v -0.4 -0.8 -0.7
v 0.4 -0.8 -0.7
v 0.6 -0.8 -0.7
v 0.7 -0.8 -0.7
v -0.8 -0.8 -0.8
v -0.7 -0.8 -0.8
v -0.6 -0.8 -0.8
v -0.4 -0.8 -0.8
v 0.4 -0.8 -0.8
v 0.6 -0.8 -0.8
v 0.7 -0.8 -0.8
v 0.8 -0.8 -0.8
v -0.7 0.6 -0.6
v -0.6 0.6 -0.6
v 0.6 0.6 -0.6
v 0.7 0.6 -0.6
v -0.7 0.6 -0.7
v -0.6 0.6 -0.7
v 0.6 0.6 -0.7
v 0.7 0.6 -0.7
v -0.8 0.7 -0.5
v -0.7 0.7 -0.5
v 0.7 0.7 -0.5
v 0.8 0.7 -0.5
v -0.8 0.7 -0.6
v -0.7 0.7 -0.6
v -0.6 0.7 -0.6
v 0.6 0.7 -0.6
v 0.7 0.7 -0.6
v 0.8 0.7 -0.6
v -0.6 0.7 -0.7
v -0.4 0.7 -0.7
v 0.4 0.7 -0.7
v 0.6 0.7 -0.7
v -0.8 -0.7 -0.5
v -0.7 -0.7 -0.5
v 0.7 -0.7 -0.5
v 0.8 -0.7 -0.5
v -0.8 -0.7 -0.6
v -0.7 -0.7 -0.6
v -0.6 -0.7 -0.6
v 0.6 -0.7 -0.6
v 0.7 -0.7 -0.6
v 0.8 -0.7 -0.6
v -0.7 -0.7 -0.7
v -0.6 -0.7 -0.7
v 0.6 -0.7 -0.7
v 0.7 -0.7 -0.7
v -0.8 0.8 -0.5
v -0.7 0.8 -0.5
v 0.7 0.8 -0.5
v 0.8 0.8 -0.5
v -0.7 0.8 -0.6
v 0.7 0.8 -0.6
v -0.8 0.8 -0.8
v 0.8 0.8 -0.8

# faces
f 3/4/1 2/4/1 1/4/1
f 4/4/1 2/4/1 3/4/1
f 6/4/1 2/4/1 4/4/1
f 7/4/1 6/4/1 5/4/1
f 8/4/1 2/4/1 6/4/1
f 8/4/1 6/4/1 7/4/1
f 11/4/1 10/4/1 9/4/1
f 12/4/1 10/4/1 11/4/1
f 15/4/1 14/4/1 13/4/1
f 16/4/1 14/4/1 15/4/1
f 19/4/1 18/4/1 17/4/1
f 20/4/1 18/4/1 19/4/1
f 22/4/1 21/4/1 20/4/1
f 23/4/1 22/4/1 20/4/1
f 24/4/1 23/4/1 20/4/1
f 25/4/1 23/4/1 24/4/1
f 28/4/1 27/4/1 26/4/1
f 29/4/1 27/4/1 28/4/1
f 30/4/2 31/4/2 32/4/2
f 32/4/2 31/4/2 33/4/2
f 33/4/2 34/4/2 35/4/2
f 33/4/2 35/4/2 36/4/2
f 33/4/2 36/4/2 37/4/2
f 37/4/2 36/4/2 38/4/2
f 39/4/2 40/4/2 41/4/2
f 41/4/2 40/4/2 42/4/2
f 43/4/2 44/4/2 45/4/2
f 45/4/2 44/4/2 46/4/2
f 47/4/2 48/4/2 49/4/2
f 49/4/2 48/4/2 50/4/2
f 51/4/2 52/4/2 53/4/2
f 53/4/2 52/4/2 54/4/2
f 54/4/2 52/4/2 56/4/2
f 55/4/2 56/4/2 57/4/2
f 56/4/2 52/4/2 58/4/2
f 57/4/2 56/4/2 58/4/2
f 63/4/3 60/4/3 59/4/3
f 64/4/3 60/4/3 63/4/3
f 65/4/3 62/4/3 61/4/3
f 66/4/3 62/4/3 65/4/3
f 71/4/3 68/4/3 67/4/3
f 72/4/3 68/4/3 71/4/3
f 73/4/3 70/4/3 69/4/3
f 74/4/3 70/4/3 73/4/3
f 78/4/3 76/4/3 75/4/3
f 79/4/3 76/4/3 78/4/3
f 80/4/3 76/4/3 79/4/3
f 82/4/3 78/4/3 77/4/3
f 83/4/3 78/4/3 82/4/3
f 84/4/3 81/4/3 80/4/3
f 84/4/3 80/4/3 79/4/3
f 85/4/3 81/4/3 84/4/3
f 89/4/3 81/4/3 85/4/3
f 90/4/3 87/4/3 86/4/3
f 91/4/3 87/4/3 90/4/3
f 92/4/3 89/4/3 88/4/3
f 93/4/3 81/4/3 89/4/3
f 93/4/3 89/4/3 92/4/3
f 94/4/3 81/4/3 93/4/3
f 95/4/3 92/4/3 91/4/3
f 95/4/3 93/4/3 92/4/3
f 96/4/3 93/4/3 95/4/3
f 102/3/3 98/3/3 97/3/3
f 103/3/3 100/3/3 99/3/3
f 105/2/3 102/2/3 101/2/3
f 105/3/3 98/3/3 102/3/3
f 106/3/3 98/3/3 105/3/3
f 107/1/3 99/1/3 98/1/3
f 107/3/3 98/3/3 106/3/3
f 108/3/3 103/3/3 99/3/3
f 108/1/3 99/1/3 107/1/3
f 109/3/3 103/3/3 108/3/3
f 110/3/3 103/3/3 109/3/3
f 111/2/3 104/2/3 103/2/3
f 111/3/3 103/3/3 110/3/3
f 112/2/3 105/2/3 101/2/3
f 113/1/3 106/1/3 105/1/3
f 113/2/3 105/2/3 112/2/3
f 114/3/3 107/3/3 106/3/3
f 114/1/3 106/1/3 113/1/3
f 114/3/3 108/3/3 107/3/3
f 115/3/3 108/3/3 114/3/3
f 116/3/3 110/3/3 109/3/3
f 117/1/3 111/1/3 110/1/3
f 117/3/3 110/3/3 116/3/3
f 118/2/3 104/2/3 111/2/3
f 118/1/3 111/1/3 117/1/3
f 119/2/3 104/2/3 118/2/3
f 120/3/3 113/3/3 112/3/3
f 120/2/3 114/2/3 113/2/3
f 121/1/3 115/1/3 114/1/3
f 121/2/3 114/2/3 120/2/3
f 122/3/3 108/3/3 115/3/3
f 122/1/3 115/1/3 121/1/3
f 123/1/3 109/1/3 108/1/3
f 123/3/3 108/3/3 122/3/3
f 124/3/3 116/3/3 109/3/3
f 124/1/3 109/1/3 123/1/3
f 125/1/3 117/1/3 116/1/3
f 125/3/3 116/3/3 124/3/3
f 126/2/3 118/2/3 117/2/3
f 126/1/3 117/1/3 125/1/3
f 127/3/3 119/3/3 118/3/3
f 127/2/3 118/2/3 126/2/3
f 128/3/3 121/3/3 120/3/3
f 128/2/3 122/2/3 121/2/3
f 129/1/3 124/1/3 123/1/3
f 129/2/3 122/2/3 128/2/3
f 129/1/3 123/1/3 122/1/3
f 129/1/3 125/1/3 124/1/3
f 130/2/3 126/2/3 125/2/3
f 130/1/3 125/1/3 129/1/3
f 131/3/3 127/3/3 126/3/3
f 131/2/3 126/2/3 130/2/3
f 132/2/3 130/2/3 129/2/3
f 132/3/3 129/3/3 128/3/3
f 133/2/3 130/2/3 132/2/3
f 134/2/3 130/2/3 133/2/3
f 135/3/3 131/3/3 130/3/3
f 135/2/3 130/2/3 134/2/3
f 136/3/3 132/3/3 128/3/3
f 136/3/3 133/3/3 132/3/3
f 137/1/3 134/1/3 133/1/3
f 137/3/3 133/3/3 136/3/3
f 138/3/3 135/3/3 134/3/3
f 138/1/3 134/1/3 137/1/3
f 139/3/3 131/3/3 135/3/3
f 139/3/3 135/3/3 138/3/3
f 140/3/3 128/3/3 120/3/3
f 140/3/3 136/3/3 128/3/3
f 141/2/3 139/2/3 138/2/3
f 141/3/3 136/3/3 140/3/3
f 141/2/3 138/2/3 137/2/3
f 141/2/3 137/2/3 136/2/3
f 142/3/3 131/3/3 139/3/3
f 142/2/3 139/2/3 141/2/3
f 143/3/3 127/3/3 131/3/3
f 143/3/3 131/3/3 142/3/3
f 144/3/3 120/3/3 112/3/3
f 144/3/3 140/3/3 120/3/3
f 145/2/3 141/2/3 140/2/3
f 145/3/3 140/3/3 144/3/3
f 146/1/3 142/1/3 141/1/3
f 146/2/3 141/2/3 145/2/3
f 147/1/3 142/1/3 146/1/3
f 148/1/3 142/1/3 147/1/3
f 149/2/3 143/2/3 142/2/3
f 149/1/3 142/1/3 148/1/3
f 150/3/3 127/3/3 143/3/3
f 150/2/3 143/2/3 149/2/3
f 151/3/3 119/3/3 127/3/3
f 151/3/3 127/3/3 150/3/3
f 152/3/3 144/3/3 112/3/3
f 153/2/3 145/2/3 144/2/3
f 153/3/3 144/3/3 152/3/3
f 154/1/3 146/1/3 145/1/3
f 154/2/3 145/2/3 153/2/3
f 155/3/3 147/3/3 146/3/3
f 155/1/3 146/1/3 154/1/3
f 156/1/3 150/1/3 149/1/3
f 156/3/3 149/3/3 148/3/3
f 157/2/3 151/2/3 150/2/3
f 157/1/3 150/1/3 156/1/3
f 158/3/3 119/3/3 151/3/3
f 158/2/3 151/2/3 157/2/3
f 159/3/3 119/3/3 158/3/3
f 160/2/3 153/2/3 152/2/3
f 160/1/3 154/1/3 153/1/3
f 161/3/3 155/3/3 154/3/3
f 161/1/3 154/1/3 160/1/3
f 162/3/3 147/3/3 155/3/3
f 162/3/3 155/3/3 161/3/3
f 163/1/3 148/1/3 147/1/3
f 163/3/3 147/3/3 162/3/3
f 164/3/3 157/3/3 156/3/3
f 164/1/3 148/1/3 163/1/3
f 164/3/3 156/3/3 148/3/3
f 165/1/3 158/1/3 157/1/3
f 165/3/3 157/3/3 164/3/3
f 166/2/3 159/2/3 158/2/3
f 166/1/3 158/1/3 165/1/3
f 167/2/3 160/2/3 152/2/3
f 168/3/3 161/3/3 160/3/3
f 168/2/3 160/2/3 167/2/3
f 168/3/3 162/3/3 161/3/3
f 169/2/3 159/2/3 166/2/3
f 169/3/3 166/3/3 165/3/3
f 169/3/3 165/3/3 164/3/3
f 169/3/3 164/3/3 163/3/3
f 170/2/3 159/2/3 169/2/3
f 171/3/3 162/3/3 168/3/3
f 172/1/3 163/1/3 162/1/3
f 172/3/3 162/3/3 171/3/3
f 173/3/3 169/3/3 163/3/3
f 173/1/3 163/1/3 172/1/3
f 174/3/3 169/3/3 173/3/3
f 175/4/4 176/4/4 177/4/4
f 177/4/4 176/4/4 178/4/4
f 178/4/4 176/4/4 179/4/4
f 179/4/4 176/4/4 180/4/4
f 177/3/4 178/3/4 181/3/4
f 181/3/4 178/3/4 182/3/4
f 179/3/4 180/3/4 183/3/4
f 180/4/4 176/4/4 184/4/4
f 183/3/4 180/3/4 184/3/4
f 182/3/4 178/3/4 185/3/4
f 181/2/4 182/2/4 185/2/4
f 185/3/4 178/3/4 186/3/4
f 178/1/4 179/1/4 187/1/4
f 186/3/4 178/3/4 187/3/4
f 179/3/4 183/3/4 188/3/4
f 187/1/4 179/1/4 188/1/4
f 188/3/4 183/3/4 189/3/4
f 189/3/4 183/3/4 190/3/4
f 183/2/4 184/2/4 191/2/4
f 190/3/4 183/3/4 191/3/4
f 181/2/4 185/2/4 192/2/4
f 185/1/4 186/1/4 193/1/4
f 192/2/4 185/2/4 193/2/4
f 186/3/4 187/3/4 194/3/4
f 193/1/4 186/1/4 194/1/4
f 187/3/4 188/3/4 194/3/4
f 194/3/4 188/3/4 195/3/4
f 189/3/4 190/3/4 196/3/4
f 190/1/4 191/1/4 197/1/4
f 196/3/4 190/3/4 197/3/4
f 191/2/4 184/2/4 198/2/4
f 197/1/4 191/1/4 198/1/4
f 184/4/4 176/4/4 199/4/4
f 198/2/4 184/2/4 199/2/4
f 192/3/4 193/3/4 200/3/4
f 193/2/4 194/2/4 200/2/4
f 194/1/4 195/1/4 201/1/4
f 200/2/4 194/2/4 201/2/4
f 195/3/4 188/3/4 202/3/4
f 201/1/4 195/1/4 202/1/4
f 188/1/4 189/1/4 203/1/4
f 202/3/4 188/3/4 203/3/4
f 189/3/4 196/3/4 204/3/4
f 203/1/4 189/1/4 204/1/4
f 196/1/4 197/1/4 205/1/4
f 204/3/4 196/3/4 205/3/4
f 197/2/4 198/2/4 206/2/4
f 205/1/4 197/1/4 206/1/4
f 198/3/4 199/3/4 207/3/4
f 206/2/4 198/2/4 207/2/4
f 200/3/4 201/3/4 208/3/4
f 201/2/4 202/2/4 208/2/4
f 204/1/4 205/1/4 209/1/4
f 208/2/4 202/2/4 209/2/4
f 203/1/4 204/1/4 209/1/4
f 202/1/4 203/1/4 209/1/4
f 205/2/4 206/2/4 210/2/4
f 209/1/4 205/1/4 210/1/4
f 206/3/4 207/3/4 211/3/4
f 210/2/4 206/2/4 211/2/4
f 208/3/4 209/3/4 212/3/4
f 209/2/4 210/2/4 212/2/4
f 212/2/4 210/2/4 213/2/4
f 213/2/4 210/2/4 214/2/4
f 210/3/4 211/3/4 215/3/4
f 214/2/4 210/2/4 215/2/4
f 208/3/4 212/3/4 216/3/4
f 212/3/4 213/3/4 216/3/4
f 213/1/4 214/1/4 217/1/4
f 216/3/4 213/3/4 217/3/4
f 214/3/4 215/3/4 218/3/4
f 217/1/4 214/1/4 218/1/4
f 215/3/4 211/3/4 219/3/4
f 218/3/4 215/3/4 219/3/4
f 200/3/4 208/3/4 220/3/4
f 208/3/4 216/3/4 220/3/4
f 218/2/4 219/2/4 221/2/4
f 220/3/4 216/3/4 221/3/4
f 217/2/4 218/2/4 221/2/4
f 216/2/4 217/2/4 221/2/4
f 219/3/4 211/3/4 222/3/4
f 221/2/4 219/2/4 222/2/4
f 211/3/4 207/3/4 223/3/4
f 222/3/4 211/3/4 223/3/4
f 192/3/4 200/3/4 224/3/4
f 200/3/4 220/3/4 224/3/4
f 220/2/4 221/2/4 225/2/4
f 224/3/4 220/3/4 225/3/4
f 221/1/4 222/1/4 226/1/4
f 225/2/4 221/2/4 226/2/4
f 226/1/4 222/1/4 227/1/4
f 227/1/4 222/1/4 228/1/4
f 222/2/4 223/2/4 229/2/4
f 228/1/4 222/1/4 229/1/4
f 223/3/4 207/3/4 230/3/4
f 229/2/4 223/2/4 230/2/4
f 207/3/4 199/3/4 231/3/4
f 230/3/4 207/3/4 231/3/4
f 192/3/4 224/3/4 232/3/4
f 224/2/4 225/2/4 233/2/4
f 232/3/4 224/3/4 233/3/4
f 225/1/4 226/1/4 234/1/4
f 233/2/4 225/2/4 234/2/4
f 226/3/4 227/3/4 235/3/4
f 234/1/4 226/1/4 235/1/4
f 229/1/4 230/1/4 236/1/4
f 228/3/4 229/3/4 236/3/4
f 230/2/4 231/2/4 237/2/4
f 236/1/4 230/1/4 237/1/4
f 231/3/4 199/3/4 238/3/4
f 237/2/4 231/2/4 238/2/4
f 199/4/4 176/4/4 239/4/4
f 238/3/4 199/3/4 239/3/4
f 232/2/4 233/2/4 240/2/4
f 233/1/4 234/1/4 240/1/4
f 234/3/4 235/3/4 241/3/4
f 240/1/4 234/1/4 241/1/4
f 235/3/4 227/3/4 242/3/4
f 241/3/4 235/3/4 242/3/4
f 227/1/4 228/1/4 243/1/4
f 242/3/4 227/3/4 243/3/4
f 236/3/4 237/3/4 244/3/4
f 243/1/4 228/1/4 244/1/4
f 228/3/4 236/3/4 244/3/4
f 237/1/4 238/1/4 245/1/4
f 244/3/4 237/3/4 245/3/4
f 238/2/4 239/2/4 246/2/4
f 245/1/4 238/1/4 246/1/4
f 232/2/4 240/2/4 247/2/4
f 240/3/4 241/3/4 248/3/4
f 247/2/4 240/2/4 248/2/4
f 241/3/4 242/3/4 248/3/4
f 243/3/4 244/3/4 249/3/4
f 246/2/4 239/2/4 249/2/4
f 245/3/4 246/3/4 249/3/4
f 244/3/4 245/3/4 249/3/4
f 239/4/4 176/4/4 250/4/4
f 249/2/4 239/2/4 250/2/4
f 247/3/4 248/3/4 251/3/4
f 248/3/4 242/3/4 252/3/4
f 251/3/4 248/3/4 252/3/4
f 242/1/4 243/1/4 252/1/4
f 249/3/4 250/3/4 253/3/4
f 252/1/4 243/1/4 253/1/4
f 243/3/4 249/3/4 253/3/4
f 250/4/4 176/4/4 254/4/4
f 253/3/4 250/3/4 254/3/4
f 251/4/4 252/4/4 255/4/4
f 252/4/4 253/4/4 255/4/4
f 253/4/4 254/4/4 255/4/4
f 254/4/4 176/4/4 256/4/4
f 255/4/4 254/4/4 256/4/4
f 261/4/5 258/4/5 257/4/5
f 264/4/5 260/4/5 259/4/5
f 265/4/5 262/4/5 261/4/5
f 265/4/5 261/4/5 257/4/5
f 266/4/5 262/4/5 265/4/5
f 269/4/5 264/4/5 263/4/5
f 270/4/5 260/4/5 264/4/5
f 270/4/5 264/4/5 269/4/5
f 271/4/5 265/4/5 257/4/5
f 272/3/5 266/3/5 265/3/5
f 272/4/5 265/4/5 271/4/5
f 273/2/5 267/2/5 266/2/5
f 273/3/5 266/3/5 272/3/5
f 274/3/5 268/3/5 267/3/5
f 274/2/5 267/2/5 273/2/5
f 275/2/5 269/2/5 268/2/5
f 275/3/5 268/3/5 274/3/5
f 276/3/5 270/3/5 269/3/5
f 276/2/5 269/2/5 275/2/5
f 277/4/5 260/4/5 270/4/5
f 277/3/5 270/3/5 276/3/5
f 278/4/5 260/4/5 277/4/5
f 283/4/5 280/4/5 279/4/5
f 284/4/5 280/4/5 283/4/5
f 285/4/5 282/4/5 281/4/5
f 286/4/5 282/4/5 285/4/5
f 291/4/5 288/4/5 287/4/5
f 292/4/5 288/4/5 291/4/5
f 295/4/5 290/4/5 289/4/5
f 296/4/5 290/4/5 295/4/5
f 297/4/5 294/4/5 293/4/5
f 298/4/5 294/4/5 297/4/5
f 299/4/5 294/4/5 298/4/5
f 300/4/5 294/4/5 299/4/5
f 301/4/6 302/4/6 305/4/6
f 305/4/6 302/4/6 306/4/6
f 303/4/6 304/4/6 309/4/6
f 309/4/6 304/4/6 310/4/6
f 306/4/6 307/4/6 311/4/6
f 311/4/6 307/4/6 312/4/6
f 308/4/6 309/4/6 313/4/6
f 313/4/6 309/4/6 314/4/6
f 315/4/6 316/4/6 319/4/6
f 317/4/6 318/4/6 320/4/6
f 315/4/6 319/4/6 321/4/6
f 319/4/6 320/4/6 321/4/6
f 320/4/6 318/4/6 322/4/6
f 321/4/6 320/4/6 322/4/6
