# MagicaVoxel @ Ephtracy

# group
o 

# material
mtllib pressurePlateOff-0.mtl
usemtl palette

# normals
vn -1 0 0
vn 1 0 0
vn 0 0 1
vn 0 0 -1
vn 0 -1 0
vn 0 1 0

# texcoords
vt 0.970703 0.5
vt 0.982422 0.5

# verts
v -0.6 -0.8 0.3
v -0.6 -0.8 -0.3
v -0.6 -0.7 0.3
v -0.6 -0.7 -0.3
v -0.5 -0.8 0.5
v -0.5 -0.8 0.3
v -0.5 -0.8 -0.3
v -0.5 -0.8 -0.5
v -0.5 -0.7 0.5
v -0.5 -0.7 0.3
v -0.5 -0.7 0.2
v -0.5 -0.7 -0.2
v -0.5 -0.7 -0.3
v -0.5 -0.7 -0.5
v -0.5 -0.6 0.2
v -0.5 -0.6 0.1
v -0.5 -0.6 -0.1
v -0.5 -0.6 -0.2
v -0.5 -0.5 0.1
v -0.5 -0.5 -0.1
v -0.4 -0.7 0.4
v -0.4 -0.7 0.2
v -0.4 -0.7 -0.2
v -0.4 -0.7 -0.4
v -0.4 -0.6 0.4
v -0.4 -0.6 0.3
v -0.4 -0.6 0.2
v -0.4 -0.6 0.1
v -0.4 -0.6 -0.1
v -0.4 -0.6 -0.2
v -0.4 -0.6 -0.3
v -0.4 -0.6 -0.4
v -0.4 -0.5 0.3
v -0.4 -0.5 0.1
v -0.4 -0.5 -0.1
v -0.4 -0.5 -0.3
v -0.3 -0.8 0.6
v -0.3 -0.8 0.5
v -0.3 -0.8 -0.5
v -0.3 -0.8 -0.6
v -0.3 -0.7 0.6
v -0.3 -0.7 0.5
v -0.3 -0.7 -0.5
v -0.3 -0.7 -0.6
v -0.3 -0.6 0.4
v -0.3 -0.6 0.3
v -0.3 -0.6 -0.3
v -0.3 -0.6 -0.4
v -0.3 -0.5 0.4
v -0.3 -0.5 0.3
v -0.3 -0.5 0.2
v -0.3 -0.5 -0.2
v -0.3 -0.5 -0.3
v -0.3 -0.5 -0.4
v -0.3 -0.4 0.2
v -0.3 -0.4 -0.2
v -0.2 -0.7 0.5
v -0.2 -0.7 0.4
v -0.2 -0.7 -0.4
v -0.2 -0.7 -0.5
v -0.2 -0.6 0.5
v -0.2 -0.6 0.4
v -0.2 -0.6 -0.4
v -0.2 -0.6 -0.5
v -0.2 -0.5 0.3
v -0.2 -0.5 0.2
v -0.2 -0.5 -0.2
v -0.2 -0.5 -0.3
v -0.2 -0.4 0.3
v -0.2 -0.4 0.2
v -0.2 -0.4 -0.2
v -0.2 -0.4 -0.3
v -0.1 -0.6 0.5
v -0.1 -0.6 0.4
v -0.1 -0.6 -0.4
v -0.1 -0.6 -0.5
v -0.1 -0.5 0.5
v -0.1 -0.5 0.4
v -0.1 -0.5 -0.4
v -0.1 -0.5 -0.5
v 0.1 -0.6 0.5
v 0.1 -0.6 0.4
v 0.1 -0.6 -0.4
v 0.1 -0.6 -0.5
v 0.1 -0.5 0.5
v 0.1 -0.5 0.4
v 0.1 -0.5 -0.4
v 0.1 -0.5 -0.5
v 0.2 -0.7 0.5
v 0.2 -0.7 0.4
v 0.2 -0.7 -0.4
v 0.2 -0.7 -0.5
v 0.2 -0.6 0.5
v 0.2 -0.6 0.4
v 0.2 -0.6 -0.4
v 0.2 -0.6 -0.5
v 0.2 -0.5 0.3
v 0.2 -0.5 0.2
v 0.2 -0.5 -0.2
v 0.2 -0.5 -0.3
v 0.2 -0.4 0.3
v 0.2 -0.4 0.2
v 0.2 -0.4 -0.2
v 0.2 -0.4 -0.3
v 0.3 -0.8 0.6
v 0.3 -0.8 0.5
v 0.3 -0.8 -0.5
v 0.3 -0.8 -0.6
v 0.3 -0.7 0.6
v 0.3 -0.7 0.5
v 0.3 -0.7 -0.5
v 0.3 -0.7 -0.6
v 0.3 -0.6 0.4
v 0.3 -0.6 0.3
v 0.3 -0.6 -0.3
v 0.3 -0.6 -0.4
v 0.3 -0.5 0.4
v 0.3 -0.5 0.3
v 0.3 -0.5 0.2
v 0.3 -0.5 -0.2
v 0.3 -0.5 -0.3
v 0.3 -0.5 -0.4
v 0.3 -0.4 0.2
v 0.3 -0.4 -0.2
v 0.4 -0.7 0.4
v 0.4 -0.7 0.2
v 0.4 -0.7 -0.2
v 0.4 -0.7 -0.4
v 0.4 -0.6 0.4
v 0.4 -0.6 0.3
v 0.4 -0.6 0.2
v 0.4 -0.6 0.1
v 0.4 -0.6 -0.1
v 0.4 -0.6 -0.2
v 0.4 -0.6 -0.3
v 0.4 -0.6 -0.4
v 0.4 -0.5 0.3
v 0.4 -0.5 0.1
v 0.4 -0.5 -0.1
v 0.4 -0.5 -0.3
v 0.5 -0.8 0.5
v 0.5 -0.8 0.3
v 0.5 -0.8 -0.3
v 0.5 -0.8 -0.5
v 0.5 -0.7 0.5
v 0.5 -0.7 0.3
v 0.5 -0.7 0.2
v 0.5 -0.7 -0.2
v 0.5 -0.7 -0.3
v 0.5 -0.7 -0.5
v 0.5 -0.6 0.2
v 0.5 -0.6 0.1
v 0.5 -0.6 -0.1
v 0.5 -0.6 -0.2
v 0.5 -0.5 0.1
v 0.5 -0.5 -0.1
v 0.6 -0.8 0.3
v 0.6 -0.8 -0.3
v 0.6 -0.7 0.3
v 0.6 -0.7 -0.3
v -0.3 -0.8 0.6
v -0.3 -0.7 0.6
v 0.3 -0.8 0.6
v 0.3 -0.7 0.6
v -0.5 -0.8 0.5
v -0.5 -0.7 0.5
v -0.3 -0.8 0.5
v -0.3 -0.7 0.5
v -0.2 -0.7 0.5
v -0.2 -0.6 0.5
v -0.1 -0.6 0.5
v -0.1 -0.5 0.5
v 0.1 -0.6 0.5
v 0.1 -0.5 0.5
v 0.2 -0.7 0.5
v 0.2 -0.6 0.5
v 0.3 -0.8 0.5
v 0.3 -0.7 0.5
v 0.5 -0.8 0.5
v 0.5 -0.7 0.5
v -0.4 -0.7 0.4
v -0.4 -0.6 0.4
v -0.3 -0.6 0.4
v -0.3 -0.5 0.4
v -0.2 -0.7 0.4
v -0.2 -0.6 0.4
v -0.1 -0.6 0.4
v -0.1 -0.5 0.4
v 0.1 -0.6 0.4
v 0.1 -0.5 0.4
v 0.2 -0.7 0.4
v 0.2 -0.6 0.4
v 0.3 -0.6 0.4
v 0.3 -0.5 0.4
v 0.4 -0.7 0.4
v 0.4 -0.6 0.4
v -0.6 -0.8 0.3
v -0.6 -0.7 0.3
v -0.5 -0.8 0.3
v -0.5 -0.7 0.3
v -0.4 -0.6 0.3
v -0.4 -0.5 0.3
v -0.3 -0.6 0.3
v -0.3 -0.5 0.3
v -0.2 -0.5 0.3
v -0.2 -0.4 0.3
v 0.2 -0.5 0.3
v 0.2 -0.4 0.3
v 0.3 -0.6 0.3
v 0.3 -0.5 0.3
v 0.4 -0.6 0.3
v 0.4 -0.5 0.3
v 0.5 -0.8 0.3
v 0.5 -0.7 0.3
v 0.6 -0.8 0.3
v 0.6 -0.7 0.3
v -0.5 -0.7 0.2
v -0.5 -0.6 0.2
v -0.4 -0.7 0.2
v -0.4 -0.6 0.2
v -0.3 -0.5 0.2
v -0.3 -0.4 0.2
v -0.2 -0.5 0.2
v -0.2 -0.4 0.2
v 0.2 -0.5 0.2
v 0.2 -0.4 0.2
v 0.3 -0.5 0.2
v 0.3 -0.4 0.2
v 0.4 -0.7 0.2
v 0.4 -0.6 0.2
v 0.5 -0.7 0.2
v 0.5 -0.6 0.2
v -0.5 -0.6 0.1
v -0.5 -0.5 0.1
v -0.4 -0.6 0.1
v -0.4 -0.5 0.1
v 0.4 -0.6 0.1
v 0.4 -0.5 0.1
v 0.5 -0.6 0.1
v 0.5 -0.5 0.1
v -0.5 -0.6 -0.1
v -0.5 -0.5 -0.1
v -0.4 -0.6 -0.1
v -0.4 -0.5 -0.1
v 0.4 -0.6 -0.1
v 0.4 -0.5 -0.1
v 0.5 -0.6 -0.1
v 0.5 -0.5 -0.1
v -0.5 -0.7 -0.2
v -0.5 -0.6 -0.2
v -0.4 -0.7 -0.2
v -0.4 -0.6 -0.2
v -0.3 -0.5 -0.2
v -0.3 -0.4 -0.2
v -0.2 -0.5 -0.2
v -0.2 -0.4 -0.2
v 0.2 -0.5 -0.2
v 0.2 -0.4 -0.2
v 0.3 -0.5 -0.2
v 0.3 -0.4 -0.2
v 0.4 -0.7 -0.2
v 0.4 -0.6 -0.2
v 0.5 -0.7 -0.2
v 0.5 -0.6 -0.2
v -0.6 -0.8 -0.3
v -0.6 -0.7 -0.3
v -0.5 -0.8 -0.3
v -0.5 -0.7 -0.3
v -0.4 -0.6 -0.3
v -0.4 -0.5 -0.3
v -0.3 -0.6 -0.3
v -0.3 -0.5 -0.3
v -0.2 -0.5 -0.3
v -0.2 -0.4 -0.3
v 0.2 -0.5 -0.3
v 0.2 -0.4 -0.3
v 0.3 -0.6 -0.3
v 0.3 -0.5 -0.3
v 0.4 -0.6 -0.3
v 0.4 -0.5 -0.3
v 0.5 -0.8 -0.3
v 0.5 -0.7 -0.3
v 0.6 -0.8 -0.3
v 0.6 -0.7 -0.3
v -0.4 -0.7 -0.4
v -0.4 -0.6 -0.4
v -0.3 -0.6 -0.4
v -0.3 -0.5 -0.4
v -0.2 -0.7 -0.4
v -0.2 -0.6 -0.4
v -0.1 -0.6 -0.4
v -0.1 -0.5 -0.4
v 0.1 -0.6 -0.4
v 0.1 -0.5 -0.4
v 0.2 -0.7 -0.4
v 0.2 -0.6 -0.4
v 0.3 -0.6 -0.4
v 0.3 -0.5 -0.4
v 0.4 -0.7 -0.4
v 0.4 -0.6 -0.4
v -0.5 -0.8 -0.5
v -0.5 -0.7 -0.5
v -0.3 -0.8 -0.5
v -0.3 -0.7 -0.5
v -0.2 -0.7 -0.5
v -0.2 -0.6 -0.5
v -0.1 -0.6 -0.5
v -0.1 -0.5 -0.5
v 0.1 -0.6 -0.5
v 0.1 -0.5 -0.5
v 0.2 -0.7 -0.5
v 0.2 -0.6 -0.5
v 0.3 -0.8 -0.5
v 0.3 -0.7 -0.5
v 0.5 -0.8 -0.5
v 0.5 -0.7 -0.5
v -0.3 -0.8 -0.6
v -0.3 -0.7 -0.6
v 0.3 -0.8 -0.6
v 0.3 -0.7 -0.6
v -0.3 -0.8 0.6
v 0.3 -0.8 0.6
v -0.5 -0.8 0.5
v -0.3 -0.8 0.5
v 0.3 -0.8 0.5
v 0.5 -0.8 0.5
v -0.6 -0.8 0.3
v -0.5 -0.8 0.3
v 0.5 -0.8 0.3
v 0.6 -0.8 0.3
v -0.6 -0.8 -0.3
v -0.5 -0.8 -0.3
v 0.5 -0.8 -0.3
v 0.6 -0.8 -0.3
v -0.5 -0.8 -0.5
v -0.3 -0.8 -0.5
v 0.3 -0.8 -0.5
v 0.5 -0.8 -0.5
v -0.3 -0.8 -0.6
v 0.3 -0.8 -0.6
v -0.3 -0.7 0.6
v 0.3 -0.7 0.6
v -0.5 -0.7 0.5
v -0.3 -0.7 0.5
v -0.2 -0.7 0.5
v 0.2 -0.7 0.5
v 0.3 -0.7 0.5
v 0.5 -0.7 0.5
v -0.4 -0.7 0.4
v -0.2 -0.7 0.4
v 0.2 -0.7 0.4
v 0.4 -0.7 0.4
v -0.6 -0.7 0.3
v -0.5 -0.7 0.3
v 0.5 -0.7 0.3
v 0.6 -0.7 0.3
v -0.5 -0.7 0.2
v -0.4 -0.7 0.2
v 0.4 -0.7 0.2
v 0.5 -0.7 0.2
v -0.5 -0.7 -0.2
v -0.4 -0.7 -0.2
v 0.4 -0.7 -0.2
v 0.5 -0.7 -0.2
v -0.6 -0.7 -0.3
v -0.5 -0.7 -0.3
v 0.5 -0.7 -0.3
v 0.6 -0.7 -0.3
v -0.4 -0.7 -0.4
v -0.2 -0.7 -0.4
v 0.2 -0.7 -0.4
v 0.4 -0.7 -0.4
v -0.5 -0.7 -0.5
v -0.3 -0.7 -0.5
v -0.2 -0.7 -0.5
v 0.2 -0.7 -0.5
v 0.3 -0.7 -0.5
v 0.5 -0.7 -0.5
v -0.3 -0.7 -0.6
v 0.3 -0.7 -0.6
v -0.2 -0.6 0.5
v -0.1 -0.6 0.5
v 0.1 -0.6 0.5
v 0.2 -0.6 0.5
v -0.4 -0.6 0.4
v -0.3 -0.6 0.4
v -0.2 -0.6 0.4
v -0.1 -0.6 0.4
v 0.1 -0.6 0.4
v 0.2 -0.6 0.4
v 0.3 -0.6 0.4
v 0.4 -0.6 0.4
v -0.4 -0.6 0.3
v -0.3 -0.6 0.3
v 0.3 -0.6 0.3
v 0.4 -0.6 0.3
v -0.5 -0.6 0.2
v -0.4 -0.6 0.2
v 0.4 -0.6 0.2
v 0.5 -0.6 0.2
v -0.5 -0.6 0.1
v -0.4 -0.6 0.1
v 0.4 -0.6 0.1
v 0.5 -0.6 0.1
v -0.5 -0.6 -0.1
v -0.4 -0.6 -0.1
v 0.4 -0.6 -0.1
v 0.5 -0.6 -0.1
v -0.5 -0.6 -0.2
v -0.4 -0.6 -0.2
v 0.4 -0.6 -0.2
v 0.5 -0.6 -0.2
v -0.4 -0.6 -0.3
v -0.3 -0.6 -0.3
v 0.3 -0.6 -0.3
v 0.4 -0.6 -0.3
v -0.4 -0.6 -0.4
v -0.3 -0.6 -0.4
v -0.2 -0.6 -0.4
v -0.1 -0.6 -0.4
v 0.1 -0.6 -0.4
v 0.2 -0.6 -0.4
v 0.3 -0.6 -0.4
v 0.4 -0.6 -0.4
v -0.2 -0.6 -0.5
v -0.1 -0.6 -0.5
v 0.1 -0.6 -0.5
v 0.2 -0.6 -0.5
v -0.1 -0.5 0.5
v 0.1 -0.5 0.5
v -0.3 -0.5 0.4
v -0.1 -0.5 0.4
v 0.1 -0.5 0.4
v 0.3 -0.5 0.4
v -0.4 -0.5 0.3
v -0.3 -0.5 0.3
v -0.2 -0.5 0.3
v 0.2 -0.5 0.3
v 0.3 -0.5 0.3
v 0.4 -0.5 0.3
v -0.3 -0.5 0.2
v -0.2 -0.5 0.2
v 0.2 -0.5 0.2
v 0.3 -0.5 0.2
v -0.5 -0.5 0.1
v -0.4 -0.5 0.1
v 0.4 -0.5 0.1
v 0.5 -0.5 0.1
v -0.5 -0.5 -0.1
v -0.4 -0.5 -0.1
v 0.4 -0.5 -0.1
v 0.5 -0.5 -0.1
v -0.3 -0.5 -0.2
v -0.2 -0.5 -0.2
v 0.2 -0.5 -0.2
v 0.3 -0.5 -0.2
v -0.4 -0.5 -0.3
v -0.3 -0.5 -0.3
v -0.2 -0.5 -0.3
v 0.2 -0.5 -0.3
v 0.3 -0.5 -0.3
v 0.4 -0.5 -0.3
v -0.3 -0.5 -0.4
v -0.1 -0.5 -0.4
v 0.1 -0.5 -0.4
v 0.3 -0.5 -0.4
v -0.1 -0.5 -0.5
v 0.1 -0.5 -0.5
v -0.2 -0.4 0.3
v 0.2 -0.4 0.3
v -0.3 -0.4 0.2
v -0.2 -0.4 0.2
v 0.2 -0.4 0.2
v 0.3 -0.4 0.2
v -0.3 -0.4 -0.2
v -0.2 -0.4 -0.2
v 0.2 -0.4 -0.2
v 0.3 -0.4 -0.2
v -0.2 -0.4 -0.3
v 0.2 -0.4 -0.3

# faces
f 3/1/1 2/1/1 1/1/1
f 4/1/1 2/1/1 3/1/1
f 9/1/1 6/1/1 5/1/1
f 10/1/1 6/1/1 9/1/1
f 13/1/1 8/1/1 7/1/1
f 14/1/1 8/1/1 13/1/1
f 15/2/1 12/2/1 11/2/1
f 16/2/1 12/2/1 15/2/1
f 17/2/1 12/2/1 16/2/1
f 18/2/1 12/2/1 17/2/1
f 19/2/1 17/2/1 16/2/1
f 20/2/1 17/2/1 19/2/1
f 25/2/1 22/2/1 21/2/1
f 26/2/1 22/2/1 25/2/1
f 27/2/1 22/2/1 26/2/1
f 30/2/1 24/2/1 23/2/1
f 31/2/1 24/2/1 30/2/1
f 32/2/1 24/2/1 31/2/1
f 33/2/1 28/2/1 27/2/1
f 33/2/1 27/2/1 26/2/1
f 34/2/1 28/2/1 33/2/1
f 35/2/1 31/2/1 30/2/1
f 35/2/1 30/2/1 29/2/1
f 36/2/1 31/2/1 35/2/1
f 41/1/1 38/1/1 37/1/1
f 42/1/1 38/1/1 41/1/1
f 43/1/1 40/1/1 39/1/1
f 44/1/1 40/1/1 43/1/1
f 49/2/1 46/2/1 45/2/1
f 50/2/1 46/2/1 49/2/1
f 53/2/1 48/2/1 47/2/1
f 54/2/1 48/2/1 53/2/1
f 55/2/1 52/2/1 51/2/1
f 56/2/1 52/2/1 55/2/1
f 61/2/1 58/2/1 57/2/1
f 62/2/1 58/2/1 61/2/1
f 63/2/1 60/2/1 59/2/1
f 64/2/1 60/2/1 63/2/1
f 69/2/1 66/2/1 65/2/1
f 70/2/1 66/2/1 69/2/1
f 71/2/1 68/2/1 67/2/1
f 72/2/1 68/2/1 71/2/1
f 77/2/1 74/2/1 73/2/1
f 78/2/1 74/2/1 77/2/1
f 79/2/1 76/2/1 75/2/1
f 80/2/1 76/2/1 79/2/1
f 81/2/2 82/2/2 85/2/2
f 85/2/2 82/2/2 86/2/2
f 83/2/2 84/2/2 87/2/2
f 87/2/2 84/2/2 88/2/2
f 89/2/2 90/2/2 93/2/2
f 93/2/2 90/2/2 94/2/2
f 91/2/2 92/2/2 95/2/2
f 95/2/2 92/2/2 96/2/2
f 97/2/2 98/2/2 101/2/2
f 101/2/2 98/2/2 102/2/2
f 99/2/2 100/2/2 103/2/2
f 103/2/2 100/2/2 104/2/2
f 105/1/2 106/1/2 109/1/2
f 109/1/2 106/1/2 110/1/2
f 107/1/2 108/1/2 111/1/2
f 111/1/2 108/1/2 112/1/2
f 113/2/2 114/2/2 117/2/2
f 117/2/2 114/2/2 118/2/2
f 115/2/2 116/2/2 121/2/2
f 121/2/2 116/2/2 122/2/2
f 119/2/2 120/2/2 123/2/2
f 123/2/2 120/2/2 124/2/2
f 125/2/2 126/2/2 129/2/2
f 129/2/2 126/2/2 130/2/2
f 130/2/2 126/2/2 131/2/2
f 127/2/2 128/2/2 134/2/2
f 134/2/2 128/2/2 135/2/2
f 135/2/2 128/2/2 136/2/2
f 131/2/2 132/2/2 137/2/2
f 130/2/2 131/2/2 137/2/2
f 137/2/2 132/2/2 138/2/2
f 134/2/2 135/2/2 139/2/2
f 133/2/2 134/2/2 139/2/2
f 139/2/2 135/2/2 140/2/2
f 141/1/2 142/1/2 145/1/2
f 145/1/2 142/1/2 146/1/2
f 143/1/2 144/1/2 149/1/2
f 149/1/2 144/1/2 150/1/2
f 147/2/2 148/2/2 151/2/2
f 151/2/2 148/2/2 152/2/2
f 152/2/2 148/2/2 153/2/2
f 153/2/2 148/2/2 154/2/2
f 152/2/2 153/2/2 155/2/2
f 155/2/2 153/2/2 156/2/2
f 157/1/2 158/1/2 159/1/2
f 159/1/2 158/1/2 160/1/2
f 163/1/3 162/1/3 161/1/3
f 164/1/3 162/1/3 163/1/3
f 167/1/3 166/1/3 165/1/3
f 168/1/3 166/1/3 167/1/3
f 171/2/3 170/2/3 169/2/3
f 173/2/3 171/2/3 169/2/3
f 173/2/3 172/2/3 171/2/3
f 174/2/3 172/2/3 173/2/3
f 175/2/3 173/2/3 169/2/3
f 176/2/3 173/2/3 175/2/3
f 179/1/3 178/1/3 177/1/3
f 180/1/3 178/1/3 179/1/3
f 183/2/3 182/2/3 181/2/3
f 185/2/3 183/2/3 181/2/3
f 185/2/3 184/2/3 183/2/3
f 186/2/3 184/2/3 185/2/3
f 187/2/3 184/2/3 186/2/3
f 188/2/3 184/2/3 187/2/3
f 192/2/3 190/2/3 189/2/3
f 193/2/3 190/2/3 192/2/3
f 193/2/3 192/2/3 191/2/3
f 194/2/3 190/2/3 193/2/3
f 195/2/3 193/2/3 191/2/3
f 196/2/3 193/2/3 195/2/3
f 199/1/3 198/1/3 197/1/3
f 200/1/3 198/1/3 199/1/3
f 203/2/3 202/2/3 201/2/3
f 204/2/3 202/2/3 203/2/3
f 207/2/3 206/2/3 205/2/3
f 208/2/3 206/2/3 207/2/3
f 211/2/3 210/2/3 209/2/3
f 212/2/3 210/2/3 211/2/3
f 215/1/3 214/1/3 213/1/3
f 216/1/3 214/1/3 215/1/3
f 219/2/3 218/2/3 217/2/3
f 220/2/3 218/2/3 219/2/3
f 223/2/3 222/2/3 221/2/3
f 224/2/3 222/2/3 223/2/3
f 227/2/3 226/2/3 225/2/3
f 228/2/3 226/2/3 227/2/3
f 231/2/3 230/2/3 229/2/3
f 232/2/3 230/2/3 231/2/3
f 235/2/3 234/2/3 233/2/3
f 236/2/3 234/2/3 235/2/3
f 239/2/3 238/2/3 237/2/3
f 240/2/3 238/2/3 239/2/3
f 241/2/4 242/2/4 243/2/4
f 243/2/4 242/2/4 244/2/4
f 245/2/4 246/2/4 247/2/4
f 247/2/4 246/2/4 248/2/4
f 249/2/4 250/2/4 251/2/4
f 251/2/4 250/2/4 252/2/4
f 253/2/4 254/2/4 255/2/4
f 255/2/4 254/2/4 256/2/4
f 257/2/4 258/2/4 259/2/4
f 259/2/4 258/2/4 260/2/4
f 261/2/4 262/2/4 263/2/4
f 263/2/4 262/2/4 264/2/4
f 265/1/4 266/1/4 267/1/4
f 267/1/4 266/1/4 268/1/4
f 269/2/4 270/2/4 271/2/4
f 271/2/4 270/2/4 272/2/4
f 273/2/4 274/2/4 275/2/4
f 275/2/4 274/2/4 276/2/4
f 277/2/4 278/2/4 279/2/4
f 279/2/4 278/2/4 280/2/4
f 281/1/4 282/1/4 283/1/4
f 283/1/4 282/1/4 284/1/4
f 285/2/4 286/2/4 287/2/4
f 285/2/4 287/2/4 289/2/4
f 287/2/4 288/2/4 289/2/4
f 289/2/4 288/2/4 290/2/4
f 290/2/4 288/2/4 291/2/4
f 291/2/4 288/2/4 292/2/4
f 293/2/4 294/2/4 296/2/4
f 296/2/4 294/2/4 297/2/4
f 295/2/4 296/2/4 297/2/4
f 297/2/4 294/2/4 298/2/4
f 295/2/4 297/2/4 299/2/4
f 299/2/4 297/2/4 300/2/4
f 301/1/4 302/1/4 303/1/4
f 303/1/4 302/1/4 304/1/4
f 305/2/4 306/2/4 307/2/4
f 305/2/4 307/2/4 309/2/4
f 307/2/4 308/2/4 309/2/4
f 309/2/4 308/2/4 310/2/4
f 305/2/4 309/2/4 311/2/4
f 311/2/4 309/2/4 312/2/4
f 313/1/4 314/1/4 315/1/4
f 315/1/4 314/1/4 316/1/4
f 317/1/4 318/1/4 319/1/4
f 319/1/4 318/1/4 320/1/4
f 324/1/5 322/1/5 321/1/5
f 325/1/5 322/1/5 324/1/5
f 328/1/5 324/1/5 323/1/5
f 328/1/5 326/1/5 325/1/5
f 328/1/5 325/1/5 324/1/5
f 329/1/5 326/1/5 328/1/5
f 331/1/5 328/1/5 327/1/5
f 331/1/5 330/1/5 329/1/5
f 331/1/5 329/1/5 328/1/5
f 332/1/5 330/1/5 331/1/5
f 333/1/5 330/1/5 332/1/5
f 334/1/5 330/1/5 333/1/5
f 335/1/5 333/1/5 332/1/5
f 336/1/5 333/1/5 335/1/5
f 337/1/5 333/1/5 336/1/5
f 338/1/5 333/1/5 337/1/5
f 339/1/5 337/1/5 336/1/5
f 340/1/5 337/1/5 339/1/5
f 341/1/6 342/1/6 344/1/6
f 344/1/6 342/1/6 345/1/6
f 345/1/6 342/1/6 346/1/6
f 346/1/6 342/1/6 347/1/6
f 343/1/6 344/1/6 349/1/6
f 344/1/6 345/1/6 349/1/6
f 349/1/6 345/1/6 350/1/6
f 347/1/6 348/1/6 351/1/6
f 346/1/6 347/1/6 351/1/6
f 351/1/6 348/1/6 352/1/6
f 343/1/6 349/1/6 354/1/6
f 352/1/6 348/1/6 355/1/6
f 353/1/6 354/1/6 357/1/6
f 354/1/6 349/1/6 357/1/6
f 357/1/6 349/1/6 358/1/6
f 355/1/6 356/1/6 359/1/6
f 352/1/6 355/1/6 359/1/6
f 359/1/6 356/1/6 360/1/6
f 353/1/6 357/1/6 361/1/6
f 360/1/6 356/1/6 364/1/6
f 361/1/6 362/1/6 365/1/6
f 353/1/6 361/1/6 365/1/6
f 365/1/6 362/1/6 366/1/6
f 363/1/6 364/1/6 367/1/6
f 364/1/6 356/1/6 367/1/6
f 367/1/6 356/1/6 368/1/6
f 366/1/6 362/1/6 369/1/6
f 363/1/6 367/1/6 372/1/6
f 369/1/6 370/1/6 373/1/6
f 366/1/6 369/1/6 373/1/6
f 373/1/6 370/1/6 374/1/6
f 374/1/6 370/1/6 375/1/6
f 371/1/6 372/1/6 376/1/6
f 376/1/6 372/1/6 377/1/6
f 372/1/6 367/1/6 378/1/6
f 377/1/6 372/1/6 378/1/6
f 374/1/6 375/1/6 379/1/6
f 376/1/6 377/1/6 379/1/6
f 375/1/6 376/1/6 379/1/6
f 379/1/6 377/1/6 380/1/6
f 381/2/6 382/2/6 387/2/6
f 387/2/6 382/2/6 388/2/6
f 383/2/6 384/2/6 389/2/6
f 389/2/6 384/2/6 390/2/6
f 385/2/6 386/2/6 393/2/6
f 393/2/6 386/2/6 394/2/6
f 391/2/6 392/2/6 395/2/6
f 395/2/6 392/2/6 396/2/6
f 397/2/6 398/2/6 401/2/6
f 401/2/6 398/2/6 402/2/6
f 399/2/6 400/2/6 403/2/6
f 403/2/6 400/2/6 404/2/6
f 405/2/6 406/2/6 409/2/6
f 409/2/6 406/2/6 410/2/6
f 407/2/6 408/2/6 411/2/6
f 411/2/6 408/2/6 412/2/6
f 413/2/6 414/2/6 417/2/6
f 417/2/6 414/2/6 418/2/6
f 415/2/6 416/2/6 423/2/6
f 423/2/6 416/2/6 424/2/6
f 419/2/6 420/2/6 425/2/6
f 425/2/6 420/2/6 426/2/6
f 421/2/6 422/2/6 427/2/6
f 427/2/6 422/2/6 428/2/6
f 429/2/6 430/2/6 432/2/6
f 432/2/6 430/2/6 433/2/6
f 431/2/6 432/2/6 436/2/6
f 433/2/6 434/2/6 436/2/6
f 432/2/6 433/2/6 436/2/6
f 436/2/6 434/2/6 437/2/6
f 437/2/6 434/2/6 438/2/6
f 438/2/6 434/2/6 439/2/6
f 435/2/6 436/2/6 441/2/6
f 436/2/6 437/2/6 441/2/6
f 441/2/6 437/2/6 442/2/6
f 439/2/6 440/2/6 443/2/6
f 438/2/6 439/2/6 443/2/6
f 443/2/6 440/2/6 444/2/6
f 435/2/6 441/2/6 446/2/6
f 444/2/6 440/2/6 447/2/6
f 445/2/6 446/2/6 449/2/6
f 446/2/6 441/2/6 450/2/6
f 449/2/6 446/2/6 450/2/6
f 447/2/6 448/2/6 451/2/6
f 444/2/6 447/2/6 451/2/6
f 451/2/6 448/2/6 452/2/6
f 450/2/6 441/2/6 453/2/6
f 444/2/6 451/2/6 456/2/6
f 453/2/6 454/2/6 457/2/6
f 450/2/6 453/2/6 457/2/6
f 457/2/6 454/2/6 458/2/6
f 458/2/6 454/2/6 459/2/6
f 455/2/6 456/2/6 460/2/6
f 456/2/6 451/2/6 461/2/6
f 460/2/6 456/2/6 461/2/6
f 461/2/6 451/2/6 462/2/6
f 458/2/6 459/2/6 463/2/6
f 459/2/6 460/2/6 463/2/6
f 460/2/6 461/2/6 463/2/6
f 463/2/6 461/2/6 464/2/6
f 464/2/6 461/2/6 465/2/6
f 465/2/6 461/2/6 466/2/6
f 464/2/6 465/2/6 467/2/6
f 467/2/6 465/2/6 468/2/6
f 469/2/6 470/2/6 472/2/6
f 472/2/6 470/2/6 473/2/6
f 471/2/6 472/2/6 475/2/6
f 473/2/6 474/2/6 475/2/6
f 472/2/6 473/2/6 475/2/6
f 475/2/6 474/2/6 476/2/6
f 476/2/6 474/2/6 477/2/6
f 477/2/6 474/2/6 478/2/6
f 476/2/6 477/2/6 479/2/6
f 479/2/6 477/2/6 480/2/6
