# MagicaVoxel @ Ephtracy

# group
o 

# material
mtllib switchOnPurple-0.mtl
usemtl palette

# normals
vn -1 0 0
vn 1 0 0
vn 0 0 1
vn 0 0 -1
vn 0 -1 0
vn 0 1 0

# texcoords
vt 0.708984 0.5
vt 0.970703 0.5
vt 0.978516 0.5

# verts
v -0.2 -0.2 -0.6
v -0.2 -0.2 -0.7
v -0.2 0.2 -0.6
v -0.2 0.2 -0.7
v -0.1 -0.3 -0.6
v -0.1 -0.3 -0.7
v -0.1 -0.2 -0.5
v -0.1 -0.2 -0.6
v -0.1 -0.2 -0.7
v -0.1 -0.1 -0.5
v -0.1 -0.1 -0.6
v -0.1 0.2 -0.6
v -0.1 0.2 -0.7
v -0.1 0.3 -0.6
v -0.1 0.3 -0.7
v 0.1 -0.3 -0.6
v 0.1 -0.3 -0.7
v 0.1 -0.2 -0.5
v 0.1 -0.2 -0.6
v 0.1 -0.2 -0.7
v 0.1 -0.1 -0.5
v 0.1 -0.1 -0.6
v 0.1 0.2 -0.6
v 0.1 0.2 -0.7
v 0.1 0.3 -0.6
v 0.1 0.3 -0.7
v 0.2 -0.2 -0.6
v 0.2 -0.2 -0.7
v 0.2 0.2 -0.6
v 0.2 0.2 -0.7
v -0.1 -0.2 -0.5
v -0.1 -0.1 -0.5
v 0.1 -0.2 -0.5
v 0.1 -0.1 -0.5
v -0.2 -0.2 -0.6
v -0.2 0.2 -0.6
v -0.1 -0.3 -0.6
v -0.1 -0.2 -0.6
v -0.1 -0.1 -0.6
v -0.1 0.2 -0.6
v -0.1 0.3 -0.6
v 0.1 -0.3 -0.6
v 0.1 -0.2 -0.6
v 0.1 -0.1 -0.6
v 0.1 0.2 -0.6
v 0.1 0.3 -0.6
v 0.2 -0.2 -0.6
v 0.2 0.2 -0.6
v -0.2 -0.2 -0.7
v -0.2 0.2 -0.7
v -0.1 -0.3 -0.7
v -0.1 -0.2 -0.7
v -0.1 0.2 -0.7
v -0.1 0.3 -0.7
v 0.1 -0.3 -0.7
v 0.1 -0.2 -0.7
v 0.1 0.2 -0.7
v 0.1 0.3 -0.7
v 0.2 -0.2 -0.7
v 0.2 0.2 -0.7
v -0.1 -0.3 -0.6
v 0.1 -0.3 -0.6
v -0.1 -0.3 -0.7
v 0.1 -0.3 -0.7
v -0.1 -0.2 -0.5
v 0.1 -0.2 -0.5
v -0.2 -0.2 -0.6
v -0.1 -0.2 -0.6
v 0.1 -0.2 -0.6
v 0.2 -0.2 -0.6
v -0.2 -0.2 -0.7
v -0.1 -0.2 -0.7
v 0.1 -0.2 -0.7
v 0.2 -0.2 -0.7
v -0.1 -0.1 -0.5
v 0.1 -0.1 -0.5
v -0.1 -0.1 -0.6
v 0.1 -0.1 -0.6
v -0.2 0.2 -0.6
v -0.1 0.2 -0.6
v 0.1 0.2 -0.6
v 0.2 0.2 -0.6
v -0.2 0.2 -0.7
v -0.1 0.2 -0.7
v 0.1 0.2 -0.7
v 0.2 0.2 -0.7
v -0.1 0.3 -0.6
v 0.1 0.3 -0.6
v -0.1 0.3 -0.7
v 0.1 0.3 -0.7

# faces
f 3/3/1 2/3/1 1/3/1
f 4/3/1 2/3/1 3/3/1
f 8/3/1 6/3/1 5/3/1
f 9/3/1 6/3/1 8/3/1
f 10/2/1 8/2/1 7/2/1
f 11/2/1 8/2/1 10/2/1
f 14/3/1 13/3/1 12/3/1
f 15/3/1 13/3/1 14/3/1
f 16/3/2 17/3/2 19/3/2
f 19/3/2 17/3/2 20/3/2
f 18/2/2 19/2/2 21/2/2
f 21/2/2 19/2/2 22/2/2
f 23/3/2 24/3/2 25/3/2
f 25/3/2 24/3/2 26/3/2
f 27/3/2 28/3/2 29/3/2
f 29/3/2 28/3/2 30/3/2
f 33/2/3 32/2/3 31/2/3
f 34/2/3 32/2/3 33/2/3
f 38/3/3 36/3/3 35/3/3
f 39/3/3 36/3/3 38/3/3
f 40/3/3 36/3/3 39/3/3
f 42/3/3 38/3/3 37/3/3
f 43/3/3 38/3/3 42/3/3
f 44/1/3 40/1/3 39/1/3
f 45/3/3 41/3/3 40/3/3
f 45/1/3 40/1/3 44/1/3
f 46/3/3 41/3/3 45/3/3
f 47/3/3 44/3/3 43/3/3
f 47/3/3 45/3/3 44/3/3
f 48/3/3 45/3/3 47/3/3
f 49/3/4 50/3/4 52/3/4
f 52/3/4 50/3/4 53/3/4
f 51/3/4 52/3/4 55/3/4
f 52/1/4 53/1/4 56/1/4
f 55/3/4 52/3/4 56/3/4
f 53/3/4 54/3/4 57/3/4
f 56/1/4 53/1/4 57/1/4
f 57/3/4 54/3/4 58/3/4
f 56/3/4 57/3/4 59/3/4
f 59/3/4 57/3/4 60/3/4
f 63/3/5 62/3/5 61/3/5
f 64/3/5 62/3/5 63/3/5
f 68/2/5 66/2/5 65/2/5
f 69/2/5 66/2/5 68/2/5
f 71/3/5 68/3/5 67/3/5
f 72/3/5 68/3/5 71/3/5
f 73/3/5 70/3/5 69/3/5
f 74/3/5 70/3/5 73/3/5
f 75/2/6 76/2/6 77/2/6
f 77/2/6 76/2/6 78/2/6
f 79/3/6 80/3/6 83/3/6
f 83/3/6 80/3/6 84/3/6
f 81/3/6 82/3/6 85/3/6
f 85/3/6 82/3/6 86/3/6
f 87/3/6 88/3/6 89/3/6
f 89/3/6 88/3/6 90/3/6
