# MagicaVoxel @ Ephtracy

# group
o 

# material
mtllib terminalOrange-0.mtl
usemtl palette

# normals
vn -1 0 0
vn 1 0 0
vn 0 0 1
vn 0 0 -1
vn 0 -1 0
vn 0 1 0

# texcoords
vt 0.693359 0.5
vt 0.908203 0.5
vt 0.912109 0.5
vt 0.978516 0.5
vt 0.994141 0.5

# verts
v -0.4 -0.8 0.2
v -0.4 -0.8 0.1
v -0.4 -0.8 -0.1
v -0.4 -0.8 -0.2
v -0.4 -0.4 0.2
v -0.4 -0.4 0.1
v -0.4 -0.3 -0.1
v -0.4 -0.3 -0.2
v -0.3 -0.8 0.3
v -0.3 -0.8 0.2
v -0.3 -0.8 0.1
v -0.3 -0.8 -0.1
v -0.3 -0.8 -0.2
v -0.3 -0.8 -0.3
v -0.3 -0.4 0.2
v -0.3 -0.4 0.1
v -0.3 -0.3 -0.1
v -0.3 -0.3 -0.2
v -0.3 -0.1 0.3
v -0.3 -0.1 0.2
v -0.3 -0.1 0.1
v -0.3 0 0.2
v -0.3 0 0.1
v -0.3 0 0
v -0.3 0.1 0.1
v -0.3 0.1 0
v -0.3 0.1 -0.1
v -0.3 0.2 0
v -0.3 0.2 -0.1
v -0.3 0.2 -0.2
v -0.3 0.3 -0.1
v -0.3 0.3 -0.3
v -0.2 -0.8 0.4
v -0.2 -0.8 0.3
v -0.2 -0.8 -0.3
v -0.2 -0.8 -0.4
v -0.2 -0.6 0.4
v -0.2 -0.6 0.3
v -0.2 0.2 -0.3
v -0.2 0.2 -0.4
v 0.1 -0.8 0.4
v 0.1 -0.8 0.3
v 0.1 -0.8 -0.3
v 0.1 -0.8 -0.4
v 0.1 -0.6 0.4
v 0.1 -0.6 0.3
v 0.1 -0.2 0.3
v 0.1 -0.2 0.2
v 0.1 -0.1 0.3
v 0.1 -0.1 0.2
v 0.1 0.2 -0.1
v 0.1 0.2 -0.2
v 0.1 0.2 -0.3
v 0.1 0.2 -0.4
v 0.1 0.3 -0.1
v 0.1 0.3 -0.2
v 0.2 -0.1 0.2
v 0.2 -0.1 0.1
v 0.2 0 0.2
v 0.2 0 0.1
v 0.2 0 0
v 0.2 0.1 0.1
v 0.2 0.1 0
v 0.2 0.1 -0.1
v 0.2 0.2 0
v 0.2 0.2 -0.1
v 0.2 0.2 -0.3
v 0.2 0.2 -0.4
v 0.2 0.3 -0.3
v 0.2 0.4 -0.3
v 0.2 0.4 -0.4
v 0.2 0.5 -0.3
v 0.2 0.5 -0.4
v 0.3 0.3 -0.2
v 0.3 0.3 -0.3
v 0.3 0.4 -0.3
v 0.3 0.5 -0.3
v 0.3 0.6 -0.2
v 0.3 0.6 -0.3
v 0.3 0.7 -0.2
v 0.3 0.7 -0.3
v -0.2 -0.1 0.2
v -0.2 -0.1 0.1
v -0.2 0 0.2
v -0.2 0 0.1
v -0.2 0 0
v -0.2 0.1 0.1
v -0.2 0.1 0
v -0.2 0.1 -0.1
v -0.2 0.2 0
v -0.2 0.2 -0.1
v -0.1 -0.8 0.4
v -0.1 -0.8 0.3
v -0.1 -0.8 -0.3
v -0.1 -0.8 -0.4
v -0.1 -0.6 0.4
v -0.1 -0.6 0.3
v -0.1 -0.2 0.3
v -0.1 -0.2 0.2
v -0.1 -0.1 0.3
v -0.1 -0.1 0.2
v -0.1 0.2 -0.1
v -0.1 0.2 -0.2
v -0.1 0.2 -0.3
v -0.1 0.2 -0.4
v -0.1 0.3 -0.1
v -0.1 0.3 -0.2
v 0.2 -0.8 0.4
v 0.2 -0.8 0.3
v 0.2 -0.8 -0.3
v 0.2 -0.8 -0.4
v 0.2 -0.6 0.4
v 0.2 -0.6 0.3
v 0.2 0.1 -0.3
v 0.2 0.1 -0.4
v 0.3 -0.8 0.3
v 0.3 -0.8 0.2
v 0.3 -0.8 0.1
v 0.3 -0.8 -0.1
v 0.3 -0.8 -0.2
v 0.3 -0.8 -0.3
v 0.3 -0.4 0.2
v 0.3 -0.4 0.1
v 0.3 -0.3 -0.1
v 0.3 -0.3 -0.2
v 0.3 -0.1 0.3
v 0.3 -0.1 0.2
v 0.3 -0.1 0.1
v 0.3 0 0.2
v 0.3 0 0.1
v 0.3 0 0
v 0.3 0 -0.2
v 0.3 0 -0.3
v 0.3 0.1 0.1
v 0.3 0.1 0
v 0.3 0.1 -0.1
v 0.3 0.1 -0.3
v 0.3 0.1 -0.4
v 0.3 0.2 0
v 0.3 0.2 -0.1
v 0.3 0.2 -0.2
v 0.3 0.3 -0.1
v 0.3 0.3 -0.2
v 0.3 0.4 -0.3
v 0.3 0.4 -0.4
v 0.3 0.5 -0.3
v 0.3 0.5 -0.4
v 0.4 -0.8 0.2
v 0.4 -0.8 0.1
v 0.4 -0.8 -0.1
v 0.4 -0.8 -0.2
v 0.4 -0.4 0.2
v 0.4 -0.4 0.1
v 0.4 -0.3 -0.1
v 0.4 -0.3 -0.2
v 0.4 0 -0.2
v 0.4 0 -0.3
v 0.4 0.6 -0.2
v 0.4 0.6 -0.3
v 0.4 0.7 -0.2
v 0.4 0.7 -0.3
v -0.2 -0.8 0.4
v -0.2 -0.6 0.4
v -0.1 -0.8 0.4
v -0.1 -0.6 0.4
v 0.1 -0.8 0.4
v 0.1 -0.6 0.4
v 0.2 -0.8 0.4
v 0.2 -0.6 0.4
v -0.3 -0.8 0.3
v -0.3 -0.1 0.3
v -0.2 -0.8 0.3
v -0.2 -0.6 0.3
v -0.2 -0.2 0.3
v -0.1 -0.8 0.3
v -0.1 -0.6 0.3
v -0.1 -0.3 0.3
v -0.1 -0.2 0.3
v -0.1 -0.1 0.3
v 0 -0.4 0.3
v 0 -0.3 0.3
v 0.1 -0.8 0.3
v 0.1 -0.6 0.3
v 0.1 -0.4 0.3
v 0.1 -0.3 0.3
v 0.1 -0.2 0.3
v 0.1 -0.1 0.3
v 0.2 -0.8 0.3
v 0.2 -0.6 0.3
v 0.2 -0.4 0.3
v 0.2 -0.3 0.3
v 0.2 -0.2 0.3
v 0.3 -0.8 0.3
v 0.3 -0.1 0.3
v -0.4 -0.8 0.2
v -0.4 -0.4 0.2
v -0.3 -0.8 0.2
v -0.3 -0.4 0.2
v -0.3 -0.1 0.2
v -0.3 0 0.2
v -0.2 -0.1 0.2
v -0.2 0 0.2
v -0.1 -0.2 0.2
v -0.1 -0.1 0.2
v 0.1 -0.2 0.2
v 0.1 -0.1 0.2
v 0.2 -0.1 0.2
v 0.2 0 0.2
v 0.3 -0.8 0.2
v 0.3 -0.4 0.2
v 0.3 -0.1 0.2
v 0.3 0 0.2
v 0.4 -0.8 0.2
v 0.4 -0.4 0.2
v -0.3 0 0.1
v -0.3 0.1 0.1
v -0.2 -0.1 0.1
v -0.2 0 0.1
v -0.2 0.1 0.1
v 0.2 -0.1 0.1
v 0.2 0 0.1
v 0.2 0.1 0.1
v 0.3 0 0.1
v 0.3 0.1 0.1
v -0.3 0.1 0
v -0.3 0.2 0
v -0.2 0 0
v -0.2 0.1 0
v -0.2 0.2 0
v 0.2 0 0
v 0.2 0.1 0
v 0.2 0.2 0
v 0.3 0.1 0
v 0.3 0.2 0
v -0.4 -0.8 -0.1
v -0.4 -0.3 -0.1
v -0.3 -0.8 -0.1
v -0.3 -0.3 -0.1
v -0.3 0.2 -0.1
v -0.3 0.3 -0.1
v -0.2 0.1 -0.1
v -0.2 0.2 -0.1
v -0.1 0.2 -0.1
v -0.1 0.3 -0.1
v 0.1 0.2 -0.1
v 0.1 0.3 -0.1
v 0.2 0.1 -0.1
v 0.2 0.2 -0.1
v 0.3 -0.8 -0.1
v 0.3 -0.3 -0.1
v 0.3 0.2 -0.1
v 0.3 0.3 -0.1
v 0.4 -0.8 -0.1
v 0.4 -0.3 -0.1
v -0.1 0.2 -0.2
v -0.1 0.3 -0.2
v 0.1 0.2 -0.2
v 0.1 0.3 -0.2
v 0.3 0 -0.2
v 0.3 0.2 -0.2
v 0.3 0.3 -0.2
v 0.3 0.6 -0.2
v 0.3 0.7 -0.2
v 0.4 0 -0.2
v 0.4 0.6 -0.2
v 0.4 0.7 -0.2
v 0.2 0.3 -0.3
v 0.2 0.4 -0.3
v 0.2 0.5 -0.3
v 0.3 0.3 -0.3
v 0.3 0.4 -0.3
v 0.3 0.5 -0.3
v -0.4 -0.8 0.1
v -0.4 -0.4 0.1
v -0.3 -0.8 0.1
v -0.3 -0.4 0.1
v 0.3 -0.8 0.1
v 0.3 -0.4 0.1
v 0.4 -0.8 0.1
v 0.4 -0.4 0.1
v -0.4 -0.8 -0.2
v -0.4 -0.3 -0.2
v -0.3 -0.8 -0.2
v -0.3 -0.3 -0.2
v 0.3 -0.8 -0.2
v 0.3 -0.3 -0.2
v 0.4 -0.8 -0.2
v 0.4 -0.3 -0.2
v -0.3 -0.8 -0.3
v -0.3 0.3 -0.3
v -0.2 -0.8 -0.3
v -0.2 0.2 -0.3
v -0.1 -0.8 -0.3
v -0.1 0.2 -0.3
v 0.1 -0.8 -0.3
v 0.1 0.2 -0.3
v 0.2 -0.8 -0.3
v 0.2 0.1 -0.3
v 0.2 0.2 -0.3
v 0.2 0.3 -0.3
v 0.3 -0.8 -0.3
v 0.3 0 -0.3
v 0.3 0.1 -0.3
v 0.3 0.4 -0.3
v 0.3 0.5 -0.3
v 0.3 0.6 -0.3
v 0.3 0.7 -0.3
v 0.4 0 -0.3
v 0.4 0.6 -0.3
v 0.4 0.7 -0.3
v -0.2 -0.8 -0.4
v -0.2 0.2 -0.4
v -0.1 -0.8 -0.4
v -0.1 0.2 -0.4
v 0.1 -0.8 -0.4
v 0.1 0.2 -0.4
v 0.2 -0.8 -0.4
v 0.2 0.1 -0.4
v 0.2 0.2 -0.4
v 0.2 0.4 -0.4
v 0.2 0.5 -0.4
v 0.3 0.1 -0.4
v 0.3 0.4 -0.4
v 0.3 0.5 -0.4
v -0.2 -0.8 0.4
v -0.1 -0.8 0.4
v 0.1 -0.8 0.4
v 0.2 -0.8 0.4
v -0.3 -0.8 0.3
v -0.2 -0.8 0.3
v -0.1 -0.8 0.3
v 0.1 -0.8 0.3
v 0.2 -0.8 0.3
v 0.3 -0.8 0.3
v -0.4 -0.8 0.2
v -0.3 -0.8 0.2
v -0.2 -0.8 0.2
v 0.2 -0.8 0.2
v 0.3 -0.8 0.2
v 0.4 -0.8 0.2
v -0.4 -0.8 0.1
v -0.3 -0.8 0.1
v 0.3 -0.8 0.1
v 0.4 -0.8 0.1
v -0.4 -0.8 -0.1
v -0.3 -0.8 -0.1
v 0.3 -0.8 -0.1
v 0.4 -0.8 -0.1
v -0.4 -0.8 -0.2
v -0.3 -0.8 -0.2
v -0.2 -0.8 -0.2
v -0.1 -0.8 -0.2
v 0.1 -0.8 -0.2
v 0.2 -0.8 -0.2
v 0.3 -0.8 -0.2
v 0.4 -0.8 -0.2
v -0.3 -0.8 -0.3
v -0.2 -0.8 -0.3
v -0.1 -0.8 -0.3
v 0.1 -0.8 -0.3
v 0.2 -0.8 -0.3
v 0.3 -0.8 -0.3
v -0.2 -0.8 -0.4
v -0.1 -0.8 -0.4
v 0.1 -0.8 -0.4
v 0.2 -0.8 -0.4
v 0.3 0 -0.2
v 0.4 0 -0.2
v 0.3 0 -0.3
v 0.4 0 -0.3
v 0.2 0.1 -0.3
v 0.3 0.1 -0.3
v 0.2 0.1 -0.4
v 0.3 0.1 -0.4
v -0.2 -0.6 0.4
v -0.1 -0.6 0.4
v 0.1 -0.6 0.4
v 0.2 -0.6 0.4
v -0.2 -0.6 0.3
v -0.1 -0.6 0.3
v 0.1 -0.6 0.3
v 0.2 -0.6 0.3
v -0.4 -0.4 0.2
v -0.3 -0.4 0.2
v 0.3 -0.4 0.2
v 0.4 -0.4 0.2
v -0.4 -0.4 0.1
v -0.3 -0.4 0.1
v 0.3 -0.4 0.1
v 0.4 -0.4 0.1
v -0.4 -0.3 -0.1
v -0.3 -0.3 -0.1
v 0.3 -0.3 -0.1
v 0.4 -0.3 -0.1
v -0.4 -0.3 -0.2
v -0.3 -0.3 -0.2
v 0.3 -0.3 -0.2
v 0.4 -0.3 -0.2
v -0.1 -0.2 0.3
v 0.1 -0.2 0.3
v -0.1 -0.2 0.2
v 0.1 -0.2 0.2
v -0.3 -0.1 0.3
v -0.1 -0.1 0.3
v 0.1 -0.1 0.3
v 0.3 -0.1 0.3
v -0.3 -0.1 0.2
v -0.2 -0.1 0.2
v -0.1 -0.1 0.2
v 0.1 -0.1 0.2
v 0.2 -0.1 0.2
v 0.3 -0.1 0.2
v -0.2 -0.1 0.1
v 0.2 -0.1 0.1
v -0.3 0 0.2
v -0.2 0 0.2
v 0.2 0 0.2
v 0.3 0 0.2
v -0.3 0 0.1
v -0.2 0 0.1
v 0.2 0 0.1
v 0.3 0 0.1
v -0.2 0 0
v 0.2 0 0
v -0.3 0.1 0.1
v -0.2 0.1 0.1
v 0.2 0.1 0.1
v 0.3 0.1 0.1
v -0.3 0.1 0
v -0.2 0.1 0
v 0.2 0.1 0
v 0.3 0.1 0
v -0.2 0.1 -0.1
v 0.2 0.1 -0.1
v -0.3 0.2 0
v -0.2 0.2 0
v 0.2 0.2 0
v 0.3 0.2 0
v -0.3 0.2 -0.1
v -0.2 0.2 -0.1
v -0.1 0.2 -0.1
v 0.1 0.2 -0.1
v 0.2 0.2 -0.1
v 0.3 0.2 -0.1
v -0.1 0.2 -0.2
v 0.1 0.2 -0.2
v -0.2 0.2 -0.3
v -0.1 0.2 -0.3
v 0.1 0.2 -0.3
v 0.2 0.2 -0.3
v -0.2 0.2 -0.4
v -0.1 0.2 -0.4
v 0.1 0.2 -0.4
v 0.2 0.2 -0.4
v -0.3 0.3 -0.1
v -0.1 0.3 -0.1
v 0.1 0.3 -0.1
v 0.3 0.3 -0.1
v -0.1 0.3 -0.2
v 0.1 0.3 -0.2
v 0.3 0.3 -0.2
v -0.3 0.3 -0.3
v 0.2 0.3 -0.3
v 0.3 0.3 -0.3
v 0.2 0.5 -0.3
v 0.3 0.5 -0.3
v 0.2 0.5 -0.4
v 0.3 0.5 -0.4
v 0.3 0.7 -0.2
v 0.4 0.7 -0.2
v 0.3 0.7 -0.3
v 0.4 0.7 -0.3

# faces
f 5/4/1 2/4/1 1/4/1
f 6/4/1 2/4/1 5/4/1
f 7/4/1 4/4/1 3/4/1
f 8/4/1 4/4/1 7/4/1
f 15/4/1 10/4/1 9/4/1
f 16/5/1 12/5/1 11/5/1
f 17/5/1 12/5/1 16/5/1
f 17/5/1 16/5/1 15/5/1
f 18/4/1 14/4/1 13/4/1
f 19/4/1 15/4/1 9/4/1
f 20/5/1 17/5/1 15/5/1
f 20/4/1 15/4/1 19/4/1
f 20/5/1 18/5/1 17/5/1
f 21/5/1 18/5/1 20/5/1
f 22/4/1 21/4/1 20/4/1
f 23/5/1 18/5/1 21/5/1
f 23/4/1 21/4/1 22/4/1
f 24/5/1 18/5/1 23/5/1
f 25/4/1 24/4/1 23/4/1
f 26/5/1 18/5/1 24/5/1
f 26/4/1 24/4/1 25/4/1
f 27/5/1 18/5/1 26/5/1
f 28/4/1 27/4/1 26/4/1
f 29/5/1 18/5/1 27/5/1
f 29/4/1 27/4/1 28/4/1
f 30/4/1 14/4/1 18/4/1
f 30/5/1 18/5/1 29/5/1
f 31/4/1 30/4/1 29/4/1
f 32/4/1 14/4/1 30/4/1
f 32/4/1 30/4/1 31/4/1
f 37/4/1 34/4/1 33/4/1
f 38/4/1 34/4/1 37/4/1
f 39/4/1 36/4/1 35/4/1
f 40/4/1 36/4/1 39/4/1
f 45/4/1 42/4/1 41/4/1
f 46/4/1 42/4/1 45/4/1
f 49/4/1 48/4/1 47/4/1
f 50/4/1 48/4/1 49/4/1
f 53/4/1 44/4/1 43/4/1
f 54/4/1 44/4/1 53/4/1
f 55/4/1 52/4/1 51/4/1
f 56/4/1 52/4/1 55/4/1
f 59/4/1 58/4/1 57/4/1
f 60/4/1 58/4/1 59/4/1
f 62/4/1 61/4/1 60/4/1
f 63/4/1 61/4/1 62/4/1
f 65/4/1 64/4/1 63/4/1
f 66/4/1 64/4/1 65/4/1
f 69/4/1 68/4/1 67/4/1
f 70/4/1 68/4/1 69/4/1
f 71/4/1 68/4/1 70/4/1
f 72/1/1 71/1/1 70/1/1
f 73/1/1 71/1/1 72/1/1
f 76/4/1 75/4/1 74/4/1
f 77/4/1 76/4/1 74/4/1
f 78/4/1 77/4/1 74/4/1
f 79/4/1 77/4/1 78/4/1
f 80/1/1 79/1/1 78/1/1
f 81/1/1 79/1/1 80/1/1
f 82/4/2 83/4/2 84/4/2
f 84/4/2 83/4/2 85/4/2
f 85/4/2 86/4/2 87/4/2
f 87/4/2 86/4/2 88/4/2
f 88/4/2 89/4/2 90/4/2
f 90/4/2 89/4/2 91/4/2
f 92/4/2 93/4/2 96/4/2
f 96/4/2 93/4/2 97/4/2
f 98/4/2 99/4/2 100/4/2
f 100/4/2 99/4/2 101/4/2
f 94/4/2 95/4/2 104/4/2
f 104/4/2 95/4/2 105/4/2
f 102/4/2 103/4/2 106/4/2
f 106/4/2 103/4/2 107/4/2
f 108/4/2 109/4/2 112/4/2
f 112/4/2 109/4/2 113/4/2
f 110/4/2 111/4/2 114/4/2
f 114/4/2 111/4/2 115/4/2
f 116/4/2 117/4/2 122/4/2
f 118/5/2 119/5/2 123/5/2
f 123/5/2 119/5/2 124/5/2
f 122/5/2 123/5/2 124/5/2
f 120/4/2 121/4/2 125/4/2
f 116/4/2 122/4/2 126/4/2
f 122/5/2 124/5/2 127/5/2
f 126/4/2 122/4/2 127/4/2
f 124/5/2 125/5/2 127/5/2
f 127/5/2 125/5/2 128/5/2
f 127/4/2 128/4/2 129/4/2
f 128/5/2 125/5/2 130/5/2
f 129/4/2 128/4/2 130/4/2
f 130/5/2 125/5/2 131/5/2
f 125/4/2 121/4/2 132/4/2
f 131/5/2 125/5/2 132/5/2
f 132/4/2 121/4/2 133/4/2
f 130/4/2 131/4/2 134/4/2
f 131/5/2 132/5/2 135/5/2
f 134/4/2 131/4/2 135/4/2
f 135/5/2 132/5/2 136/5/2
f 135/4/2 136/4/2 139/4/2
f 136/5/2 132/5/2 140/5/2
f 139/4/2 136/4/2 140/4/2
f 140/5/2 132/5/2 141/5/2
f 140/4/2 141/4/2 142/4/2
f 142/4/2 141/4/2 143/4/2
f 137/4/2 138/4/2 144/4/2
f 144/4/2 138/4/2 145/4/2
f 144/1/2 145/1/2 146/1/2
f 146/1/2 145/1/2 147/1/2
f 148/4/2 149/4/2 152/4/2
f 152/4/2 149/4/2 153/4/2
f 150/4/2 151/4/2 154/4/2
f 154/4/2 151/4/2 155/4/2
f 156/4/2 157/4/2 158/4/2
f 158/4/2 157/4/2 159/4/2
f 158/1/2 159/1/2 160/1/2
f 160/1/2 159/1/2 161/1/2
f 164/4/3 163/4/3 162/4/3
f 165/4/3 163/4/3 164/4/3
f 168/4/3 167/4/3 166/4/3
f 169/4/3 167/4/3 168/4/3
f 172/4/3 171/4/3 170/4/3
f 173/4/3 171/4/3 172/4/3
f 174/4/3 171/4/3 173/4/3
f 176/5/3 174/5/3 173/5/3
f 177/5/3 174/5/3 176/5/3
f 178/4/3 171/4/3 174/4/3
f 178/5/3 174/5/3 177/5/3
f 179/4/3 171/4/3 178/4/3
f 180/5/3 177/5/3 176/5/3
f 180/5/3 176/5/3 175/5/3
f 181/4/3 178/4/3 177/4/3
f 181/5/3 177/5/3 180/5/3
f 182/5/3 180/5/3 175/5/3
f 183/5/3 180/5/3 182/5/3
f 184/2/3 181/2/3 180/2/3
f 184/5/3 180/5/3 183/5/3
f 185/4/3 178/4/3 181/4/3
f 185/2/3 181/2/3 184/2/3
f 186/4/3 178/4/3 185/4/3
f 189/5/3 184/5/3 183/5/3
f 190/3/3 185/3/3 184/3/3
f 190/5/3 184/5/3 189/5/3
f 191/5/3 186/5/3 185/5/3
f 191/3/3 185/3/3 190/3/3
f 192/4/3 187/4/3 186/4/3
f 192/5/3 186/5/3 191/5/3
f 193/4/3 190/4/3 189/4/3
f 193/4/3 191/4/3 190/4/3
f 193/4/3 192/4/3 191/4/3
f 193/4/3 189/4/3 188/4/3
f 194/4/3 187/4/3 192/4/3
f 194/4/3 192/4/3 193/4/3
f 197/4/3 196/4/3 195/4/3
f 198/4/3 196/4/3 197/4/3
f 201/4/3 200/4/3 199/4/3
f 202/4/3 200/4/3 201/4/3
f 205/1/3 204/1/3 203/1/3
f 206/1/3 204/1/3 205/1/3
f 211/4/3 208/4/3 207/4/3
f 212/4/3 208/4/3 211/4/3
f 213/4/3 210/4/3 209/4/3
f 214/4/3 210/4/3 213/4/3
f 218/4/3 216/4/3 215/4/3
f 219/4/3 216/4/3 218/4/3
f 220/1/3 218/1/3 217/1/3
f 221/1/3 218/1/3 220/1/3
f 223/4/3 222/4/3 221/4/3
f 224/4/3 222/4/3 223/4/3
f 228/4/3 226/4/3 225/4/3
f 229/4/3 226/4/3 228/4/3
f 230/1/3 228/1/3 227/1/3
f 231/1/3 228/1/3 230/1/3
f 233/4/3 232/4/3 231/4/3
f 234/4/3 232/4/3 233/4/3
f 237/4/3 236/4/3 235/4/3
f 238/4/3 236/4/3 237/4/3
f 242/4/3 240/4/3 239/4/3
f 243/4/3 240/4/3 242/4/3
f 243/1/3 242/1/3 241/1/3
f 244/4/3 240/4/3 243/4/3
f 245/1/3 243/1/3 241/1/3
f 247/1/3 245/1/3 241/1/3
f 248/4/3 246/4/3 245/4/3
f 248/1/3 245/1/3 247/1/3
f 251/4/3 246/4/3 248/4/3
f 252/4/3 246/4/3 251/4/3
f 253/4/3 250/4/3 249/4/3
f 254/4/3 250/4/3 253/4/3
f 257/4/3 256/4/3 255/4/3
f 258/4/3 256/4/3 257/4/3
f 264/4/3 261/4/3 260/4/3
f 264/4/3 260/4/3 259/4/3
f 264/4/3 262/4/3 261/4/3
f 265/1/3 263/1/3 262/1/3
f 265/4/3 262/4/3 264/4/3
f 266/1/3 263/1/3 265/1/3
f 270/4/3 268/4/3 267/4/3
f 271/1/3 269/1/3 268/1/3
f 271/4/3 268/4/3 270/4/3
f 272/1/3 269/1/3 271/1/3
f 273/4/4 274/4/4 275/4/4
f 275/4/4 274/4/4 276/4/4
f 277/4/4 278/4/4 279/4/4
f 279/4/4 278/4/4 280/4/4
f 281/4/4 282/4/4 283/4/4
f 283/4/4 282/4/4 284/4/4
f 285/4/4 286/4/4 287/4/4
f 287/4/4 286/4/4 288/4/4
f 289/4/4 290/4/4 291/4/4
f 291/4/4 290/4/4 292/4/4
f 292/4/4 290/4/4 294/4/4
f 293/5/4 294/5/4 295/5/4
f 294/4/4 290/4/4 296/4/4
f 295/5/4 294/5/4 296/5/4
f 296/4/4 290/4/4 299/4/4
f 299/4/4 290/4/4 300/4/4
f 297/4/4 298/4/4 301/4/4
f 301/4/4 298/4/4 302/4/4
f 302/4/4 298/4/4 303/4/4
f 302/4/4 303/4/4 308/4/4
f 305/4/4 306/4/4 308/4/4
f 304/4/4 305/4/4 308/4/4
f 303/4/4 304/4/4 308/4/4
f 306/1/4 307/1/4 309/1/4
f 308/4/4 306/4/4 309/4/4
f 309/1/4 307/1/4 310/1/4
f 311/4/4 312/4/4 313/4/4
f 313/4/4 312/4/4 314/4/4
f 315/4/4 316/4/4 317/4/4
f 317/4/4 316/4/4 318/4/4
f 318/4/4 316/4/4 319/4/4
f 318/4/4 319/4/4 322/4/4
f 319/4/4 320/4/4 322/4/4
f 320/1/4 321/1/4 323/1/4
f 322/4/4 320/4/4 323/4/4
f 323/1/4 321/1/4 324/1/4
f 330/4/5 326/4/5 325/4/5
f 331/4/5 326/4/5 330/4/5
f 332/4/5 328/4/5 327/4/5
f 333/4/5 328/4/5 332/4/5
f 336/4/5 330/4/5 329/4/5
f 337/5/5 331/5/5 330/5/5
f 337/5/5 332/5/5 331/5/5
f 337/4/5 330/4/5 336/4/5
f 337/5/5 333/5/5 332/5/5
f 338/4/5 334/4/5 333/4/5
f 338/5/5 333/5/5 337/5/5
f 339/4/5 334/4/5 338/4/5
f 341/4/5 336/4/5 335/4/5
f 342/5/5 337/5/5 336/5/5
f 342/4/5 336/4/5 341/4/5
f 343/4/5 340/4/5 339/4/5
f 343/5/5 339/5/5 338/5/5
f 344/4/5 340/4/5 343/4/5
f 346/5/5 337/5/5 342/5/5
f 347/5/5 343/5/5 338/5/5
f 349/4/5 346/4/5 345/4/5
f 350/5/5 337/5/5 346/5/5
f 350/4/5 346/4/5 349/4/5
f 351/4/5 338/4/5 337/4/5
f 351/5/5 337/5/5 350/5/5
f 352/4/5 338/4/5 351/4/5
f 353/4/5 338/4/5 352/4/5
f 354/5/5 347/5/5 338/5/5
f 354/4/5 338/4/5 353/4/5
f 355/4/5 348/4/5 347/4/5
f 355/5/5 347/5/5 354/5/5
f 356/4/5 348/4/5 355/4/5
f 357/4/5 351/4/5 350/4/5
f 357/4/5 352/4/5 351/4/5
f 358/4/5 352/4/5 357/4/5
f 359/5/5 353/5/5 352/5/5
f 359/4/5 352/4/5 358/4/5
f 360/4/5 354/4/5 353/4/5
f 360/5/5 353/5/5 359/5/5
f 360/4/5 355/4/5 354/4/5
f 361/4/5 355/4/5 360/4/5
f 362/4/5 355/4/5 361/4/5
f 363/4/5 359/4/5 358/4/5
f 364/4/5 359/4/5 363/4/5
f 365/4/5 361/4/5 360/4/5
f 366/4/5 361/4/5 365/4/5
f 369/4/5 368/4/5 367/4/5
f 370/4/5 368/4/5 369/4/5
f 373/4/5 372/4/5 371/4/5
f 374/4/5 372/4/5 373/4/5
f 375/4/6 376/4/6 379/4/6
f 379/4/6 376/4/6 380/4/6
f 377/4/6 378/4/6 381/4/6
f 381/4/6 378/4/6 382/4/6
f 383/4/6 384/4/6 387/4/6
f 387/4/6 384/4/6 388/4/6
f 385/4/6 386/4/6 389/4/6
f 389/4/6 386/4/6 390/4/6
f 391/4/6 392/4/6 395/4/6
f 395/4/6 392/4/6 396/4/6
f 393/4/6 394/4/6 397/4/6
f 397/4/6 394/4/6 398/4/6
f 399/4/6 400/4/6 401/4/6
f 401/4/6 400/4/6 402/4/6
f 403/4/6 404/4/6 407/4/6
f 407/4/6 404/4/6 408/4/6
f 408/4/6 404/4/6 409/4/6
f 405/4/6 406/4/6 410/4/6
f 410/4/6 406/4/6 411/4/6
f 411/4/6 406/4/6 412/4/6
f 408/1/6 409/1/6 413/1/6
f 410/1/6 411/1/6 413/1/6
f 409/1/6 410/1/6 413/1/6
f 413/1/6 411/1/6 414/1/6
f 415/4/6 416/4/6 419/4/6
f 419/4/6 416/4/6 420/4/6
f 417/4/6 418/4/6 421/4/6
f 421/4/6 418/4/6 422/4/6
f 420/1/6 421/1/6 423/1/6
f 423/1/6 421/1/6 424/1/6
f 425/4/6 426/4/6 429/4/6
f 429/4/6 426/4/6 430/4/6
f 427/4/6 428/4/6 431/4/6
f 431/4/6 428/4/6 432/4/6
f 430/1/6 431/1/6 433/1/6
f 433/1/6 431/1/6 434/1/6
f 435/4/6 436/4/6 439/4/6
f 439/4/6 436/4/6 440/4/6
f 437/4/6 438/4/6 443/4/6
f 443/4/6 438/4/6 444/4/6
f 441/1/6 442/1/6 445/1/6
f 445/1/6 442/1/6 446/1/6
f 447/4/6 448/4/6 451/4/6
f 451/4/6 448/4/6 452/4/6
f 449/4/6 450/4/6 453/4/6
f 453/4/6 450/4/6 454/4/6
f 455/4/6 456/4/6 459/4/6
f 457/4/6 458/4/6 460/4/6
f 460/4/6 458/4/6 461/4/6
f 455/4/6 459/4/6 462/4/6
f 459/4/6 460/4/6 462/4/6
f 460/4/6 461/4/6 462/4/6
f 462/4/6 461/4/6 463/4/6
f 463/4/6 461/4/6 464/4/6
f 465/1/6 466/1/6 467/1/6
f 467/1/6 466/1/6 468/1/6
f 469/1/6 470/1/6 471/1/6
f 471/1/6 470/1/6 472/1/6
