# MagicaVoxel @ Ephtracy

# group
o 

# material
mtllib spaceshuttlelane_v1.mtl
usemtl palette

# normals
vn -1 0 0
vn 1 0 0
vn 0 0 1
vn 0 0 -1
vn 0 -1 0
vn 0 1 0

# texcoords
vt 0.0644531 0.5
vt 0.982422 0.5
vt 0.986328 0.5
vt 0.990234 0.5
vt 0.994141 0.5

# verts
v -2 0 1.5
v -2 0 1.4
v -2 0 1.3
v -2 0 1.1
v -2 0 1
v -2 0 0.9
v -2 0 0.7
v -2 0 0.6
v -2 0 -0.3
v -2 0 -0.4
v -2 0 -0.6
v -2 0 -0.7
v -2 0 -0.8
v -2 0 -1
v -2 0 -1.1
v -2 0 -1.2
v -2 0.1 1.5
v -2 0.1 1.4
v -2 0.1 1.3
v -2 0.1 1.1
v -2 0.1 1
v -2 0.1 0.9
v -2 0.1 0.7
v -2 0.1 0.6
v -2 0.1 -0.3
v -2 0.1 -0.4
v -2 0.1 -0.6
v -2 0.1 -0.7
v -2 0.1 -0.8
v -2 0.1 -1
v -2 0.1 -1.1
v -2 0.1 -1.2
v 2 0 1.5
v 2 0 1.4
v 2 0 1.3
v 2 0 1.1
v 2 0 0.2
v 2 0 0.1
v 2 0 -0.8
v 2 0 -1
v 2 0 -1.1
v 2 0 -1.2
v 2 0.1 1.5
v 2 0.1 1.4
v 2 0.1 1.3
v 2 0.1 1.1
v 2 0.1 0.2
v 2 0.1 0.1
v 2 0.1 -0.8
v 2 0.1 -1
v 2 0.1 -1.1
v 2 0.1 -1.2
v -2 0 1.5
v -2 0.1 1.5
v 2 0 1.5
v 2 0.1 1.5
v -2 0 -1.2
v -2 0.1 -1.2
v 2 0 -1.2
v 2 0.1 -1.2
v -2 0 1.5
v 2 0 1.5
v -2 0 1.4
v 2 0 1.4
v -2 0 1.3
v 2 0 1.3
v -2 0 1.1
v 2 0 1.1
v -2 0 1
v -1.6 0 1
v -1 0 1
v -0.5 0 1
v 0.1 0 1
v 0.6 0 1
v 1.2 0 1
v 1.7 0 1
v -2 0 0.9
v -1.6 0 0.9
v -1 0 0.9
v -0.5 0 0.9
v 0.1 0 0.9
v 0.6 0 0.9
v 1.2 0 0.9
v 1.7 0 0.9
v -2 0 0.7
v -1.7 0 0.7
v -1 0 0.7
v -0.6 0 0.7
v 0.1 0 0.7
v 0.5 0 0.7
v 1.2 0 0.7
v 1.6 0 0.7
v -2 0 0.6
v -1.7 0 0.6
v -1 0 0.6
v -0.6 0 0.6
v 0.1 0 0.6
v 0.5 0 0.6
v 1.2 0 0.6
v 1.6 0 0.6
v -1.9 0 0.2
v -1.6 0 0.2
v -1.3 0 0.2
v -1 0 0.2
v -0.7 0 0.2
v -0.4 0 0.2
v -0.0999999 0 0.2
v 0.2 0 0.2
v 0.5 0 0.2
v 0.8 0 0.2
v 1.1 0 0.2
v 1.4 0 0.2
v 1.7 0 0.2
v 2 0 0.2
v -1.9 0 0.1
v -1.6 0 0.1
v -1.3 0 0.1
v -1 0 0.1
v -0.7 0 0.1
v -0.4 0 0.1
v -0.0999999 0 0.1
v 0.2 0 0.1
v 0.5 0 0.1
v 0.8 0 0.1
v 1.1 0 0.1
v 1.4 0 0.1
v 1.7 0 0.1
v 2 0 0.1
v -2 0 -0.3
v -1.7 0 -0.3
v -1 0 -0.3
v -0.6 0 -0.3
v 0.1 0 -0.3
v 0.5 0 -0.3
v 1.2 0 -0.3
v 1.6 0 -0.3
v -2 0 -0.4
v -1.7 0 -0.4
v -1 0 -0.4
v -0.6 0 -0.4
v 0.1 0 -0.4
v 0.5 0 -0.4
v 1.2 0 -0.4
v 1.6 0 -0.4
v -2 0 -0.6
v -1.6 0 -0.6
v -1 0 -0.6
v -0.5 0 -0.6
v 0.1 0 -0.6
v 0.6 0 -0.6
v 1.2 0 -0.6
v 1.7 0 -0.6
v -2 0 -0.7
v -1.6 0 -0.7
v -1 0 -0.7
v -0.5 0 -0.7
v 0.1 0 -0.7
v 0.6 0 -0.7
v 1.2 0 -0.7
v 1.7 0 -0.7
v -2 0 -0.8
v 2 0 -0.8
v -2 0 -1
v 2 0 -1
v -2 0 -1.1
v 2 0 -1.1
v -2 0 -1.2
v 2 0 -1.2
v -2 0.1 1.5
v 2 0.1 1.5
v -2 0.1 1.4
v 2 0.1 1.4
v -2 0.1 1.3
v 2 0.1 1.3
v -2 0.1 1.1
v 2 0.1 1.1
v -2 0.1 1
v -1.6 0.1 1
v -1 0.1 1
v -0.5 0.1 1
v 0.1 0.1 1
v 0.6 0.1 1
v 1.2 0.1 1
v 1.7 0.1 1
v -2 0.1 0.9
v -1.6 0.1 0.9
v -1 0.1 0.9
v -0.5 0.1 0.9
v 0.1 0.1 0.9
v 0.6 0.1 0.9
v 1.2 0.1 0.9
v 1.7 0.1 0.9
v -2 0.1 0.7
v -1.7 0.1 0.7
v -1 0.1 0.7
v -0.6 0.1 0.7
v 0.1 0.1 0.7
v 0.5 0.1 0.7
v 1.2 0.1 0.7
v 1.6 0.1 0.7
v -2 0.1 0.6
v -1.7 0.1 0.6
v -1 0.1 0.6
v -0.6 0.1 0.6
v 0.1 0.1 0.6
v 0.5 0.1 0.6
v 1.2 0.1 0.6
v 1.6 0.1 0.6
v -1.9 0.1 0.2
v -1.6 0.1 0.2
v -1.3 0.1 0.2
v -1 0.1 0.2
v -0.7 0.1 0.2
v -0.4 0.1 0.2
v -0.0999999 0.1 0.2
v 0.2 0.1 0.2
v 0.5 0.1 0.2
v 0.8 0.1 0.2
v 1.1 0.1 0.2
v 1.4 0.1 0.2
v 1.7 0.1 0.2
v 2 0.1 0.2
v -1.9 0.1 0.1
v -1.6 0.1 0.1
v -1.3 0.1 0.1
v -1 0.1 0.1
v -0.7 0.1 0.1
v -0.4 0.1 0.1
v -0.0999999 0.1 0.1
v 0.2 0.1 0.1
v 0.5 0.1 0.1
v 0.8 0.1 0.1
v 1.1 0.1 0.1
v 1.4 0.1 0.1
v 1.7 0.1 0.1
v 2 0.1 0.1
v -2 0.1 -0.3
v -1.7 0.1 -0.3
v -1 0.1 -0.3
v -0.6 0.1 -0.3
v 0.1 0.1 -0.3
v 0.5 0.1 -0.3
v 1.2 0.1 -0.3
v 1.6 0.1 -0.3
v -2 0.1 -0.4
v -1.7 0.1 -0.4
v -1 0.1 -0.4
v -0.6 0.1 -0.4
v 0.1 0.1 -0.4
v 0.5 0.1 -0.4
v 1.2 0.1 -0.4
v 1.6 0.1 -0.4
v -2 0.1 -0.6
v -1.6 0.1 -0.6
v -1 0.1 -0.6
v -0.5 0.1 -0.6
v 0.1 0.1 -0.6
v 0.6 0.1 -0.6
v 1.2 0.1 -0.6
v 1.7 0.1 -0.6
v -2 0.1 -0.7
v -1.6 0.1 -0.7
v -1 0.1 -0.7
v -0.5 0.1 -0.7
v 0.1 0.1 -0.7
v 0.6 0.1 -0.7
v 1.2 0.1 -0.7
v 1.7 0.1 -0.7
v -2 0.1 -0.8
v 2 0.1 -0.8
v -2 0.1 -1
v 2 0.1 -1
v -2 0.1 -1.1
v 2 0.1 -1.1
v -2 0.1 -1.2
v 2 0.1 -1.2

# faces
f 17/2/1 2/2/1 1/2/1
f 18/3/1 3/3/1 2/3/1
f 18/2/1 2/2/1 17/2/1
f 19/4/1 4/4/1 3/4/1
f 19/3/1 3/3/1 18/3/1
f 20/5/1 5/5/1 4/5/1
f 20/4/1 4/4/1 19/4/1
f 21/3/1 6/3/1 5/3/1
f 21/5/1 5/5/1 20/5/1
f 22/5/1 7/5/1 6/5/1
f 22/3/1 6/3/1 21/3/1
f 23/3/1 8/3/1 7/3/1
f 23/5/1 7/5/1 22/5/1
f 24/5/1 9/5/1 8/5/1
f 24/3/1 8/3/1 23/3/1
f 25/2/1 10/2/1 9/2/1
f 25/5/1 9/5/1 24/5/1
f 26/5/1 11/5/1 10/5/1
f 26/2/1 10/2/1 25/2/1
f 27/2/1 12/2/1 11/2/1
f 27/5/1 11/5/1 26/5/1
f 28/5/1 13/5/1 12/5/1
f 28/2/1 12/2/1 27/2/1
f 29/4/1 14/4/1 13/4/1
f 29/5/1 13/5/1 28/5/1
f 30/3/1 15/3/1 14/3/1
f 30/4/1 14/4/1 29/4/1
f 31/2/1 16/2/1 15/2/1
f 31/3/1 15/3/1 30/3/1
f 32/2/1 16/2/1 31/2/1
f 33/2/2 34/2/2 43/2/2
f 34/3/2 35/3/2 44/3/2
f 43/2/2 34/2/2 44/2/2
f 35/4/2 36/4/2 45/4/2
f 44/3/2 35/3/2 45/3/2
f 36/5/2 37/5/2 46/5/2
f 45/4/2 36/4/2 46/4/2
f 37/1/2 38/1/2 47/1/2
f 46/5/2 37/5/2 47/5/2
f 38/5/2 39/5/2 48/5/2
f 47/1/2 38/1/2 48/1/2
f 39/4/2 40/4/2 49/4/2
f 48/5/2 39/5/2 49/5/2
f 40/3/2 41/3/2 50/3/2
f 49/4/2 40/4/2 50/4/2
f 41/2/2 42/2/2 51/2/2
f 50/3/2 41/3/2 51/3/2
f 51/2/2 42/2/2 52/2/2
f 55/2/3 54/2/3 53/2/3
f 56/2/3 54/2/3 55/2/3
f 57/2/4 58/2/4 59/2/4
f 59/2/4 58/2/4 60/2/4
f 63/2/5 62/2/5 61/2/5
f 64/2/5 62/2/5 63/2/5
f 65/3/5 64/3/5 63/3/5
f 66/3/5 64/3/5 65/3/5
f 67/4/5 66/4/5 65/4/5
f 68/4/5 66/4/5 67/4/5
f 69/5/5 68/5/5 67/5/5
f 70/5/5 68/5/5 69/5/5
f 71/5/5 68/5/5 70/5/5
f 72/5/5 68/5/5 71/5/5
f 73/5/5 68/5/5 72/5/5
f 74/5/5 68/5/5 73/5/5
f 75/5/5 68/5/5 74/5/5
f 76/5/5 68/5/5 75/5/5
f 77/3/5 70/3/5 69/3/5
f 78/5/5 71/5/5 70/5/5
f 78/3/5 70/3/5 77/3/5
f 79/3/5 72/3/5 71/3/5
f 79/5/5 71/5/5 78/5/5
f 80/5/5 73/5/5 72/5/5
f 80/3/5 72/3/5 79/3/5
f 81/3/5 74/3/5 73/3/5
f 81/5/5 73/5/5 80/5/5
f 82/5/5 75/5/5 74/5/5
f 82/3/5 74/3/5 81/3/5
f 83/3/5 76/3/5 75/3/5
f 83/5/5 75/5/5 82/5/5
f 84/5/5 68/5/5 76/5/5
f 84/3/5 76/3/5 83/3/5
f 85/5/5 83/5/5 82/5/5
f 85/5/5 78/5/5 77/5/5
f 85/5/5 84/5/5 83/5/5
f 85/5/5 82/5/5 81/5/5
f 85/5/5 81/5/5 80/5/5
f 85/5/5 80/5/5 79/5/5
f 85/5/5 79/5/5 78/5/5
f 86/5/5 84/5/5 85/5/5
f 87/5/5 84/5/5 86/5/5
f 88/5/5 84/5/5 87/5/5
f 89/5/5 84/5/5 88/5/5
f 90/5/5 84/5/5 89/5/5
f 91/5/5 84/5/5 90/5/5
f 92/5/5 84/5/5 91/5/5
f 93/3/5 86/3/5 85/3/5
f 94/5/5 87/5/5 86/5/5
f 94/3/5 86/3/5 93/3/5
f 95/3/5 88/3/5 87/3/5
f 95/5/5 87/5/5 94/5/5
f 96/5/5 89/5/5 88/5/5
f 96/3/5 88/3/5 95/3/5
f 97/3/5 90/3/5 89/3/5
f 97/5/5 89/5/5 96/5/5
f 98/5/5 91/5/5 90/5/5
f 98/3/5 90/3/5 97/3/5
f 99/3/5 92/3/5 91/3/5
f 99/5/5 91/5/5 98/5/5
f 100/5/5 84/5/5 92/5/5
f 100/3/5 92/3/5 99/3/5
f 101/5/5 99/5/5 98/5/5
f 101/5/5 94/5/5 93/5/5
f 101/5/5 100/5/5 99/5/5
f 101/5/5 98/5/5 97/5/5
f 101/5/5 97/5/5 96/5/5
f 101/5/5 96/5/5 95/5/5
f 101/5/5 95/5/5 94/5/5
f 102/5/5 100/5/5 101/5/5
f 103/5/5 100/5/5 102/5/5
f 104/5/5 100/5/5 103/5/5
f 105/5/5 100/5/5 104/5/5
f 106/5/5 100/5/5 105/5/5
f 107/5/5 100/5/5 106/5/5
f 108/5/5 100/5/5 107/5/5
f 109/5/5 100/5/5 108/5/5
f 110/5/5 100/5/5 109/5/5
f 111/5/5 100/5/5 110/5/5
f 112/5/5 100/5/5 111/5/5
f 113/5/5 68/5/5 84/5/5
f 113/5/5 100/5/5 112/5/5
f 113/5/5 84/5/5 100/5/5
f 114/5/5 68/5/5 113/5/5
f 115/5/5 101/5/5 93/5/5
f 115/1/5 102/1/5 101/1/5
f 116/5/5 103/5/5 102/5/5
f 116/1/5 102/1/5 115/1/5
f 117/1/5 104/1/5 103/1/5
f 117/5/5 103/5/5 116/5/5
f 118/5/5 105/5/5 104/5/5
f 118/1/5 104/1/5 117/1/5
f 119/1/5 106/1/5 105/1/5
f 119/5/5 105/5/5 118/5/5
f 120/5/5 107/5/5 106/5/5
f 120/1/5 106/1/5 119/1/5
f 121/1/5 108/1/5 107/1/5
f 121/5/5 107/5/5 120/5/5
f 122/5/5 109/5/5 108/5/5
f 122/1/5 108/1/5 121/1/5
f 123/1/5 110/1/5 109/1/5
f 123/5/5 109/5/5 122/5/5
f 124/5/5 111/5/5 110/5/5
f 124/1/5 110/1/5 123/1/5
f 125/1/5 112/1/5 111/1/5
f 125/5/5 111/5/5 124/5/5
f 126/5/5 113/5/5 112/5/5
f 126/1/5 112/1/5 125/1/5
f 127/1/5 114/1/5 113/1/5
f 127/5/5 113/5/5 126/5/5
f 128/1/5 114/1/5 127/1/5
f 129/5/5 124/5/5 123/5/5
f 129/5/5 123/5/5 122/5/5
f 129/5/5 128/5/5 127/5/5
f 129/5/5 127/5/5 126/5/5
f 129/5/5 125/5/5 124/5/5
f 129/5/5 122/5/5 121/5/5
f 129/5/5 121/5/5 120/5/5
f 129/5/5 120/5/5 119/5/5
f 129/5/5 119/5/5 118/5/5
f 129/5/5 118/5/5 117/5/5
f 129/5/5 117/5/5 116/5/5
f 129/5/5 116/5/5 115/5/5
f 129/5/5 115/5/5 93/5/5
f 129/5/5 126/5/5 125/5/5
f 130/5/5 128/5/5 129/5/5
f 131/5/5 128/5/5 130/5/5
f 132/5/5 128/5/5 131/5/5
f 133/5/5 128/5/5 132/5/5
f 134/5/5 128/5/5 133/5/5
f 135/5/5 128/5/5 134/5/5
f 136/5/5 128/5/5 135/5/5
f 137/2/5 130/2/5 129/2/5
f 138/5/5 131/5/5 130/5/5
f 138/2/5 130/2/5 137/2/5
f 139/2/5 132/2/5 131/2/5
f 139/5/5 131/5/5 138/5/5
f 140/5/5 133/5/5 132/5/5
f 140/2/5 132/2/5 139/2/5
f 141/2/5 134/2/5 133/2/5
f 141/5/5 133/5/5 140/5/5
f 142/5/5 135/5/5 134/5/5
f 142/2/5 134/2/5 141/2/5
f 143/3/5 136/3/5 135/3/5
f 143/5/5 135/5/5 142/5/5
f 144/5/5 128/5/5 136/5/5
f 144/3/5 136/3/5 143/3/5
f 145/5/5 143/5/5 142/5/5
f 145/5/5 138/5/5 137/5/5
f 145/5/5 144/5/5 143/5/5
f 145/5/5 142/5/5 141/5/5
f 145/5/5 141/5/5 140/5/5
f 145/5/5 140/5/5 139/5/5
f 145/5/5 139/5/5 138/5/5
f 146/5/5 144/5/5 145/5/5
f 147/5/5 144/5/5 146/5/5
f 148/5/5 144/5/5 147/5/5
f 149/5/5 144/5/5 148/5/5
f 150/5/5 144/5/5 149/5/5
f 151/5/5 144/5/5 150/5/5
f 152/5/5 128/5/5 144/5/5
f 152/5/5 144/5/5 151/5/5
f 153/2/5 146/2/5 145/2/5
f 154/5/5 147/5/5 146/5/5
f 154/2/5 146/2/5 153/2/5
f 155/2/5 148/2/5 147/2/5
f 155/5/5 147/5/5 154/5/5
f 156/5/5 149/5/5 148/5/5
f 156/2/5 148/2/5 155/2/5
f 157/2/5 150/2/5 149/2/5
f 157/5/5 149/5/5 156/5/5
f 158/5/5 151/5/5 150/5/5
f 158/2/5 150/2/5 157/2/5
f 159/3/5 152/3/5 151/3/5
f 159/5/5 151/5/5 158/5/5
f 160/5/5 128/5/5 152/5/5
f 160/3/5 152/3/5 159/3/5
f 161/5/5 157/5/5 156/5/5
f 161/5/5 159/5/5 158/5/5
f 161/5/5 160/5/5 159/5/5
f 161/5/5 158/5/5 157/5/5
f 161/5/5 156/5/5 155/5/5
f 161/5/5 155/5/5 154/5/5
f 161/5/5 154/5/5 153/5/5
f 162/5/5 128/5/5 160/5/5
f 162/5/5 160/5/5 161/5/5
f 163/4/5 162/4/5 161/4/5
f 164/4/5 162/4/5 163/4/5
f 165/3/5 164/3/5 163/3/5
f 166/3/5 164/3/5 165/3/5
f 167/2/5 166/2/5 165/2/5
f 168/2/5 166/2/5 167/2/5
f 169/2/6 170/2/6 171/2/6
f 171/2/6 170/2/6 172/2/6
f 171/3/6 172/3/6 173/3/6
f 173/3/6 172/3/6 174/3/6
f 173/4/6 174/4/6 175/4/6
f 175/4/6 174/4/6 176/4/6
f 175/5/6 176/5/6 177/5/6
f 177/5/6 176/5/6 178/5/6
f 178/5/6 176/5/6 179/5/6
f 179/5/6 176/5/6 180/5/6
f 180/5/6 176/5/6 181/5/6
f 181/5/6 176/5/6 182/5/6
f 182/5/6 176/5/6 183/5/6
f 183/5/6 176/5/6 184/5/6
f 177/3/6 178/3/6 185/3/6
f 178/5/6 179/5/6 186/5/6
f 185/3/6 178/3/6 186/3/6
f 179/3/6 180/3/6 187/3/6
f 186/5/6 179/5/6 187/5/6
f 180/5/6 181/5/6 188/5/6
f 187/3/6 180/3/6 188/3/6
f 181/3/6 182/3/6 189/3/6
f 188/5/6 181/5/6 189/5/6
f 182/5/6 183/5/6 190/5/6
f 189/3/6 182/3/6 190/3/6
f 183/3/6 184/3/6 191/3/6
f 190/5/6 183/5/6 191/5/6
f 184/5/6 176/5/6 192/5/6
f 191/3/6 184/3/6 192/3/6
f 190/5/6 191/5/6 193/5/6
f 185/5/6 186/5/6 193/5/6
f 191/5/6 192/5/6 193/5/6
f 189/5/6 190/5/6 193/5/6
f 188/5/6 189/5/6 193/5/6
f 187/5/6 188/5/6 193/5/6
f 186/5/6 187/5/6 193/5/6
f 193/5/6 192/5/6 194/5/6
f 194/5/6 192/5/6 195/5/6
f 195/5/6 192/5/6 196/5/6
f 196/5/6 192/5/6 197/5/6
f 197/5/6 192/5/6 198/5/6
f 198/5/6 192/5/6 199/5/6
f 199/5/6 192/5/6 200/5/6
f 193/3/6 194/3/6 201/3/6
f 194/5/6 195/5/6 202/5/6
f 201/3/6 194/3/6 202/3/6
f 195/3/6 196/3/6 203/3/6
f 202/5/6 195/5/6 203/5/6
f 196/5/6 197/5/6 204/5/6
f 203/3/6 196/3/6 204/3/6
f 197/3/6 198/3/6 205/3/6
f 204/5/6 197/5/6 205/5/6
f 198/5/6 199/5/6 206/5/6
f 205/3/6 198/3/6 206/3/6
f 199/3/6 200/3/6 207/3/6
f 206/5/6 199/5/6 207/5/6
f 200/5/6 192/5/6 208/5/6
f 207/3/6 200/3/6 208/3/6
f 206/5/6 207/5/6 209/5/6
f 201/5/6 202/5/6 209/5/6
f 207/5/6 208/5/6 209/5/6
f 205/5/6 206/5/6 209/5/6
f 204/5/6 205/5/6 209/5/6
f 203/5/6 204/5/6 209/5/6
f 202/5/6 203/5/6 209/5/6
f 209/5/6 208/5/6 210/5/6
f 210/5/6 208/5/6 211/5/6
f 211/5/6 208/5/6 212/5/6
f 212/5/6 208/5/6 213/5/6
f 213/5/6 208/5/6 214/5/6
f 214/5/6 208/5/6 215/5/6
f 215/5/6 208/5/6 216/5/6
f 216/5/6 208/5/6 217/5/6
f 217/5/6 208/5/6 218/5/6
f 218/5/6 208/5/6 219/5/6
f 219/5/6 208/5/6 220/5/6
f 192/5/6 176/5/6 221/5/6
f 220/5/6 208/5/6 221/5/6
f 208/5/6 192/5/6 221/5/6
f 221/5/6 176/5/6 222/5/6
f 201/5/6 209/5/6 223/5/6
f 209/1/6 210/1/6 223/1/6
f 210/5/6 211/5/6 224/5/6
f 223/1/6 210/1/6 224/1/6
f 211/1/6 212/1/6 225/1/6
f 224/5/6 211/5/6 225/5/6
f 212/5/6 213/5/6 226/5/6
f 225/1/6 212/1/6 226/1/6
f 213/1/6 214/1/6 227/1/6
f 226/5/6 213/5/6 227/5/6
f 214/5/6 215/5/6 228/5/6
f 227/1/6 214/1/6 228/1/6
f 215/1/6 216/1/6 229/1/6
f 228/5/6 215/5/6 229/5/6
f 216/5/6 217/5/6 230/5/6
f 229/1/6 216/1/6 230/1/6
f 217/1/6 218/1/6 231/1/6
f 230/5/6 217/5/6 231/5/6
f 218/5/6 219/5/6 232/5/6
f 231/1/6 218/1/6 232/1/6
f 219/1/6 220/1/6 233/1/6
f 232/5/6 219/5/6 233/5/6
f 220/5/6 221/5/6 234/5/6
f 233/1/6 220/1/6 234/1/6
f 221/1/6 222/1/6 235/1/6
f 234/5/6 221/5/6 235/5/6
f 235/1/6 222/1/6 236/1/6
f 231/5/6 232/5/6 237/5/6
f 230/5/6 231/5/6 237/5/6
f 235/5/6 236/5/6 237/5/6
f 234/5/6 235/5/6 237/5/6
f 232/5/6 233/5/6 237/5/6
f 229/5/6 230/5/6 237/5/6
f 228/5/6 229/5/6 237/5/6
f 227/5/6 228/5/6 237/5/6
f 226/5/6 227/5/6 237/5/6
f 225/5/6 226/5/6 237/5/6
f 224/5/6 225/5/6 237/5/6
f 223/5/6 224/5/6 237/5/6
f 201/5/6 223/5/6 237/5/6
f 233/5/6 234/5/6 237/5/6
f 237/5/6 236/5/6 238/5/6
f 238/5/6 236/5/6 239/5/6
f 239/5/6 236/5/6 240/5/6
f 240/5/6 236/5/6 241/5/6
f 241/5/6 236/5/6 242/5/6
f 242/5/6 236/5/6 243/5/6
f 243/5/6 236/5/6 244/5/6
f 237/2/6 238/2/6 245/2/6
f 238/5/6 239/5/6 246/5/6
f 245/2/6 238/2/6 246/2/6
f 239/2/6 240/2/6 247/2/6
f 246/5/6 239/5/6 247/5/6
f 240/5/6 241/5/6 248/5/6
f 247/2/6 240/2/6 248/2/6
f 241/2/6 242/2/6 249/2/6
f 248/5/6 241/5/6 249/5/6
f 242/5/6 243/5/6 250/5/6
f 249/2/6 242/2/6 250/2/6
f 243/3/6 244/3/6 251/3/6
f 250/5/6 243/5/6 251/5/6
f 244/5/6 236/5/6 252/5/6
f 251/3/6 244/3/6 252/3/6
f 250/5/6 251/5/6 253/5/6
f 245/5/6 246/5/6 253/5/6
f 251/5/6 252/5/6 253/5/6
f 249/5/6 250/5/6 253/5/6
f 248/5/6 249/5/6 253/5/6
f 247/5/6 248/5/6 253/5/6
f 246/5/6 247/5/6 253/5/6
f 253/5/6 252/5/6 254/5/6
f 254/5/6 252/5/6 255/5/6
f 255/5/6 252/5/6 256/5/6
f 256/5/6 252/5/6 257/5/6
f 257/5/6 252/5/6 258/5/6
f 258/5/6 252/5/6 259/5/6
f 252/5/6 236/5/6 260/5/6
f 259/5/6 252/5/6 260/5/6
f 253/2/6 254/2/6 261/2/6
f 254/5/6 255/5/6 262/5/6
f 261/2/6 254/2/6 262/2/6
f 255/2/6 256/2/6 263/2/6
f 262/5/6 255/5/6 263/5/6
f 256/5/6 257/5/6 264/5/6
f 263/2/6 256/2/6 264/2/6
f 257/2/6 258/2/6 265/2/6
f 264/5/6 257/5/6 265/5/6
f 258/5/6 259/5/6 266/5/6
f 265/2/6 258/2/6 266/2/6
f 259/3/6 260/3/6 267/3/6
f 266/5/6 259/5/6 267/5/6
f 260/5/6 236/5/6 268/5/6
f 267/3/6 260/3/6 268/3/6
f 264/5/6 265/5/6 269/5/6
f 266/5/6 267/5/6 269/5/6
f 267/5/6 268/5/6 269/5/6
f 265/5/6 266/5/6 269/5/6
f 263/5/6 264/5/6 269/5/6
f 262/5/6 263/5/6 269/5/6
f 261/5/6 262/5/6 269/5/6
f 268/5/6 236/5/6 270/5/6
f 269/5/6 268/5/6 270/5/6
f 269/4/6 270/4/6 271/4/6
f 271/4/6 270/4/6 272/4/6
f 271/3/6 272/3/6 273/3/6
f 273/3/6 272/3/6 274/3/6
f 273/2/6 274/2/6 275/2/6
f 275/2/6 274/2/6 276/2/6
