# MagicaVoxel @ Ephtracy

# group
o 

# material
mtllib dynamite.mtl
usemtl palette

# normals
vn -1 0 0
vn 1 0 0
vn 0 0 1
vn 0 0 -1
vn 0 -1 0
vn 0 1 0

# texcoords
vt 0.849609 0.5
vt 0.994141 0.5

# verts
v -0.8 -2 0.4
v -0.8 -2 -0.5
v -0.8 -1 0.4
v -0.8 -1 -0.5
v -0.8 -0.9 0.4
v -0.8 -0.9 -0.5
v -0.8 0.4 0.4
v -0.8 0.4 -0.5
v -0.8 0.5 0.4
v -0.8 0.5 -0.5
v -0.8 1.2 0.4
v -0.8 1.2 -0.5
v -0.7 -2 0.6
v -0.7 -2 0.4
v -0.7 -2 -0.5
v -0.7 -2 -0.7
v -0.7 -1 0.6
v -0.7 -1 0.4
v -0.7 -1 -0.5
v -0.7 -1 -0.7
v -0.7 -0.9 0.6
v -0.7 -0.9 0.4
v -0.7 -0.9 -0.5
v -0.7 -0.9 -0.7
v -0.7 0.4 0.6
v -0.7 0.4 0.4
v -0.7 0.4 -0.5
v -0.7 0.4 -0.7
v -0.7 0.5 0.6
v -0.7 0.5 0.4
v -0.7 0.5 -0.5
v -0.7 0.5 -0.7
v -0.7 1.2 0.6
v -0.7 1.2 0.4
v -0.7 1.2 -0.5
v -0.7 1.2 -0.7
v -0.5 -2 0.7
v -0.5 -2 0.6
v -0.5 -2 -0.7
v -0.5 -2 -0.8
v -0.5 -1 0.7
v -0.5 -1 0.6
v -0.5 -1 -0.7
v -0.5 -1 -0.8
v -0.5 -0.9 0.7
v -0.5 -0.9 0.6
v -0.5 -0.9 -0.7
v -0.5 -0.9 -0.8
v -0.5 0.4 0.7
v -0.5 0.4 0.6
v -0.5 0.4 -0.7
v -0.5 0.4 -0.8
v -0.5 0.5 0.7
v -0.5 0.5 0.6
v -0.5 0.5 -0.7
v -0.5 0.5 -0.8
v -0.5 1.2 0.7
v -0.5 1.2 0.6
v -0.5 1.2 -0.7
v -0.5 1.2 -0.8
v -0.2 1.5 0
v -0.2 1.5 -0.1
v -0.2 1.9 0
v -0.2 1.9 -0.1
v -0.1 1.2 0
v -0.1 1.2 -0.1
v -0.1 1.5 0
v -0.1 1.5 -0.1
v -0.1 1.6 0
v -0.1 1.6 -0.1
v -0.1 1.9 0
v -0.1 1.9 -0.1
v 0 1.2 0
v 0 1.2 -0.1
v 0 1.6 0
v 0 1.6 -0.1
v 0.4 -2 0.7
v 0.4 -2 0.6
v 0.4 -2 -0.7
v 0.4 -2 -0.8
v 0.4 -1 0.7
v 0.4 -1 0.6
v 0.4 -1 -0.7
v 0.4 -1 -0.8
v 0.4 -0.9 0.7
v 0.4 -0.9 0.6
v 0.4 -0.9 -0.7
v 0.4 -0.9 -0.8
v 0.4 0.4 0.7
v 0.4 0.4 0.6
v 0.4 0.4 -0.7
v 0.4 0.4 -0.8
v 0.4 0.5 0.7
v 0.4 0.5 0.6
v 0.4 0.5 -0.7
v 0.4 0.5 -0.8
v 0.4 1.2 0.7
v 0.4 1.2 0.6
v 0.4 1.2 -0.7
v 0.4 1.2 -0.8
v 0.6 -2 0.6
v 0.6 -2 0.4
v 0.6 -2 -0.5
v 0.6 -2 -0.7
v 0.6 -1 0.6
v 0.6 -1 0.4
v 0.6 -1 -0.5
v 0.6 -1 -0.7
v 0.6 -0.9 0.6
v 0.6 -0.9 0.4
v 0.6 -0.9 -0.5
v 0.6 -0.9 -0.7
v 0.6 0.4 0.6
v 0.6 0.4 0.4
v 0.6 0.4 -0.5
v 0.6 0.4 -0.7
v 0.6 0.5 0.6
v 0.6 0.5 0.4
v 0.6 0.5 -0.5
v 0.6 0.5 -0.7
v 0.6 1.2 0.6
v 0.6 1.2 0.4
v 0.6 1.2 -0.5
v 0.6 1.2 -0.7
v 0.7 -2 0.4
v 0.7 -2 -0.5
v 0.7 -1 0.4
v 0.7 -1 -0.5
v 0.7 -0.9 0.4
v 0.7 -0.9 -0.5
v 0.7 0.4 0.4
v 0.7 0.4 -0.5
v 0.7 0.5 0.4
v 0.7 0.5 -0.5
v 0.7 1.2 0.4
v 0.7 1.2 -0.5
v -0.5 -2 0.7
v -0.5 -1 0.7
v -0.5 -0.9 0.7
v -0.5 0.4 0.7
v -0.5 0.5 0.7
v -0.5 1.2 0.7
v 0.4 -2 0.7
v 0.4 -1 0.7
v 0.4 -0.9 0.7
v 0.4 0.4 0.7
v 0.4 0.5 0.7
v 0.4 1.2 0.7
v -0.7 -2 0.6
v -0.7 -1 0.6
v -0.7 -0.9 0.6
v -0.7 0.4 0.6
v -0.7 0.5 0.6
v -0.7 1.2 0.6
v -0.5 -2 0.6
v -0.5 -1 0.6
v -0.5 -0.9 0.6
v -0.5 0.4 0.6
v -0.5 0.5 0.6
v -0.5 1.2 0.6
v 0.4 -2 0.6
v 0.4 -1 0.6
v 0.4 -0.9 0.6
v 0.4 0.4 0.6
v 0.4 0.5 0.6
v 0.4 1.2 0.6
v 0.6 -2 0.6
v 0.6 -1 0.6
v 0.6 -0.9 0.6
v 0.6 0.4 0.6
v 0.6 0.5 0.6
v 0.6 1.2 0.6
v -0.8 -2 0.4
v -0.8 -1 0.4
v -0.8 -0.9 0.4
v -0.8 0.4 0.4
v -0.8 0.5 0.4
v -0.8 1.2 0.4
v -0.7 -2 0.4
v -0.7 -1 0.4
v -0.7 -0.9 0.4
v -0.7 0.4 0.4
v -0.7 0.5 0.4
v -0.7 1.2 0.4
v 0.6 -2 0.4
v 0.6 -1 0.4
v 0.6 -0.9 0.4
v 0.6 0.4 0.4
v 0.6 0.5 0.4
v 0.6 1.2 0.4
v 0.7 -2 0.4
v 0.7 -1 0.4
v 0.7 -0.9 0.4
v 0.7 0.4 0.4
v 0.7 0.5 0.4
v 0.7 1.2 0.4
v -0.2 1.5 0
v -0.2 1.9 0
v -0.1 1.2 0
v -0.1 1.5 0
v -0.1 1.6 0
v -0.1 1.9 0
v 0 1.2 0
v 0 1.6 0
v -0.2 1.5 -0.1
v -0.2 1.9 -0.1
v -0.1 1.2 -0.1
v -0.1 1.5 -0.1
v -0.1 1.6 -0.1
v -0.1 1.9 -0.1
v 0 1.2 -0.1
v 0 1.6 -0.1
v -0.8 -2 -0.5
v -0.8 -1 -0.5
v -0.8 -0.9 -0.5
v -0.8 0.4 -0.5
v -0.8 0.5 -0.5
v -0.8 1.2 -0.5
v -0.7 -2 -0.5
v -0.7 -1 -0.5
v -0.7 -0.9 -0.5
v -0.7 0.4 -0.5
v -0.7 0.5 -0.5
v -0.7 1.2 -0.5
v 0.6 -2 -0.5
v 0.6 -1 -0.5
v 0.6 -0.9 -0.5
v 0.6 0.4 -0.5
v 0.6 0.5 -0.5
v 0.6 1.2 -0.5
v 0.7 -2 -0.5
v 0.7 -1 -0.5
v 0.7 -0.9 -0.5
v 0.7 0.4 -0.5
v 0.7 0.5 -0.5
v 0.7 1.2 -0.5
v -0.7 -2 -0.7
v -0.7 -1 -0.7
v -0.7 -0.9 -0.7
v -0.7 0.4 -0.7
v -0.7 0.5 -0.7
v -0.7 1.2 -0.7
v -0.5 -2 -0.7
v -0.5 -1 -0.7
v -0.5 -0.9 -0.7
v -0.5 0.4 -0.7
v -0.5 0.5 -0.7
v -0.5 1.2 -0.7
v 0.4 -2 -0.7
v 0.4 -1 -0.7
v 0.4 -0.9 -0.7
v 0.4 0.4 -0.7
v 0.4 0.5 -0.7
v 0.4 1.2 -0.7
v 0.6 -2 -0.7
v 0.6 -1 -0.7
v 0.6 -0.9 -0.7
v 0.6 0.4 -0.7
v 0.6 0.5 -0.7
v 0.6 1.2 -0.7
v -0.5 -2 -0.8
v -0.5 -1 -0.8
v -0.5 -0.9 -0.8
v -0.5 0.4 -0.8
v -0.5 0.5 -0.8
v -0.5 1.2 -0.8
v 0.4 -2 -0.8
v 0.4 -1 -0.8
v 0.4 -0.9 -0.8
v 0.4 0.4 -0.8
v 0.4 0.5 -0.8
v 0.4 1.2 -0.8
v -0.5 -2 0.7
v 0.4 -2 0.7
v -0.7 -2 0.6
v -0.5 -2 0.6
v 0.4 -2 0.6
v 0.6 -2 0.6
v -0.8 -2 0.4
v -0.7 -2 0.4
v 0.6 -2 0.4
v 0.7 -2 0.4
v -0.8 -2 -0.5
v -0.7 -2 -0.5
v 0.6 -2 -0.5
v 0.7 -2 -0.5
v -0.7 -2 -0.7
v -0.5 -2 -0.7
v 0.4 -2 -0.7
v 0.6 -2 -0.7
v -0.5 -2 -0.8
v 0.4 -2 -0.8
v -0.2 1.5 0
v -0.1 1.5 0
v -0.2 1.5 -0.1
v -0.1 1.5 -0.1
v -0.5 1.2 0.7
v 0.4 1.2 0.7
v -0.7 1.2 0.6
v -0.5 1.2 0.6
v 0.4 1.2 0.6
v 0.6 1.2 0.6
v -0.8 1.2 0.4
v -0.7 1.2 0.4
v 0.6 1.2 0.4
v 0.7 1.2 0.4
v -0.1 1.2 0
v 0 1.2 0
v -0.1 1.2 -0.1
v 0 1.2 -0.1
v -0.8 1.2 -0.5
v -0.7 1.2 -0.5
v 0.6 1.2 -0.5
v 0.7 1.2 -0.5
v -0.7 1.2 -0.7
v -0.5 1.2 -0.7
v 0.4 1.2 -0.7
v 0.6 1.2 -0.7
v -0.5 1.2 -0.8
v 0.4 1.2 -0.8
v -0.1 1.6 0
v 0 1.6 0
v -0.1 1.6 -0.1
v 0 1.6 -0.1
v -0.2 1.9 0
v -0.1 1.9 0
v -0.2 1.9 -0.1
v -0.1 1.9 -0.1

# faces
f 3/1/1 2/1/1 1/1/1
f 4/1/1 2/1/1 3/1/1
f 5/2/1 4/2/1 3/2/1
f 6/2/1 4/2/1 5/2/1
f 7/1/1 6/1/1 5/1/1
f 8/1/1 6/1/1 7/1/1
f 9/2/1 8/2/1 7/2/1
f 10/2/1 8/2/1 9/2/1
f 11/1/1 10/1/1 9/1/1
f 12/1/1 10/1/1 11/1/1
f 17/1/1 14/1/1 13/1/1
f 18/1/1 14/1/1 17/1/1
f 19/1/1 16/1/1 15/1/1
f 20/1/1 16/1/1 19/1/1
f 21/2/1 18/2/1 17/2/1
f 22/2/1 18/2/1 21/2/1
f 23/2/1 20/2/1 19/2/1
f 24/2/1 20/2/1 23/2/1
f 25/1/1 22/1/1 21/1/1
f 26/1/1 22/1/1 25/1/1
f 27/1/1 24/1/1 23/1/1
f 28/1/1 24/1/1 27/1/1
f 29/2/1 26/2/1 25/2/1
f 30/2/1 26/2/1 29/2/1
f 31/2/1 28/2/1 27/2/1
f 32/2/1 28/2/1 31/2/1
f 33/1/1 30/1/1 29/1/1
f 34/1/1 30/1/1 33/1/1
f 35/1/1 32/1/1 31/1/1
f 36/1/1 32/1/1 35/1/1
f 41/1/1 38/1/1 37/1/1
f 42/1/1 38/1/1 41/1/1
f 43/1/1 40/1/1 39/1/1
f 44/1/1 40/1/1 43/1/1
f 45/2/1 42/2/1 41/2/1
f 46/2/1 42/2/1 45/2/1
f 47/2/1 44/2/1 43/2/1
f 48/2/1 44/2/1 47/2/1
f 49/1/1 46/1/1 45/1/1
f 50/1/1 46/1/1 49/1/1
f 51/1/1 48/1/1 47/1/1
f 52/1/1 48/1/1 51/1/1
f 53/2/1 50/2/1 49/2/1
f 54/2/1 50/2/1 53/2/1
f 55/2/1 52/2/1 51/2/1
f 56/2/1 52/2/1 55/2/1
f 57/1/1 54/1/1 53/1/1
f 58/1/1 54/1/1 57/1/1
f 59/1/1 56/1/1 55/1/1
f 60/1/1 56/1/1 59/1/1
f 63/2/1 62/2/1 61/2/1
f 64/2/1 62/2/1 63/2/1
f 67/2/1 66/2/1 65/2/1
f 68/2/1 66/2/1 67/2/1
f 69/2/2 70/2/2 71/2/2
f 71/2/2 70/2/2 72/2/2
f 73/2/2 74/2/2 75/2/2
f 75/2/2 74/2/2 76/2/2
f 77/1/2 78/1/2 81/1/2
f 81/1/2 78/1/2 82/1/2
f 79/1/2 80/1/2 83/1/2
f 83/1/2 80/1/2 84/1/2
f 81/2/2 82/2/2 85/2/2
f 85/2/2 82/2/2 86/2/2
f 83/2/2 84/2/2 87/2/2
f 87/2/2 84/2/2 88/2/2
f 85/1/2 86/1/2 89/1/2
f 89/1/2 86/1/2 90/1/2
f 87/1/2 88/1/2 91/1/2
f 91/1/2 88/1/2 92/1/2
f 89/2/2 90/2/2 93/2/2
f 93/2/2 90/2/2 94/2/2
f 91/2/2 92/2/2 95/2/2
f 95/2/2 92/2/2 96/2/2
f 93/1/2 94/1/2 97/1/2
f 97/1/2 94/1/2 98/1/2
f 95/1/2 96/1/2 99/1/2
f 99/1/2 96/1/2 100/1/2
f 101/1/2 102/1/2 105/1/2
f 105/1/2 102/1/2 106/1/2
f 103/1/2 104/1/2 107/1/2
f 107/1/2 104/1/2 108/1/2
f 105/2/2 106/2/2 109/2/2
f 109/2/2 106/2/2 110/2/2
f 107/2/2 108/2/2 111/2/2
f 111/2/2 108/2/2 112/2/2
f 109/1/2 110/1/2 113/1/2
f 113/1/2 110/1/2 114/1/2
f 111/1/2 112/1/2 115/1/2
f 115/1/2 112/1/2 116/1/2
f 113/2/2 114/2/2 117/2/2
f 117/2/2 114/2/2 118/2/2
f 115/2/2 116/2/2 119/2/2
f 119/2/2 116/2/2 120/2/2
f 117/1/2 118/1/2 121/1/2
f 121/1/2 118/1/2 122/1/2
f 119/1/2 120/1/2 123/1/2
f 123/1/2 120/1/2 124/1/2
f 125/1/2 126/1/2 127/1/2
f 127/1/2 126/1/2 128/1/2
f 127/2/2 128/2/2 129/2/2
f 129/2/2 128/2/2 130/2/2
f 129/1/2 130/1/2 131/1/2
f 131/1/2 130/1/2 132/1/2
f 131/2/2 132/2/2 133/2/2
f 133/2/2 132/2/2 134/2/2
f 133/1/2 134/1/2 135/1/2
f 135/1/2 134/1/2 136/1/2
f 143/1/3 138/1/3 137/1/3
f 144/2/3 139/2/3 138/2/3
f 144/1/3 138/1/3 143/1/3
f 145/1/3 140/1/3 139/1/3
f 145/2/3 139/2/3 144/2/3
f 146/2/3 141/2/3 140/2/3
f 146/1/3 140/1/3 145/1/3
f 147/1/3 142/1/3 141/1/3
f 147/2/3 141/2/3 146/2/3
f 148/1/3 142/1/3 147/1/3
f 155/1/3 150/1/3 149/1/3
f 156/2/3 151/2/3 150/2/3
f 156/1/3 150/1/3 155/1/3
f 157/1/3 152/1/3 151/1/3
f 157/2/3 151/2/3 156/2/3
f 158/2/3 153/2/3 152/2/3
f 158/1/3 152/1/3 157/1/3
f 159/1/3 154/1/3 153/1/3
f 159/2/3 153/2/3 158/2/3
f 160/1/3 154/1/3 159/1/3
f 167/1/3 162/1/3 161/1/3
f 168/2/3 163/2/3 162/2/3
f 168/1/3 162/1/3 167/1/3
f 169/1/3 164/1/3 163/1/3
f 169/2/3 163/2/3 168/2/3
f 170/2/3 165/2/3 164/2/3
f 170/1/3 164/1/3 169/1/3
f 171/1/3 166/1/3 165/1/3
f 171/2/3 165/2/3 170/2/3
f 172/1/3 166/1/3 171/1/3
f 179/1/3 174/1/3 173/1/3
f 180/2/3 175/2/3 174/2/3
f 180/1/3 174/1/3 179/1/3
f 181/1/3 176/1/3 175/1/3
f 181/2/3 175/2/3 180/2/3
f 182/2/3 177/2/3 176/2/3
f 182/1/3 176/1/3 181/1/3
f 183/1/3 178/1/3 177/1/3
f 183/2/3 177/2/3 182/2/3
f 184/1/3 178/1/3 183/1/3
f 191/1/3 186/1/3 185/1/3
f 192/2/3 187/2/3 186/2/3
f 192/1/3 186/1/3 191/1/3
f 193/1/3 188/1/3 187/1/3
f 193/2/3 187/2/3 192/2/3
f 194/2/3 189/2/3 188/2/3
f 194/1/3 188/1/3 193/1/3
f 195/1/3 190/1/3 189/1/3
f 195/2/3 189/2/3 194/2/3
f 196/1/3 190/1/3 195/1/3
f 200/2/3 198/2/3 197/2/3
f 201/2/3 198/2/3 200/2/3
f 202/2/3 198/2/3 201/2/3
f 203/2/3 200/2/3 199/2/3
f 203/2/3 201/2/3 200/2/3
f 204/2/3 201/2/3 203/2/3
f 205/2/4 206/2/4 208/2/4
f 208/2/4 206/2/4 209/2/4
f 209/2/4 206/2/4 210/2/4
f 207/2/4 208/2/4 211/2/4
f 208/2/4 209/2/4 211/2/4
f 211/2/4 209/2/4 212/2/4
f 213/1/4 214/1/4 219/1/4
f 214/2/4 215/2/4 220/2/4
f 219/1/4 214/1/4 220/1/4
f 215/1/4 216/1/4 221/1/4
f 220/2/4 215/2/4 221/2/4
f 216/2/4 217/2/4 222/2/4
f 221/1/4 216/1/4 222/1/4
f 217/1/4 218/1/4 223/1/4
f 222/2/4 217/2/4 223/2/4
f 223/1/4 218/1/4 224/1/4
f 225/1/4 226/1/4 231/1/4
f 226/2/4 227/2/4 232/2/4
f 231/1/4 226/1/4 232/1/4
f 227/1/4 228/1/4 233/1/4
f 232/2/4 227/2/4 233/2/4
f 228/2/4 229/2/4 234/2/4
f 233/1/4 228/1/4 234/1/4
f 229/1/4 230/1/4 235/1/4
f 234/2/4 229/2/4 235/2/4
f 235/1/4 230/1/4 236/1/4
f 237/1/4 238/1/4 243/1/4
f 238/2/4 239/2/4 244/2/4
f 243/1/4 238/1/4 244/1/4
f 239/1/4 240/1/4 245/1/4
f 244/2/4 239/2/4 245/2/4
f 240/2/4 241/2/4 246/2/4
f 245/1/4 240/1/4 246/1/4
f 241/1/4 242/1/4 247/1/4
f 246/2/4 241/2/4 247/2/4
f 247/1/4 242/1/4 248/1/4
f 249/1/4 250/1/4 255/1/4
f 250/2/4 251/2/4 256/2/4
f 255/1/4 250/1/4 256/1/4
f 251/1/4 252/1/4 257/1/4
f 256/2/4 251/2/4 257/2/4
f 252/2/4 253/2/4 258/2/4
f 257/1/4 252/1/4 258/1/4
f 253/1/4 254/1/4 259/1/4
f 258/2/4 253/2/4 259/2/4
f 259/1/4 254/1/4 260/1/4
f 261/1/4 262/1/4 267/1/4
f 262/2/4 263/2/4 268/2/4
f 267/1/4 262/1/4 268/1/4
f 263/1/4 264/1/4 269/1/4
f 268/2/4 263/2/4 269/2/4
f 264/2/4 265/2/4 270/2/4
f 269/1/4 264/1/4 270/1/4
f 265/1/4 266/1/4 271/1/4
f 270/2/4 265/2/4 271/2/4
f 271/1/4 266/1/4 272/1/4
f 276/1/5 274/1/5 273/1/5
f 277/1/5 274/1/5 276/1/5
f 280/1/5 276/1/5 275/1/5
f 280/1/5 278/1/5 277/1/5
f 280/1/5 277/1/5 276/1/5
f 281/1/5 278/1/5 280/1/5
f 283/1/5 280/1/5 279/1/5
f 283/1/5 282/1/5 281/1/5
f 283/1/5 281/1/5 280/1/5
f 284/1/5 282/1/5 283/1/5
f 285/1/5 282/1/5 284/1/5
f 286/1/5 282/1/5 285/1/5
f 287/1/5 285/1/5 284/1/5
f 288/1/5 285/1/5 287/1/5
f 289/1/5 285/1/5 288/1/5
f 290/1/5 285/1/5 289/1/5
f 291/1/5 289/1/5 288/1/5
f 292/1/5 289/1/5 291/1/5
f 295/2/5 294/2/5 293/2/5
f 296/2/5 294/2/5 295/2/5
f 297/1/6 298/1/6 300/1/6
f 300/1/6 298/1/6 301/1/6
f 299/1/6 300/1/6 304/1/6
f 301/1/6 302/1/6 304/1/6
f 300/1/6 301/1/6 304/1/6
f 304/1/6 302/1/6 305/1/6
f 303/1/6 304/1/6 307/1/6
f 305/1/6 306/1/6 307/1/6
f 304/1/6 305/1/6 307/1/6
f 307/1/6 306/1/6 308/1/6
f 303/1/6 307/1/6 309/1/6
f 308/1/6 306/1/6 310/1/6
f 303/1/6 309/1/6 311/1/6
f 309/1/6 310/1/6 311/1/6
f 311/1/6 310/1/6 312/1/6
f 310/1/6 306/1/6 313/1/6
f 312/1/6 310/1/6 313/1/6
f 313/1/6 306/1/6 314/1/6
f 312/1/6 313/1/6 315/1/6
f 315/1/6 313/1/6 316/1/6
f 316/1/6 313/1/6 317/1/6
f 317/1/6 313/1/6 318/1/6
f 316/1/6 317/1/6 319/1/6
f 319/1/6 317/1/6 320/1/6
f 321/2/6 322/2/6 323/2/6
f 323/2/6 322/2/6 324/2/6
f 325/2/6 326/2/6 327/2/6
f 327/2/6 326/2/6 328/2/6
