# Blender 4.1.1
# www.blender.org
mtllib thunder_mesh.mtl
o Plane
v -0.415051 1.687458 -0.355878
v 0.643418 1.687458 0.857669
v -0.382640 21.687458 0.901699
v 0.176971 21.687458 -0.780639
v -0.349763 11.651624 0.466381
v 1.226878 11.736761 -0.200117
v 1.460852 6.687458 0.593564
v 3.148942 6.687458 -0.472505
v 0.548444 16.687458 0.316666
v -1.407993 16.687458 0.164039
v 1.863603 19.187458 0.559395
v 0.441040 19.187458 -0.438335
v -1.081957 14.187458 -0.037149
v 0.858562 14.187849 0.179269
v 0.333082 9.187458 0.367512
v -0.717759 9.187458 -0.099579
v -1.928576 4.545959 -0.288724
v -0.009598 4.105725 0.021301
v -1.235064 2.941042 -0.801238
v 0.124083 2.936999 0.230067
v 1.756665 5.202488 0.492896
v -0.183086 5.421113 0.122014
v -0.061617 7.937458 0.082523
v 1.732877 7.937458 0.147928
v 0.283418 10.437343 0.357698
v -0.929778 10.437458 -0.197565
v 0.675685 12.943349 -0.287446
v 1.691563 12.971353 -0.180794
v -0.729464 15.500153 0.752483
v -2.004418 15.412352 -0.761168
v -0.673551 17.958286 -0.304960
v 1.412178 17.958286 0.098110
v 0.591493 20.437458 -0.298282
v -0.546340 20.437458 0.053041
v 0.643418 1.687458 0.857669
v 0.176971 21.687458 -0.780639
v 1.226878 11.736761 -0.200117
v 3.148942 6.687458 -0.472505
v 0.548444 16.687458 0.316666
v 1.863603 19.187458 0.559395
v 0.858562 14.187849 0.179269
v 0.333082 9.187458 0.367512
v -0.009598 4.105725 0.021301
v 0.124083 2.936999 0.230067
v 1.756665 5.202488 0.492896
v 1.732877 7.937458 0.147928
v 0.283418 10.437343 0.357698
v 1.691563 12.971353 -0.180794
v -0.729464 15.500153 0.752483
v 1.412178 17.958286 0.098110
v 0.591493 20.437458 -0.298282
v 0.243962 21.062458 -0.367243
v -0.602844 21.062458 0.774244
v 0.243962 21.062458 -0.367243
v 0.033030 19.812458 -0.452582
v 1.398181 19.812458 0.153757
v 1.398181 19.812458 0.153757
v 1.803293 18.572872 0.389335
v 0.147357 18.572872 -0.459311
v 1.803293 18.572872 0.389335
v -0.985063 17.322872 0.060398
v 1.014937 17.322872 0.060530
v 1.014937 17.322872 0.060530
v -0.514848 16.062458 1.009802
v -1.919853 16.062458 -0.365803
v -0.514848 16.062458 1.009802
v -1.977808 14.755400 -0.248767
v -0.365931 14.961581 0.769624
v -0.365931 14.961581 0.769624
v 1.536533 13.574104 -0.027422
v 0.285447 13.537022 -0.130030
v 1.536533 13.574104 -0.027422
v 0.413013 12.312457 0.060530
v 1.498986 12.365009 -0.326440
v 1.498986 12.365009 -0.326440
v 0.798887 11.081214 0.208470
v -0.972291 11.059687 -0.029408
v 0.798887 11.081214 0.208470
v -0.810936 9.812458 -0.220028
v 0.083215 9.812458 0.341087
v 0.083215 9.812458 0.341087
v 0.762236 8.562458 0.203296
v -0.659698 8.562458 0.009972
v 0.762236 8.562458 0.203296
v 0.960480 7.312458 0.593617
v 2.742104 7.312458 -0.102355
v 2.742104 7.312458 -0.102355
v 2.742104 6.062458 -0.102355
v 0.892540 5.938123 0.781725
v 2.742104 6.062458 -0.102355
v -1.241155 5.172032 -0.116025
v 0.591308 4.452884 0.237400
v 0.591308 4.452884 0.237400
v -0.161515 3.553284 -0.019101
v -2.090667 3.673324 -0.226629
v -0.161515 3.553284 -0.019101
v -0.350087 2.312458 -0.610470
v 0.198519 2.312458 0.731529
v 0.198519 2.312458 0.731529
v -1.166528 1.502962 1.665360
v 1.241183 1.503023 1.688761
v -1.234782 1.544612 -0.810037
v 1.315209 1.561797 -0.771257
v 0.002546 1.564522 -0.736606
v -0.035823 2.507172 -1.363939
v 0.302861 1.566925 -0.726394
v 0.299044 2.507172 -1.344724
v 0.582089 1.567176 -0.530416
v 0.617711 2.507172 -1.287818
v 0.818582 1.564676 -0.635598
v 0.903146 2.507172 -1.195409
v 1.000908 1.561587 -0.547244
v 1.142218 2.507172 -1.070393
v 1.138596 1.556667 -0.439960
v 1.325361 2.507172 -0.914167
v 1.226724 1.550436 -0.291755
v 1.444095 2.507172 -0.731595
v 1.288092 1.545655 -0.123322
v 1.507625 2.507172 -0.467618
v 1.303469 1.542690 0.052217
v 1.525623 2.507172 -0.120162
v 1.286119 1.541602 0.224612
v 1.491755 2.507172 0.171078
v 1.226400 1.542205 0.403285
v 1.406899 2.507172 0.408871
v 1.115852 1.544193 0.599385
v 1.261243 2.507172 0.665283
v 0.956100 1.547243 0.813722
v 1.066088 2.507172 1.007373
v 0.764827 1.549963 1.057019
v 0.808298 2.507172 1.369722
v 0.520451 1.551924 1.333662
v 0.508422 2.507172 1.663360
v 0.251448 1.554076 1.558692
v 0.212597 2.507172 1.879153
v -0.017816 1.553771 1.658952
v -0.087856 2.507172 1.898367
v -0.297740 1.553619 1.475497
v -0.425716 2.507172 1.720266
v -0.556638 1.551170 1.242164
v -0.762036 2.507172 1.462132
v -0.759708 1.548776 0.979122
v -1.023308 2.507172 1.131737
v -0.937896 1.546639 0.731623
v -1.201083 2.507172 0.743967
v -1.065959 1.544407 0.533230
v -1.335640 2.507172 0.396058
v -1.159971 1.542746 0.373220
v -1.428050 2.507172 0.148255
v -1.215894 1.542180 0.244489
v -1.484956 2.507172 -0.066192
v -1.236407 1.542723 0.106169
v -1.504171 2.507172 -0.293443
v -1.219196 1.543980 -0.037903
v -1.484956 2.507172 -0.510821
v -1.159433 1.545394 -0.181956
v -1.428050 2.507172 -0.708649
v -1.065231 1.547583 -0.320170
v -1.318437 2.507172 -0.896592
v -0.931612 1.550617 -0.453225
v -1.149488 2.507172 -1.059208
v -0.765809 1.554514 -0.573032
v -0.935462 2.507172 -1.190716
v -0.554675 1.559152 -0.655910
v -0.672729 2.507172 -1.286809
v -0.292098 1.562120 -0.705880
v -0.366715 2.507172 -1.344724
vn -0.8427 -0.0947 0.5300
vn -0.0000 -0.0000 1.0000
vn 0.8951 -0.0077 0.4458
vn 0.1489 -0.1582 0.9761
vn 0.4694 0.0355 0.8823
vn -0.2900 0.4979 0.8173
vn -0.5070 -0.0187 0.8617
vn -0.2224 -0.5711 0.7902
vn -0.4357 -0.0430 0.8991
vn -0.1303 0.0369 0.9908
vn -0.4690 -0.4171 0.7785
vn -0.1834 -0.0514 0.9817
vn -0.0708 -0.0658 0.9953
vn -0.3459 0.0495 0.9370
vn 0.0481 -0.0409 0.9980
vn -0.6894 0.0064 0.7244
vn -0.1385 0.2794 0.9501
vn 0.4550 -0.2129 0.8647
vn -0.1975 -0.0222 0.9801
vn 0.2424 -0.0021 0.9702
vn 0.1499 0.0309 0.9882
vn 0.0513 0.0040 0.9987
vn -0.0179 0.0764 0.9969
vn -0.1073 0.0007 0.9942
vn -0.0222 -0.0819 0.9964
vn -0.1094 -0.0419 0.9931
vn -0.0827 -0.0384 0.9958
vn -0.1828 -0.0624 0.9812
vn 0.0253 -0.0543 0.9982
vn 0.0244 0.0716 0.9971
vn -0.1288 0.0286 0.9913
vn 0.0066 -0.0110 0.9999
vn -0.3630 -0.0160 0.9317
vn -0.0866 0.0598 0.9944
vn 0.0002 -0.0532 0.9986
vn 0.8650 -0.0377 0.5003
vn 0.4698 -0.0367 0.8820
vn -0.2010 -0.1319 0.9707
vn -0.2247 -0.0275 0.9740
vn -0.3724 0.1501 0.9159
vn -0.2272 0.0099 0.9738
vn -0.0501 0.2964 0.9537
vn -0.0225 0.0785 0.9967
vn -0.7160 -0.1755 0.6756
vn -0.0522 0.0461 0.9976
vn -0.6536 0.0870 0.7518
vn -0.0868 -0.0460 0.9952
vn -0.0871 -0.3499 0.9327
vn -0.0174 -0.0633 0.9978
vn 0.3277 0.0959 0.9399
vn 0.0508 0.0376 0.9980
vn -0.1861 0.0326 0.9820
vn 0.0128 -0.0372 0.9992
vn -0.4680 -0.0021 0.8837
vn -0.2985 -0.0068 0.9544
vn -0.2451 -0.1382 0.9596
vn -0.0450 -0.0416 0.9981
vn 0.2792 0.3006 0.9120
vn 0.1973 0.0306 0.9799
vn 0.1872 -0.1936 0.9630
vn 0.2341 0.0047 0.9722
vn -0.2068 -0.1118 0.9720
vn -0.0963 -0.0218 0.9951
vn -0.1703 -0.0590 0.9836
vn -0.0807 -0.0225 0.9965
vn -0.7917 -0.1889 0.5810
vn -0.3346 -0.0414 0.9414
vn -0.0037 0.9998 0.0203
vn 0.0104 0.5553 0.8316
vn 0.0133 0.5555 0.8314
vn -0.2069 0.5634 0.7999
vn -0.1705 0.5620 0.8094
vn -0.1454 0.5764 0.8041
vn -0.1763 0.5754 0.7986
vn -0.1893 0.5445 0.8171
vn -0.1682 0.5485 0.8191
vn -0.4944 0.4749 0.7280
vn -0.4608 0.4815 0.7455
vn -0.7086 0.4240 0.5640
vn -0.6449 0.4421 0.6234
vn -0.8815 0.3404 0.3272
vn -0.8212 0.3777 0.4278
vn -0.9598 0.2580 0.1104
vn -0.9306 0.2972 0.2134
vn -0.9750 0.2140 -0.0590
vn -0.9734 0.2287 0.0102
vn -0.9502 0.1878 -0.2488
vn -0.9624 0.1948 -0.1892
vn -0.8889 0.1694 -0.4257
vn -0.9046 0.1727 -0.3897
vn -0.8432 0.1728 -0.5091
vn -0.8451 0.1716 -0.5064
vn -0.8134 0.1939 -0.5484
vn -0.8017 0.2031 -0.5621
vn -0.7632 0.2223 -0.6067
vn -0.7266 0.2315 -0.6468
vn -0.6760 0.2395 -0.6969
vn -0.6261 0.2431 -0.7409
vn -0.4838 0.2564 -0.8368
vn -0.3428 0.2642 -0.9015
vn 0.1276 0.2815 -0.9511
vn 0.1756 0.2812 -0.9434
vn 0.5538 0.2758 -0.7856
vn 0.5442 0.2739 -0.7930
vn 0.6855 0.2942 -0.6660
vn 0.6813 0.2938 -0.6705
vn 0.7963 0.2859 -0.5331
vn 0.8001 0.2847 -0.5280
vn 0.8555 0.2502 -0.4534
vn 0.8663 0.2354 -0.4406
vn 0.8835 0.2062 -0.4207
vn 0.8922 0.1823 -0.4131
vn 0.9027 0.1733 -0.3938
vn 0.9286 0.1747 -0.3275
vn 0.9428 0.1838 -0.2782
vn 0.9644 0.2201 -0.1465
vn 0.9671 0.2447 -0.0694
vn 0.9555 0.2904 0.0523
vn 0.9340 0.3277 0.1425
vn 0.8931 0.3751 0.2484
vn 0.8378 0.4199 0.3490
vn 0.7867 0.4518 0.4206
vn 0.6977 0.4921 0.5206
vn 0.6505 0.5080 0.5646
vn 0.5433 0.5328 0.6488
vn 0.5147 0.5371 0.6682
vn 0.3882 0.5511 0.7386
vn 0.3662 0.5527 0.7486
vn 0.2250 0.5597 0.7975
vn 0.2173 0.5600 0.7995
vn 0.1085 0.5604 0.8211
vn 0.1075 0.5604 0.8212
vt 1.000000 0.968750
vt 1.000000 1.000000
vt 1.000000 0.468750
vt 1.000000 0.500000
vt 1.000000 0.218750
vt 1.000000 0.250000
vt 1.000000 0.718750
vt 1.000000 0.750000
vt 1.000000 0.844271
vt 1.000000 0.875000
vt 1.000000 0.593750
vt 1.000000 0.625000
vt 1.000000 0.343750
vt 1.000000 0.375000
vt 1.000000 0.093750
vt 1.000000 0.125000
vt 1.000000 0.031250
vt 1.000000 0.062500
vt 1.000000 0.156250
vt 1.000000 0.187500
vt 1.000000 0.281250
vt 1.000000 0.312500
vt 1.000000 0.406250
vt 1.000000 0.437500
vt 1.000000 0.531250
vt 1.000000 0.562500
vt 1.000000 0.656250
vt 1.000000 0.687500
vt 1.000000 0.781771
vt 1.000000 0.813541
vt 1.000000 0.906250
vt 1.000000 0.937500
vt 0.000000 0.906250
vt 0.000000 0.937500
vt 0.000000 0.781771
vt 0.000000 0.813541
vt 0.000000 0.656250
vt 0.000000 0.687500
vt 0.000000 0.531250
vt 0.000000 0.562500
vt 0.000000 0.406250
vt 0.000000 0.437500
vt 0.000000 0.281250
vt 0.000000 0.312500
vt 0.000000 0.156250
vt 0.000000 0.187500
vt 0.000000 0.031250
vt 0.000000 0.062500
vt 0.000000 0.093750
vt 0.000000 0.125000
vt 0.000000 0.343750
vt 0.000000 0.375000
vt 0.000000 0.593750
vt 0.000000 0.625000
vt 0.000000 0.844271
vt 0.000000 0.875000
vt 0.000000 0.718750
vt 0.000000 0.750000
vt 0.000000 0.218750
vt 0.000000 0.250000
vt 0.000000 0.468750
vt 0.000000 0.500000
vt 0.000000 0.968750
vt 0.000000 1.000000
vt 0.000000 0.000000
vt 1.000000 0.000000
vt 0.968750 0.000000
vt 0.968750 1.000000
vt 0.937500 0.000000
vt 0.937500 1.000000
vt 0.906250 0.000000
vt 0.906250 1.000000
vt 0.875000 0.000000
vt 0.875000 1.000000
vt 0.843750 0.000000
vt 0.843750 1.000000
vt 0.812500 0.000000
vt 0.812500 1.000000
vt 0.781250 0.000000
vt 0.781250 1.000000
vt 0.750000 0.000000
vt 0.750000 1.000000
vt 0.718750 0.000000
vt 0.718750 1.000000
vt 0.687500 0.000000
vt 0.687500 1.000000
vt 0.656250 0.000000
vt 0.656250 1.000000
vt 0.625000 0.000000
vt 0.625000 1.000000
vt 0.593750 0.000000
vt 0.593750 1.000000
vt 0.562500 0.000000
vt 0.562500 1.000000
vt 0.531250 0.000000
vt 0.531250 1.000000
vt 0.500000 0.000000
vt 0.500000 1.000000
vt 0.468750 0.000000
vt 0.468750 1.000000
vt 0.437500 0.000000
vt 0.437500 1.000000
vt 0.406250 0.000000
vt 0.406250 1.000000
vt 0.375000 0.000000
vt 0.375000 1.000000
vt 0.343750 0.000000
vt 0.343750 1.000000
vt 0.312500 0.000000
vt 0.312500 1.000000
vt 0.281250 0.000000
vt 0.281250 1.000000
vt 0.250000 0.000000
vt 0.250000 1.000000
vt 0.218750 0.000000
vt 0.218750 1.000000
vt 0.187500 0.000000
vt 0.187500 1.000000
vt 0.156250 0.000000
vt 0.156250 1.000000
vt 0.125000 0.000000
vt 0.125000 1.000000
vt 0.093750 0.000000
vt 0.093750 1.000000
vt 0.062500 0.000000
vt 0.062500 1.000000
vt 0.031250 0.000000
vt 0.031250 1.000000
s 1
usemtl Material.001
f 54/1/37 52/1/2 4/2/2 36/2/20
f 78/3/53 76/3/2 6/4/2 37/4/21
f 90/5/61 88/5/2 8/6/2 38/6/22
f 66/7/45 64/7/2 9/8/2 39/8/23
f 60/9/41 58/9/2 11/10/2 40/10/24
f 72/11/49 70/11/2 14/12/2 41/12/25
f 84/13/57 82/13/2 15/14/2 42/14/26
f 96/15/65 94/15/2 18/16/2 43/16/27
f 99/17/67 98/17/2 20/18/2 44/18/28
f 93/19/63 92/19/2 21/20/2 45/20/29
f 87/21/59 86/21/2 24/22/2 46/22/30
f 81/23/55 80/23/2 25/24/2 47/24/31
f 75/25/51 74/25/2 28/26/2 48/26/32
f 69/27/47 68/27/2 29/28/2 49/28/33
f 63/29/43 62/29/2 32/30/2 50/30/34
f 57/31/39 56/31/2 33/32/2 51/32/35
f 55/33/38 57/31/39 51/32/35 34/34/18
f 61/35/42 63/29/43 50/30/34 31/36/17
f 67/37/46 69/27/47 49/28/33 30/38/16
f 73/39/50 75/25/51 48/26/32 27/40/15
f 79/41/54 81/23/55 47/24/31 26/42/14
f 85/43/58 87/21/59 46/22/30 23/44/13
f 91/45/62 93/19/63 45/20/29 22/46/12
f 97/47/66 99/17/67 44/18/28 19/48/11
f 95/49/64 96/15/65 43/16/27 17/50/10
f 83/51/56 84/13/57 42/14/26 16/52/9
f 71/53/48 72/11/49 41/12/25 13/54/8
f 59/55/40 60/9/41 40/10/24 12/56/7
f 65/57/44 66/7/45 39/8/23 10/58/6
f 89/59/60 90/5/61 38/6/22 7/60/5
f 77/61/52 78/3/53 37/4/21 5/62/4
f 53/63/36 54/1/37 36/2/20 3/64/3
f 34/34/18 51/32/35 54/1/37 53/63/36
f 51/32/35 33/32/2 52/1/2 54/1/37
f 12/56/7 40/10/24 57/31/39 55/33/38
f 40/10/24 11/10/2 56/31/2 57/31/39
f 31/36/17 50/30/34 60/9/41 59/55/40
f 50/30/34 32/30/2 58/9/2 60/9/41
f 10/58/6 39/8/23 63/29/43 61/35/42
f 39/8/23 9/8/2 62/29/2 63/29/43
f 30/38/16 49/28/33 66/7/45 65/57/44
f 49/28/33 29/28/2 64/7/2 66/7/45
f 13/54/8 41/12/25 69/27/47 67/37/46
f 41/12/25 14/12/2 68/27/2 69/27/47
f 27/40/15 48/26/32 72/11/49 71/53/48
f 48/26/32 28/26/2 70/11/2 72/11/49
f 5/62/4 37/4/21 75/25/51 73/39/50
f 37/4/21 6/4/2 74/25/2 75/25/51
f 26/42/14 47/24/31 78/3/53 77/61/52
f 47/24/31 25/24/2 76/3/2 78/3/53
f 16/52/9 42/14/26 81/23/55 79/41/54
f 42/14/26 15/14/2 80/23/2 81/23/55
f 23/44/13 46/22/30 84/13/57 83/51/56
f 46/22/30 24/22/2 82/13/2 84/13/57
f 7/60/5 38/6/22 87/21/59 85/43/58
f 38/6/22 8/6/2 86/21/2 87/21/59
f 22/46/12 45/20/29 90/5/61 89/59/60
f 45/20/29 21/20/2 88/5/2 90/5/61
f 17/50/10 43/16/27 93/19/63 91/45/62
f 43/16/27 18/16/2 92/19/2 93/19/63
f 19/48/11 44/18/28 96/15/65 95/49/64
f 44/18/28 20/18/2 94/15/2 96/15/65
f 1/65/1 35/66/19 99/17/67 97/47/66
f 35/66/19 2/66/2 98/17/2 99/17/67
f 100/65/68 101/66/68 103/2/68 102/64/68
f 104/66/69 106/67/71 107/68/72 105/2/70
f 106/67/71 108/69/73 109/70/74 107/68/72
f 108/69/73 110/71/75 111/72/76 109/70/74
f 110/71/75 112/73/77 113/74/78 111/72/76
f 112/73/77 114/75/79 115/76/80 113/74/78
f 114/75/79 116/77/81 117/78/82 115/76/80
f 116/77/81 118/79/83 119/80/84 117/78/82
f 118/79/83 120/81/85 121/82/86 119/80/84
f 120/81/85 122/83/87 123/84/88 121/82/86
f 122/83/87 124/85/89 125/86/90 123/84/88
f 124/85/89 126/87/91 127/88/92 125/86/90
f 126/87/91 128/89/93 129/90/94 127/88/92
f 128/89/93 130/91/95 131/92/96 129/90/94
f 130/91/95 132/93/97 133/94/98 131/92/96
f 132/93/97 134/95/99 135/96/100 133/94/98
f 134/95/99 136/97/101 137/98/102 135/96/100
f 136/97/101 138/99/103 139/100/104 137/98/102
f 138/99/103 140/101/105 141/102/106 139/100/104
f 140/101/105 142/103/107 143/104/108 141/102/106
f 142/103/107 144/105/109 145/106/110 143/104/108
f 144/105/109 146/107/111 147/108/112 145/106/110
f 146/107/111 148/109/113 149/110/114 147/108/112
f 148/109/113 150/111/115 151/112/116 149/110/114
f 150/111/115 152/113/117 153/114/118 151/112/116
f 152/113/117 154/115/119 155/116/120 153/114/118
f 154/115/119 156/117/121 157/118/122 155/116/120
f 156/117/121 158/119/123 159/120/124 157/118/122
f 158/119/123 160/121/125 161/122/126 159/120/124
f 160/121/125 162/123/127 163/124/128 161/122/126
f 162/123/127 164/125/129 165/126/130 163/124/128
f 164/125/129 166/127/131 167/128/132 165/126/130
f 166/127/131 104/65/69 105/64/70 167/128/132
