# MagicaVoxel @ Ephtracy

# group
o 

# material
mtllib planetariumLB-0.mtl
usemtl palette

# normals
vn -1 0 0
vn 1 0 0
vn 0 0 1
vn 0 0 -1
vn 0 -1 0
vn 0 1 0

# texcoords
vt 0.0136719 0.5
vt 0.0214844 0.5
vt 0.0332031 0.5
vt 0.0371094 0.5
vt 0.0410156 0.5
vt 0.0449219 0.5
vt 0.0488281 0.5
vt 0.0605469 0.5
vt 0.0644531 0.5
vt 0.0683594 0.5
vt 0.0722656 0.5
vt 0.763672 0.5
vt 0.990234 0.5
vt 0.994141 0.5

# verts
v -0.8 -0.2 0.8
v -0.8 -0.2 -0.8
v -0.8 0 0.8
v -0.8 0 -0.8
v -0.8 0.1 0.8
v -0.8 0.1 -0.8
v -0.7 -0.8 0.7
v -0.7 -0.8 0.5
v -0.7 -0.2 0.7
v -0.7 -0.2 0.5
v -0.5 -0.8 0.7
v -0.5 -0.8 0.5
v -0.5 -0.2 0.7
v -0.5 -0.2 0.5
v 0.8 -0.2 0.8
v 0.8 -0.2 -0.8
v 0.8 0 0.8
v 0.8 0 0.7
v 0.8 0 -0.5
v 0.8 0 -0.8
v 0.8 0.1 0.8
v 0.8 0.1 0.7
v 0.8 0.1 -0.5
v 0.8 0.1 -0.8
v -0.8 -0.2 0.8
v -0.8 0 0.8
v -0.8 0.1 0.8
v 0.8 -0.2 0.8
v 0.8 0 0.8
v 0.8 0.1 0.8
v -0.7 -0.8 0.7
v -0.7 -0.2 0.7
v -0.5 -0.8 0.7
v -0.5 -0.2 0.7
v -0.7 -0.8 0.5
v -0.7 -0.2 0.5
v -0.5 -0.8 0.5
v -0.5 -0.2 0.5
v -0.8 -0.2 -0.8
v -0.8 0 -0.8
v -0.8 0.1 -0.8
v -0.7 0 -0.8
v -0.7 0.1 -0.8
v 0.5 0 -0.8
v 0.5 0.1 -0.8
v 0.8 -0.2 -0.8
v 0.8 0 -0.8
v 0.8 0.1 -0.8
v -0.7 -0.8 0.7
v -0.5 -0.8 0.7
v -0.7 -0.8 0.5
v -0.5 -0.8 0.5
v -0.8 -0.2 0.8
v 0.8 -0.2 0.8
v -0.7 -0.2 0.7
v -0.5 -0.2 0.7
v -0.7 -0.2 0.5
v -0.5 -0.2 0.5
v -0.8 -0.2 -0.8
v 0.8 -0.2 -0.8
v -0.8 0.1 0.8
v 0.8 0.1 0.8
v -0.7 0.1 0.7
v 0.8 0.1 0.7
v -0.5 0.1 0.5
v -0.4 0.1 0.5
v -0.3 0.1 0.5
v -0.5 0.1 0.4
v -0.4 0.1 0.4
v -0.3 0.1 0.4
v -0.5 0.1 0.3
v -0.4 0.1 0.3
v -0.3 0.1 0.3
v -0.2 0.1 0.1
v -0.1 0.1 0.1
v 0 0.1 0.1
v 0.1 0.1 0.1
v -0.2 0.1 0
v -0.1 0.1 0
v 0 0.1 0
v 0.1 0.1 0
v -0.2 0.1 -0.1
v -0.1 0.1 -0.1
v 0 0.1 -0.1
v 0.1 0.1 -0.1
v -0.2 0.1 -0.2
v -0.1 0.1 -0.2
v 0 0.1 -0.2
v 0.1 0.1 -0.2
v 0.1 0.1 -0.5
v 0.2 0.1 -0.5
v 0.3 0.1 -0.5
v 0.7 0.1 -0.5
v 0.8 0.1 -0.5
v 0.1 0.1 -0.6
v 0.2 0.1 -0.6
v 0.3 0.1 -0.6
v 0.6 0.1 -0.6
v 0.7 0.1 -0.6
v 0.1 0.1 -0.7
v 0.2 0.1 -0.7
v 0.3 0.1 -0.7
v 0.5 0.1 -0.7
v 0.6 0.1 -0.7
v -0.8 0.1 -0.8
v -0.7 0.1 -0.8
v 0.5 0.1 -0.8
v 0.8 0.1 -0.8

# faces
f 3/13/1 2/13/1 1/13/1
f 4/13/1 2/13/1 3/13/1
f 5/14/1 4/14/1 3/14/1
f 6/14/1 4/14/1 5/14/1
f 9/13/1 8/13/1 7/13/1
f 10/13/1 8/13/1 9/13/1
f 11/13/2 12/13/2 13/13/2
f 13/13/2 12/13/2 14/13/2
f 15/13/2 16/13/2 17/13/2
f 17/13/2 16/13/2 18/13/2
f 18/13/2 16/13/2 19/13/2
f 19/13/2 16/13/2 20/13/2
f 17/14/2 18/14/2 21/14/2
f 18/13/2 19/13/2 22/13/2
f 21/14/2 18/14/2 22/14/2
f 19/2/2 20/2/2 23/2/2
f 22/13/2 19/13/2 23/13/2
f 23/2/2 20/2/2 24/2/2
f 28/13/3 26/13/3 25/13/3
f 29/14/3 27/14/3 26/14/3
f 29/13/3 26/13/3 28/13/3
f 30/14/3 27/14/3 29/14/3
f 33/13/3 32/13/3 31/13/3
f 34/13/3 32/13/3 33/13/3
f 35/13/4 36/13/4 37/13/4
f 37/13/4 36/13/4 38/13/4
f 39/13/4 40/13/4 42/13/4
f 40/14/4 41/14/4 42/14/4
f 42/14/4 41/14/4 43/14/4
f 39/13/4 42/13/4 44/13/4
f 42/13/4 43/13/4 44/13/4
f 44/13/4 43/13/4 45/13/4
f 39/13/4 44/13/4 46/13/4
f 44/2/4 45/2/4 47/2/4
f 46/13/4 44/13/4 47/13/4
f 47/2/4 45/2/4 48/2/4
f 51/13/5 50/13/5 49/13/5
f 52/13/5 50/13/5 51/13/5
f 55/13/5 54/13/5 53/13/5
f 56/13/5 54/13/5 55/13/5
f 57/13/5 55/13/5 53/13/5
f 58/13/5 54/13/5 56/13/5
f 59/13/5 57/13/5 53/13/5
f 59/13/5 58/13/5 57/13/5
f 60/13/5 54/13/5 58/13/5
f 60/13/5 58/13/5 59/13/5
f 61/14/6 62/14/6 63/14/6
f 63/14/6 62/14/6 64/14/6
f 63/13/6 64/13/6 65/13/6
f 65/13/6 64/13/6 66/13/6
f 66/13/6 64/13/6 67/13/6
f 63/13/6 65/13/6 68/13/6
f 65/7/6 66/7/6 68/7/6
f 66/1/6 67/1/6 69/1/6
f 68/7/6 66/7/6 69/7/6
f 67/13/6 64/13/6 70/13/6
f 69/1/6 67/1/6 70/1/6
f 68/1/6 69/1/6 71/1/6
f 63/13/6 68/13/6 71/13/6
f 69/7/6 70/7/6 72/7/6
f 71/1/6 69/1/6 72/1/6
f 70/13/6 64/13/6 73/13/6
f 72/7/6 70/7/6 73/7/6
f 71/13/6 72/13/6 74/13/6
f 73/13/6 64/13/6 74/13/6
f 72/13/6 73/13/6 74/13/6
f 74/13/6 64/13/6 75/13/6
f 75/13/6 64/13/6 76/13/6
f 76/13/6 64/13/6 77/13/6
f 71/13/6 74/13/6 78/13/6
f 74/5/6 75/5/6 78/5/6
f 75/11/6 76/11/6 79/11/6
f 78/5/6 75/5/6 79/5/6
f 76/6/6 77/6/6 80/6/6
f 79/11/6 76/11/6 80/11/6
f 77/13/6 64/13/6 81/13/6
f 80/6/6 77/6/6 81/6/6
f 78/10/6 79/10/6 82/10/6
f 71/13/6 78/13/6 82/13/6
f 79/4/6 80/4/6 83/4/6
f 82/10/6 79/10/6 83/10/6
f 80/9/6 81/9/6 84/9/6
f 83/4/6 80/4/6 84/4/6
f 81/13/6 64/13/6 85/13/6
f 84/9/6 81/9/6 85/9/6
f 71/13/6 82/13/6 86/13/6
f 82/9/6 83/9/6 86/9/6
f 83/3/6 84/3/6 87/3/6
f 86/9/6 83/9/6 87/9/6
f 84/5/6 85/5/6 88/5/6
f 87/3/6 84/3/6 88/3/6
f 85/13/6 64/13/6 89/13/6
f 88/5/6 85/5/6 89/5/6
f 87/13/6 88/13/6 90/13/6
f 89/13/6 64/13/6 90/13/6
f 88/13/6 89/13/6 90/13/6
f 86/13/6 87/13/6 90/13/6
f 90/13/6 64/13/6 91/13/6
f 91/13/6 64/13/6 92/13/6
f 92/13/6 64/13/6 93/13/6
f 93/13/6 64/13/6 94/13/6
f 86/13/6 90/13/6 95/13/6
f 90/12/6 91/12/6 95/12/6
f 91/8/6 92/8/6 96/8/6
f 95/12/6 91/12/6 96/12/6
f 92/13/6 93/13/6 97/13/6
f 96/8/6 92/8/6 97/8/6
f 97/13/6 93/13/6 98/13/6
f 93/2/6 94/2/6 99/2/6
f 98/13/6 93/13/6 99/13/6
f 86/13/6 95/13/6 100/13/6
f 95/8/6 96/8/6 100/8/6
f 96/12/6 97/12/6 101/12/6
f 100/8/6 96/8/6 101/8/6
f 97/13/6 98/13/6 102/13/6
f 101/12/6 97/12/6 102/12/6
f 102/13/6 98/13/6 103/13/6
f 98/2/6 99/2/6 104/2/6
f 103/13/6 98/13/6 104/13/6
f 61/14/6 63/14/6 105/14/6
f 63/13/6 71/13/6 106/13/6
f 105/14/6 63/14/6 106/14/6
f 71/13/6 86/13/6 106/13/6
f 100/13/6 101/13/6 106/13/6
f 101/13/6 102/13/6 106/13/6
f 86/13/6 100/13/6 106/13/6
f 102/13/6 103/13/6 106/13/6
f 103/2/6 104/2/6 107/2/6
f 106/13/6 103/13/6 107/13/6
f 104/2/6 99/2/6 108/2/6
f 107/2/6 104/2/6 108/2/6
f 99/2/6 94/2/6 108/2/6
