# MagicaVoxel @ Ephtracy

# group
o 

# material
mtllib Static Objects-16.mtl
usemtl palette

# normals
vn -1 0 0
vn 1 0 0
vn 0 0 1
vn 0 0 -1
vn 0 -1 0
vn 0 1 0

# texcoords
vt 0.845703 0.5
vt 0.876953 0.5
vt 0.939453 0.5
vt 0.970703 0.5
vt 0.978516 0.5

# verts
v -0.8 -0.8 -0.5
v -0.8 -0.8 -0.8
v -0.8 -0.7 -0.5
v -0.8 -0.7 -0.6
v -0.8 0.7 -0.5
v -0.8 0.7 -0.6
v -0.8 0.8 -0.5
v -0.8 0.8 -0.8
v -0.4 0.7 -0.5
v -0.4 0.7 -0.6
v -0.4 0.8 -0.5
v -0.4 0.8 -0.6
v -0.3 0.6 -0.6
v -0.3 0.6 -0.7
v -0.3 0.7 -0.6
v -0.3 0.7 -0.7
v 0.6 -0.8 -0.6
v 0.6 -0.8 -0.7
v 0.6 -0.7 -0.6
v 0.6 -0.7 -0.7
v 0.6 0.6 -0.6
v 0.6 0.6 -0.7
v 0.6 0.7 -0.6
v 0.6 0.7 -0.7
v 0.7 -0.8 -0.5
v 0.7 -0.8 -0.6
v 0.7 -0.7 -0.5
v 0.7 -0.7 -0.6
v 0.7 -0.7 -0.7
v 0.7 0.6 -0.6
v 0.7 0.6 -0.7
v 0.7 0.7 -0.5
v 0.7 0.7 -0.6
v 0.7 0.8 -0.5
v 0.7 0.8 -0.6
v -0.7 -0.8 -0.5
v -0.7 -0.8 -0.6
v -0.7 -0.7 -0.5
v -0.7 -0.7 -0.6
v -0.7 -0.7 -0.7
v -0.7 0.6 -0.6
v -0.7 0.6 -0.7
v -0.7 0.7 -0.5
v -0.7 0.7 -0.6
v -0.7 0.8 -0.5
v -0.7 0.8 -0.6
v -0.6 -0.8 -0.6
v -0.6 -0.8 -0.7
v -0.6 -0.7 -0.6
v -0.6 -0.7 -0.7
v -0.6 0.6 -0.6
v -0.6 0.6 -0.7
v -0.6 0.7 -0.6
v -0.6 0.7 -0.7
v 0.3 0.6 -0.6
v 0.3 0.6 -0.7
v 0.3 0.7 -0.6
v 0.3 0.7 -0.7
v 0.4 0.7 -0.5
v 0.4 0.7 -0.6
v 0.4 0.8 -0.5
v 0.4 0.8 -0.6
v 0.8 -0.8 -0.5
v 0.8 -0.8 -0.8
v 0.8 -0.7 -0.5
v 0.8 -0.7 -0.6
v 0.8 0.7 -0.5
v 0.8 0.7 -0.6
v 0.8 0.8 -0.5
v 0.8 0.8 -0.8
v -0.8 -0.8 -0.5
v -0.8 -0.7 -0.5
v -0.8 0.7 -0.5
v -0.8 0.8 -0.5
v -0.7 -0.8 -0.5
v -0.7 -0.7 -0.5
v -0.7 0.7 -0.5
v -0.7 0.8 -0.5
v -0.4 0.7 -0.5
v -0.4 0.8 -0.5
v 0.4 0.7 -0.5
v 0.4 0.8 -0.5
v 0.7 -0.8 -0.5
v 0.7 -0.7 -0.5
v 0.7 0.7 -0.5
v 0.7 0.8 -0.5
v 0.8 -0.8 -0.5
v 0.8 -0.7 -0.5
v 0.8 0.7 -0.5
v 0.8 0.8 -0.5
v -0.8 -0.7 -0.6
v -0.8 0.7 -0.6
v -0.7 -0.8 -0.6
v -0.7 -0.7 -0.6
v -0.7 0.6 -0.6
v -0.7 0.7 -0.6
v -0.7 0.8 -0.6
v -0.6 -0.8 -0.6
v -0.6 -0.7 -0.6
v -0.6 0.6 -0.6
v -0.6 0.7 -0.6
v -0.4 0.7 -0.6
v -0.4 0.8 -0.6
v -0.3 0.6 -0.6
v -0.3 0.7 -0.6
v 0.3 0.6 -0.6
v 0.3 0.7 -0.6
v 0.4 0.7 -0.6
v 0.4 0.8 -0.6
v 0.6 -0.8 -0.6
v 0.6 -0.7 -0.6
v 0.6 0.6 -0.6
v 0.6 0.7 -0.6
v 0.7 -0.8 -0.6
v 0.7 -0.7 -0.6
v 0.7 0.6 -0.6
v 0.7 0.7 -0.6
v 0.7 0.8 -0.6
v 0.8 -0.7 -0.6
v 0.8 0.7 -0.6
v -0.7 -0.7 -0.7
v -0.7 0.6 -0.7
v -0.6 -0.8 -0.7
v -0.6 -0.7 -0.7
v -0.6 0.6 -0.7
v -0.6 0.7 -0.7
v -0.5 -0.7 -0.7
v -0.5 -0.6 -0.7
v -0.5 0.5 -0.7
v -0.5 0.6 -0.7
v -0.4 -0.8 -0.7
v -0.4 -0.7 -0.7
v -0.4 -0.6 -0.7
v -0.4 -0.4 -0.7
v -0.4 0.3 -0.7
v -0.4 0.5 -0.7
v -0.4 0.6 -0.7
v -0.4 0.7 -0.7
v -0.3 -0.7 -0.7
v -0.3 -0.6 -0.7
v -0.3 -0.4 -0.7
v -0.3 0.3 -0.7
v -0.3 0.5 -0.7
v -0.3 0.6 -0.7
v -0.3 0.7 -0.7
v -0.2 -0.6 -0.7
v -0.2 -0.4 -0.7
v -0.2 0.3 -0.7
v -0.2 0.5 -0.7
v -0.1 -0.4 -0.7
v -0.1 0.3 -0.7
v 0.1 -0.4 -0.7
v 0.1 0.3 -0.7
v 0.2 -0.6 -0.7
v 0.2 -0.4 -0.7
v 0.2 0.3 -0.7
v 0.2 0.5 -0.7
v 0.3 -0.7 -0.7
v 0.3 -0.6 -0.7
v 0.3 -0.4 -0.7
v 0.3 0.3 -0.7
v 0.3 0.5 -0.7
v 0.3 0.6 -0.7
v 0.3 0.7 -0.7
v 0.4 -0.8 -0.7
v 0.4 -0.7 -0.7
v 0.4 -0.6 -0.7
v 0.4 -0.4 -0.7
v 0.4 0.3 -0.7
v 0.4 0.5 -0.7
v 0.4 0.6 -0.7
v 0.4 0.7 -0.7
v 0.5 -0.7 -0.7
v 0.5 -0.6 -0.7
v 0.5 -0.1 -0.7
v 0.5 0.1 -0.7
v 0.5 0.5 -0.7
v 0.5 0.6 -0.7
v 0.6 -0.8 -0.7
v 0.6 -0.7 -0.7
v 0.6 -0.1 -0.7
v 0.6 0.1 -0.7
v 0.6 0.6 -0.7
v 0.6 0.7 -0.7
v 0.7 -0.7 -0.7
v 0.7 0.6 -0.7
v -0.8 -0.8 -0.8
v -0.8 0.8 -0.8
v -0.7 -0.8 -0.8
v -0.7 0.7 -0.8
v -0.6 -0.8 -0.8
v -0.6 -0.7 -0.8
v -0.6 0.6 -0.8
v -0.6 0.7 -0.8
v -0.5 -0.7 -0.8
v -0.5 -0.6 -0.8
v -0.5 0.5 -0.8
v -0.5 0.6 -0.8
v -0.4 -0.8 -0.8
v -0.4 -0.7 -0.8
v -0.4 -0.6 -0.8
v -0.4 -0.4 -0.8
v -0.4 0.3 -0.8
v -0.4 0.5 -0.8
v -0.4 0.6 -0.8
v -0.4 0.7 -0.8
v -0.3 -0.7 -0.8
v -0.3 -0.6 -0.8
v -0.3 -0.4 -0.8
v -0.3 0.3 -0.8
v -0.3 0.5 -0.8
v -0.2 -0.6 -0.8
v -0.2 -0.4 -0.8
v -0.2 0.3 -0.8
v -0.2 0.5 -0.8
v -0.1 -0.4 -0.8
v -0.1 0.3 -0.8
v 0.1 -0.4 -0.8
v 0.1 0.3 -0.8
v 0.2 -0.6 -0.8
v 0.2 -0.4 -0.8
v 0.2 0.3 -0.8
v 0.2 0.5 -0.8
v 0.3 -0.7 -0.8
v 0.3 -0.6 -0.8
v 0.3 -0.4 -0.8
v 0.3 0.3 -0.8
v 0.3 0.5 -0.8
v 0.4 -0.8 -0.8
v 0.4 -0.7 -0.8
v 0.4 -0.6 -0.8
v 0.4 -0.4 -0.8
v 0.4 0.3 -0.8
v 0.4 0.5 -0.8
v 0.4 0.6 -0.8
v 0.4 0.7 -0.8
v 0.5 -0.7 -0.8
v 0.5 -0.6 -0.8
v 0.5 -0.1 -0.8
v 0.5 0.1 -0.8
v 0.5 0.5 -0.8
v 0.5 0.6 -0.8
v 0.6 -0.8 -0.8
v 0.6 -0.7 -0.8
v 0.6 -0.1 -0.8
v 0.6 0.1 -0.8
v 0.6 0.6 -0.8
v 0.6 0.7 -0.8
v 0.7 -0.8 -0.8
v 0.7 0.7 -0.8
v 0.8 -0.8 -0.8
v 0.8 0.8 -0.8
v -0.8 -0.8 -0.5
v -0.7 -0.8 -0.5
v 0.7 -0.8 -0.5
v 0.8 -0.8 -0.5
v -0.7 -0.8 -0.6
v -0.6 -0.8 -0.6
v 0.6 -0.8 -0.6
v 0.7 -0.8 -0.6
v -0.7 -0.8 -0.7
v -0.6 -0.8 -0.7
v -0.4 -0.8 -0.7
v 0.4 -0.8 -0.7
v 0.6 -0.8 -0.7
v 0.7 -0.8 -0.7
v -0.8 -0.8 -0.8
v -0.7 -0.8 -0.8
v -0.6 -0.8 -0.8
v -0.4 -0.8 -0.8
v 0.4 -0.8 -0.8
v 0.6 -0.8 -0.8
v 0.7 -0.8 -0.8
v 0.8 -0.8 -0.8
v -0.7 0.6 -0.6
v -0.6 0.6 -0.6
v -0.3 0.6 -0.6
v 0.3 0.6 -0.6
v 0.6 0.6 -0.6
v 0.7 0.6 -0.6
v -0.7 0.6 -0.7
v -0.6 0.6 -0.7
v -0.3 0.6 -0.7
v 0.3 0.6 -0.7
v 0.6 0.6 -0.7
v 0.7 0.6 -0.7
v -0.8 0.7 -0.5
v -0.7 0.7 -0.5
v -0.4 0.7 -0.5
v 0.4 0.7 -0.5
v 0.7 0.7 -0.5
v 0.8 0.7 -0.5
v -0.8 0.7 -0.6
v -0.7 0.7 -0.6
v -0.6 0.7 -0.6
v -0.4 0.7 -0.6
v -0.3 0.7 -0.6
v 0.3 0.7 -0.6
v 0.4 0.7 -0.6
v 0.6 0.7 -0.6
v 0.7 0.7 -0.6
v 0.8 0.7 -0.6
v -0.6 0.7 -0.7
v -0.4 0.7 -0.7
v -0.3 0.7 -0.7
v 0.3 0.7 -0.7
v 0.4 0.7 -0.7
v 0.6 0.7 -0.7
v -0.8 -0.7 -0.5
v -0.7 -0.7 -0.5
v 0.7 -0.7 -0.5
v 0.8 -0.7 -0.5
v -0.8 -0.7 -0.6
v -0.7 -0.7 -0.6
v -0.6 -0.7 -0.6
v 0.6 -0.7 -0.6
v 0.7 -0.7 -0.6
v 0.8 -0.7 -0.6
v -0.7 -0.7 -0.7
v -0.6 -0.7 -0.7
v 0.6 -0.7 -0.7
v 0.7 -0.7 -0.7
v -0.8 0.8 -0.5
v -0.7 0.8 -0.5
v -0.4 0.8 -0.5
v 0.4 0.8 -0.5
v 0.7 0.8 -0.5
v 0.8 0.8 -0.5
v -0.7 0.8 -0.6
v -0.4 0.8 -0.6
v 0.4 0.8 -0.6
v 0.7 0.8 -0.6
v -0.8 0.8 -0.8
v 0.8 0.8 -0.8

# faces
f 3/4/1 2/4/1 1/4/1
f 4/4/1 2/4/1 3/4/1
f 6/4/1 2/4/1 4/4/1
f 7/4/1 6/4/1 5/4/1
f 8/4/1 2/4/1 6/4/1
f 8/4/1 6/4/1 7/4/1
f 11/4/1 10/4/1 9/4/1
f 12/4/1 10/4/1 11/4/1
f 15/3/1 14/3/1 13/3/1
f 16/3/1 14/3/1 15/3/1
f 19/4/1 18/4/1 17/4/1
f 20/4/1 18/4/1 19/4/1
f 23/4/1 22/4/1 21/4/1
f 24/4/1 22/4/1 23/4/1
f 27/4/1 26/4/1 25/4/1
f 28/4/1 26/4/1 27/4/1
f 30/4/1 29/4/1 28/4/1
f 31/4/1 29/4/1 30/4/1
f 34/4/1 33/4/1 32/4/1
f 35/4/1 33/4/1 34/4/1
f 36/4/2 37/4/2 38/4/2
f 38/4/2 37/4/2 39/4/2
f 39/4/2 40/4/2 41/4/2
f 41/4/2 40/4/2 42/4/2
f 43/4/2 44/4/2 45/4/2
f 45/4/2 44/4/2 46/4/2
f 47/4/2 48/4/2 49/4/2
f 49/4/2 48/4/2 50/4/2
f 51/4/2 52/4/2 53/4/2
f 53/4/2 52/4/2 54/4/2
f 55/3/2 56/3/2 57/3/2
f 57/3/2 56/3/2 58/3/2
f 59/4/2 60/4/2 61/4/2
f 61/4/2 60/4/2 62/4/2
f 63/4/2 64/4/2 65/4/2
f 65/4/2 64/4/2 66/4/2
f 66/4/2 64/4/2 68/4/2
f 67/4/2 68/4/2 69/4/2
f 68/4/2 64/4/2 70/4/2
f 69/4/2 68/4/2 70/4/2
f 75/4/3 72/4/3 71/4/3
f 76/4/3 72/4/3 75/4/3
f 77/4/3 74/4/3 73/4/3
f 78/4/3 74/4/3 77/4/3
f 81/4/3 80/4/3 79/4/3
f 82/4/3 80/4/3 81/4/3
f 87/4/3 84/4/3 83/4/3
f 88/4/3 84/4/3 87/4/3
f 89/4/3 86/4/3 85/4/3
f 90/4/3 86/4/3 89/4/3
f 94/4/3 92/4/3 91/4/3
f 95/4/3 92/4/3 94/4/3
f 96/4/3 92/4/3 95/4/3
f 98/4/3 94/4/3 93/4/3
f 99/4/3 94/4/3 98/4/3
f 100/4/3 97/4/3 96/4/3
f 100/4/3 96/4/3 95/4/3
f 101/4/3 97/4/3 100/4/3
f 102/4/3 97/4/3 101/4/3
f 103/4/3 97/4/3 102/4/3
f 106/3/3 105/3/3 104/3/3
f 107/3/3 105/3/3 106/3/3
f 113/4/3 109/4/3 108/4/3
f 114/4/3 111/4/3 110/4/3
f 115/4/3 111/4/3 114/4/3
f 116/4/3 113/4/3 112/4/3
f 117/4/3 109/4/3 113/4/3
f 117/4/3 113/4/3 116/4/3
f 118/4/3 109/4/3 117/4/3
f 119/4/3 116/4/3 115/4/3
f 119/4/3 117/4/3 116/4/3
f 120/4/3 117/4/3 119/4/3
f 124/3/3 122/3/3 121/3/3
f 125/3/3 122/3/3 124/3/3
f 127/2/3 124/2/3 123/2/3
f 127/3/3 125/3/3 124/3/3
f 128/3/3 125/3/3 127/3/3
f 129/3/3 125/3/3 128/3/3
f 130/2/3 126/2/3 125/2/3
f 130/3/3 125/3/3 129/3/3
f 131/2/3 127/2/3 123/2/3
f 132/1/3 128/1/3 127/1/3
f 132/2/3 127/2/3 131/2/3
f 133/3/3 129/3/3 128/3/3
f 133/1/3 128/1/3 132/1/3
f 134/3/3 129/3/3 133/3/3
f 135/3/3 129/3/3 134/3/3
f 136/1/3 130/1/3 129/1/3
f 136/3/3 129/3/3 135/3/3
f 137/2/3 126/2/3 130/2/3
f 137/1/3 130/1/3 136/1/3
f 138/2/3 126/2/3 137/2/3
f 139/3/3 132/3/3 131/3/3
f 139/2/3 133/2/3 132/2/3
f 140/1/3 134/1/3 133/1/3
f 140/2/3 133/2/3 139/2/3
f 141/3/3 135/3/3 134/3/3
f 141/1/3 134/1/3 140/1/3
f 142/1/3 136/1/3 135/1/3
f 142/3/3 135/3/3 141/3/3
f 143/4/3 138/4/3 137/4/3
f 143/1/3 136/1/3 142/1/3
f 143/4/3 137/4/3 136/4/3
f 144/4/3 138/4/3 143/4/3
f 145/4/3 138/4/3 144/4/3
f 146/2/3 141/2/3 140/2/3
f 146/3/3 140/3/3 139/3/3
f 147/1/3 142/1/3 141/1/3
f 147/2/3 141/2/3 146/2/3
f 148/2/3 143/2/3 142/2/3
f 148/1/3 142/1/3 147/1/3
f 149/4/3 144/4/3 143/4/3
f 149/2/3 143/2/3 148/2/3
f 150/2/3 148/2/3 147/2/3
f 150/3/3 147/3/3 146/3/3
f 151/3/3 149/3/3 148/3/3
f 151/2/3 148/2/3 150/2/3
f 152/3/3 150/3/3 146/3/3
f 152/3/3 151/3/3 150/3/3
f 153/3/3 149/3/3 151/3/3
f 153/3/3 151/3/3 152/3/3
f 154/3/3 146/3/3 139/3/3
f 154/3/3 152/3/3 146/3/3
f 155/2/3 153/2/3 152/2/3
f 155/3/3 152/3/3 154/3/3
f 156/3/3 149/3/3 153/3/3
f 156/2/3 153/2/3 155/2/3
f 157/4/3 144/4/3 149/4/3
f 157/3/3 149/3/3 156/3/3
f 158/3/3 139/3/3 131/3/3
f 158/3/3 154/3/3 139/3/3
f 159/2/3 155/2/3 154/2/3
f 159/3/3 154/3/3 158/3/3
f 160/1/3 156/1/3 155/1/3
f 160/2/3 155/2/3 159/2/3
f 161/2/3 157/2/3 156/2/3
f 161/1/3 156/1/3 160/1/3
f 162/4/3 144/4/3 157/4/3
f 162/2/3 157/2/3 161/2/3
f 163/4/3 144/4/3 162/4/3
f 165/3/3 158/3/3 131/3/3
f 166/2/3 159/2/3 158/2/3
f 166/3/3 158/3/3 165/3/3
f 167/1/3 160/1/3 159/1/3
f 167/2/3 159/2/3 166/2/3
f 168/3/3 161/3/3 160/3/3
f 168/1/3 160/1/3 167/1/3
f 169/1/3 162/1/3 161/1/3
f 169/3/3 161/3/3 168/3/3
f 170/4/3 164/4/3 163/4/3
f 170/1/3 162/1/3 169/1/3
f 170/4/3 163/4/3 162/4/3
f 171/4/3 164/4/3 170/4/3
f 172/4/3 164/4/3 171/4/3
f 173/1/3 167/1/3 166/1/3
f 173/2/3 166/2/3 165/2/3
f 174/3/3 169/3/3 168/3/3
f 174/1/3 167/1/3 173/1/3
f 174/3/3 168/3/3 167/3/3
f 174/3/3 170/3/3 169/3/3
f 175/3/3 170/3/3 174/3/3
f 176/3/3 170/3/3 175/3/3
f 177/1/3 171/1/3 170/1/3
f 177/3/3 170/3/3 176/3/3
f 178/2/3 172/2/3 171/2/3
f 178/1/3 171/1/3 177/1/3
f 179/2/3 173/2/3 165/2/3
f 180/3/3 174/3/3 173/3/3
f 180/2/3 173/2/3 179/2/3
f 180/3/3 175/3/3 174/3/3
f 181/5/3 176/5/3 175/5/3
f 181/3/3 175/3/3 180/3/3
f 182/3/3 177/3/3 176/3/3
f 182/5/3 176/5/3 181/5/3
f 182/3/3 178/3/3 177/3/3
f 183/2/3 172/2/3 178/2/3
f 183/3/3 178/3/3 182/3/3
f 184/2/3 172/2/3 183/2/3
f 185/3/3 182/3/3 181/3/3
f 185/3/3 181/3/3 180/3/3
f 185/3/3 183/3/3 182/3/3
f 186/3/3 183/3/3 185/3/3
f 187/4/4 188/4/4 189/4/4
f 189/4/4 188/4/4 190/4/4
f 189/3/4 190/3/4 191/3/4
f 191/3/4 190/3/4 192/3/4
f 192/3/4 190/3/4 193/3/4
f 190/4/4 188/4/4 194/4/4
f 193/3/4 190/3/4 194/3/4
f 192/3/4 193/3/4 195/3/4
f 191/2/4 192/2/4 195/2/4
f 195/3/4 193/3/4 196/3/4
f 196/3/4 193/3/4 197/3/4
f 193/2/4 194/2/4 198/2/4
f 197/3/4 193/3/4 198/3/4
f 191/2/4 195/2/4 199/2/4
f 195/1/4 196/1/4 200/1/4
f 199/2/4 195/2/4 200/2/4
f 196/3/4 197/3/4 201/3/4
f 200/1/4 196/1/4 201/1/4
f 201/3/4 197/3/4 202/3/4
f 202/3/4 197/3/4 203/3/4
f 197/1/4 198/1/4 204/1/4
f 203/3/4 197/3/4 204/3/4
f 198/2/4 194/2/4 205/2/4
f 204/1/4 198/1/4 205/1/4
f 194/4/4 188/4/4 206/4/4
f 205/2/4 194/2/4 206/2/4
f 199/3/4 200/3/4 207/3/4
f 200/2/4 201/2/4 207/2/4
f 201/1/4 202/1/4 208/1/4
f 207/2/4 201/2/4 208/2/4
f 202/3/4 203/3/4 209/3/4
f 208/1/4 202/1/4 209/1/4
f 203/1/4 204/1/4 210/1/4
f 209/3/4 203/3/4 210/3/4
f 204/4/4 205/4/4 211/4/4
f 210/1/4 204/1/4 211/1/4
f 205/4/4 206/4/4 211/4/4
f 208/2/4 209/2/4 212/2/4
f 207/3/4 208/3/4 212/3/4
f 209/1/4 210/1/4 213/1/4
f 212/2/4 209/2/4 213/2/4
f 210/2/4 211/2/4 214/2/4
f 213/1/4 210/1/4 214/1/4
f 211/4/4 206/4/4 215/4/4
f 214/2/4 211/2/4 215/2/4
f 213/2/4 214/2/4 216/2/4
f 212/3/4 213/3/4 216/3/4
f 214/3/4 215/3/4 217/3/4
f 216/2/4 214/2/4 217/2/4
f 212/3/4 216/3/4 218/3/4
f 216/3/4 217/3/4 218/3/4
f 217/3/4 215/3/4 219/3/4
f 218/3/4 217/3/4 219/3/4
f 207/3/4 212/3/4 220/3/4
f 212/3/4 218/3/4 220/3/4
f 218/2/4 219/2/4 221/2/4
f 220/3/4 218/3/4 221/3/4
f 219/3/4 215/3/4 222/3/4
f 221/2/4 219/2/4 222/2/4
f 215/4/4 206/4/4 223/4/4
f 222/3/4 215/3/4 223/3/4
f 207/3/4 220/3/4 224/3/4
f 199/3/4 207/3/4 224/3/4
f 220/2/4 221/2/4 225/2/4
f 224/3/4 220/3/4 225/3/4
f 221/1/4 222/1/4 226/1/4
f 225/2/4 221/2/4 226/2/4
f 222/2/4 223/2/4 227/2/4
f 226/1/4 222/1/4 227/1/4
f 223/4/4 206/4/4 228/4/4
f 227/2/4 223/2/4 228/2/4
f 199/3/4 224/3/4 229/3/4
f 224/2/4 225/2/4 230/2/4
f 229/3/4 224/3/4 230/3/4
f 225/1/4 226/1/4 231/1/4
f 230/2/4 225/2/4 231/2/4
f 226/3/4 227/3/4 232/3/4
f 231/1/4 226/1/4 232/1/4
f 227/1/4 228/1/4 233/1/4
f 232/3/4 227/3/4 233/3/4
f 228/4/4 206/4/4 234/4/4
f 233/1/4 228/1/4 234/1/4
f 234/4/4 206/4/4 235/4/4
f 206/4/4 188/4/4 236/4/4
f 235/4/4 206/4/4 236/4/4
f 230/1/4 231/1/4 237/1/4
f 229/2/4 230/2/4 237/2/4
f 232/3/4 233/3/4 238/3/4
f 237/1/4 231/1/4 238/1/4
f 231/3/4 232/3/4 238/3/4
f 233/3/4 234/3/4 238/3/4
f 238/3/4 234/3/4 239/3/4
f 239/3/4 234/3/4 240/3/4
f 234/1/4 235/1/4 241/1/4
f 240/3/4 234/3/4 241/3/4
f 235/2/4 236/2/4 242/2/4
f 241/1/4 235/1/4 242/1/4
f 229/2/4 237/2/4 243/2/4
f 237/3/4 238/3/4 244/3/4
f 243/2/4 237/2/4 244/2/4
f 238/3/4 239/3/4 244/3/4
f 239/5/4 240/5/4 245/5/4
f 244/3/4 239/3/4 245/3/4
f 240/3/4 241/3/4 246/3/4
f 245/5/4 240/5/4 246/5/4
f 241/3/4 242/3/4 246/3/4
f 242/2/4 236/2/4 247/2/4
f 246/3/4 242/3/4 247/3/4
f 236/4/4 188/4/4 248/4/4
f 247/2/4 236/2/4 248/2/4
f 245/3/4 246/3/4 249/3/4
f 243/3/4 244/3/4 249/3/4
f 247/3/4 248/3/4 249/3/4
f 246/3/4 247/3/4 249/3/4
f 244/3/4 245/3/4 249/3/4
f 248/4/4 188/4/4 250/4/4
f 249/3/4 248/3/4 250/3/4
f 249/4/4 250/4/4 251/4/4
f 250/4/4 188/4/4 252/4/4
f 251/4/4 250/4/4 252/4/4
f 257/4/5 254/4/5 253/4/5
f 260/4/5 256/4/5 255/4/5
f 261/4/5 258/4/5 257/4/5
f 261/4/5 257/4/5 253/4/5
f 262/4/5 258/4/5 261/4/5
f 265/4/5 260/4/5 259/4/5
f 266/4/5 256/4/5 260/4/5
f 266/4/5 260/4/5 265/4/5
f 267/4/5 261/4/5 253/4/5
f 268/3/5 262/3/5 261/3/5
f 268/4/5 261/4/5 267/4/5
f 269/2/5 263/2/5 262/2/5
f 269/3/5 262/3/5 268/3/5
f 270/3/5 264/3/5 263/3/5
f 270/2/5 263/2/5 269/2/5
f 271/2/5 265/2/5 264/2/5
f 271/3/5 264/3/5 270/3/5
f 272/3/5 266/3/5 265/3/5
f 272/2/5 265/2/5 271/2/5
f 273/4/5 256/4/5 266/4/5
f 273/3/5 266/3/5 272/3/5
f 274/4/5 256/4/5 273/4/5
f 281/4/5 276/4/5 275/4/5
f 282/4/5 276/4/5 281/4/5
f 283/3/5 278/3/5 277/3/5
f 284/3/5 278/3/5 283/3/5
f 285/4/5 280/4/5 279/4/5
f 286/4/5 280/4/5 285/4/5
f 293/4/5 288/4/5 287/4/5
f 294/4/5 288/4/5 293/4/5
f 296/4/5 290/4/5 289/4/5
f 297/4/5 290/4/5 296/4/5
f 298/4/5 290/4/5 297/4/5
f 299/4/5 290/4/5 298/4/5
f 301/4/5 292/4/5 291/4/5
f 302/4/5 292/4/5 301/4/5
f 303/4/5 296/4/5 295/4/5
f 303/4/5 297/4/5 296/4/5
f 304/4/5 297/4/5 303/4/5
f 305/4/5 297/4/5 304/4/5
f 306/4/5 300/4/5 299/4/5
f 306/4/5 299/4/5 298/4/5
f 307/4/5 300/4/5 306/4/5
f 308/4/5 300/4/5 307/4/5
f 309/4/6 310/4/6 313/4/6
f 313/4/6 310/4/6 314/4/6
f 311/4/6 312/4/6 317/4/6
f 317/4/6 312/4/6 318/4/6
f 314/4/6 315/4/6 319/4/6
f 319/4/6 315/4/6 320/4/6
f 316/4/6 317/4/6 321/4/6
f 321/4/6 317/4/6 322/4/6
f 323/4/6 324/4/6 329/4/6
f 325/4/6 326/4/6 330/4/6
f 330/4/6 326/4/6 331/4/6
f 327/4/6 328/4/6 332/4/6
f 330/4/6 331/4/6 333/4/6
f 331/4/6 332/4/6 333/4/6
f 323/4/6 329/4/6 333/4/6
f 329/4/6 330/4/6 333/4/6
f 332/4/6 328/4/6 334/4/6
f 333/4/6 332/4/6 334/4/6
