# MagicaVoxel @ Ephtracy

# group
o 

# material
mtllib Static Objects-15.mtl
usemtl palette

# normals
vn -1 0 0
vn 1 0 0
vn 0 0 1
vn 0 0 -1
vn 0 -1 0
vn 0 1 0

# texcoords
vt 0.845703 0.5
vt 0.876953 0.5
vt 0.939453 0.5
vt 0.970703 0.5
vt 0.978516 0.5
vt 0.982422 0.5
vt 0.990234 0.5

# verts
v -0.8 -0.8 -0.5
v -0.8 -0.8 -0.8
v -0.8 -0.7 -0.5
v -0.8 -0.7 -0.6
v -0.8 0.7 -0.5
v -0.8 0.7 -0.6
v -0.8 0.8 -0.5
v -0.8 0.8 -0.8
v -0.5 -0.2 -0.6
v -0.5 -0.2 -0.7
v -0.5 0.3 -0.6
v -0.5 0.3 -0.7
v -0.2 -0.4 -0.5
v -0.2 -0.4 -0.7
v -0.2 -0.3 -0.5
v -0.2 -0.3 -0.7
v 0.4 -0.1 -0.6
v 0.4 -0.1 -0.7
v 0.4 0.2 -0.6
v 0.4 0.2 -0.7
v 0.6 -0.8 -0.6
v 0.6 -0.8 -0.7
v 0.6 -0.7 -0.6
v 0.6 -0.7 -0.7
v 0.6 0.6 -0.6
v 0.6 0.6 -0.7
v 0.6 0.7 -0.6
v 0.6 0.7 -0.7
v 0.7 -0.8 -0.5
v 0.7 -0.8 -0.6
v 0.7 -0.7 -0.5
v 0.7 -0.7 -0.6
v 0.7 -0.7 -0.7
v 0.7 0.4 -0.7
v 0.7 0.5 -0.7
v 0.7 0.6 -0.6
v 0.7 0.6 -0.7
v 0.7 0.7 -0.5
v 0.7 0.7 -0.6
v 0.7 0.8 -0.5
v 0.7 0.8 -0.6
v -0.7 -0.8 -0.5
v -0.7 -0.8 -0.6
v -0.7 -0.7 -0.5
v -0.7 -0.7 -0.6
v -0.7 -0.7 -0.7
v -0.7 0.6 -0.6
v -0.7 0.6 -0.7
v -0.7 0.7 -0.5
v -0.7 0.7 -0.6
v -0.7 0.8 -0.5
v -0.7 0.8 -0.6
v -0.6 -0.8 -0.6
v -0.6 -0.8 -0.7
v -0.6 -0.7 -0.6
v -0.6 -0.7 -0.7
v -0.6 0.6 -0.6
v -0.6 0.6 -0.7
v -0.6 0.7 -0.6
v -0.6 0.7 -0.7
v -0.4 -0.1 -0.6
v -0.4 -0.1 -0.7
v -0.4 0.2 -0.6
v -0.4 0.2 -0.7
v 0.2 -0.4 -0.5
v 0.2 -0.4 -0.7
v 0.2 -0.3 -0.5
v 0.2 -0.3 -0.7
v 0.5 -0.2 -0.6
v 0.5 -0.2 -0.7
v 0.5 0.3 -0.6
v 0.5 0.3 -0.7
v 0.8 -0.8 -0.5
v 0.8 -0.8 -0.8
v 0.8 -0.7 -0.5
v 0.8 -0.7 -0.6
v 0.8 0.7 -0.5
v 0.8 0.7 -0.6
v 0.8 0.8 -0.5
v 0.8 0.8 -0.8
v -0.8 -0.8 -0.5
v -0.8 -0.7 -0.5
v -0.8 0.7 -0.5
v -0.8 0.8 -0.5
v -0.7 -0.8 -0.5
v -0.7 -0.7 -0.5
v -0.7 0.7 -0.5
v -0.7 0.8 -0.5
v -0.2 -0.4 -0.5
v -0.2 -0.3 -0.5
v 0.2 -0.4 -0.5
v 0.2 -0.3 -0.5
v 0.7 -0.8 -0.5
v 0.7 -0.7 -0.5
v 0.7 0.7 -0.5
v 0.7 0.8 -0.5
v 0.8 -0.8 -0.5
v 0.8 -0.7 -0.5
v 0.8 0.7 -0.5
v 0.8 0.8 -0.5
v -0.8 -0.7 -0.6
v -0.8 0.7 -0.6
v -0.7 -0.8 -0.6
v -0.7 -0.7 -0.6
v -0.7 0.6 -0.6
v -0.7 0.7 -0.6
v -0.7 0.8 -0.6
v -0.6 -0.8 -0.6
v -0.6 -0.7 -0.6
v -0.6 0.6 -0.6
v -0.6 0.7 -0.6
v -0.5 -0.2 -0.6
v -0.5 0.3 -0.6
v -0.4 -0.1 -0.6
v -0.4 0.2 -0.6
v 0.4 -0.1 -0.6
v 0.4 0.2 -0.6
v 0.5 -0.2 -0.6
v 0.5 0.3 -0.6
v 0.6 -0.8 -0.6
v 0.6 -0.7 -0.6
v 0.6 0.6 -0.6
v 0.6 0.7 -0.6
v 0.7 -0.8 -0.6
v 0.7 -0.7 -0.6
v 0.7 0.6 -0.6
v 0.7 0.7 -0.6
v 0.7 0.8 -0.6
v 0.8 -0.7 -0.6
v 0.8 0.7 -0.6
v -0.7 -0.7 -0.7
v -0.7 0.6 -0.7
v -0.6 -0.8 -0.7
v -0.6 -0.7 -0.7
v -0.6 0.6 -0.7
v -0.6 0.7 -0.7
v -0.5 -0.7 -0.7
v -0.5 -0.6 -0.7
v -0.5 -0.2 -0.7
v -0.5 0.3 -0.7
v -0.5 0.4 -0.7
v -0.5 0.6 -0.7
v -0.5 0.7 -0.7
v -0.4 -0.8 -0.7
v -0.4 -0.7 -0.7
v -0.4 -0.6 -0.7
v -0.4 -0.4 -0.7
v -0.4 -0.1 -0.7
v -0.4 0.2 -0.7
v -0.4 0.3 -0.7
v -0.4 0.4 -0.7
v -0.4 0.5 -0.7
v -0.4 0.6 -0.7
v -0.4 0.7 -0.7
v -0.3 -0.7 -0.7
v -0.3 -0.6 -0.7
v -0.3 -0.4 -0.7
v -0.3 -0.2 -0.7
v -0.3 0 -0.7
v -0.3 0.1 -0.7
v -0.3 0.3 -0.7
v -0.3 0.5 -0.7
v -0.3 0.6 -0.7
v -0.2 -0.6 -0.7
v -0.2 -0.4 -0.7
v -0.2 -0.3 -0.7
v -0.2 -0.2 -0.7
v -0.2 0.3 -0.7
v -0.2 0.5 -0.7
v -0.1 -0.3 -0.7
v -0.1 -0.2 -0.7
v 0 -0.1 -0.7
v 0 0 -0.7
v 0 0.1 -0.7
v 0 0.2 -0.7
v 0.1 -0.3 -0.7
v 0.1 -0.2 -0.7
v 0.2 -0.6 -0.7
v 0.2 -0.4 -0.7
v 0.2 -0.3 -0.7
v 0.2 -0.2 -0.7
v 0.2 0.3 -0.7
v 0.2 0.5 -0.7
v 0.3 -0.7 -0.7
v 0.3 -0.6 -0.7
v 0.3 -0.4 -0.7
v 0.3 -0.2 -0.7
v 0.3 -0.1 -0.7
v 0.3 0 -0.7
v 0.3 0.1 -0.7
v 0.3 0.2 -0.7
v 0.3 0.3 -0.7
v 0.3 0.5 -0.7
v 0.3 0.6 -0.7
v 0.4 -0.8 -0.7
v 0.4 -0.7 -0.7
v 0.4 -0.6 -0.7
v 0.4 -0.4 -0.7
v 0.4 -0.1 -0.7
v 0.4 0.2 -0.7
v 0.4 0.3 -0.7
v 0.4 0.4 -0.7
v 0.4 0.5 -0.7
v 0.4 0.6 -0.7
v 0.4 0.7 -0.7
v 0.5 -0.7 -0.7
v 0.5 -0.6 -0.7
v 0.5 -0.2 -0.7
v 0.5 0.3 -0.7
v 0.5 0.5 -0.7
v 0.5 0.6 -0.7
v 0.6 -0.8 -0.7
v 0.6 -0.7 -0.7
v 0.6 0.6 -0.7
v 0.6 0.7 -0.7
v 0.7 -0.7 -0.7
v 0.7 0.4 -0.7
v 0.7 0.5 -0.7
v 0.7 0.6 -0.7
v -0.8 -0.8 -0.8
v -0.8 0.8 -0.8
v -0.7 -0.8 -0.8
v -0.7 0.7 -0.8
v -0.6 -0.8 -0.8
v -0.6 -0.7 -0.8
v -0.6 0.6 -0.8
v -0.6 0.7 -0.8
v -0.5 -0.7 -0.8
v -0.5 -0.6 -0.8
v -0.5 -0.2 -0.8
v -0.5 0.3 -0.8
v -0.5 0.4 -0.8
v -0.5 0.6 -0.8
v -0.5 0.7 -0.8
v -0.4 -0.8 -0.8
v -0.4 -0.7 -0.8
v -0.4 -0.6 -0.8
v -0.4 -0.4 -0.8
v -0.4 -0.1 -0.8
v -0.4 0.2 -0.8
v -0.4 0.3 -0.8
v -0.4 0.4 -0.8
v -0.4 0.5 -0.8
v -0.4 0.6 -0.8
v -0.4 0.7 -0.8
v -0.3 -0.7 -0.8
v -0.3 -0.6 -0.8
v -0.3 -0.4 -0.8
v -0.3 -0.2 -0.8
v -0.3 0 -0.8
v -0.3 0.1 -0.8
v -0.3 0.3 -0.8
v -0.3 0.5 -0.8
v -0.3 0.6 -0.8
v -0.2 -0.6 -0.8
v -0.2 -0.4 -0.8
v -0.2 -0.3 -0.8
v -0.2 -0.2 -0.8
v -0.2 0.3 -0.8
v -0.2 0.5 -0.8
v -0.1 -0.3 -0.8
v -0.1 -0.2 -0.8
v 0 -0.1 -0.8
v 0 0 -0.8
v 0 0.1 -0.8
v 0 0.2 -0.8
v 0.1 -0.3 -0.8
v 0.1 -0.2 -0.8
v 0.2 -0.6 -0.8
v 0.2 -0.4 -0.8
v 0.2 -0.3 -0.8
v 0.2 -0.2 -0.8
v 0.2 0.3 -0.8
v 0.2 0.5 -0.8
v 0.3 -0.7 -0.8
v 0.3 -0.6 -0.8
v 0.3 -0.4 -0.8
v 0.3 -0.2 -0.8
v 0.3 -0.1 -0.8
v 0.3 0 -0.8
v 0.3 0.1 -0.8
v 0.3 0.2 -0.8
v 0.3 0.3 -0.8
v 0.3 0.5 -0.8
v 0.3 0.6 -0.8
v 0.4 -0.8 -0.8
v 0.4 -0.7 -0.8
v 0.4 -0.6 -0.8
v 0.4 -0.4 -0.8
v 0.4 -0.1 -0.8
v 0.4 0.2 -0.8
v 0.4 0.3 -0.8
v 0.4 0.4 -0.8
v 0.4 0.5 -0.8
v 0.4 0.6 -0.8
v 0.4 0.7 -0.8
v 0.5 -0.7 -0.8
v 0.5 -0.6 -0.8
v 0.5 -0.2 -0.8
v 0.5 0.3 -0.8
v 0.5 0.5 -0.8
v 0.5 0.6 -0.8
v 0.6 -0.8 -0.8
v 0.6 -0.7 -0.8
v 0.6 0.6 -0.8
v 0.6 0.7 -0.8
v 0.7 -0.8 -0.8
v 0.7 0.4 -0.8
v 0.7 0.5 -0.8
v 0.7 0.7 -0.8
v 0.8 -0.8 -0.8
v 0.8 0.8 -0.8
v -0.8 -0.8 -0.5
v -0.7 -0.8 -0.5
v 0.7 -0.8 -0.5
v 0.8 -0.8 -0.5
v -0.7 -0.8 -0.6
v -0.6 -0.8 -0.6
v 0.6 -0.8 -0.6
v 0.7 -0.8 -0.6
v -0.7 -0.8 -0.7
v -0.6 -0.8 -0.7
v -0.4 -0.8 -0.7
v 0.4 -0.8 -0.7
v 0.6 -0.8 -0.7
v 0.7 -0.8 -0.7
v -0.8 -0.8 -0.8
v -0.7 -0.8 -0.8
v -0.6 -0.8 -0.8
v -0.4 -0.8 -0.8
v 0.4 -0.8 -0.8
v 0.6 -0.8 -0.8
v 0.7 -0.8 -0.8
v 0.8 -0.8 -0.8
v -0.2 -0.4 -0.5
v 0.2 -0.4 -0.5
v -0.2 -0.4 -0.7
v 0.2 -0.4 -0.7
v -0.5 -0.2 -0.6
v 0.5 -0.2 -0.6
v -0.5 -0.2 -0.7
v -0.3 -0.2 -0.7
v -0.2 -0.2 -0.7
v -0.1 -0.2 -0.7
v 0.1 -0.2 -0.7
v 0.2 -0.2 -0.7
v 0.3 -0.2 -0.7
v 0.5 -0.2 -0.7
v -0.4 0.2 -0.6
v 0.4 0.2 -0.6
v -0.4 0.2 -0.7
v 0 0.2 -0.7
v 0.3 0.2 -0.7
v 0.4 0.2 -0.7
v -0.7 0.6 -0.6
v -0.6 0.6 -0.6
v 0.6 0.6 -0.6
v 0.7 0.6 -0.6
v -0.7 0.6 -0.7
v -0.6 0.6 -0.7
v 0.6 0.6 -0.7
v 0.7 0.6 -0.7
v -0.8 0.7 -0.5
v -0.7 0.7 -0.5
v 0.7 0.7 -0.5
v 0.8 0.7 -0.5
v -0.8 0.7 -0.6
v -0.7 0.7 -0.6
v -0.6 0.7 -0.6
v 0.6 0.7 -0.6
v 0.7 0.7 -0.6
v 0.8 0.7 -0.6
v -0.6 0.7 -0.7
v -0.5 0.7 -0.7
v -0.4 0.7 -0.7
v 0.4 0.7 -0.7
v 0.6 0.7 -0.7
v -0.8 -0.7 -0.5
v -0.7 -0.7 -0.5
v 0.7 -0.7 -0.5
v 0.8 -0.7 -0.5
v -0.8 -0.7 -0.6
v -0.7 -0.7 -0.6
v -0.6 -0.7 -0.6
v 0.6 -0.7 -0.6
v 0.7 -0.7 -0.6
v 0.8 -0.7 -0.6
v -0.7 -0.7 -0.7
v -0.6 -0.7 -0.7
v 0.6 -0.7 -0.7
v 0.7 -0.7 -0.7
v -0.2 -0.3 -0.5
v 0.2 -0.3 -0.5
v -0.2 -0.3 -0.7
v -0.1 -0.3 -0.7
v 0.1 -0.3 -0.7
v 0.2 -0.3 -0.7
v -0.4 -0.1 -0.6
v 0.4 -0.1 -0.6
v -0.4 -0.1 -0.7
v 0 -0.1 -0.7
v 0.3 -0.1 -0.7
v 0.4 -0.1 -0.7
v -0.5 0.3 -0.6
v 0.5 0.3 -0.6
v -0.5 0.3 -0.7
v -0.4 0.3 -0.7
v -0.3 0.3 -0.7
v -0.2 0.3 -0.7
v 0.2 0.3 -0.7
v 0.3 0.3 -0.7
v 0.4 0.3 -0.7
v 0.5 0.3 -0.7
v -0.8 0.8 -0.5
v -0.7 0.8 -0.5
v 0.7 0.8 -0.5
v 0.8 0.8 -0.5
v -0.7 0.8 -0.6
v 0.7 0.8 -0.6
v -0.8 0.8 -0.8
v 0.8 0.8 -0.8

# faces
f 3/4/1 2/4/1 1/4/1
f 4/4/1 2/4/1 3/4/1
f 6/4/1 2/4/1 4/4/1
f 7/4/1 6/4/1 5/4/1
f 8/4/1 2/4/1 6/4/1
f 8/4/1 6/4/1 7/4/1
f 11/5/1 10/5/1 9/5/1
f 12/5/1 10/5/1 11/5/1
f 15/5/1 14/5/1 13/5/1
f 16/5/1 14/5/1 15/5/1
f 19/5/1 18/5/1 17/5/1
f 20/5/1 18/5/1 19/5/1
f 23/4/1 22/4/1 21/4/1
f 24/4/1 22/4/1 23/4/1
f 27/4/1 26/4/1 25/4/1
f 28/4/1 26/4/1 27/4/1
f 31/4/1 30/4/1 29/4/1
f 32/4/1 30/4/1 31/4/1
f 34/4/1 33/4/1 32/4/1
f 35/4/1 34/4/1 32/4/1
f 36/4/1 35/4/1 32/4/1
f 37/4/1 35/4/1 36/4/1
f 40/4/1 39/4/1 38/4/1
f 41/4/1 39/4/1 40/4/1
f 42/4/2 43/4/2 44/4/2
f 44/4/2 43/4/2 45/4/2
f 45/4/2 46/4/2 47/4/2
f 47/4/2 46/4/2 48/4/2
f 49/4/2 50/4/2 51/4/2
f 51/4/2 50/4/2 52/4/2
f 53/4/2 54/4/2 55/4/2
f 55/4/2 54/4/2 56/4/2
f 57/4/2 58/4/2 59/4/2
f 59/4/2 58/4/2 60/4/2
f 61/5/2 62/5/2 63/5/2
f 63/5/2 62/5/2 64/5/2
f 65/5/2 66/5/2 67/5/2
f 67/5/2 66/5/2 68/5/2
f 69/5/2 70/5/2 71/5/2
f 71/5/2 70/5/2 72/5/2
f 73/4/2 74/4/2 75/4/2
f 75/4/2 74/4/2 76/4/2
f 76/4/2 74/4/2 78/4/2
f 77/4/2 78/4/2 79/4/2
f 78/4/2 74/4/2 80/4/2
f 79/4/2 78/4/2 80/4/2
f 85/4/3 82/4/3 81/4/3
f 86/4/3 82/4/3 85/4/3
f 87/4/3 84/4/3 83/4/3
f 88/4/3 84/4/3 87/4/3
f 91/5/3 90/5/3 89/5/3
f 92/5/3 90/5/3 91/5/3
f 97/4/3 94/4/3 93/4/3
f 98/4/3 94/4/3 97/4/3
f 99/4/3 96/4/3 95/4/3
f 100/4/3 96/4/3 99/4/3
f 104/4/3 102/4/3 101/4/3
f 105/4/3 102/4/3 104/4/3
f 106/4/3 102/4/3 105/4/3
f 108/4/3 104/4/3 103/4/3
f 109/4/3 104/4/3 108/4/3
f 110/4/3 107/4/3 106/4/3
f 110/4/3 106/4/3 105/4/3
f 111/4/3 107/4/3 110/4/3
f 114/5/3 113/5/3 112/5/3
f 115/5/3 113/5/3 114/5/3
f 116/5/3 114/5/3 112/5/3
f 117/5/3 113/5/3 115/5/3
f 118/5/3 116/5/3 112/5/3
f 118/5/3 117/5/3 116/5/3
f 119/5/3 113/5/3 117/5/3
f 119/5/3 117/5/3 118/5/3
f 123/4/3 107/4/3 111/4/3
f 124/4/3 121/4/3 120/4/3
f 125/4/3 121/4/3 124/4/3
f 126/4/3 123/4/3 122/4/3
f 127/4/3 107/4/3 123/4/3
f 127/4/3 123/4/3 126/4/3
f 128/4/3 107/4/3 127/4/3
f 129/4/3 126/4/3 125/4/3
f 129/4/3 127/4/3 126/4/3
f 130/4/3 127/4/3 129/4/3
f 134/3/3 132/3/3 131/3/3
f 135/3/3 132/3/3 134/3/3
f 137/2/3 134/2/3 133/2/3
f 137/3/3 135/3/3 134/3/3
f 138/3/3 135/3/3 137/3/3
f 139/3/3 135/3/3 138/3/3
f 140/3/3 135/3/3 139/3/3
f 141/3/3 135/3/3 140/3/3
f 142/2/3 136/2/3 135/2/3
f 142/3/3 135/3/3 141/3/3
f 143/2/3 136/2/3 142/2/3
f 144/2/3 137/2/3 133/2/3
f 145/1/3 138/1/3 137/1/3
f 145/2/3 137/2/3 144/2/3
f 146/3/3 139/3/3 138/3/3
f 146/1/3 138/1/3 145/1/3
f 147/3/3 139/3/3 146/3/3
f 150/3/3 141/3/3 140/3/3
f 151/4/3 143/4/3 142/4/3
f 151/3/3 141/3/3 150/3/3
f 151/4/3 142/4/3 141/4/3
f 152/4/3 143/4/3 151/4/3
f 153/4/3 143/4/3 152/4/3
f 154/4/3 143/4/3 153/4/3
f 155/3/3 145/3/3 144/3/3
f 155/2/3 146/2/3 145/2/3
f 156/1/3 147/1/3 146/1/3
f 156/2/3 146/2/3 155/2/3
f 157/3/3 139/3/3 147/3/3
f 157/1/3 147/1/3 156/1/3
f 158/3/3 139/3/3 157/3/3
f 159/7/3 149/7/3 148/7/3
f 160/7/3 149/7/3 159/7/3
f 161/4/3 151/4/3 150/4/3
f 161/4/3 152/4/3 151/4/3
f 162/2/3 153/2/3 152/2/3
f 162/4/3 152/4/3 161/4/3
f 163/3/3 154/3/3 153/3/3
f 163/2/3 153/2/3 162/2/3
f 164/3/3 156/3/3 155/3/3
f 164/2/3 157/2/3 156/2/3
f 165/1/3 158/1/3 157/1/3
f 165/2/3 157/2/3 164/2/3
f 166/1/3 158/1/3 165/1/3
f 167/1/3 158/1/3 166/1/3
f 168/2/3 162/2/3 161/2/3
f 169/3/3 163/3/3 162/3/3
f 169/2/3 162/2/3 168/2/3
f 170/2/3 167/2/3 166/2/3
f 171/2/3 167/2/3 170/2/3
f 172/7/3 159/7/3 148/7/3
f 173/6/3 160/6/3 159/6/3
f 173/7/3 159/7/3 172/7/3
f 174/7/3 149/7/3 160/7/3
f 174/6/3 160/6/3 173/6/3
f 175/7/3 149/7/3 174/7/3
f 176/4/3 171/4/3 170/4/3
f 177/4/3 171/4/3 176/4/3
f 178/3/3 164/3/3 155/3/3
f 178/3/3 165/3/3 164/3/3
f 179/3/3 165/3/3 178/3/3
f 180/2/3 177/2/3 176/2/3
f 181/2/3 177/2/3 180/2/3
f 182/3/3 169/3/3 168/3/3
f 183/3/3 163/3/3 169/3/3
f 183/3/3 169/3/3 182/3/3
f 184/3/3 155/3/3 144/3/3
f 184/3/3 178/3/3 155/3/3
f 185/2/3 179/2/3 178/2/3
f 185/3/3 178/3/3 184/3/3
f 186/1/3 181/1/3 180/1/3
f 186/2/3 179/2/3 185/2/3
f 186/1/3 180/1/3 179/1/3
f 187/1/3 181/1/3 186/1/3
f 188/6/3 173/6/3 172/6/3
f 189/7/3 174/7/3 173/7/3
f 189/6/3 173/6/3 188/6/3
f 190/6/3 175/6/3 174/6/3
f 190/7/3 174/7/3 189/7/3
f 191/6/3 175/6/3 190/6/3
f 192/2/3 183/2/3 182/2/3
f 193/3/3 163/3/3 183/3/3
f 193/2/3 183/2/3 192/2/3
f 194/3/3 154/3/3 163/3/3
f 194/3/3 163/3/3 193/3/3
f 195/3/3 184/3/3 144/3/3
f 196/2/3 185/2/3 184/2/3
f 196/3/3 184/3/3 195/3/3
f 197/1/3 186/1/3 185/1/3
f 197/2/3 185/2/3 196/2/3
f 198/3/3 187/3/3 186/3/3
f 198/1/3 186/1/3 197/1/3
f 199/7/3 191/7/3 190/7/3
f 199/7/3 189/7/3 188/7/3
f 199/7/3 190/7/3 189/7/3
f 200/7/3 191/7/3 199/7/3
f 201/4/3 193/4/3 192/4/3
f 202/4/3 193/4/3 201/4/3
f 203/2/3 194/2/3 193/2/3
f 203/4/3 193/4/3 202/4/3
f 204/3/3 154/3/3 194/3/3
f 204/2/3 194/2/3 203/2/3
f 205/3/3 154/3/3 204/3/3
f 206/1/3 197/1/3 196/1/3
f 206/2/3 196/2/3 195/2/3
f 207/3/3 198/3/3 197/3/3
f 207/1/3 197/1/3 206/1/3
f 208/3/3 187/3/3 198/3/3
f 208/3/3 198/3/3 207/3/3
f 209/3/3 202/3/3 201/3/3
f 210/4/3 203/4/3 202/4/3
f 210/1/3 204/1/3 203/1/3
f 211/2/3 205/2/3 204/2/3
f 211/1/3 204/1/3 210/1/3
f 212/2/3 206/2/3 195/2/3
f 213/3/3 207/3/3 206/3/3
f 213/2/3 206/2/3 212/2/3
f 213/3/3 209/3/3 208/3/3
f 213/3/3 208/3/3 207/3/3
f 214/3/3 211/3/3 210/3/3
f 214/2/3 205/2/3 211/2/3
f 215/2/3 205/2/3 214/2/3
f 216/3/3 209/3/3 213/3/3
f 217/4/3 210/4/3 202/4/3
f 217/3/3 209/3/3 216/3/3
f 217/3/3 202/3/3 209/3/3
f 218/3/3 214/3/3 210/3/3
f 218/4/3 210/4/3 217/4/3
f 219/3/3 214/3/3 218/3/3
f 220/4/4 221/4/4 222/4/4
f 222/4/4 221/4/4 223/4/4
f 222/3/4 223/3/4 224/3/4
f 224/3/4 223/3/4 225/3/4
f 225/3/4 223/3/4 226/3/4
f 223/4/4 221/4/4 227/4/4
f 226/3/4 223/3/4 227/3/4
f 225/3/4 226/3/4 228/3/4
f 224/2/4 225/2/4 228/2/4
f 228/3/4 226/3/4 229/3/4
f 229/3/4 226/3/4 230/3/4
f 230/3/4 226/3/4 231/3/4
f 231/3/4 226/3/4 232/3/4
f 226/2/4 227/2/4 233/2/4
f 232/3/4 226/3/4 233/3/4
f 227/4/4 221/4/4 234/4/4
f 233/2/4 227/2/4 234/2/4
f 224/2/4 228/2/4 235/2/4
f 228/1/4 229/1/4 236/1/4
f 235/2/4 228/2/4 236/2/4
f 229/3/4 230/3/4 237/3/4
f 236/1/4 229/1/4 237/1/4
f 237/3/4 230/3/4 238/3/4
f 230/5/4 231/5/4 239/5/4
f 239/5/4 231/5/4 240/5/4
f 231/3/4 232/3/4 241/3/4
f 240/5/4 231/5/4 241/5/4
f 232/4/4 233/4/4 242/4/4
f 241/3/4 232/3/4 242/3/4
f 233/4/4 234/4/4 242/4/4
f 242/4/4 234/4/4 243/4/4
f 243/4/4 234/4/4 244/4/4
f 234/4/4 221/4/4 245/4/4
f 244/4/4 234/4/4 245/4/4
f 235/3/4 236/3/4 246/3/4
f 236/2/4 237/2/4 246/2/4
f 237/1/4 238/1/4 247/1/4
f 246/2/4 237/2/4 247/2/4
f 238/3/4 230/3/4 248/3/4
f 247/1/4 238/1/4 248/1/4
f 230/5/4 239/5/4 249/5/4
f 248/3/4 230/3/4 249/3/4
f 239/7/4 240/7/4 250/7/4
f 250/7/4 240/7/4 251/7/4
f 240/5/4 241/5/4 252/5/4
f 241/4/4 242/4/4 252/4/4
f 242/4/4 243/4/4 252/4/4
f 243/2/4 244/2/4 253/2/4
f 252/4/4 243/4/4 253/4/4
f 244/3/4 245/3/4 254/3/4
f 253/2/4 244/2/4 254/2/4
f 246/3/4 247/3/4 255/3/4
f 247/2/4 248/2/4 255/2/4
f 248/1/4 249/1/4 256/1/4
f 255/2/4 248/2/4 256/2/4
f 256/1/4 249/1/4 257/1/4
f 249/5/4 239/5/4 258/5/4
f 257/1/4 249/1/4 258/1/4
f 240/5/4 252/5/4 259/5/4
f 252/2/4 253/2/4 259/2/4
f 253/3/4 254/3/4 260/3/4
f 259/2/4 253/2/4 260/2/4
f 256/5/4 257/5/4 261/5/4
f 257/2/4 258/2/4 261/2/4
f 258/5/4 239/5/4 262/5/4
f 261/2/4 258/2/4 262/2/4
f 239/7/4 250/7/4 263/7/4
f 262/5/4 239/5/4 263/5/4
f 250/6/4 251/6/4 264/6/4
f 263/7/4 250/7/4 264/7/4
f 251/7/4 240/7/4 265/7/4
f 264/6/4 251/6/4 265/6/4
f 240/5/4 259/5/4 266/5/4
f 265/7/4 240/7/4 266/7/4
f 256/5/4 261/5/4 267/5/4
f 261/4/4 262/4/4 267/4/4
f 262/5/4 263/5/4 268/5/4
f 267/4/4 262/4/4 268/4/4
f 246/3/4 255/3/4 269/3/4
f 255/3/4 256/3/4 269/3/4
f 256/5/4 267/5/4 270/5/4
f 269/3/4 256/3/4 270/3/4
f 267/2/4 268/2/4 271/2/4
f 270/5/4 267/5/4 271/5/4
f 268/5/4 263/5/4 272/5/4
f 271/2/4 268/2/4 272/2/4
f 266/5/4 259/5/4 273/5/4
f 259/3/4 260/3/4 273/3/4
f 260/3/4 254/3/4 274/3/4
f 273/3/4 260/3/4 274/3/4
f 235/3/4 246/3/4 275/3/4
f 246/3/4 269/3/4 275/3/4
f 269/2/4 270/2/4 276/2/4
f 275/3/4 269/3/4 276/3/4
f 271/1/4 272/1/4 277/1/4
f 276/2/4 270/2/4 277/2/4
f 270/1/4 271/1/4 277/1/4
f 272/5/4 263/5/4 278/5/4
f 277/1/4 272/1/4 278/1/4
f 263/6/4 264/6/4 279/6/4
f 278/5/4 263/5/4 279/5/4
f 264/7/4 265/7/4 280/7/4
f 279/6/4 264/6/4 280/6/4
f 265/6/4 266/6/4 281/6/4
f 280/7/4 265/7/4 281/7/4
f 266/5/4 273/5/4 282/5/4
f 281/6/4 266/6/4 282/6/4
f 273/2/4 274/2/4 283/2/4
f 282/5/4 273/5/4 283/5/4
f 274/3/4 254/3/4 284/3/4
f 283/2/4 274/2/4 284/2/4
f 254/3/4 245/3/4 285/3/4
f 284/3/4 254/3/4 285/3/4
f 235/3/4 275/3/4 286/3/4
f 275/2/4 276/2/4 287/2/4
f 286/3/4 275/3/4 287/3/4
f 276/1/4 277/1/4 288/1/4
f 287/2/4 276/2/4 288/2/4
f 277/3/4 278/3/4 289/3/4
f 288/1/4 277/1/4 289/1/4
f 280/7/4 281/7/4 290/7/4
f 278/5/4 279/5/4 290/5/4
f 281/7/4 282/7/4 290/7/4
f 279/7/4 280/7/4 290/7/4
f 282/5/4 283/5/4 291/5/4
f 290/7/4 282/7/4 291/7/4
f 283/4/4 284/4/4 292/4/4
f 291/5/4 283/5/4 292/5/4
f 292/4/4 284/4/4 293/4/4
f 284/2/4 285/2/4 294/2/4
f 293/4/4 284/4/4 294/4/4
f 285/3/4 245/3/4 295/3/4
f 294/2/4 285/2/4 295/2/4
f 245/4/4 221/4/4 296/4/4
f 295/3/4 245/3/4 296/3/4
f 287/1/4 288/1/4 297/1/4
f 286/2/4 287/2/4 297/2/4
f 288/3/4 289/3/4 298/3/4
f 297/1/4 288/1/4 298/1/4
f 289/3/4 278/3/4 299/3/4
f 298/3/4 289/3/4 299/3/4
f 290/5/4 291/5/4 299/5/4
f 291/5/4 292/5/4 299/5/4
f 278/5/4 290/5/4 299/5/4
f 292/3/4 293/3/4 300/3/4
f 299/5/4 292/5/4 300/5/4
f 294/1/4 295/1/4 301/1/4
f 293/4/4 294/4/4 301/4/4
f 295/2/4 296/2/4 302/2/4
f 301/1/4 295/1/4 302/1/4
f 286/2/4 297/2/4 303/2/4
f 297/3/4 298/3/4 304/3/4
f 303/2/4 297/2/4 304/2/4
f 299/3/4 300/3/4 304/3/4
f 298/3/4 299/3/4 304/3/4
f 301/3/4 302/3/4 305/3/4
f 302/2/4 296/2/4 305/2/4
f 296/4/4 221/4/4 306/4/4
f 305/2/4 296/2/4 306/2/4
f 303/3/4 304/3/4 307/3/4
f 293/4/4 301/4/4 308/4/4
f 307/3/4 304/3/4 308/3/4
f 300/3/4 293/3/4 308/3/4
f 304/3/4 300/3/4 308/3/4
f 301/3/4 305/3/4 309/3/4
f 308/4/4 301/4/4 309/4/4
f 305/3/4 306/3/4 309/3/4
f 306/4/4 221/4/4 310/4/4
f 309/3/4 306/3/4 310/3/4
f 307/4/4 308/4/4 311/4/4
f 308/4/4 309/4/4 311/4/4
f 309/4/4 310/4/4 311/4/4
f 310/4/4 221/4/4 312/4/4
f 311/4/4 310/4/4 312/4/4
f 317/4/5 314/4/5 313/4/5
f 320/4/5 316/4/5 315/4/5
f 321/4/5 318/4/5 317/4/5
f 321/4/5 317/4/5 313/4/5
f 322/4/5 318/4/5 321/4/5
f 325/4/5 320/4/5 319/4/5
f 326/4/5 316/4/5 320/4/5
f 326/4/5 320/4/5 325/4/5
f 327/4/5 321/4/5 313/4/5
f 328/3/5 322/3/5 321/3/5
f 328/4/5 321/4/5 327/4/5
f 329/2/5 323/2/5 322/2/5
f 329/3/5 322/3/5 328/3/5
f 330/3/5 324/3/5 323/3/5
f 330/2/5 323/2/5 329/2/5
f 331/2/5 325/2/5 324/2/5
f 331/3/5 324/3/5 330/3/5
f 332/3/5 326/3/5 325/3/5
f 332/2/5 325/2/5 331/2/5
f 333/4/5 316/4/5 326/4/5
f 333/3/5 326/3/5 332/3/5
f 334/4/5 316/4/5 333/4/5
f 337/5/5 336/5/5 335/5/5
f 338/5/5 336/5/5 337/5/5
f 341/5/5 340/5/5 339/5/5
f 342/5/5 340/5/5 341/5/5
f 343/5/5 340/5/5 342/5/5
f 344/5/5 340/5/5 343/5/5
f 345/5/5 340/5/5 344/5/5
f 346/5/5 340/5/5 345/5/5
f 347/5/5 340/5/5 346/5/5
f 348/5/5 340/5/5 347/5/5
f 351/5/5 350/5/5 349/5/5
f 352/5/5 350/5/5 351/5/5
f 353/5/5 350/5/5 352/5/5
f 354/5/5 350/5/5 353/5/5
f 359/4/5 356/4/5 355/4/5
f 360/4/5 356/4/5 359/4/5
f 361/4/5 358/4/5 357/4/5
f 362/4/5 358/4/5 361/4/5
f 367/4/5 364/4/5 363/4/5
f 368/4/5 364/4/5 367/4/5
f 371/4/5 366/4/5 365/4/5
f 372/4/5 366/4/5 371/4/5
f 373/4/5 370/4/5 369/4/5
f 374/4/5 370/4/5 373/4/5
f 375/4/5 370/4/5 374/4/5
f 376/4/5 370/4/5 375/4/5
f 377/4/5 370/4/5 376/4/5
f 378/4/6 379/4/6 382/4/6
f 382/4/6 379/4/6 383/4/6
f 380/4/6 381/4/6 386/4/6
f 386/4/6 381/4/6 387/4/6
f 383/4/6 384/4/6 388/4/6
f 388/4/6 384/4/6 389/4/6
f 385/4/6 386/4/6 390/4/6
f 390/4/6 386/4/6 391/4/6
f 392/5/6 393/5/6 394/5/6
f 394/5/6 393/5/6 395/5/6
f 395/5/6 393/5/6 396/5/6
f 396/5/6 393/5/6 397/5/6
f 398/5/6 399/5/6 400/5/6
f 400/5/6 399/5/6 401/5/6
f 401/5/6 399/5/6 402/5/6
f 402/5/6 399/5/6 403/5/6
f 404/5/6 405/5/6 406/5/6
f 406/5/6 405/5/6 407/5/6
f 407/5/6 405/5/6 408/5/6
f 408/5/6 405/5/6 409/5/6
f 409/5/6 405/5/6 410/5/6
f 410/5/6 405/5/6 411/5/6
f 411/5/6 405/5/6 412/5/6
f 412/5/6 405/5/6 413/5/6
f 414/4/6 415/4/6 418/4/6
f 416/4/6 417/4/6 419/4/6
f 414/4/6 418/4/6 420/4/6
f 418/4/6 419/4/6 420/4/6
f 419/4/6 417/4/6 421/4/6
f 420/4/6 419/4/6 421/4/6
