# MagicaVoxel @ Ephtracy

# group
o 

# material
mtllib Static Objects-14.mtl
usemtl palette

# normals
vn -1 0 0
vn 1 0 0
vn 0 0 1
vn 0 0 -1
vn 0 -1 0
vn 0 1 0

# texcoords
vt 0.845703 0.5
vt 0.876953 0.5
vt 0.939453 0.5
vt 0.970703 0.5

# verts
v -0.8 -0.8 -0.5
v -0.8 -0.8 -0.8
v -0.8 -0.7 -0.5
v -0.8 -0.7 -0.6
v -0.8 0.7 -0.5
v -0.8 0.7 -0.6
v -0.8 0.8 -0.5
v -0.8 0.8 -0.8
v 0.6 -0.8 -0.6
v 0.6 -0.8 -0.7
v 0.6 -0.7 -0.6
v 0.6 -0.7 -0.7
v 0.6 0.6 -0.6
v 0.6 0.6 -0.7
v 0.6 0.7 -0.6
v 0.6 0.7 -0.7
v 0.7 -0.8 -0.5
v 0.7 -0.8 -0.6
v 0.7 -0.7 -0.5
v 0.7 -0.7 -0.6
v 0.7 -0.7 -0.7
v 0.7 0.6 -0.6
v 0.7 0.6 -0.7
v 0.7 0.7 -0.5
v 0.7 0.7 -0.6
v 0.7 0.8 -0.5
v 0.7 0.8 -0.6
v -0.7 -0.8 -0.5
v -0.7 -0.8 -0.6
v -0.7 -0.7 -0.5
v -0.7 -0.7 -0.6
v -0.7 -0.7 -0.7
v -0.7 0.6 -0.6
v -0.7 0.6 -0.7
v -0.7 0.7 -0.5
v -0.7 0.7 -0.6
v -0.7 0.8 -0.5
v -0.7 0.8 -0.6
v -0.6 -0.8 -0.6
v -0.6 -0.8 -0.7
v -0.6 -0.7 -0.6
v -0.6 -0.7 -0.7
v -0.6 0.6 -0.6
v -0.6 0.6 -0.7
v -0.6 0.7 -0.6
v -0.6 0.7 -0.7
v 0.8 -0.8 -0.5
v 0.8 -0.8 -0.8
v 0.8 -0.7 -0.5
v 0.8 -0.7 -0.6
v 0.8 0.7 -0.5
v 0.8 0.7 -0.6
v 0.8 0.8 -0.5
v 0.8 0.8 -0.8
v -0.8 -0.8 -0.5
v -0.8 -0.7 -0.5
v -0.8 0.7 -0.5
v -0.8 0.8 -0.5
v -0.7 -0.8 -0.5
v -0.7 -0.7 -0.5
v -0.7 0.7 -0.5
v -0.7 0.8 -0.5
v 0.7 -0.8 -0.5
v 0.7 -0.7 -0.5
v 0.7 0.7 -0.5
v 0.7 0.8 -0.5
v 0.8 -0.8 -0.5
v 0.8 -0.7 -0.5
v 0.8 0.7 -0.5
v 0.8 0.8 -0.5
v -0.8 -0.7 -0.6
v -0.8 0.7 -0.6
v -0.7 -0.8 -0.6
v -0.7 -0.7 -0.6
v -0.7 0.6 -0.6
v -0.7 0.7 -0.6
v -0.7 0.8 -0.6
v -0.6 -0.8 -0.6
v -0.6 -0.7 -0.6
v -0.6 0.6 -0.6
v -0.6 0.7 -0.6
v 0.6 -0.8 -0.6
v 0.6 -0.7 -0.6
v 0.6 0.6 -0.6
v 0.6 0.7 -0.6
v 0.7 -0.8 -0.6
v 0.7 -0.7 -0.6
v 0.7 0.6 -0.6
v 0.7 0.7 -0.6
v 0.7 0.8 -0.6
v 0.8 -0.7 -0.6
v 0.8 0.7 -0.6
v -0.7 -0.7 -0.7
v -0.7 0.6 -0.7
v -0.6 -0.8 -0.7
v -0.6 -0.7 -0.7
v -0.6 0.6 -0.7
v -0.6 0.7 -0.7
v -0.5 -0.7 -0.7
v -0.5 -0.6 -0.7
v -0.5 0.5 -0.7
v -0.5 0.6 -0.7
v -0.4 -0.8 -0.7
v -0.4 -0.7 -0.7
v -0.4 -0.6 -0.7
v -0.4 -0.4 -0.7
v -0.4 0.3 -0.7
v -0.4 0.5 -0.7
v -0.4 0.6 -0.7
v -0.4 0.7 -0.7
v -0.3 -0.7 -0.7
v -0.3 -0.6 -0.7
v -0.3 -0.4 -0.7
v -0.3 0.3 -0.7
v -0.3 0.5 -0.7
v -0.3 0.6 -0.7
v -0.2 -0.6 -0.7
v -0.2 -0.4 -0.7
v -0.2 0.3 -0.7
v -0.2 0.5 -0.7
v -0.1 -0.4 -0.7
v -0.1 0.3 -0.7
v 0.1 -0.4 -0.7
v 0.1 0.3 -0.7
v 0.2 -0.6 -0.7
v 0.2 -0.4 -0.7
v 0.2 0.3 -0.7
v 0.2 0.5 -0.7
v 0.3 -0.7 -0.7
v 0.3 -0.6 -0.7
v 0.3 -0.4 -0.7
v 0.3 0.3 -0.7
v 0.3 0.5 -0.7
v 0.3 0.6 -0.7
v 0.4 -0.8 -0.7
v 0.4 -0.7 -0.7
v 0.4 -0.6 -0.7
v 0.4 -0.4 -0.7
v 0.4 0.3 -0.7
v 0.4 0.5 -0.7
v 0.4 0.6 -0.7
v 0.4 0.7 -0.7
v 0.5 -0.7 -0.7
v 0.5 -0.6 -0.7
v 0.5 0.5 -0.7
v 0.5 0.6 -0.7
v 0.6 -0.8 -0.7
v 0.6 -0.7 -0.7
v 0.6 0.6 -0.7
v 0.6 0.7 -0.7
v 0.7 -0.7 -0.7
v 0.7 0.6 -0.7
v -0.8 -0.8 -0.8
v -0.8 0.8 -0.8
v -0.7 -0.8 -0.8
v -0.7 0.7 -0.8
v -0.6 -0.8 -0.8
v -0.6 -0.7 -0.8
v -0.6 0.6 -0.8
v -0.6 0.7 -0.8
v -0.5 -0.7 -0.8
v -0.5 -0.6 -0.8
v -0.5 0.5 -0.8
v -0.5 0.6 -0.8
v -0.4 -0.8 -0.8
v -0.4 -0.7 -0.8
v -0.4 -0.6 -0.8
v -0.4 -0.4 -0.8
v -0.4 0.3 -0.8
v -0.4 0.5 -0.8
v -0.4 0.6 -0.8
v -0.4 0.7 -0.8
v -0.3 -0.7 -0.8
v -0.3 -0.6 -0.8
v -0.3 -0.4 -0.8
v -0.3 0.3 -0.8
v -0.3 0.5 -0.8
v -0.3 0.6 -0.8
v -0.2 -0.6 -0.8
v -0.2 -0.4 -0.8
v -0.2 0.3 -0.8
v -0.2 0.5 -0.8
v -0.1 -0.4 -0.8
v -0.1 0.3 -0.8
v 0.1 -0.4 -0.8
v 0.1 0.3 -0.8
v 0.2 -0.6 -0.8
v 0.2 -0.4 -0.8
v 0.2 0.3 -0.8
v 0.2 0.5 -0.8
v 0.3 -0.7 -0.8
v 0.3 -0.6 -0.8
v 0.3 -0.4 -0.8
v 0.3 0.3 -0.8
v 0.3 0.5 -0.8
v 0.3 0.6 -0.8
v 0.4 -0.8 -0.8
v 0.4 -0.7 -0.8
v 0.4 -0.6 -0.8
v 0.4 -0.4 -0.8
v 0.4 0.3 -0.8
v 0.4 0.5 -0.8
v 0.4 0.6 -0.8
v 0.4 0.7 -0.8
v 0.5 -0.7 -0.8
v 0.5 -0.6 -0.8
v 0.5 0.5 -0.8
v 0.5 0.6 -0.8
v 0.6 -0.8 -0.8
v 0.6 -0.7 -0.8
v 0.6 0.6 -0.8
v 0.6 0.7 -0.8
v 0.7 -0.8 -0.8
v 0.7 0.7 -0.8
v 0.8 -0.8 -0.8
v 0.8 0.8 -0.8
v -0.8 -0.8 -0.5
v -0.7 -0.8 -0.5
v 0.7 -0.8 -0.5
v 0.8 -0.8 -0.5
v -0.7 -0.8 -0.6
v -0.6 -0.8 -0.6
v 0.6 -0.8 -0.6
v 0.7 -0.8 -0.6
v -0.7 -0.8 -0.7
v -0.6 -0.8 -0.7
v -0.4 -0.8 -0.7
v 0.4 -0.8 -0.7
v 0.6 -0.8 -0.7
v 0.7 -0.8 -0.7
v -0.8 -0.8 -0.8
v -0.7 -0.8 -0.8
v -0.6 -0.8 -0.8
v -0.4 -0.8 -0.8
v 0.4 -0.8 -0.8
v 0.6 -0.8 -0.8
v 0.7 -0.8 -0.8
v 0.8 -0.8 -0.8
v -0.7 0.6 -0.6
v -0.6 0.6 -0.6
v 0.6 0.6 -0.6
v 0.7 0.6 -0.6
v -0.7 0.6 -0.7
v -0.6 0.6 -0.7
v 0.6 0.6 -0.7
v 0.7 0.6 -0.7
v -0.8 0.7 -0.5
v -0.7 0.7 -0.5
v 0.7 0.7 -0.5
v 0.8 0.7 -0.5
v -0.8 0.7 -0.6
v -0.7 0.7 -0.6
v -0.6 0.7 -0.6
v 0.6 0.7 -0.6
v 0.7 0.7 -0.6
v 0.8 0.7 -0.6
v -0.6 0.7 -0.7
v -0.4 0.7 -0.7
v 0.4 0.7 -0.7
v 0.6 0.7 -0.7
v -0.8 -0.7 -0.5
v -0.7 -0.7 -0.5
v 0.7 -0.7 -0.5
v 0.8 -0.7 -0.5
v -0.8 -0.7 -0.6
v -0.7 -0.7 -0.6
v -0.6 -0.7 -0.6
v 0.6 -0.7 -0.6
v 0.7 -0.7 -0.6
v 0.8 -0.7 -0.6
v -0.7 -0.7 -0.7
v -0.6 -0.7 -0.7
v 0.6 -0.7 -0.7
v 0.7 -0.7 -0.7
v -0.8 0.8 -0.5
v -0.7 0.8 -0.5
v 0.7 0.8 -0.5
v 0.8 0.8 -0.5
v -0.7 0.8 -0.6
v 0.7 0.8 -0.6
v -0.8 0.8 -0.8
v 0.8 0.8 -0.8

# faces
f 3/4/1 2/4/1 1/4/1
f 4/4/1 2/4/1 3/4/1
f 6/4/1 2/4/1 4/4/1
f 7/4/1 6/4/1 5/4/1
f 8/4/1 2/4/1 6/4/1
f 8/4/1 6/4/1 7/4/1
f 11/4/1 10/4/1 9/4/1
f 12/4/1 10/4/1 11/4/1
f 15/4/1 14/4/1 13/4/1
f 16/4/1 14/4/1 15/4/1
f 19/4/1 18/4/1 17/4/1
f 20/4/1 18/4/1 19/4/1
f 22/4/1 21/4/1 20/4/1
f 23/4/1 21/4/1 22/4/1
f 26/4/1 25/4/1 24/4/1
f 27/4/1 25/4/1 26/4/1
f 28/4/2 29/4/2 30/4/2
f 30/4/2 29/4/2 31/4/2
f 31/4/2 32/4/2 33/4/2
f 33/4/2 32/4/2 34/4/2
f 35/4/2 36/4/2 37/4/2
f 37/4/2 36/4/2 38/4/2
f 39/4/2 40/4/2 41/4/2
f 41/4/2 40/4/2 42/4/2
f 43/4/2 44/4/2 45/4/2
f 45/4/2 44/4/2 46/4/2
f 47/4/2 48/4/2 49/4/2
f 49/4/2 48/4/2 50/4/2
f 50/4/2 48/4/2 52/4/2
f 51/4/2 52/4/2 53/4/2
f 52/4/2 48/4/2 54/4/2
f 53/4/2 52/4/2 54/4/2
f 59/4/3 56/4/3 55/4/3
f 60/4/3 56/4/3 59/4/3
f 61/4/3 58/4/3 57/4/3
f 62/4/3 58/4/3 61/4/3
f 67/4/3 64/4/3 63/4/3
f 68/4/3 64/4/3 67/4/3
f 69/4/3 66/4/3 65/4/3
f 70/4/3 66/4/3 69/4/3
f 74/4/3 72/4/3 71/4/3
f 75/4/3 72/4/3 74/4/3
f 76/4/3 72/4/3 75/4/3
f 78/4/3 74/4/3 73/4/3
f 79/4/3 74/4/3 78/4/3
f 80/4/3 77/4/3 76/4/3
f 80/4/3 76/4/3 75/4/3
f 81/4/3 77/4/3 80/4/3
f 85/4/3 77/4/3 81/4/3
f 86/4/3 83/4/3 82/4/3
f 87/4/3 83/4/3 86/4/3
f 88/4/3 85/4/3 84/4/3
f 89/4/3 77/4/3 85/4/3
f 89/4/3 85/4/3 88/4/3
f 90/4/3 77/4/3 89/4/3
f 91/4/3 88/4/3 87/4/3
f 91/4/3 89/4/3 88/4/3
f 92/4/3 89/4/3 91/4/3
f 96/3/3 94/3/3 93/3/3
f 97/3/3 94/3/3 96/3/3
f 99/2/3 96/2/3 95/2/3
f 99/3/3 97/3/3 96/3/3
f 100/3/3 97/3/3 99/3/3
f 101/3/3 97/3/3 100/3/3
f 102/2/3 98/2/3 97/2/3
f 102/3/3 97/3/3 101/3/3
f 103/2/3 99/2/3 95/2/3
f 104/1/3 100/1/3 99/1/3
f 104/2/3 99/2/3 103/2/3
f 105/3/3 101/3/3 100/3/3
f 105/1/3 100/1/3 104/1/3
f 106/3/3 101/3/3 105/3/3
f 107/3/3 101/3/3 106/3/3
f 108/1/3 102/1/3 101/1/3
f 108/3/3 101/3/3 107/3/3
f 109/2/3 98/2/3 102/2/3
f 109/1/3 102/1/3 108/1/3
f 110/2/3 98/2/3 109/2/3
f 111/3/3 104/3/3 103/3/3
f 111/2/3 105/2/3 104/2/3
f 112/1/3 106/1/3 105/1/3
f 112/2/3 105/2/3 111/2/3
f 113/3/3 107/3/3 106/3/3
f 113/1/3 106/1/3 112/1/3
f 114/1/3 108/1/3 107/1/3
f 114/3/3 107/3/3 113/3/3
f 115/2/3 109/2/3 108/2/3
f 115/1/3 108/1/3 114/1/3
f 116/3/3 110/3/3 109/3/3
f 116/2/3 109/2/3 115/2/3
f 117/2/3 113/2/3 112/2/3
f 117/3/3 112/3/3 111/3/3
f 118/1/3 114/1/3 113/1/3
f 118/2/3 113/2/3 117/2/3
f 119/2/3 115/2/3 114/2/3
f 119/1/3 114/1/3 118/1/3
f 120/3/3 116/3/3 115/3/3
f 120/2/3 115/2/3 119/2/3
f 121/2/3 119/2/3 118/2/3
f 121/3/3 118/3/3 117/3/3
f 122/3/3 120/3/3 119/3/3
f 122/2/3 119/2/3 121/2/3
f 123/3/3 121/3/3 117/3/3
f 123/3/3 122/3/3 121/3/3
f 124/3/3 120/3/3 122/3/3
f 124/3/3 122/3/3 123/3/3
f 125/3/3 123/3/3 117/3/3
f 125/3/3 117/3/3 111/3/3
f 126/2/3 124/2/3 123/2/3
f 126/3/3 123/3/3 125/3/3
f 127/3/3 120/3/3 124/3/3
f 127/2/3 124/2/3 126/2/3
f 128/3/3 116/3/3 120/3/3
f 128/3/3 120/3/3 127/3/3
f 129/3/3 111/3/3 103/3/3
f 129/3/3 125/3/3 111/3/3
f 130/2/3 126/2/3 125/2/3
f 130/3/3 125/3/3 129/3/3
f 131/1/3 127/1/3 126/1/3
f 131/2/3 126/2/3 130/2/3
f 132/2/3 128/2/3 127/2/3
f 132/1/3 127/1/3 131/1/3
f 133/3/3 116/3/3 128/3/3
f 133/2/3 128/2/3 132/2/3
f 134/3/3 110/3/3 116/3/3
f 134/3/3 116/3/3 133/3/3
f 135/3/3 129/3/3 103/3/3
f 136/2/3 130/2/3 129/2/3
f 136/3/3 129/3/3 135/3/3
f 137/1/3 131/1/3 130/1/3
f 137/2/3 130/2/3 136/2/3
f 138/3/3 132/3/3 131/3/3
f 138/1/3 131/1/3 137/1/3
f 139/1/3 133/1/3 132/1/3
f 139/3/3 132/3/3 138/3/3
f 140/2/3 134/2/3 133/2/3
f 140/1/3 133/1/3 139/1/3
f 141/3/3 110/3/3 134/3/3
f 141/2/3 134/2/3 140/2/3
f 142/3/3 110/3/3 141/3/3
f 143/1/3 137/1/3 136/1/3
f 143/2/3 136/2/3 135/2/3
f 144/3/3 138/3/3 137/3/3
f 144/1/3 137/1/3 143/1/3
f 144/3/3 140/3/3 139/3/3
f 144/3/3 139/3/3 138/3/3
f 145/1/3 141/1/3 140/1/3
f 145/3/3 140/3/3 144/3/3
f 146/2/3 142/2/3 141/2/3
f 146/1/3 141/1/3 145/1/3
f 147/2/3 143/2/3 135/2/3
f 148/3/3 144/3/3 143/3/3
f 148/2/3 143/2/3 147/2/3
f 148/3/3 145/3/3 144/3/3
f 148/3/3 146/3/3 145/3/3
f 149/2/3 142/2/3 146/2/3
f 149/3/3 146/3/3 148/3/3
f 150/2/3 142/2/3 149/2/3
f 151/3/3 149/3/3 148/3/3
f 152/3/3 149/3/3 151/3/3
f 153/4/4 154/4/4 155/4/4
f 155/4/4 154/4/4 156/4/4
f 155/3/4 156/3/4 157/3/4
f 157/3/4 156/3/4 158/3/4
f 158/3/4 156/3/4 159/3/4
f 156/4/4 154/4/4 160/4/4
f 159/3/4 156/3/4 160/3/4
f 158/3/4 159/3/4 161/3/4
f 157/2/4 158/2/4 161/2/4
f 161/3/4 159/3/4 162/3/4
f 162/3/4 159/3/4 163/3/4
f 159/2/4 160/2/4 164/2/4
f 163/3/4 159/3/4 164/3/4
f 157/2/4 161/2/4 165/2/4
f 161/1/4 162/1/4 166/1/4
f 165/2/4 161/2/4 166/2/4
f 162/3/4 163/3/4 167/3/4
f 166/1/4 162/1/4 167/1/4
f 167/3/4 163/3/4 168/3/4
f 168/3/4 163/3/4 169/3/4
f 163/1/4 164/1/4 170/1/4
f 169/3/4 163/3/4 170/3/4
f 164/2/4 160/2/4 171/2/4
f 170/1/4 164/1/4 171/1/4
f 160/4/4 154/4/4 172/4/4
f 171/2/4 160/2/4 172/2/4
f 165/3/4 166/3/4 173/3/4
f 166/2/4 167/2/4 173/2/4
f 167/1/4 168/1/4 174/1/4
f 173/2/4 167/2/4 174/2/4
f 168/3/4 169/3/4 175/3/4
f 174/1/4 168/1/4 175/1/4
f 169/1/4 170/1/4 176/1/4
f 175/3/4 169/3/4 176/3/4
f 170/2/4 171/2/4 177/2/4
f 176/1/4 170/1/4 177/1/4
f 171/3/4 172/3/4 178/3/4
f 177/2/4 171/2/4 178/2/4
f 174/2/4 175/2/4 179/2/4
f 173/3/4 174/3/4 179/3/4
f 175/1/4 176/1/4 180/1/4
f 179/2/4 175/2/4 180/2/4
f 176/2/4 177/2/4 181/2/4
f 180/1/4 176/1/4 181/1/4
f 177/3/4 178/3/4 182/3/4
f 181/2/4 177/2/4 182/2/4
f 180/2/4 181/2/4 183/2/4
f 179/3/4 180/3/4 183/3/4
f 181/3/4 182/3/4 184/3/4
f 183/2/4 181/2/4 184/2/4
f 179/3/4 183/3/4 185/3/4
f 183/3/4 184/3/4 185/3/4
f 184/3/4 182/3/4 186/3/4
f 185/3/4 184/3/4 186/3/4
f 173/3/4 179/3/4 187/3/4
f 179/3/4 185/3/4 187/3/4
f 185/2/4 186/2/4 188/2/4
f 187/3/4 185/3/4 188/3/4
f 186/3/4 182/3/4 189/3/4
f 188/2/4 186/2/4 189/2/4
f 182/3/4 178/3/4 190/3/4
f 189/3/4 182/3/4 190/3/4
f 173/3/4 187/3/4 191/3/4
f 165/3/4 173/3/4 191/3/4
f 187/2/4 188/2/4 192/2/4
f 191/3/4 187/3/4 192/3/4
f 188/1/4 189/1/4 193/1/4
f 192/2/4 188/2/4 193/2/4
f 189/2/4 190/2/4 194/2/4
f 193/1/4 189/1/4 194/1/4
f 190/3/4 178/3/4 195/3/4
f 194/2/4 190/2/4 195/2/4
f 178/3/4 172/3/4 196/3/4
f 195/3/4 178/3/4 196/3/4
f 165/3/4 191/3/4 197/3/4
f 191/2/4 192/2/4 198/2/4
f 197/3/4 191/3/4 198/3/4
f 192/1/4 193/1/4 199/1/4
f 198/2/4 192/2/4 199/2/4
f 193/3/4 194/3/4 200/3/4
f 199/1/4 193/1/4 200/1/4
f 194/1/4 195/1/4 201/1/4
f 200/3/4 194/3/4 201/3/4
f 195/2/4 196/2/4 202/2/4
f 201/1/4 195/1/4 202/1/4
f 196/3/4 172/3/4 203/3/4
f 202/2/4 196/2/4 203/2/4
f 172/4/4 154/4/4 204/4/4
f 203/3/4 172/3/4 204/3/4
f 198/1/4 199/1/4 205/1/4
f 197/2/4 198/2/4 205/2/4
f 201/3/4 202/3/4 206/3/4
f 205/1/4 199/1/4 206/1/4
f 199/3/4 200/3/4 206/3/4
f 200/3/4 201/3/4 206/3/4
f 202/1/4 203/1/4 207/1/4
f 206/3/4 202/3/4 207/3/4
f 203/2/4 204/2/4 208/2/4
f 207/1/4 203/1/4 208/1/4
f 197/2/4 205/2/4 209/2/4
f 205/3/4 206/3/4 210/3/4
f 209/2/4 205/2/4 210/2/4
f 206/3/4 207/3/4 210/3/4
f 207/3/4 208/3/4 210/3/4
f 208/2/4 204/2/4 211/2/4
f 210/3/4 208/3/4 211/3/4
f 204/4/4 154/4/4 212/4/4
f 211/2/4 204/2/4 212/2/4
f 209/3/4 210/3/4 213/3/4
f 210/3/4 211/3/4 213/3/4
f 211/3/4 212/3/4 213/3/4
f 212/4/4 154/4/4 214/4/4
f 213/3/4 212/3/4 214/3/4
f 213/4/4 214/4/4 215/4/4
f 214/4/4 154/4/4 216/4/4
f 215/4/4 214/4/4 216/4/4
f 221/4/5 218/4/5 217/4/5
f 224/4/5 220/4/5 219/4/5
f 225/4/5 222/4/5 221/4/5
f 225/4/5 221/4/5 217/4/5
f 226/4/5 222/4/5 225/4/5
f 229/4/5 224/4/5 223/4/5
f 230/4/5 220/4/5 224/4/5
f 230/4/5 224/4/5 229/4/5
f 231/4/5 225/4/5 217/4/5
f 232/3/5 226/3/5 225/3/5
f 232/4/5 225/4/5 231/4/5
f 233/2/5 227/2/5 226/2/5
f 233/3/5 226/3/5 232/3/5
f 234/3/5 228/3/5 227/3/5
f 234/2/5 227/2/5 233/2/5
f 235/2/5 229/2/5 228/2/5
f 235/3/5 228/3/5 234/3/5
f 236/3/5 230/3/5 229/3/5
f 236/2/5 229/2/5 235/2/5
f 237/4/5 220/4/5 230/4/5
f 237/3/5 230/3/5 236/3/5
f 238/4/5 220/4/5 237/4/5
f 243/4/5 240/4/5 239/4/5
f 244/4/5 240/4/5 243/4/5
f 245/4/5 242/4/5 241/4/5
f 246/4/5 242/4/5 245/4/5
f 251/4/5 248/4/5 247/4/5
f 252/4/5 248/4/5 251/4/5
f 255/4/5 250/4/5 249/4/5
f 256/4/5 250/4/5 255/4/5
f 257/4/5 254/4/5 253/4/5
f 258/4/5 254/4/5 257/4/5
f 259/4/5 254/4/5 258/4/5
f 260/4/5 254/4/5 259/4/5
f 261/4/6 262/4/6 265/4/6
f 265/4/6 262/4/6 266/4/6
f 263/4/6 264/4/6 269/4/6
f 269/4/6 264/4/6 270/4/6
f 266/4/6 267/4/6 271/4/6
f 271/4/6 267/4/6 272/4/6
f 268/4/6 269/4/6 273/4/6
f 273/4/6 269/4/6 274/4/6
f 275/4/6 276/4/6 279/4/6
f 277/4/6 278/4/6 280/4/6
f 275/4/6 279/4/6 281/4/6
f 279/4/6 280/4/6 281/4/6
f 280/4/6 278/4/6 282/4/6
f 281/4/6 280/4/6 282/4/6
