# MagicaVoxel @ Ephtracy

# group
o 

# material
mtllib Static Objects-0.mtl
usemtl palette

# normals
vn -1 0 0
vn 1 0 0
vn 0 0 1
vn 0 0 -1
vn 0 -1 0
vn 0 1 0

# texcoords
vt 0.845703 0.5
vt 0.876953 0.5
vt 0.939453 0.5
vt 0.970703 0.5

# verts
v -0.8 0.7 0.8
v -0.8 0.7 -0.8
v -0.8 0.8 0.8
v -0.8 0.8 -0.8
v 0.8 0.7 0.8
v 0.8 0.7 -0.8
v 0.8 0.8 0.8
v 0.8 0.8 -0.8
v -0.8 0.7 0.8
v -0.8 0.8 0.8
v 0.8 0.7 0.8
v 0.8 0.8 0.8
v -0.8 0.7 -0.8
v -0.8 0.8 -0.8
v 0.8 0.7 -0.8
v 0.8 0.8 -0.8
v -0.8 0.7 0.8
v 0.8 0.7 0.8
v -0.7 0.7 0.7
v 0.7 0.7 0.7
v -0.6 0.7 0.6
v -0.4 0.7 0.6
v -0.3 0.7 0.6
v 0.3 0.7 0.6
v 0.4 0.7 0.6
v 0.6 0.7 0.6
v -0.5 0.7 0.5
v -0.4 0.7 0.5
v -0.3 0.7 0.5
v 0.3 0.7 0.5
v 0.4 0.7 0.5
v 0.5 0.7 0.5
v -0.6 0.7 0.4
v -0.5 0.7 0.4
v -0.4 0.7 0.4
v -0.3 0.7 0.4
v 0.3 0.7 0.4
v 0.4 0.7 0.4
v 0.5 0.7 0.4
v 0.6 0.7 0.4
v -0.6 0.7 0.3
v -0.5 0.7 0.3
v -0.4 0.7 0.3
v -0.3 0.7 0.3
v 0.3 0.7 0.3
v 0.4 0.7 0.3
v 0.5 0.7 0.3
v 0.6 0.7 0.3
v -0.2 0.7 0.2
v 0.2 0.7 0.2
v -0.2 0.7 -0.2
v 0.2 0.7 -0.2
v -0.6 0.7 -0.3
v -0.5 0.7 -0.3
v -0.4 0.7 -0.3
v -0.3 0.7 -0.3
v 0.3 0.7 -0.3
v 0.4 0.7 -0.3
v 0.5 0.7 -0.3
v 0.6 0.7 -0.3
v -0.6 0.7 -0.4
v -0.5 0.7 -0.4
v -0.4 0.7 -0.4
v -0.3 0.7 -0.4
v 0.3 0.7 -0.4
v 0.4 0.7 -0.4
v 0.5 0.7 -0.4
v 0.6 0.7 -0.4
v -0.5 0.7 -0.5
v -0.4 0.7 -0.5
v -0.3 0.7 -0.5
v 0.3 0.7 -0.5
v 0.4 0.7 -0.5
v 0.5 0.7 -0.5
v -0.6 0.7 -0.6
v -0.4 0.7 -0.6
v -0.3 0.7 -0.6
v 0.3 0.7 -0.6
v 0.4 0.7 -0.6
v 0.6 0.7 -0.6
v -0.7 0.7 -0.7
v 0.7 0.7 -0.7
v -0.8 0.7 -0.8
v 0.8 0.7 -0.8
v -0.8 0.8 0.8
v 0.8 0.8 0.8
v -0.7 0.8 0.7
v 0.7 0.8 0.7
v -0.6 0.8 0.6
v -0.4 0.8 0.6
v -0.3 0.8 0.6
v 0.3 0.8 0.6
v 0.4 0.8 0.6
v 0.6 0.8 0.6
v -0.5 0.8 0.5
v -0.4 0.8 0.5
v -0.3 0.8 0.5
v 0.3 0.8 0.5
v 0.4 0.8 0.5
v 0.5 0.8 0.5
v -0.6 0.8 0.4
v -0.5 0.8 0.4
v -0.4 0.8 0.4
v -0.3 0.8 0.4
v 0.3 0.8 0.4
v 0.4 0.8 0.4
v 0.5 0.8 0.4
v 0.6 0.8 0.4
v -0.6 0.8 0.3
v -0.5 0.8 0.3
v -0.4 0.8 0.3
v -0.3 0.8 0.3
v 0.3 0.8 0.3
v 0.4 0.8 0.3
v 0.5 0.8 0.3
v 0.6 0.8 0.3
v -0.2 0.8 0.2
v 0.2 0.8 0.2
v -0.2 0.8 -0.2
v 0.2 0.8 -0.2
v -0.6 0.8 -0.3
v -0.5 0.8 -0.3
v -0.4 0.8 -0.3
v -0.3 0.8 -0.3
v 0.3 0.8 -0.3
v 0.4 0.8 -0.3
v 0.5 0.8 -0.3
v 0.6 0.8 -0.3
v -0.6 0.8 -0.4
v -0.5 0.8 -0.4
v -0.4 0.8 -0.4
v -0.3 0.8 -0.4
v 0.3 0.8 -0.4
v 0.4 0.8 -0.4
v 0.5 0.8 -0.4
v 0.6 0.8 -0.4
v -0.5 0.8 -0.5
v -0.4 0.8 -0.5
v -0.3 0.8 -0.5
v 0.3 0.8 -0.5
v 0.4 0.8 -0.5
v 0.5 0.8 -0.5
v -0.6 0.8 -0.6
v -0.4 0.8 -0.6
v -0.3 0.8 -0.6
v 0.3 0.8 -0.6
v 0.4 0.8 -0.6
v 0.6 0.8 -0.6
v -0.7 0.8 -0.7
v 0.7 0.8 -0.7
v -0.8 0.8 -0.8
v 0.8 0.8 -0.8

# faces
f 3/4/1 2/4/1 1/4/1
f 4/4/1 2/4/1 3/4/1
f 5/4/2 6/4/2 7/4/2
f 7/4/2 6/4/2 8/4/2
f 11/4/3 10/4/3 9/4/3
f 12/4/3 10/4/3 11/4/3
f 13/4/4 14/4/4 15/4/4
f 15/4/4 14/4/4 16/4/4
f 19/4/5 18/4/5 17/4/5
f 20/4/5 18/4/5 19/4/5
f 21/2/5 20/2/5 19/2/5
f 22/2/5 20/2/5 21/2/5
f 23/2/5 20/2/5 22/2/5
f 24/2/5 20/2/5 23/2/5
f 25/2/5 20/2/5 24/2/5
f 26/2/5 20/2/5 25/2/5
f 27/1/5 22/1/5 21/1/5
f 28/2/5 23/2/5 22/2/5
f 28/1/5 22/1/5 27/1/5
f 29/1/5 24/1/5 23/1/5
f 29/2/5 23/2/5 28/2/5
f 30/2/5 25/2/5 24/2/5
f 30/1/5 24/1/5 29/1/5
f 31/1/5 26/1/5 25/1/5
f 31/2/5 25/2/5 30/2/5
f 32/1/5 26/1/5 31/1/5
f 33/2/5 21/2/5 19/2/5
f 33/1/5 27/1/5 21/1/5
f 34/3/5 28/3/5 27/3/5
f 34/1/5 27/1/5 33/1/5
f 35/2/5 29/2/5 28/2/5
f 35/3/5 28/3/5 34/3/5
f 36/3/5 30/3/5 29/3/5
f 36/2/5 29/2/5 35/2/5
f 37/2/5 31/2/5 30/2/5
f 37/3/5 30/3/5 36/3/5
f 38/3/5 32/3/5 31/3/5
f 38/2/5 31/2/5 37/2/5
f 39/1/5 26/1/5 32/1/5
f 39/3/5 32/3/5 38/3/5
f 40/2/5 20/2/5 26/2/5
f 40/1/5 26/1/5 39/1/5
f 41/2/5 38/2/5 37/2/5
f 41/2/5 39/2/5 38/2/5
f 41/2/5 40/2/5 39/2/5
f 41/2/5 36/2/5 35/2/5
f 41/2/5 35/2/5 34/2/5
f 41/2/5 34/2/5 33/2/5
f 41/2/5 33/2/5 19/2/5
f 41/2/5 37/2/5 36/2/5
f 42/2/5 40/2/5 41/2/5
f 43/2/5 40/2/5 42/2/5
f 44/2/5 40/2/5 43/2/5
f 45/2/5 40/2/5 44/2/5
f 46/2/5 40/2/5 45/2/5
f 47/2/5 40/2/5 46/2/5
f 48/2/5 20/2/5 40/2/5
f 48/2/5 40/2/5 47/2/5
f 49/1/5 45/1/5 44/1/5
f 50/1/5 45/1/5 49/1/5
f 51/1/5 49/1/5 44/1/5
f 51/3/5 50/3/5 49/3/5
f 52/1/5 45/1/5 50/1/5
f 52/3/5 50/3/5 51/3/5
f 53/2/5 41/2/5 19/2/5
f 53/1/5 42/1/5 41/1/5
f 54/3/5 43/3/5 42/3/5
f 54/1/5 42/1/5 53/1/5
f 55/2/5 44/2/5 43/2/5
f 55/3/5 43/3/5 54/3/5
f 56/1/5 52/1/5 51/1/5
f 56/2/5 44/2/5 55/2/5
f 56/1/5 51/1/5 44/1/5
f 57/1/5 45/1/5 52/1/5
f 57/1/5 52/1/5 56/1/5
f 57/2/5 46/2/5 45/2/5
f 58/3/5 47/3/5 46/3/5
f 58/2/5 46/2/5 57/2/5
f 59/1/5 48/1/5 47/1/5
f 59/3/5 47/3/5 58/3/5
f 60/2/5 20/2/5 48/2/5
f 60/1/5 48/1/5 59/1/5
f 61/2/5 57/2/5 56/2/5
f 61/2/5 56/2/5 55/2/5
f 61/2/5 60/2/5 59/2/5
f 61/2/5 58/2/5 57/2/5
f 61/2/5 59/2/5 58/2/5
f 61/2/5 54/2/5 53/2/5
f 61/2/5 53/2/5 19/2/5
f 61/2/5 55/2/5 54/2/5
f 62/2/5 60/2/5 61/2/5
f 63/2/5 60/2/5 62/2/5
f 64/2/5 60/2/5 63/2/5
f 65/2/5 60/2/5 64/2/5
f 66/2/5 60/2/5 65/2/5
f 67/2/5 60/2/5 66/2/5
f 68/2/5 20/2/5 60/2/5
f 68/2/5 60/2/5 67/2/5
f 69/1/5 62/1/5 61/1/5
f 69/3/5 63/3/5 62/3/5
f 70/2/5 64/2/5 63/2/5
f 70/3/5 63/3/5 69/3/5
f 71/3/5 65/3/5 64/3/5
f 71/2/5 64/2/5 70/2/5
f 72/2/5 66/2/5 65/2/5
f 72/3/5 65/3/5 71/3/5
f 73/3/5 67/3/5 66/3/5
f 73/2/5 66/2/5 72/2/5
f 74/1/5 68/1/5 67/1/5
f 74/3/5 67/3/5 73/3/5
f 75/2/5 61/2/5 19/2/5
f 75/1/5 69/1/5 61/1/5
f 75/1/5 70/1/5 69/1/5
f 76/2/5 71/2/5 70/2/5
f 76/1/5 70/1/5 75/1/5
f 77/1/5 72/1/5 71/1/5
f 77/2/5 71/2/5 76/2/5
f 78/2/5 73/2/5 72/2/5
f 78/1/5 72/1/5 77/1/5
f 79/1/5 74/1/5 73/1/5
f 79/2/5 73/2/5 78/2/5
f 80/1/5 68/1/5 74/1/5
f 80/1/5 74/1/5 79/1/5
f 80/2/5 20/2/5 68/2/5
f 81/4/5 19/4/5 17/4/5
f 81/2/5 76/2/5 75/2/5
f 81/2/5 80/2/5 79/2/5
f 81/2/5 78/2/5 77/2/5
f 81/2/5 77/2/5 76/2/5
f 81/2/5 75/2/5 19/2/5
f 81/2/5 79/2/5 78/2/5
f 82/2/5 20/2/5 80/2/5
f 82/2/5 80/2/5 81/2/5
f 82/4/5 18/4/5 20/4/5
f 83/4/5 81/4/5 17/4/5
f 83/4/5 82/4/5 81/4/5
f 84/4/5 18/4/5 82/4/5
f 84/4/5 82/4/5 83/4/5
f 85/4/6 86/4/6 87/4/6
f 87/4/6 86/4/6 88/4/6
f 87/2/6 88/2/6 89/2/6
f 89/2/6 88/2/6 90/2/6
f 90/2/6 88/2/6 91/2/6
f 91/2/6 88/2/6 92/2/6
f 92/2/6 88/2/6 93/2/6
f 93/2/6 88/2/6 94/2/6
f 89/1/6 90/1/6 95/1/6
f 90/2/6 91/2/6 96/2/6
f 95/1/6 90/1/6 96/1/6
f 91/1/6 92/1/6 97/1/6
f 96/2/6 91/2/6 97/2/6
f 92/2/6 93/2/6 98/2/6
f 97/1/6 92/1/6 98/1/6
f 93/1/6 94/1/6 99/1/6
f 98/2/6 93/2/6 99/2/6
f 99/1/6 94/1/6 100/1/6
f 87/2/6 89/2/6 101/2/6
f 89/1/6 95/1/6 101/1/6
f 95/3/6 96/3/6 102/3/6
f 101/1/6 95/1/6 102/1/6
f 96/2/6 97/2/6 103/2/6
f 102/3/6 96/3/6 103/3/6
f 97/3/6 98/3/6 104/3/6
f 103/2/6 97/2/6 104/2/6
f 98/2/6 99/2/6 105/2/6
f 104/3/6 98/3/6 105/3/6
f 99/3/6 100/3/6 106/3/6
f 105/2/6 99/2/6 106/2/6
f 100/1/6 94/1/6 107/1/6
f 106/3/6 100/3/6 107/3/6
f 94/2/6 88/2/6 108/2/6
f 107/1/6 94/1/6 108/1/6
f 105/2/6 106/2/6 109/2/6
f 106/2/6 107/2/6 109/2/6
f 107/2/6 108/2/6 109/2/6
f 103/2/6 104/2/6 109/2/6
f 102/2/6 103/2/6 109/2/6
f 101/2/6 102/2/6 109/2/6
f 87/2/6 101/2/6 109/2/6
f 104/2/6 105/2/6 109/2/6
f 109/2/6 108/2/6 110/2/6
f 110/2/6 108/2/6 111/2/6
f 111/2/6 108/2/6 112/2/6
f 112/2/6 108/2/6 113/2/6
f 113/2/6 108/2/6 114/2/6
f 114/2/6 108/2/6 115/2/6
f 108/2/6 88/2/6 116/2/6
f 115/2/6 108/2/6 116/2/6
f 112/1/6 113/1/6 117/1/6
f 117/1/6 113/1/6 118/1/6
f 112/1/6 117/1/6 119/1/6
f 117/3/6 118/3/6 119/3/6
f 118/1/6 113/1/6 120/1/6
f 119/3/6 118/3/6 120/3/6
f 87/2/6 109/2/6 121/2/6
f 109/1/6 110/1/6 121/1/6
f 110/3/6 111/3/6 122/3/6
f 121/1/6 110/1/6 122/1/6
f 111/2/6 112/2/6 123/2/6
f 122/3/6 111/3/6 123/3/6
f 119/1/6 120/1/6 124/1/6
f 123/2/6 112/2/6 124/2/6
f 112/1/6 119/1/6 124/1/6
f 120/1/6 113/1/6 125/1/6
f 124/1/6 120/1/6 125/1/6
f 113/2/6 114/2/6 125/2/6
f 114/3/6 115/3/6 126/3/6
f 125/2/6 114/2/6 126/2/6
f 115/1/6 116/1/6 127/1/6
f 126/3/6 115/3/6 127/3/6
f 116/2/6 88/2/6 128/2/6
f 127/1/6 116/1/6 128/1/6
f 124/2/6 125/2/6 129/2/6
f 123/2/6 124/2/6 129/2/6
f 127/2/6 128/2/6 129/2/6
f 125/2/6 126/2/6 129/2/6
f 126/2/6 127/2/6 129/2/6
f 121/2/6 122/2/6 129/2/6
f 87/2/6 121/2/6 129/2/6
f 122/2/6 123/2/6 129/2/6
f 129/2/6 128/2/6 130/2/6
f 130/2/6 128/2/6 131/2/6
f 131/2/6 128/2/6 132/2/6
f 132/2/6 128/2/6 133/2/6
f 133/2/6 128/2/6 134/2/6
f 134/2/6 128/2/6 135/2/6
f 128/2/6 88/2/6 136/2/6
f 135/2/6 128/2/6 136/2/6
f 129/1/6 130/1/6 137/1/6
f 130/3/6 131/3/6 137/3/6
f 131/2/6 132/2/6 138/2/6
f 137/3/6 131/3/6 138/3/6
f 132/3/6 133/3/6 139/3/6
f 138/2/6 132/2/6 139/2/6
f 133/2/6 134/2/6 140/2/6
f 139/3/6 133/3/6 140/3/6
f 134/3/6 135/3/6 141/3/6
f 140/2/6 134/2/6 141/2/6
f 135/1/6 136/1/6 142/1/6
f 141/3/6 135/3/6 142/3/6
f 87/2/6 129/2/6 143/2/6
f 129/1/6 137/1/6 143/1/6
f 137/1/6 138/1/6 143/1/6
f 138/2/6 139/2/6 144/2/6
f 143/1/6 138/1/6 144/1/6
f 139/1/6 140/1/6 145/1/6
f 144/2/6 139/2/6 145/2/6
f 140/2/6 141/2/6 146/2/6
f 145/1/6 140/1/6 146/1/6
f 141/1/6 142/1/6 147/1/6
f 146/2/6 141/2/6 147/2/6
f 142/1/6 136/1/6 148/1/6
f 147/1/6 142/1/6 148/1/6
f 136/2/6 88/2/6 148/2/6
f 85/4/6 87/4/6 149/4/6
f 143/2/6 144/2/6 149/2/6
f 147/2/6 148/2/6 149/2/6
f 145/2/6 146/2/6 149/2/6
f 144/2/6 145/2/6 149/2/6
f 87/2/6 143/2/6 149/2/6
f 146/2/6 147/2/6 149/2/6
f 148/2/6 88/2/6 150/2/6
f 149/2/6 148/2/6 150/2/6
f 88/4/6 86/4/6 150/4/6
f 85/4/6 149/4/6 151/4/6
f 149/4/6 150/4/6 151/4/6
f 150/4/6 86/4/6 152/4/6
f 151/4/6 150/4/6 152/4/6
